<?xml version="1.0" standalone="no"?>
<!DOCTYPE svg PUBLIC "-//W3C//DTD SVG 1.1//EN" "http://www.w3.org/Graphics/SVG/1.1/DTD/svg11.dtd" >
<svg>
<metadata>
Created by FontForge 130127 at Sun Jan 27 20:31:57 2013
 By Ralf S. Engelschall
Copyright (c) 2003 by Bitstream, Inc. All Rights Reserved.
DejaVu changes are in public domain

</metadata>
<defs>
<font id="DejaVuSansMono-Oblique" horiz-adv-x="1233" >
  <font-face 
    font-family="DejaVu Sans Mono"
    font-weight="400"
    font-style="oblique"
    font-stretch="normal"
    units-per-em="2048"
    panose-1="2 11 6 9 3 3 4 11 2 4"
    ascent="1556"
    descent="-492"
    x-height="1120"
    cap-height="1493"
    bbox="-145 -483 1376 1901"
    underline-thickness="90"
    underline-position="-85"
    slope="-11"
    unicode-range="U+0020-00FF"
  />
<missing-glyph 
d="M104 -362v1806h1024v-1806h-1024zM219 -248h795v1577h-795v-1577z" />
    <glyph glyph-name=".notdef" 
d="M104 -362v1806h1024v-1806h-1024zM219 -248h795v1577h-795v-1577z" />
    <glyph glyph-name=".notdef" 
d="M104 -362v1806h1024v-1806h-1024zM219 -248h795v1577h-795v-1577z" />
    <glyph glyph-name="space" unicode=" " 
 />
    <glyph glyph-name="exclam" unicode="!" 
d="M662 1493h202l-129 -655l-88 -357h-162l50 357zM420 254h203l-50 -254h-202z" />
    <glyph glyph-name="quotedbl" unicode="&#x22;" 
d="M895 1493v-555h-174v555h174zM512 1493v-555h-174v555h174z" />
    <glyph glyph-name="numbersign" unicode="#" 
d="M778 901h-246l-83 -334h245zM676 1470l-105 -415h246l105 415h159l-104 -415h256l-39 -154h-256l-84 -334h258l-39 -153h-258l-104 -414h-160l104 414h-245l-105 -414h-160l105 414h-256l39 153h256l84 334h-258l39 154h258l104 415h160z" />
    <glyph glyph-name="dollar" unicode="$" 
d="M629 588l-86 -442.999c86 0 155.5 24.167 208.5 72.5s79.5 111.166 79.5 188.499c0 52 -15.667 92.167 -47 120.5s-83 48.833 -155 61.5zM563 774.001l79.999 410c-79.333 -5.33301 -144.166 -30.833 -194.499 -76.5s-75.5 -101.5 -75.5 -167.5c0 -46 14 -81.333 42 -106
s77.333 -44.667 148 -60zM454.999 -300.999h-101.001l59 301c-63.333 2 -127 10.667 -191 26s-127.667 37.333 -191 66l35 180c54 -40 112.5 -71 175.5 -93s129.167 -34.667 198.5 -38l90 465c-117.333 23.333 -202.5 59.166 -255.5 107.499s-79.5 114.166 -79.5 197.499
c0 115.333 44.167 211.333 132.5 288s202.166 117.334 341.499 122.001l48 235h100l-47 -235c56.667 -4 111 -11.167 163 -21.5s102 -23.5 150 -39.5l-32 -173c-43.333 26.667 -90.666 47.834 -141.999 63.501s-106.666 26.167 -165.999 31.5l-81 -426
c116 -22.667 203.667 -61.667 263 -117s89 -126.333 89 -213c0 -122.667 -45.667 -224 -137 -304s-209 -120 -353 -120h-10z" />
    <glyph glyph-name="percent" unicode="%" 
d="M696 319c0 -52 17.5 -95.667 52.5 -131s78.5 -53 130.5 -53c51.333 0 94.833 17.833 130.5 53.5s53.5 79.167 53.5 130.5s-18 95 -54 131s-79.333 54 -130 54c-52 0 -95.5 -17.667 -130.5 -53s-52.5 -79.333 -52.5 -132zM561 319c0 90 30.668 165.833 92.001 227.5
s136.666 92.5 225.999 92.5c42.667 0 83.167 -8 121.5 -24s72.833 -39.333 103.5 -70c30.667 -31.333 54.334 -66.333 71.001 -105s25 -79 25 -121c0 -88.667 -31 -164 -93 -226s-138 -93 -228 -93c-90.667 0 -166.334 30.5 -227.001 91.5s-91 136.833 -91 227.5z
M121.001 465l-35 96l1042 418l41 -96zM168.001 1112c0 -52.667 17.5 -96.5 52.5 -131.5s78.833 -52.5 131.5 -52.5c51.333 0 95 17.833 131 53.5s54 79.167 54 130.5s-18 94.833 -54 130.5s-79.667 53.5 -131 53.5s-94.833 -17.667 -130.5 -53s-53.5 -79 -53.5 -131z
M33.001 1112c0 90 30.667 165.833 92 227.5s137 92.5 227 92.5c42.667 0 83.5 -8 122.5 -24s73.5 -39 103.5 -69s53.167 -64.5 69.5 -103.5s24.5 -80.167 24.5 -123.5c0 -89.333 -31 -164.833 -93 -226.5s-137.667 -92.5 -227 -92.5c-90 0 -165.667 30.667 -227 92
s-92 137 -92 227z" />
    <glyph glyph-name="ampersand" unicode="&#x26;" 
d="M567 907l307.002 -557c41.333 44 74.333 100.167 99 168.5s41 148.833 49 241.5h168c-11.333 -112 -37.333 -212.833 -78 -302.5s-96.667 -168.5 -168 -236.5l123 -221h-199l-59 113c-63.333 -47.333 -128.333 -82.833 -195 -106.5s-134.667 -35.5 -204 -35.5
c-130 0 -234.167 35.667 -312.5 107s-117.5 165.333 -117.5 282c0 112 33.167 216.167 99.5 312.5s162.166 178.833 287.499 247.5c-19.333 34.667 -33.833 70 -43.5 106s-14.5 72.333 -14.5 109c0 116 41 209.167 123 279.5s192 105.5 330 105.5
c43.333 0 85.666 -4 126.999 -12s81 -19.667 119 -35l-35 -183c-28 25.333 -62.333 44.333 -103 57s-86.334 19 -137.001 19c-75.333 0 -135.833 -19.167 -181.5 -57.5s-68.5 -88.833 -68.5 -151.5c0 -31.333 7.33301 -68.833 22 -112.5s35.334 -89.5 62.001 -137.5z
M432.002 795c-90 -48.667 -158.167 -105.834 -204.5 -171.501s-69.5 -137.5 -69.5 -215.5c0 -79.333 28.667 -145.666 86 -198.999s129 -80 215 -80c43.333 0 89.333 9.5 138 28.5s96.667 46.5 144 82.5z" />
    <glyph glyph-name="quotesingle" unicode="'" 
d="M702 1493v-555h-174v555h174z" />
    <glyph glyph-name="parenleft" unicode="(" 
d="M1042 1554c-157.333 -200.667 -275.832 -402.835 -355.499 -606.502s-119.5 -406.167 -119.5 -607.5c0 -97.333 9.83301 -196.333 29.5 -297s49.5 -205 89.5 -313h-160c-52.667 126 -91.334 241.333 -116.001 346s-37 204.334 -37 299.001c0 202 43 402.833 129 602.5
s213 391.834 381 576.501h159z" />
    <glyph glyph-name="parenright" unicode=")" 
d="M150 -270c157.333 200 275.833 401.834 355.5 605.501s119.5 406.5 119.5 608.5c0 97.333 -9.83301 196.333 -29.5 297s-49.5 205 -89.5 313h160c52 -125.333 90.5 -240.5 115.5 -345.5s37.5 -204.833 37.5 -299.5c0 -202 -43 -402.833 -129 -602.5
s-213 -391.834 -381 -576.501h-159z" />
    <glyph glyph-name="asterisk" unicode="*" 
d="M1067 1247l-358 -194l358 -195l-57 -98l-336 203v-377h-115v377l-336 -203l-57 98l358 195l-358 194l57 99l336 -203v377h115v-377l336 203z" />
    <glyph glyph-name="plus" unicode="+" 
d="M700 1171v-444h445v-170h-445v-444h-168v444h-444v170h444v444h168z" />
    <glyph glyph-name="comma" unicode="," 
d="M416 303h252l-41 -207l-271 -383h-153l172 383z" />
    <glyph glyph-name="hyphen" unicode="-" 
d="M336 643h522l-33 -164h-522z" />
    <glyph glyph-name="period" unicode="." 
d="M414 303h252l-60 -303h-252z" />
    <glyph glyph-name="slash" unicode="/" 
d="M16 -190l852 1683h191l-854 -1683h-189z" />
    <glyph glyph-name="zero" unicode="0" 
d="M481 750c0 36.667 13.333 68.334 40 95.001s58.334 40 95.001 40s68.167 -13.333 94.5 -40s39.5 -58.334 39.5 -95.001c0 -37.333 -13 -69 -39 -95s-57.667 -39 -95 -39c-36.667 0 -68.334 13.167 -95.001 39.5s-40 57.833 -40 94.5zM1135 1020
c0 -127.333 -19.168 -264.833 -57.501 -412.5s-85.5 -267.5 -141.5 -359.5c-56 -94 -121.167 -163.667 -195.5 -209s-160.833 -68 -259.5 -68c-130 0 -226.333 41 -289 123s-94 208.333 -94 379c0 128 19 265.167 57 411.5s85.333 266.5 142 360.5
s121.834 163.333 195.501 208s159.5 67 257.5 67c130 0 226.667 -41 290 -123s95 -207.667 95 -377zM505.999 135c53.333 0 102.835 17.167 148.502 51.5s84.167 83.5 115.5 147.5c46 93.333 84.5 208.833 115.5 346.5s46.5 265.167 46.5 382.5
c0 102.667 -16.333 177.167 -49 223.5s-84.667 69.5 -156 69.5c-53.333 0 -103 -17 -149 -51s-85 -82.667 -117 -146c-46.667 -92.667 -85.334 -208.5 -116.001 -347.5s-46 -271.5 -46 -397.5c0 -94 17.167 -164 51.5 -210s86.166 -69 155.499 -69z" />
    <glyph glyph-name="one" unicode="1" 
d="M156 170h313l221 1141l-352 -76l35 184l352 74h203l-258 -1323h309l-33 -170h-823z" />
    <glyph glyph-name="two" unicode="2" 
d="M268 170l683.999 -0.000976562l-32 -170h-914l33 170l311 274l39 35c358 314 537 538.667 537 674c0 62 -21.333 110.667 -64 146s-102 53 -178 53c-61.333 0 -127.333 -11.167 -198 -33.5s-148 -56.166 -232 -101.499l41 204
c74.667 32.667 146.834 57.334 216.501 74.001s136.834 25 201.501 25c123.333 0 223 -32.333 299 -97s114 -148.667 114 -252c0 -64 -11.833 -124.833 -35.5 -182.5s-62.834 -120.834 -117.501 -189.501c-22 -28 -61.667 -68.333 -119 -121s-146 -130.667 -266 -234z" />
    <glyph glyph-name="three" unicode="3" 
d="M762 799c76 -13.333 135.336 -47.332 178.003 -101.999s64 -124 64 -208c0 -156 -55.833 -281.333 -167.5 -376s-260.834 -142 -447.501 -142c-72 0 -142.167 6.16699 -210.5 18.5s-133.833 30.833 -196.5 55.5l38 201c60.667 -34.667 122.667 -60.834 186 -78.501
s127.666 -26.5 192.999 -26.5c121.333 0 219.333 31.167 294 93.5s112 143.166 112 242.499c0 78 -23.833 137.167 -71.5 177.5s-117.5 60.5 -209.5 60.5h-153l32 166h154c105.333 0 189 25 251 75s93 116.333 93 199c0 66.667 -20.5 115.834 -61.5 147.501
s-104.5 47.5 -190.5 47.5c-54.667 0 -114.334 -6.66699 -179.001 -20s-134.667 -33.333 -210 -60l37 186c82 22 155.333 38.167 220 48.5s125 15.5 181 15.5c125.333 0 224 -29.333 296 -88s108 -138.667 108 -240c0 -102 -29.833 -187.5 -89.5 -256.5
s-143.167 -114.5 -250.5 -136.5z" />
    <glyph glyph-name="four" unicode="4" 
d="M842 1282l-625 -762h473zM846 1493h233l-190 -973h198l-30 -164h-199l-70 -356h-198l69 356h-634l36 191z" />
    <glyph glyph-name="five" unicode="5" 
d="M352 1493l756.001 -0.000976562l-33 -170h-571l-72 -367c31.333 10.667 61.833 18.5 91.5 23.5s59.167 7.5 88.5 7.5c125.333 0 226.333 -37.833 303 -113.5s115 -175.167 115 -298.5c0 -82.667 -17.5 -163 -52.5 -241s-84.5 -145.667 -148.5 -203
c-58.667 -53.333 -125.834 -93.333 -201.501 -120s-161.167 -40 -256.5 -40c-72 0 -139.167 5.5 -201.5 16.5s-117.5 26.833 -165.5 47.5l41 205c56 -34 113.333 -59.333 172 -76s119.334 -25 182.001 -25c124 0 226.667 39 308 117s122 175 122 291
c0 85.333 -26.833 152.333 -80.5 201s-127.834 73 -222.501 73c-52.667 0 -106.5 -6.66699 -161.5 -20s-107.5 -32.666 -157.5 -57.999z" />
    <glyph glyph-name="six" unicode="6" 
d="M860 594c0 75.333 -19.333 133.335 -58 174.002s-93.667 61 -165 61c-97.333 0 -179 -42 -245 -126s-99 -189.333 -99 -316c0 -80.667 20.333 -143.834 61 -189.501s96.667 -68.5 168 -68.5c96 0 176.333 44.667 241 134s97 199.666 97 330.999zM1128 1460
l-35.9971 -186.001c-38.667 24.667 -80.667 43.5 -126 56.5s-93 19.5 -143 19.5c-128.667 0 -234.834 -47.833 -318.501 -143.5s-143.834 -237.834 -180.501 -426.501c45.333 68 99.166 119.5 161.499 154.5s131.166 52.5 206.499 52.5
c118.667 0 210.167 -33.167 274.5 -99.5s96.5 -160.833 96.5 -283.5c0 -79.333 -13.333 -158.666 -40 -237.999s-62.667 -146.666 -108 -201.999c-52 -64.667 -111.167 -113 -177.5 -145s-140.166 -48 -221.499 -48c-135.333 0 -239.833 39 -313.5 117
s-110.5 188.667 -110.5 332c0 110.667 13 225.667 39 345s61.667 227.666 107 324.999c65.333 143.333 148.833 250.833 250.5 322.5s221.5 107.5 359.5 107.5c50 0 98.667 -5.16699 146 -15.5s92 -25.166 134 -44.499z" />
    <glyph glyph-name="seven" unicode="7" 
d="M276 1493h936l-16 -94l-805 -1399h-217l778 1323h-708z" />
    <glyph glyph-name="eight" unicode="8" 
d="M821 461c0 77.333 -22.001 138.001 -66.001 182.001s-105.333 66 -184 66c-94.667 0 -172.5 -32.833 -233.5 -98.5s-91.5 -149.834 -91.5 -252.501c0 -70 22.333 -126 67 -168s104.334 -63 179.001 -63c98.667 0 178.167 30.667 238.5 92s90.5 142 90.5 242z
M429.999 793.001c-71.333 25.333 -125 62.165 -161 110.498s-54 107.5 -54 177.5c0 121.333 49.333 224.833 148 310.5s219.334 128.5 362.001 128.5c118.667 0 215.167 -30.333 289.5 -91s111.5 -139 111.5 -235s-32.333 -181.833 -97 -257.5
s-150.334 -127.167 -257.001 -154.5c84 -20 147.333 -57.667 190 -113s64 -127.333 64 -216c0 -139.333 -50.667 -254.5 -152 -345.5s-231 -136.5 -389 -136.5c-138 0 -246.5 34 -325.5 102s-118.5 161.667 -118.5 281c0 110.667 34.833 205.334 104.5 284.001
s164.5 130.334 284.5 155.001zM706.999 1364c-84.667 0 -154.333 -26.832 -209 -80.499s-82 -121.834 -82 -204.501c0 -66 19.5 -118 58.5 -156s92.5 -57 160.5 -57c82 0 151 29 207 87s84 128.667 84 212c0 60.667 -20 109 -60 145s-93 54 -159 54z" />
    <glyph glyph-name="nine" unicode="9" 
d="M330 897c0 -75.333 19.333 -133.333 58 -174s93.667 -61 165 -61c97.333 0 179 42 245 126s99 189.333 99 316c0 81.333 -20 144.666 -60 189.999s-95.667 68 -167 68c-96 0 -176.667 -44.667 -242 -134s-98 -199.666 -98 -330.999zM63 31l34.9971 185.998
c38.667 -24.667 80.667 -43.5 126 -56.5s93 -19.5 143 -19.5c128.667 0 234.834 47.833 318.501 143.5s143.834 237.834 180.501 426.501c-45.333 -68 -99.166 -119.5 -161.499 -154.5s-131.166 -52.5 -206.499 -52.5c-118.667 0 -210.167 33.333 -274.5 100
s-96.5 161.667 -96.5 285c0 78.667 13.333 157.5 40 236.5s62.334 146.167 107.001 201.5c52 64 111.333 112.167 178 144.5s140.667 48.5 222 48.5c135.333 0 240.166 -39.167 314.499 -117.5s111.5 -188.833 111.5 -331.5c0 -110.667 -13 -225.667 -39 -345
s-61.667 -227.666 -107 -324.999c-65.333 -142.667 -149 -250 -251 -322s-222.333 -108 -361 -108c-50 0 -98.333 5 -145 15s-91.334 25 -134.001 45z" />
    <glyph glyph-name="colon" unicode=":" 
d="M551 1061h252l-60 -303h-251zM403 303h252l-59 -303h-252z" />
    <glyph glyph-name="semicolon" unicode=";" 
d="M403 303h252l-41 -207l-258 -383h-153l159 383zM551 1063h252l-60 -303h-251z" />
    <glyph glyph-name="less" unicode="&#x3c;" 
d="M1145 961l-850 -320l850 -317v-183l-1057 418v166l1057 418v-182z" />
    <glyph glyph-name="equal" unicode="=" 
d="M88 524h1057v-172h-1057v172zM88 930h1057v-170h-1057v170z" />
    <glyph glyph-name="greater" unicode="&#x3e;" 
d="M88 961v182l1057 -418v-166l-1057 -418v183l850 317z" />
    <glyph glyph-name="question" unicode="?" 
d="M608 401l-190 0.00195312l28 154c12.667 60.667 31.834 112.667 57.501 156s76.167 96.333 151.5 159l107 91c56.667 48 96.834 90.5 120.501 127.5s35.5 74.167 35.5 111.5c0 49.333 -18.667 87.666 -56 114.999s-89 41 -155 41
c-52.667 0 -111.834 -11.833 -177.501 -35.5s-133.5 -57.5 -203.5 -101.5l36 188c72.667 38 142.667 66.333 210 85s134.666 28 201.999 28c102 0 185.167 -27.167 249.5 -81.5s96.5 -123.5 96.5 -207.5c0 -62.667 -16.167 -120.834 -48.5 -174.501
s-91.833 -116.5 -178.5 -188.5l-105 -86c-56 -46.667 -94 -87 -114 -121s-35 -79.667 -45 -137zM383 254.002h203l-49 -254h-205z" />
    <glyph glyph-name="at" unicode="@" 
d="M709 260c83.333 0 154.001 35.1689 212.001 105.502s87 156.166 87 257.499c0 64 -16.833 114.333 -50.5 151s-79.834 55 -138.501 55c-82 0 -151.667 -34.833 -209 -104.5s-86 -154.834 -86 -255.501c0 -64.667 16.5 -115.667 49.5 -153s78.167 -56 135.5 -56z
M1059 135.002l-144.001 0.00488281l21 111c-34 -42 -74.667 -74.333 -122 -97s-98 -34 -152 -34c-87.333 0 -158.666 30.667 -213.999 92s-83 140.333 -83 237c0 146.667 44 272.167 132 376.5s192.667 156.5 314 156.5c56 0 105.5 -12 148.5 -36s74.167 -56.333 93.5 -97
l8 43c4 23.333 7 43.666 9 60.999s3 31 3 41c0 84 -24.333 149.333 -73 196s-116.334 70 -203.001 70c-94.667 0 -185.834 -26 -273.501 -78s-163.167 -125.667 -226.5 -221c-56 -83.333 -98.667 -174.833 -128 -274.5s-44 -201.834 -44 -306.501
c0 -171.333 43 -306 129 -404s204 -147 354 -147c38 0 77 4.16699 117 12.5s82.333 21.166 127 38.499l45 -131c-44 -20.667 -89.667 -36 -137 -46s-98.666 -15 -153.999 -15c-192 0 -345.833 63.167 -461.5 189.5s-173.5 295.166 -173.5 506.499
c0 134 23.833 267.5 71.5 400.5s112.834 247.833 195.501 344.5c73.333 87.333 159 154.666 257 201.999s200 71 306 71c126 0 226.333 -34.833 301 -104.5s112 -163.167 112 -280.5c0 -20 -1.5 -42.833 -4.5 -68.5s-7.5 -54.167 -13.5 -85.5z" />
    <glyph glyph-name="A" unicode="A" 
d="M735 1325l-364 -774h430zM639 1493h246l166 -1493h-201l-35 389h-520l-184 -389h-217z" />
    <glyph glyph-name="B" unicode="B" 
d="M365 713l-107.001 -547h248c122.667 0 216.5 29 281.5 87s97.5 141.667 97.5 251c0 71.333 -22.667 124 -68 158s-115.666 51 -210.999 51h-241zM482.999 1327l-88.001 -450h244c100.667 0 179.834 24.167 237.501 72.5s86.5 114.833 86.5 199.5
c0 62.667 -18.5 108 -55.5 136s-97.167 42 -180.5 42h-244zM312.998 1493l443.002 0.000976562c135.333 0 237.666 -26.5 306.999 -79.5s104 -130.833 104 -233.5s-30.667 -188.5 -92 -257.5s-144 -110.167 -248 -123.5c83.333 -15.333 147.166 -49.333 191.499 -102
s66.5 -120.334 66.5 -203.001c0 -156 -53.167 -277.333 -159.5 -364s-256.5 -130 -450.5 -130h-452z" />
    <glyph glyph-name="C" unicode="C" 
d="M944 53c-56 -27.333 -112.503 -47.834 -169.503 -61.501s-115.833 -20.5 -176.5 -20.5c-153.333 0 -272.166 44.333 -356.499 133s-126.5 213 -126.5 373c0 146.667 23.333 292 70 436s108 261.667 184 353c71.333 86.667 150 150.667 236 192s184 62 294 62
c53.333 0 106.333 -7 159 -21s104 -34.333 154 -61l-41 -207c-42.667 42 -87.667 73.333 -135 94s-97.666 31 -150.999 31c-63.333 0 -122 -13.5 -176 -40.5s-104.667 -68.167 -152 -123.5c-69.333 -82 -125.166 -187 -167.499 -315s-63.5 -256.333 -63.5 -385
c0 -115.333 26 -203.666 78 -264.999s127 -92 225 -92c56.667 0 115.167 10.667 175.5 32s119.833 52.333 178.5 93z" />
    <glyph glyph-name="D" unicode="D" 
d="M324 166c123.333 0 222.334 20.833 297.001 62.5s134.667 109.5 180 203.5c36 76.667 65.5 168.167 88.5 274.5s34.5 203.833 34.5 292.5c0 117.333 -27.333 201.333 -82 252s-146.334 76 -275.001 76h-114l-226 -1161h97zM586.001 1493
c182 0 318.168 -41.333 408.501 -124s135.5 -208 135.5 -376c0 -108 -14 -219.333 -42 -334s-65.667 -216.334 -113 -305.001c-69.333 -127.333 -155.833 -218.166 -259.5 -272.499s-243.834 -81.5 -420.501 -81.5h-303l291 1493h303z" />
    <glyph glyph-name="E" unicode="E" 
d="M344 1493h885l-33 -170h-684l-86 -442h653l-32 -170h-654l-104 -541h702l-33 -170h-905z" />
    <glyph glyph-name="F" unicode="F" 
d="M383 1493h879l-33 -170h-676l-86 -440h612l-32 -170h-613l-139 -713h-203z" />
    <glyph glyph-name="G" unicode="G" 
d="M969 96c-58 -41.333 -121.332 -72.499 -189.999 -93.499s-142 -31.5 -220 -31.5c-154.667 0 -273.5 44.833 -356.5 134.5s-124.5 217.5 -124.5 383.5c0 60 5.5 123.833 16.5 191.5s27.167 138.5 48.5 212.5c23.333 78 50.666 148.5 81.999 211.5
s65.666 116.833 102.999 161.5c71.333 86.667 150.166 150.667 236.499 192s184.833 62 295.5 62c53.333 0 106.5 -7 159.5 -21s105.167 -34.333 156.5 -61l-41 -207c-43.333 42 -88.833 73.333 -136.5 94s-98.5 31 -152.5 31c-65.333 0 -126.666 -13.833 -183.999 -41.5
s-108.666 -68.5 -153.999 -122.5c-29.333 -34.667 -57 -78 -83 -130s-49 -110.333 -69 -175c-22.667 -76 -39.834 -147.333 -51.501 -214s-17.5 -127 -17.5 -181c0 -114 26.333 -202 79 -264s127.334 -93 224.001 -93c45.333 0 86 6.16699 122 18.5s66.333 30.166 91 53.499
l76 393h-217l30 166h410z" />
    <glyph glyph-name="H" unicode="H" 
d="M283 1493h202l-118 -612h553l118 612h203l-291 -1493h-202l139 711h-555l-137 -711h-203z" />
    <glyph glyph-name="I" unicode="I" 
d="M346 1493h830l-33 -170h-314l-223 -1153h314l-33 -170h-830l33 170h313l224 1153h-314z" />
    <glyph glyph-name="J" unicode="J" 
d="M-25 61l45.001 236.003c48 -52.667 102.667 -92.834 164 -120.501s126.333 -41.5 195 -41.5c94.667 0 165.5 24.333 212.5 73s83.833 141.667 110.5 279l164 836h-381l33 170h584l-197 -1006c-37.333 -192.667 -96 -326.834 -176 -402.501s-199.333 -113.5 -358 -113.5
c-64.667 0 -130.334 7.66699 -197.001 23s-133 37.666 -199 66.999z" />
    <glyph glyph-name="K" unicode="K" 
d="M283 1493h202l-127 -647l742 647h254l-703 -619l428 -874h-219l-360 741l-193 -168l-112 -573h-203z" />
    <glyph glyph-name="L" unicode="L" 
d="M369 1493h202l-258 -1323h721l-33 -170h-923z" />
    <glyph glyph-name="M" unicode="M" 
d="M229 1493h269l110 -756l414 756h270l-291 -1493h-186l258 1327l-434 -795h-141l-115 795l-256 -1327h-186z" />
    <glyph glyph-name="N" unicode="N" 
d="M285 1493h256l264 -1229l239 1229h195l-291 -1493h-256l-264 1229l-240 -1229h-194z" />
    <glyph glyph-name="O" unicode="O" 
d="M502 135c56.667 0 109 16.999 157 50.999s87.667 82.667 119 146c49.333 96.667 89.333 213.667 120 351s46 269.333 46 396c0 94.667 -17.5 164.5 -52.5 209.5s-89.167 67.5 -162.5 67.5c-56.667 0 -108.667 -17 -156 -51s-86.666 -82.667 -117.999 -146
c-50.667 -98 -91.334 -215 -122.001 -351s-46 -267.333 -46 -394c0 -95.333 17.5 -165.666 52.5 -210.999s89.167 -68 162.5 -68zM1151 1020c0 -73.333 -7.5 -153 -22.5 -239s-36.833 -174.333 -65.5 -265c-19.333 -61.333 -40.166 -116.333 -62.499 -165
s-46.5 -92.667 -72.5 -132c-58.667 -84.667 -124.334 -147.167 -197.001 -187.5s-157.334 -60.5 -254.001 -60.5c-134 0 -233.333 41 -298 123s-97 208.333 -97 379c0 74 7.16699 153.5 21.5 238.5s35.833 172.833 64.5 263.5c19.333 61.333 40.166 116.333 62.499 165
s46.5 92.667 72.5 132c58.667 84.667 124.334 147.167 197.001 187.5s157.334 60.5 254.001 60.5c134.667 0 234.5 -40.833 299.5 -122.5s97.5 -207.5 97.5 -377.5z" />
    <glyph glyph-name="P" unicode="P" 
d="M512 1327l-109 -561h234c110 0 197.833 31.833 263.5 95.5s98.5 148.5 98.5 254.5c0 72 -20.667 125.167 -62 159.5s-105.333 51.5 -192 51.5h-233zM342 1493h440.001c137.333 0 242 -30.667 314 -92s108 -150 108 -266c0 -166 -53.333 -296.667 -160 -392
s-253.334 -143 -440.001 -143h-233l-117 -600h-203z" />
    <glyph glyph-name="Q" unicode="Q" 
d="M504 -27l-9.99902 -0.00195312c-143.333 0 -247.833 39.667 -313.5 119s-98.5 206.333 -98.5 381c0 74 7.16699 153.5 21.5 238.5s35.833 172.833 64.5 263.5c19.333 61.333 40.166 116.333 62.499 165s46.5 92.667 72.5 132
c58.667 84.667 124.334 147.167 197.001 187.5s157.334 60.5 254.001 60.5c134.667 0 234.5 -40.833 299.5 -122.5s97.5 -207.5 97.5 -377.5c0 -55.333 -4.83301 -115.833 -14.5 -181.5s-23.834 -135.5 -42.501 -209.5c-20 -77.333 -40.667 -144.666 -62 -201.999
s-44.333 -108.333 -69 -153c-36 -63.333 -77.333 -117.666 -124 -162.999s-96.334 -79 -149.001 -101l154 -188l-154 -92zM502.001 134.998c56.667 0 109 16.999 157 50.999s87.667 82.667 119 146c49.333 96.667 89.333 213.667 120 351s46 269.333 46 396
c0 94.667 -17.5 164.5 -52.5 209.5s-89.167 67.5 -162.5 67.5c-56.667 0 -108.667 -17 -156 -51s-86.666 -82.667 -117.999 -146c-50.667 -98 -91.334 -215 -122.001 -351s-46 -267.333 -46 -394c0 -95.333 17.5 -165.666 52.5 -210.999s89.167 -68 162.5 -68z" />
    <glyph glyph-name="R" unicode="R" 
d="M766 705c48 -9.33301 86.498 -31.666 115.498 -66.999s61.5 -112 97.5 -230l121 -408h-201l-106 377c-29.333 104 -62.166 172.333 -98.499 205s-91.166 49 -164.499 49h-192l-123 -631h-203l289 1493h416c138 0 244.833 -29.833 320.5 -89.5
s113.5 -143.834 113.5 -252.501c0 -122 -34.5 -223 -103.5 -303s-162.833 -127.667 -281.5 -143zM472.998 1327l-102 -530h219c108.667 0 195.5 28.5 260.5 85.5s97.5 132.833 97.5 227.5c0 74.667 -21 129.5 -63 164.5s-108.333 52.5 -199 52.5h-213z" />
    <glyph glyph-name="S" unicode="S" 
d="M1147 1442l-38.998 -205c-54 39.333 -110 69 -168 89s-118 30 -180 30c-110 0 -199.667 -27.333 -269 -82s-104 -124.334 -104 -209.001c0 -47.333 16.333 -85.666 49 -114.999s92 -57.333 178 -84l121 -39c108.667 -33.333 188.167 -77.833 238.5 -133.5
s75.5 -126.5 75.5 -212.5c0 -156.667 -55.333 -280.834 -166 -372.501s-261.667 -137.5 -453 -137.5c-69.333 0 -137.5 7.5 -204.5 22.5s-133.833 37.5 -200.5 67.5l41 209c65.333 -46 131.5 -80 198.5 -102s137.833 -33 212.5 -33c110 0 199.333 29.333 268 88
s103 133 103 223c0 54.667 -14.667 97 -44 127s-88.333 58.667 -177 86l-101 33c-122.667 38.667 -208.5 82.5 -257.5 131.5s-73.5 113.833 -73.5 194.5c0 147.333 55 267.833 165 361.5s253.667 140.5 431 140.5c53.333 0 110.166 -6.66699 170.499 -20
s122.166 -32.666 185.499 -57.999z" />
    <glyph glyph-name="T" unicode="T" 
d="M193 1493h1140l-33 -170h-469l-256 -1323h-204l258 1323h-469z" />
    <glyph glyph-name="U" unicode="U" 
d="M115 573l178.003 920.002h203l-179 -920c-1.33301 -8.66699 -4 -22.334 -8 -41.001c-20 -102.667 -30 -173.667 -30 -213c0 -61.333 18.167 -107.333 54.5 -138s91.166 -46 164.499 -46c59.333 0 109.666 9.5 150.999 28.5s77 49.167 107 90.5
c14.667 20.667 29.5 56.167 44.5 106.5s31.5 121.166 49.5 212.499l178 920h203l-178 -920c-28 -146 -57.833 -253.167 -89.5 -321.5s-73.5 -123.5 -125.5 -165.5c-47.333 -37.333 -101.333 -65.833 -162 -85.5s-126.334 -29.5 -197.001 -29.5c-128 0 -226.5 30 -295.5 90
s-103.5 145.333 -103.5 256c0 24.667 2.83301 58 8.5 100s14.5 94 26.5 156z" />
    <glyph glyph-name="V" unicode="V" 
d="M510 190l598 1303h215l-719 -1493h-258l-147 1493h198z" />
    <glyph glyph-name="W" unicode="W" 
d="M145 1493h191l-90 -1210l329 800h211l15 -802l377 1212h198l-510 -1493h-194l-31 870l-371 -870h-188z" />
    <glyph glyph-name="X" unicode="X" 
d="M242 1493h200l224 -532l440 532h231l-596 -719l324 -774h-201l-254 612l-506 -612h-231l657 797z" />
    <glyph glyph-name="Y" unicode="Y" 
d="M195 1493h202l236 -651l497 651h218l-635 -823l-129 -670h-207l131 670z" />
    <glyph glyph-name="Z" unicode="Z" 
d="M305 1493h969l-29 -154l-979 -1169h774l-34 -170h-1012l29 154l976 1169h-727z" />
    <glyph glyph-name="bracketleft" unicode="[" 
d="M621 1556h423l-28 -143h-240l-299 -1540h240l-27 -143h-426z" />
    <glyph glyph-name="backslash" unicode="\" 
d="M725 -190h-170l-199 1683h170z" />
    <glyph glyph-name="bracketright" unicode="]" 
d="M928 1556l-357 -1826h-424l29 143h240l299 1540h-240l29 143h424z" />
    <glyph glyph-name="asciicircum" unicode="^" 
d="M705 1493l456 -557h-178l-367 395l-366 -395h-178l456 557h177z" />
    <glyph glyph-name="underscore" unicode="_" 
d="M1233 -403v-80h-1233v80h1233z" />
    <glyph glyph-name="grave" unicode="`" 
d="M651 1638l197 -376h-143l-252 376h198z" />
    <glyph glyph-name="a" unicode="a" 
d="M692 563c-79.333 0 -138.334 -2.5 -177.001 -7.5s-72.334 -13.5 -101.001 -25.5c-45.333 -18 -81.666 -47.5 -108.999 -88.5s-41 -85.833 -41 -134.5c0 -55.333 17.167 -99.5 51.5 -132.5s80.833 -49.5 139.5 -49.5c98.667 0 183.834 35.333 255.501 106
s120.167 167.667 145.5 291l8 41h-172zM1063 639l-125.002 -638.998h-184l32 166c-48 -62.667 -104.667 -110.834 -170 -144.501s-134.666 -50.5 -207.999 -50.5c-102 0 -183.5 27.833 -244.5 83.5s-91.5 129.5 -91.5 221.5c0 130.667 51.5 235.167 154.5 313.5
s242.5 117.5 418.5 117.5h246l12 61c1.33301 6 2.33301 12.333 3 19s1 16 1 28c0 56.667 -21 100.167 -63 130.5s-102 45.5 -180 45.5c-57.333 0 -119.166 -8.5 -185.499 -25.5s-136.5 -42.5 -210.5 -76.5l35 180c72 26 140.333 45.5 205 58.5s126.667 19.5 186 19.5
c124 0 220.5 -27.333 289.5 -82s103.5 -130.334 103.5 -227.001c0 -21.333 -2 -49.333 -6 -84s-10 -73 -18 -115z" />
    <glyph glyph-name="b" unicode="b" 
d="M539 127c56 0 106.666 15.001 151.999 45.001s83.333 73.667 114 131c32.667 62.667 58.5 132.667 77.5 210s28.5 152 28.5 224c0 85.333 -16.833 149.333 -50.5 192s-84.167 64 -151.5 64c-55.333 0 -105.833 -15.333 -151.5 -46s-85.5 -75.334 -119.5 -134.001
c-32 -57.333 -57.667 -124.833 -77 -202.5s-29 -153.5 -29 -227.5c0 -82 17.833 -145.167 53.5 -189.5s86.834 -66.5 153.501 -66.5zM433.999 977.001c41.333 56 89.332 98.333 143.999 127s116 43 184 43c109.333 0 194.333 -34.5 255 -103.5s91 -165.5 91 -289.5
c0 -96.667 -13.667 -193 -41 -289s-65 -180 -113 -252c-50.667 -76.667 -112.5 -136.167 -185.5 -178.5s-150.833 -63.5 -233.5 -63.5c-65.333 0 -120.166 14.333 -164.499 43s-77.833 71 -100.5 127l-26 -141h-185l303 1556h185z" />
    <glyph glyph-name="c" unicode="c" 
d="M940 51c-48.667 -26 -100.833 -45.834 -156.5 -59.501s-113.5 -20.5 -173.5 -20.5c-149.333 0 -262.333 37.5 -339 112.5s-115 185.833 -115 332.5c0 99.333 17.833 196.833 53.5 292.5s83.834 176.167 144.501 241.5c62 66 130.167 115.333 204.5 148
s155.833 49 244.5 49c59.333 0 116.666 -7.16699 171.999 -21.5s109.333 -35.833 162 -64.5l-37 -182c-44 38.667 -89.333 67 -136 85s-98.334 27 -155.001 27c-73.333 0 -138.333 -14.833 -195 -44.5s-105 -74.167 -145 -133.5
c-37.333 -54.667 -66.5 -117.167 -87.5 -187.5s-31.5 -140.166 -31.5 -209.499c0 -96 22.833 -168.167 68.5 -216.5s113.834 -72.5 204.501 -72.5c64 0 125.5 10.333 184.5 31s116.167 52 171.5 94z" />
    <glyph glyph-name="d" unicode="d" 
d="M686 991c-58.667 0 -110.335 -14.5 -155.002 -43.5s-82.334 -72.5 -113.001 -130.5c-32.667 -60 -58 -128.167 -76 -204.5s-27 -152.833 -27 -229.5c0 -85.333 17 -149.333 51 -192s84.667 -64 152 -64c56.667 0 107.834 15 153.501 45s84.5 74.333 116.5 133
c32.667 58 58.334 125.5 77.001 202.5s28 153.5 28 229.5c0 80 -18.167 142.333 -54.5 187s-87.166 67 -152.499 67zM953.999 977l114.998 579.001h184l-303 -1556h-184l27 141c-43.333 -56 -92.5 -98.333 -147.5 -127s-115.833 -43 -182.5 -43
c-108.667 0 -193.167 35 -253.5 105s-90.5 167.667 -90.5 293c0 95.333 13.333 191.166 40 287.499s63 180.5 109 252.5c50 78.667 108.833 138 176.5 178s142.834 60 225.501 60c64.667 0 121.334 -14.5 170.001 -43.5s86.667 -71.167 114 -126.5z" />
    <glyph glyph-name="e" unicode="e" 
d="M938 659c4 18 6.66602 32.832 7.99902 44.499s2 22.834 2 33.501c0 80 -21.667 142.333 -65 187s-103.666 67 -180.999 67c-82 0 -156.833 -30 -224.5 -90s-116.167 -140.667 -145.5 -242h606zM960.999 56.999c-70 -28.667 -138.333 -50.168 -205 -64.501
s-134.334 -21.5 -203.001 -21.5c-148.667 0 -261.667 37.167 -339 111.5s-116 182.833 -116 325.5c0 104 20 206 60 306s95.333 186.333 166 259c55.333 57.333 116.5 101 183.5 131s136.833 45 209.5 45c124 0 223.167 -38.167 297.5 -114.5s111.5 -178.166 111.5 -305.499
c0 -22.667 -1.66699 -50.834 -5 -84.501s-9 -76.5 -17 -128.5h-807c-4 -21.333 -7 -40.666 -9 -57.999s-3 -32.666 -3 -45.999c0 -92.667 25.667 -163.334 77 -212.001s126 -73 224 -73c58.667 0 122.834 9.5 192.501 28.5s142.5 47.167 218.5 84.5z" />
    <glyph glyph-name="f" unicode="f" 
d="M1245 1556l-30.999 -153h-208c-63.333 0 -111 -13.833 -143 -41.5s-54.667 -75.167 -68 -142.5l-21 -99h385l-26 -143h-385l-191 -977h-184l190 977h-299l29 143h297l16 78c25.333 128.667 70.166 220.5 134.499 275.5s158.833 82.5 283.5 82.5h221z" />
    <glyph glyph-name="g" unicode="g" 
d="M512 145c52.667 0 101.167 15 145.5 45s81.833 73 112.5 129c32.667 60 58.167 127.333 76.5 202s27.5 147.334 27.5 218.001c0 79.333 -18.667 141.166 -56 185.499s-89.333 66.5 -156 66.5c-102.667 0 -189.167 -56.167 -259.5 -168.5s-105.5 -253.5 -105.5 -423.5
c0 -79.333 19 -141.5 57 -186.5s90.667 -67.5 158 -67.5zM942 72c-35.333 -180.667 -97.499 -311.171 -186.499 -391.504s-215.833 -120.5 -380.5 -120.5c-54.667 0 -108.5 4.66699 -161.5 14s-104.5 23 -154.5 41l37 182c48.667 -29.333 99.167 -51.666 151.5 -66.999
s105.166 -23 158.499 -23c99.333 0 176.333 26.667 231 80s94.334 142 119.001 266l24 117c-38.667 -58 -87 -102.167 -145 -132.5s-123.667 -45.5 -197 -45.5c-102.667 0 -184.334 35.833 -245.001 107.5s-91 168.834 -91 291.501c0 92.667 13.333 184.834 40 276.501
s64 172.834 112 243.501c49.333 74.667 108.666 132.667 177.999 174s141 62 215 62c67.333 0 126.333 -16.167 177 -48.5s87.334 -76.833 110.001 -133.5l27 151h184z" />
    <glyph glyph-name="h" unicode="h" 
d="M1075 694l-134.998 -694.003h-184l135 695c0.666992 2.66699 1.66699 7.33398 3 14.001c10 47.333 15 84 15 110c0 54 -15.5 95.5 -46.5 124.5s-75.5 43.5 -133.5 43.5c-84.667 0 -156.667 -31 -216 -93s-100 -149 -122 -261l-123 -633h-184l303 1556h184l-116 -604
c50 64.667 104.167 113.334 162.5 146.001s120.166 49 185.499 49c92.667 0 164.667 -24.167 216 -72.5s77 -115.833 77 -202.5c0 -21.333 -1.83301 -47.666 -5.5 -78.999s-8.83398 -64.333 -15.501 -99z" />
    <glyph glyph-name="i" unicode="i" 
d="M358 1120h471l-190 -977h365l-29 -143h-914l29 143h365l161 834h-286zM729 1556h184l-45 -233h-184z" />
    <glyph glyph-name="j" unicode="j" 
d="M498 -20l191.998 997h-317l28 143h502l-221 -1140c-27.333 -142 -74.666 -245.167 -141.999 -309.5s-161.333 -96.5 -282 -96.5h-254l31 156h233c63.333 0 113.333 19.833 150 59.5s63.334 103.167 80.001 190.5zM802.998 1556h184l-45 -233h-184z" />
    <glyph glyph-name="k" unicode="k" 
d="M393 1556h191l-170 -874l549 438h241l-520 -422l373 -698h-213l-307 582l-168 -133l-88 -449h-191z" />
    <glyph glyph-name="l" unicode="l" 
d="M600 408c-4.66699 -23.333 -8.16895 -44.001 -10.502 -62.001s-3.5 -33 -3.5 -45c0 -48.667 14.833 -85 44.5 -109s74.834 -36 135.501 -36h211l-31 -156h-207c-115.333 0 -201.166 21.167 -257.499 63.5s-84.5 107.166 -84.5 194.499c0 18.667 1.66699 41.334 5 68.001
s8 55.334 14 86.001l211 1011h-316l29 144h500z" />
    <glyph glyph-name="m" unicode="m" 
d="M748 1006c26 45.333 59.833 80.1641 101.5 104.497s88.167 36.5 139.5 36.5c57.333 0 103.166 -18.167 137.499 -54.5s51.5 -85.166 51.5 -146.499c0 -36 -3 -76.667 -9 -122s-16 -103.666 -30 -174.999l-127 -649h-168l125 641c12 61.333 21.167 111.5 27.5 150.5
s9.5 66.5 9.5 82.5c0 42 -7.66699 72.333 -23 91s-40 28 -74 28c-50 0 -89 -21.5 -117 -64.5s-56.333 -138.833 -85 -287.5l-125 -641h-168l125 641c12.667 64.667 21.834 115.834 27.501 153.501s8.5 64.167 8.5 79.5c0 40.667 -7.83301 70.667 -23.5 90
s-39.834 29 -72.501 29c-49.333 0 -87.5 -19.833 -114.5 -59.5s-55.5 -137.167 -85.5 -292.5l-125 -641h-168l217 1120h168l-19 -96c29.333 40 62.5 70.5 99.5 91.5s76.833 31.5 119.5 31.5c50 0 90.333 -12.5 121 -37.5s49.334 -59.5 56.001 -103.5z" />
    <glyph glyph-name="n" unicode="n" 
d="M1075 694l-134.998 -694.003h-184l135 695c0.666992 2.66699 1.66699 7.33398 3 14.001c10 47.333 15 84 15 110c0 54 -15.5 95.5 -46.5 124.5s-75.5 43.5 -133.5 43.5c-84.667 0 -156.667 -31 -216 -93s-100 -149 -122 -261l-123 -633h-184l219 1120h184l-32 -168
c50 64.667 104.167 113.334 162.5 146.001s120.166 49 185.499 49c92.667 0 164.667 -24.167 216 -72.5s77 -115.833 77 -202.5c0 -21.333 -1.83301 -47.666 -5.5 -78.999s-8.83398 -64.333 -15.501 -99z" />
    <glyph glyph-name="o" unicode="o" 
d="M696 991c-109.333 0 -200.5 -57 -273.5 -171s-109.5 -259 -109.5 -435c0 -86 18.667 -150.5 56 -193.5s93.333 -64.5 168 -64.5c109.333 0 200.5 57 273.5 171s109.5 259 109.5 435c0 86 -18.667 150.5 -56 193.5s-93.333 64.5 -168 64.5zM713 1147
c130.667 0 230.167 -35.668 298.5 -107.001s102.5 -175.666 102.5 -312.999c0 -92 -13.667 -183.5 -41 -274.5s-65.666 -172.833 -114.999 -245.5c-52.667 -78.667 -116.667 -137.667 -192 -177s-162 -59 -260 -59c-124.667 0 -220.667 36.5 -288 109.5
s-101 177.167 -101 312.5c0 90 13.667 180 41 270s66 172.667 116 248c52.667 77.333 116.167 136 190.5 176s157.166 60 248.499 60z" />
    <glyph glyph-name="p" unicode="p" 
d="M293 141l-111 -566.999h-184l301 1546h184l-28 -143c40.667 54.667 89.667 96.667 147 126s119.333 44 186 44c108 0 191.667 -34.667 251 -104s89 -166.333 89 -291c0 -95.333 -13.167 -191 -39.5 -287s-62.833 -180.667 -109.5 -254
c-50 -78.667 -109 -138.334 -177 -179.001s-142.667 -61 -224 -61c-66.667 0 -123.5 14 -170.5 42s-85.167 70.667 -114.5 128zM569 127.001c54 0 103.334 14.832 148.001 44.499s82 72.834 112 129.501c32.667 61.333 58.334 130.5 77.001 207.5s28 153.167 28 228.5
c0 84.667 -17.167 148.167 -51.5 190.5s-85.5 63.5 -153.5 63.5c-56.667 0 -107.834 -15 -153.501 -45s-84.5 -74.333 -116.5 -133c-32.667 -58.667 -58.334 -126 -77.001 -202s-28 -152 -28 -228c0 -82 18.667 -145.167 56 -189.5s90.333 -66.5 159 -66.5z" />
    <glyph glyph-name="q" unicode="q" 
d="M774 141c-40.667 -56 -88.502 -98.335 -143.502 -127.002s-116.5 -43 -184.5 -43c-109.333 0 -194.666 34.5 -255.999 103.5s-92 165.833 -92 290.5c0 94.667 13.667 190.334 41 287.001s65 182.334 113 257.001c50 78.667 109.833 138 179.5 178s147.834 60 234.501 60
c66.667 0 122.5 -14.167 167.5 -42.5s79.167 -70.833 102.5 -127.5l27 143h184l-299 -1546h-184zM667.998 990.998c-56.667 0 -107.667 -14.668 -153 -44.001s-83.333 -72.666 -114 -129.999c-32.667 -62.667 -58.5 -132.667 -77.5 -210s-28.5 -152 -28.5 -224
c0 -85.333 16.833 -149.333 50.5 -192s84.5 -64 152.5 -64c54.667 0 105 15.167 151 45.5s85.667 74.5 119 132.5c32 56.667 57.667 124.167 77 202.5s29 154.833 29 229.5c0 82 -17.833 144.833 -53.5 188.5s-86.5 65.5 -152.5 65.5z" />
    <glyph glyph-name="r" unicode="r" 
d="M1184 889c-30 29.333 -64.8311 51.332 -104.498 65.999s-84.834 22 -135.501 22c-109.333 0 -203 -38.167 -281 -114.5s-129.667 -180.833 -155 -313.5l-107 -549h-184l217 1120h184l-40 -219c44.667 80 102.5 141 173.5 183s151.5 63 241.5 63
c47.333 0 90.166 -6.16699 128.499 -18.5s70.833 -30.166 97.5 -53.499z" />
    <glyph glyph-name="s" unicode="s" 
d="M1077 1081l-35.0029 -180.002c-47.333 30 -97.166 52.833 -149.499 68.5s-104.166 23.5 -155.499 23.5c-91.333 0 -162.166 -17 -212.499 -51s-75.5 -81.667 -75.5 -143c0 -65.333 73.667 -116.666 221 -153.999c10 -2.66699 17.333 -4.66699 22 -6l72 -18
c78 -20.667 136.333 -51.5 175 -92.5s58 -92.167 58 -153.5c0 -120.667 -48 -218.167 -144 -292.5s-223.333 -111.5 -382 -111.5c-54 0 -110.333 5.83301 -169 17.5s-121 29.167 -187 52.5l37 190c62.667 -35.333 123.5 -61.833 182.5 -79.5s116.167 -26.5 171.5 -26.5
c88.667 0 161 19.833 217 59.5s84 90.167 84 151.5c0 66 -65.333 116.333 -196 151c-12 2.66699 -21.333 5 -28 7l-67 18c-86 22 -149.167 54.333 -189.5 97s-60.5 98.334 -60.5 167.001c0 113.333 44 203.5 132 270.5s206.667 100.5 356 100.5c58.667 0 115 -5.5 169 -16.5
s105.333 -27.5 154 -49.5z" />
    <glyph glyph-name="t" unicode="t" 
d="M768 1438l-61.001 -318.001h417l-28 -143h-418l-119 -608c-4 -20 -7 -38.5 -9 -55.5s-3 -32.833 -3 -47.5c0 -44 13 -74.833 39 -92.5s73 -26.5 141 -26.5h207l-29 -147h-223c-111.333 0 -193.166 18.5 -245.499 55.5s-78.5 94.833 -78.5 173.5
c0 16.667 1.33301 36.334 4 59.001s7 49.667 13 81l119 608h-299l28 143h299l62 318h184z" />
    <glyph glyph-name="u" unicode="u" 
d="M143 426l133 693.999h185l-135 -694c-4.66699 -24.667 -8.33398 -48.334 -11.001 -71.001s-4 -42 -4 -58c0 -52.667 15.5 -93.167 46.5 -121.5s74.833 -42.5 131.5 -42.5c84.667 0 156.334 30.833 215.001 92.5s99 148.834 121 261.501l123 633h185l-218 -1120h-184
l33 168c-48.667 -65.333 -102.667 -114.166 -162 -146.499s-124 -48.5 -194 -48.5c-87.333 0 -156.333 24.5 -207 73.5s-76 115.5 -76 199.5c0 26 1.5 54.5 4.5 85.5s7.5 62.5 13.5 94.5z" />
    <glyph glyph-name="v" unicode="v" 
d="M182 1120h178l154 -956l502 956h198l-614 -1120h-238z" />
    <glyph glyph-name="w" unicode="w" 
d="M92 1120h176l15 -905l268 578h162l49 -578l362 905h191l-486 -1120h-165l-60 623l-297 -623h-166z" />
    <glyph glyph-name="x" unicode="x" 
d="M1208 1120l-512 -547l318 -573h-197l-244 444l-417 -444h-226l564 596l-293 524h196l217 -395l369 395h225z" />
    <glyph glyph-name="y" unicode="y" 
d="M786 360c-41.333 -71.333 -96.332 -167.332 -164.999 -287.999c-103.333 -183.333 -173 -299.333 -209 -348c-38.667 -50.667 -82.834 -88.334 -132.501 -113.001s-106.5 -37 -170.5 -37h-148l29 154h108c54 0 100.5 15.5 139.5 46.5s78.5 84.167 118.5 159.5l43 84
l-217 1102h183l172 -862l483 862h205z" />
    <glyph glyph-name="z" unicode="z" 
d="M319 1120h814l-33 -168l-785 -805h629l-29 -147h-837l33 168l784 805h-604z" />
    <glyph glyph-name="braceleft" unicode="{" 
d="M1176 1556l-29.002 -143.004h-78c-90.667 0 -151.667 -13.167 -183 -39.5s-57 -89.5 -77 -189.5l-51 -252c-22 -106.667 -53 -184.167 -93 -232.5s-97 -79.5 -171 -93.5c48.667 -12 86.334 -35.167 113.001 -69.5s40 -76.5 40 -126.5
c0 -16.667 -1.16699 -35.667 -3.5 -57s-5.83301 -44.666 -10.5 -69.999l-47 -244c-4 -22 -6.66699 -41.5 -8 -58.5s-2.33301 -33.833 -3 -50.5c0 -42 14.333 -72.5 43 -91.5s75.334 -28.5 140.001 -28.5h78l-29 -144h-72c-124.667 0 -214.167 18.167 -268.5 54.5
s-81.5 95.5 -81.5 177.5c0 20.667 1.16699 42.334 3.5 65.001s5.83301 46.334 10.5 71.001l45 236c0.666992 2 1.66699 6 3 12c6.66699 33.333 10 65 10 95c0 56.667 -16.333 97.5 -49 122.5s-86.667 37.5 -162 37.5h-62l29 147h61c96.667 0 166 18.333 208 55
s73 105 93 205l50 244c16.667 82 37 146.833 61 194.5s54 84.5 90 110.5c31.333 22.667 70 38.834 116 48.501s113.333 14.5 202 14.5h82z" />
    <glyph glyph-name="bar" unicode="|" 
d="M702 1565v-2048h-172v2048h172z" />
    <glyph glyph-name="braceright" unicode="}" 
d="M-14 -334l27.998 144.002h78c90.667 0 151.667 13.167 183 39.5s57 89.5 77 189.5l51 252c22 106.667 53 184.167 93 232.5s97.333 79.166 172 92.499c-49.333 12.667 -87.333 36 -114 70s-40 76.333 -40 127c0 16 1.16699 34.833 3.5 56.5s5.83301 45.167 10.5 70.5
l47 243c4 22.667 6.83301 42.5 8.5 59.5s2.5 33.5 2.5 49.5c0 42.667 -14.167 73.5 -42.5 92.5s-75.166 28.5 -140.499 28.5h-77l26 143h74c125.333 0 215 -18 269 -54s81 -95 81 -177c0 -21.333 -1.16699 -43.333 -3.5 -66s-5.83301 -46.334 -10.5 -71.001l-45 -236
c-0.666992 -2 -1.33398 -6 -2.00098 -12c-6.66699 -32.667 -10 -64 -10 -94c0 -57.333 16.333 -98.333 49 -123s86.334 -37 161.001 -37h62l-29 -147h-61c-96 0 -165.167 -18.333 -207.5 -55s-74.166 -105 -95.499 -205l-47 -244c-17.333 -82.667 -38 -147.667 -62 -195
s-54 -84 -90 -110c-31.333 -22.667 -70 -39 -116 -49s-113 -15 -201 -15h-82z" />
    <glyph glyph-name="asciitilde" unicode="~" 
d="M1145 780l0.000976562 -174.001c-50 -39.333 -98.833 -68.166 -146.5 -86.499s-97.834 -27.5 -150.501 -27.5c-60 0 -127.667 17 -203 51c-14.667 6.66699 -25.667 11.334 -33 14.001c-51.333 22 -94.166 37 -128.499 45s-68.5 12 -102.5 12
c-52.667 0 -102.5 -9.83301 -149.5 -29.5s-94.833 -50.5 -143.5 -92.5v174c52 40 102.333 69 151 87s100.667 27 156 27c35.333 0 69.666 -3.66699 102.999 -11s74.666 -21.333 123.999 -42c8 -3.33301 19 -8.33301 33 -15c77.333 -36.667 147 -55 209 -55
c46.667 0 92.834 10.167 138.501 30.5s93.167 51.166 142.5 92.499z" />
    <glyph glyph-name="nonbreakingspace" unicode="&#xa0;" 
 />
    <glyph glyph-name="exclamdown" unicode="&#xa1;" 
d="M834 1239h-203l49 254h203zM592 0h-203l129 655l88 357h162l-49 -357z" />
    <glyph glyph-name="cent" unicode="&#xa2;" 
d="M1087 1077l-32 -172c-32.667 25.333 -69.5 45.333 -110.5 60s-85.5 24 -133.5 28l-170 -870c43.333 3.33301 88.166 12.5 134.499 27.5s94.5 35.833 144.5 62.5l-33 -172c-50 -20.667 -97.833 -36.5 -143.5 -47.5s-89.5 -17.833 -131.5 -20.5l-55 -286h-102l55 286
c-122 13.333 -217 60.333 -285 141s-102 186 -102 316c0 124 27 240 81 348s128 194 222 258c46.667 32.667 95.834 58 147.501 76s106.167 29 163.5 33l56 287h102l-55 -287c40 -2 80.833 -8.66699 122.5 -20s83.167 -27.333 124.5 -48zM541 127l168 864
c-110 -10 -203.167 -69.833 -279.5 -179.5s-114.5 -239.5 -114.5 -389.5c0 -86.667 19.5 -155.5 58.5 -206.5s94.833 -80.5 167.5 -88.5z" />
    <glyph glyph-name="sterling" unicode="&#xa3;" 
d="M1229 1462l-37.001 -183.999c-36 28.667 -74.167 50.5 -114.5 65.5s-81.5 22.5 -123.5 22.5c-92.667 0 -164.667 -28.333 -216 -85s-89.666 -152 -114.999 -286l-43 -217h370l-28 -143h-371l-90 -465h536l-32 -170h-973l33 170h237l90 465h-198l26 143h199l47 238
c34 173.333 94.667 300.666 182 381.999s207 122 359 122c40 0 81.667 -4.83301 125 -14.5s89 -24.167 137 -43.5z" />
    <glyph glyph-name="currency" unicode="&#xa4;" 
d="M868 643c0 60 -20.667 110.5 -62 151.5s-92.333 61.5 -153 61.5c-60 0 -110.833 -20.5 -152.5 -61.5s-62.5 -91.5 -62.5 -151.5c0 -61.333 20.833 -112.833 62.5 -154.5s92.5 -62.5 152.5 -62.5c60.667 0 111.667 21 153 63s62 93.333 62 154zM844 924l166 165.998
l90 -93l-166 -166c20 -32.667 34.833 -64.5 44.5 -95.5s14.5 -62.5 14.5 -94.5c0 -33.333 -5 -65.166 -15 -95.499s-25.333 -60.5 -46 -90.5l168 -166l-94 -94l-166 167c-30.667 -20.667 -61.167 -36 -91.5 -46s-62.166 -15 -95.499 -15c-32 0 -64 4.83301 -96 14.5
s-64 23.834 -96 42.501l-164 -163l-92 90l166 166c-20.667 34 -35.834 66.5 -45.501 97.5s-14.5 61.833 -14.5 92.5c0 33.333 5.16699 65.5 15.5 96.5s25.833 61.5 46.5 91.5l-168 166l94 95l166 -168c30.667 20.667 61.167 36 91.5 46s62.5 15 96.5 15
c30.667 0 61.667 -4.83301 93 -14.5s64 -24.5 98 -44.5z" />
    <glyph glyph-name="yen" unicode="&#xa5;" 
d="M1036 524h-393l-98 -524h-199l98 524h-397l23 111h397l6 35l-55 151h-309l22 111h246l-205 561h207l223 -664l459 664h211l-404 -561h252l-22 -111h-312l-110 -151l-10 -35h393z" />
    <glyph glyph-name="brokenbar" unicode="&#xa6;" 
d="M702 1432v-758h-172v758h172zM702 408v-758h-172v758h172z" />
    <glyph glyph-name="section" unicode="&#xa7;" 
d="M1069 1454l-33.001 -164.001c-47.333 25.333 -93.833 44.666 -139.5 57.999s-87.834 20 -126.501 20c-68.667 0 -125 -16.333 -169 -49s-66 -73 -66 -121c0 -52.667 44.667 -109 134 -169c20.667 -13.333 36.667 -24 48 -32l86 -59
c82.667 -57.333 138.167 -105.5 166.5 -144.5s42.5 -81.5 42.5 -127.5c0 -67.333 -22 -131 -66 -191s-104 -107.667 -180 -143c27.333 -23.333 47.833 -50 61.5 -80s20.5 -63.333 20.5 -100c0 -104.667 -40.5 -189.667 -121.5 -255s-187.833 -98 -320.5 -98
c-46.667 0 -95.5 4.83301 -146.5 14.5s-104.167 24.167 -159.5 43.5l33 161c49.333 -24 98 -42.5 146 -55.5s92.333 -19.5 133 -19.5c74.667 0 134.167 15.667 178.5 47s66.5 73 66.5 125c0 65.333 -61 139.333 -183 222l-13 9l-74 51
c-83.333 56.667 -138.333 103.5 -165 140.5s-40 79.833 -40 128.5c0 64 21.333 124.667 64 182s103.334 107 182.001 149c-27.333 24.667 -47.166 50.334 -59.499 77.001s-18.5 57.667 -18.5 93c0 99.333 40 181.5 120 246.5s182 97.5 306 97.5
c47.333 0 95.5 -4.66699 144.5 -14s98.5 -23.666 148.5 -42.999zM677.999 400.999c56 34 98.668 69.501 128.001 106.501s44 73.833 44 110.5c0 35.333 -17.833 71.666 -53.5 108.999s-102.5 87.333 -200.5 150l-80 51c-54.667 -34.667 -96.334 -70.667 -125.001 -108
s-43 -74.333 -43 -111c0 -34 14.167 -67 42.5 -99s84.5 -75.667 168.5 -131z" />
    <glyph glyph-name="dieresis" unicode="&#xa8;" 
d="M475 1552h203l-39 -202h-203zM866 1552h203l-39 -202h-203z" />
    <glyph glyph-name="copyright" unicode="&#xa9;" 
d="M864 1071l0.00195312 -108.001c-38.667 18.667 -76.5 32.5 -113.5 41.5s-74.833 13.5 -113.5 13.5c-78 0 -139.5 -24.833 -184.5 -74.5s-67.5 -117.167 -67.5 -202.5c0 -88 23.333 -155.667 70 -203s113.334 -71 200.001 -71c37.333 0 73.166 4.16699 107.499 12.5
s68.166 21.166 101.499 38.499v-104c-34.667 -15.333 -71 -26.666 -109 -33.999s-77.333 -11 -118 -11c-120 0 -214.5 33.333 -283.5 100s-103.5 157.334 -103.5 272.001c0 115.333 34.667 206.666 104 273.999s163.666 101 282.999 101c40.667 0 80 -3.66699 118 -11
s74.333 -18.666 109 -33.999zM616.002 1255c-70.667 0 -136.168 -12.333 -196.501 -37s-115.5 -62 -165.5 -112s-87.833 -105.667 -113.5 -167s-38.5 -127.333 -38.5 -198c0 -69.333 12.833 -134.5 38.5 -195.5s63.5 -116.5 113.5 -166.5
c50.667 -50.667 106.167 -88.667 166.5 -114s125.5 -38 195.5 -38c70.667 0 136.167 12.667 196.5 38s115.833 63.333 166.5 114s88.5 106.167 113.5 166.5s37.5 125.5 37.5 195.5c0 70.667 -12.667 136.667 -38 198s-63 117 -113 167s-105.167 87.333 -165.5 112
s-126.166 37 -197.499 37zM616.001 1358c84.667 0 163.335 -15 236.002 -45s139 -75 199 -135c60 -60.667 105.333 -127.667 136 -201s46 -152 46 -236c0 -83.333 -15.167 -161.333 -45.5 -234s-75.833 -139.334 -136.5 -200.001s-127.334 -106.167 -200.001 -136.5
s-151 -45.5 -235 -45.5c-83.333 0 -161.333 15.167 -234 45.5s-139.334 75.833 -200.001 136.5s-106.167 127.334 -136.5 200.001s-45.5 150.667 -45.5 234c0 84 15.333 162.667 46 236s76 140.333 136 201c60 60 126.333 105 199 135s151 45 235 45z" />
    <glyph glyph-name="ordfeminine" unicode="&#xaa;" 
d="M729 1104c-98.667 0 -171.167 -13.334 -217.5 -40.001s-69.5 -68.667 -69.5 -126c0 -36.667 12.167 -66 36.5 -88s56.5 -33 96.5 -33c74 0 136.167 22.333 186.5 67s84.5 108.334 102.5 191.001l6 29h-141zM1026 1165l-86.001 -447.999h-143l22 112
c-35.333 -42 -77.666 -74.333 -126.999 -97s-102.666 -34 -159.999 -34c-72.667 0 -130.334 20 -173.001 60s-64 94 -64 162c0 93.333 37.167 166.5 111.5 219.5s177.833 79.5 310.5 79.5h174c0 1.33301 0.333008 4.33301 1 9c2 18 3 31.333 3 40
c0 47.333 -14.667 82 -44 104s-76 33 -140 33c-46 0 -91.667 -5.5 -137 -16.5s-92 -28.167 -140 -51.5l23 127c50 18.667 99.333 32.667 148 42s94.667 14 138 14c98.667 0 172.167 -20.833 220.5 -62.5s72.5 -104.834 72.5 -189.501c0 -15.333 -0.833008 -31.5 -2.5 -48.5
s-4.16699 -35.167 -7.5 -54.5zM245.999 592h676l-23 -123h-676z" />
    <glyph glyph-name="guillemotleft" unicode="&#xab;" 
d="M1106 1059l-43 -211l-350 -264l250 -267l-35 -176l-387 418l16 82zM639 1059l-43 -211l-350 -264l250 -267l-35 -176l-387 418l16 82z" />
    <glyph glyph-name="logicalnot" unicode="&#xac;" 
d="M88 862h1057v-491h-168v319h-889v172z" />
    <glyph glyph-name="sfthyphen" unicode="&#xad;" 
d="M336 643h522l-33 -164h-522z" />
    <glyph glyph-name="registered" unicode="&#xae;" 
d="M600 1100c98 0 171 -16.335 219 -49.002s72 -82.667 72 -150c0 -47.333 -14.667 -86.5 -44 -117.5s-70.666 -51.167 -123.999 -60.5c12.667 -3.33301 28.667 -16.166 48 -38.499s41.666 -53.166 66.999 -92.499l114 -186h-143l-107 174
c-32.667 53.333 -59.167 87 -79.5 101s-45.5 21 -75.5 21h-55v-296h-130v694h238zM594 1016h-102v-232h102c60 0 102.333 9 127 27s37 48 37 90c0 41.333 -12.333 70.833 -37 88.5s-67 26.5 -127 26.5zM616 1358c84.667 0 163.335 -15 236.002 -45s139 -75 199 -135
c60 -60.667 105.333 -127.667 136 -201s46 -152 46 -236c0 -83.333 -15.167 -161.333 -45.5 -234s-75.833 -139.334 -136.5 -200.001s-127.334 -106.167 -200.001 -136.5s-151 -45.5 -235 -45.5c-83.333 0 -161.333 15.167 -234 45.5s-139.334 75.833 -200.001 136.5
s-106.167 127.334 -136.5 200.001s-45.5 150.667 -45.5 234c-0 84 15.333 162.667 46 236s76 140.333 136 201c60 60 126.333 105 199 135s151 45 235 45zM616.001 1255c-70.667 0 -136.168 -12.333 -196.501 -37s-115.5 -62 -165.5 -112s-87.833 -105.667 -113.5 -167
s-38.5 -127.333 -38.5 -198c0 -69.333 12.833 -134.5 38.5 -195.5s63.5 -116.5 113.5 -166.5c50.667 -50.667 106.167 -88.667 166.5 -114s125.5 -38 195.5 -38c70.667 0 136.167 12.667 196.5 38s115.833 63.333 166.5 114s88.5 106.167 113.5 166.5s37.5 125.5 37.5 195.5
c0 70.667 -12.667 136.667 -38 198s-63 117 -113 167s-105.167 87.333 -165.5 112s-126.166 37 -197.499 37z" />
    <glyph glyph-name="macron" unicode="&#xaf;" 
d="M469 1526h598l-29 -148h-598z" />
    <glyph glyph-name="degree" unicode="&#xb0;" 
d="M616 1520c43.333 0 84.5 -8.16699 123.5 -24.5s73.167 -39.833 102.5 -70.5c30 -30 52.833 -64 68.5 -102s23.5 -79 23.5 -123c0 -88 -31 -162.5 -93 -223.5s-137.667 -91.5 -227 -91.5c-90 0 -165 30 -225 90s-90 135 -90 225c0 89.333 30.667 165 92 227
s136.333 93 225 93zM616 1391c-52.667 0 -97.5 -18.5 -134.5 -55.5s-55.5 -82.167 -55.5 -135.5s18.167 -98 54.5 -134s80.833 -54 133.5 -54c53.333 0 98.833 18.333 136.5 55s56.5 81 56.5 133c0 52.667 -18.667 97.667 -56 135s-82.333 56 -135 56z" />
    <glyph glyph-name="plusminus" unicode="&#xb1;" 
d="M88 170h1057v-170h-1057v170zM700 1171v-329h445v-170h-445v-332h-168v332h-444v170h444v329h168z" />
    <glyph glyph-name="twosuperior" unicode="&#xb2;" 
d="M492 782l395 -0.000976562l-23 -114h-557l21 110l170 140l33 27c208.667 168.667 313 288 313 358c0 34 -12.333 61.167 -37 81.5s-58 30.5 -100 30.5c-34 0 -71.333 -6.16699 -112 -18.5s-88.667 -32.166 -144 -59.499l24 127c56 19.333 104.833 33.5 146.5 42.5
s80.167 13.5 115.5 13.5c78.667 0 140.667 -18.5 186 -55.5s68 -86.833 68 -149.5c0 -92.667 -103 -220 -309 -382l-20 -15z" />
    <glyph glyph-name="threesuperior" unicode="&#xb3;" 
d="M772 1116c48 -8 84.9951 -27.168 110.995 -57.501s39 -69.166 39 -116.499c0 -87.333 -34.667 -157.333 -104 -210s-162.333 -79 -279 -79c-44 0 -87.167 3.5 -129.5 10.5s-83.166 17.167 -122.499 30.5l24 121c44.667 -19.333 84.334 -33.333 119.001 -42
s68.667 -13 102 -13c74.667 0 133.667 15.333 177 46s65 72 65 124c0 44.667 -14.167 77.667 -42.5 99s-72.166 32 -131.499 32h-72l21 106h72c64.667 0 116.667 13.333 156 40s59 61.334 59 104.001c0 34 -14.333 59.5 -43 76.5s-71.667 25.5 -129 25.5
c-28 0 -58.833 -3.5 -92.5 -10.5s-70.5 -17.833 -110.5 -32.5l22 115c47.333 11.333 91.333 20 132 26s79.334 9 116.001 9c80.667 0 142.834 -16.667 186.501 -50s65.5 -80.333 65.5 -141c0 -52.667 -19 -98.334 -57 -137.001s-89.333 -64 -154 -76z" />
    <glyph glyph-name="acute" unicode="&#xb4;" 
d="M907 1638h219l-395 -376h-156z" />
    <glyph glyph-name="mu" unicode="&#xb5;" 
d="M-39 -426l300.996 1546h187l-136 -696c-4 -20.667 -7 -40 -9 -58s-3 -33.667 -3 -47c0 -60.667 18.167 -107.167 54.5 -139.5s88.5 -48.5 156.5 -48.5c91.333 0 164.333 27.667 219 83s93 139.666 115 252.999l127 653h186l-168 -862c-2 -12 -3.5 -22.333 -4.5 -31
s-1.5 -16.667 -1.5 -24c0 -20 4.16699 -35.333 12.5 -46s20.5 -16 36.5 -16c6 0 14.333 1.66699 25 5s26.334 9.33301 47.001 18l-29 -148c-26.667 -14.667 -52.334 -25.834 -77.001 -33.501s-48 -11.5 -70 -11.5c-44.667 0 -80.167 14.167 -106.5 42.5
s-39.5 66.833 -39.5 115.5c-35.333 -54.667 -76.166 -94.667 -122.499 -120s-102.166 -38 -167.499 -38c-61.333 0 -112.666 13.833 -153.999 41.5s-72.666 69.167 -93.999 124.5l-109 -563h-176z" />
    <glyph glyph-name="paragraph" unicode="&#xb6;" 
d="M735 1493l406 0.00195312l-328 -1690h-139l303 1567h-191l-303 -1567h-141l164 846c-118 2.66699 -211 35.667 -279 99s-102 148.666 -102 255.999c0 139.333 57.667 255.666 173 348.999s261 140 437 140z" />
    <glyph glyph-name="periodcentered" unicode="&#xb7;" 
d="M512 864h254l-59 -305h-252z" />
    <glyph glyph-name="cedilla" unicode="&#xb8;" 
d="M555 0c24.667 -42.667 42.832 -79.5 54.499 -110.5s17.5 -58.5 17.5 -82.5c0 -62 -23.5 -111.167 -70.5 -147.5s-110.167 -54.5 -189.5 -54.5c-29.333 0 -59.666 2.5 -90.999 7.5s-62.666 12.5 -93.999 22.5l25 129c26.667 -12.667 52.167 -22.167 76.5 -28.5
s47.166 -9.5 68.499 -9.5c44.667 0 79.5 10 104.5 30s37.5 48 37.5 84c0 18.667 -4.83301 41 -14.5 67s-24.167 57 -43.5 93h119z" />
    <glyph glyph-name="onesuperior" unicode="&#xb9;" 
d="M369 778h206l117 611l-231 -41l22 116l238 39h137l-141 -725h205l-21 -110h-553z" />
    <glyph glyph-name="ordmasculine" unicode="&#xba;" 
d="M633 698c-101.333 0 -180.999 30.168 -238.999 90.501s-87 142.833 -87 247.5c0 58 10.833 116.667 32.5 176s51.167 111.333 88.5 156c40.667 49.333 88 87 142 113s111 39 171 39c100.667 0 179.834 -30.333 237.501 -91s86.5 -143.667 86.5 -249
c0 -58.667 -10.667 -117.334 -32 -176.001s-50.333 -110 -87 -154c-40.667 -49.333 -87.834 -87 -141.501 -113s-110.834 -39 -171.501 -39zM463.001 1038c0 -70 16.5 -125 49.5 -165s78.5 -60 136.5 -60c70.667 0 132 36 184 108s78 158.333 78 259
c0 70 -16.5 125 -49.5 165s-78.5 60 -136.5 60c-71.333 0 -132.833 -35.833 -184.5 -107.5s-77.5 -158.167 -77.5 -259.5zM246.001 592.001h676l-23 -123h-676z" />
    <glyph glyph-name="guillemotright" unicode="&#xbb;" 
d="M82 141l43 211l350 262l-250 269l35 176l387 -418l-14 -82zM549 141l43 211l350 262l-250 269l35 176l387 -418l-14 -82z" />
    <glyph glyph-name="onequarter" unicode="&#xbc;" 
d="M70 504l-23 108l1059 258l27 -108zM901 565h162l-105 -540h117l-20 -111h-119l-33 -184h-139l35 184h-386l23 121zM897 416l-342 -391h266zM111 934h206l117 611l-231 -41l22 116l238 39h137l-141 -725h205l-21 -110h-553z" />
    <glyph glyph-name="onehalf" unicode="&#xbd;" 
d="M70 504l-23 108l1059 258l27 -108zM111 934h206l117 611l-231 -41l22 116l238 39h137l-141 -725h205l-21 -110h-553zM646 -156l395 -0.000976562l-23 -114h-557l21 110l170 140l33 27c208.667 168.667 313 288 313 358c0 34 -12.333 61.167 -37 81.5s-58 30.5 -100 30.5
c-34 0 -71.333 -6.16699 -112 -18.5s-88.667 -32.166 -144 -59.499l24 127c56 19.333 104.833 33.5 146.5 42.5s80.167 13.5 115.5 13.5c78.667 0 140.667 -18.5 186 -55.5s68 -86.833 68 -149.5c0 -92.667 -103 -220 -309 -382l-20 -15z" />
    <glyph glyph-name="threequarters" unicode="&#xbe;" 
d="M70 504l-23 108l1059 258l27 -108zM901 565h162l-105 -540h117l-20 -111h-119l-33 -184h-139l35 184h-386l23 121zM897 416l-342 -391h266zM545 1272c48 -8 84.9951 -27.168 110.995 -57.501s39 -69.166 39 -116.499c0 -87.333 -34.667 -157.333 -104 -210
s-162.333 -79 -279 -79c-44 0 -87.167 3.5 -129.5 10.5s-83.166 17.167 -122.499 30.5l24 121c44.667 -19.333 84.334 -33.333 119.001 -42s68.667 -13 102 -13c74.667 0 133.667 15.333 177 46s65 72 65 124c0 44.667 -14.167 77.667 -42.5 99s-72.166 32 -131.499 32h-72
l21 106h72c64.667 0 116.667 13.333 156 40s59 61.334 59 104.001c0 34 -14.333 59.5 -43 76.5s-71.667 25.5 -129 25.5c-28 0 -58.833 -3.5 -92.5 -10.5s-70.5 -17.833 -110.5 -32.5l22 115c47.333 11.333 91.333 20 132 26s79.334 9 116.001 9
c80.667 0 142.834 -16.667 186.501 -50s65.5 -80.333 65.5 -141c0 -52.667 -19 -98.334 -57 -137.001s-89.333 -64 -154 -76z" />
    <glyph glyph-name="questiondown" unicode="&#xbf;" 
d="M655 1092l191 -0.00195312l-29 -154c-12 -62 -31.333 -114.833 -58 -158.5s-77 -96.5 -151 -158.5l-106 -89c-56.667 -48 -96.834 -90.5 -120.501 -127.5s-35.5 -74.167 -35.5 -111.5c0 -49.333 18.5 -87.666 55.5 -114.999s88.833 -41 155.5 -41
c52.667 0 111.667 11.833 177 35.5s133.333 57.5 204 101.5l-37 -188c-72 -38 -141.833 -66.333 -209.5 -85s-135.167 -28 -202.5 -28c-101.333 0 -184.333 27.167 -249 81.5s-97 123.5 -97 207.5c0 62.667 16.333 120.834 49 174.501s92.334 116.5 179.001 188.5l104 86
c56 46.667 94.167 87 114.5 121s35.5 79.667 45.5 137zM881 1239h-203l49 254h203z" />
    <glyph glyph-name="Agrave" unicode="&#xc0;" 
d="M733 1899l147 -264h-139l-190 264h182zM735 1325l-364 -774h430zM639 1493h246l166 -1493h-201l-35 389h-520l-184 -389h-217z" />
    <glyph glyph-name="Aacute" unicode="&#xc1;" 
d="M885 1899h208l-307 -264h-160zM735 1325l-364 -774h430zM639 1493h246l166 -1493h-201l-35 389h-520l-184 -389h-217z" />
    <glyph glyph-name="Acircumflex" unicode="&#xc2;" 
d="M704 1901h213l158 -266h-133l-139 178l-209 -178h-152zM735 1325l-364 -774h430zM639 1493h246l166 -1493h-201l-35 389h-520l-184 -389h-217z" />
    <glyph glyph-name="Atilde" unicode="&#xc3;" 
d="M790 1710l-34.001 24.999l-2 1c-28 21.333 -54.667 32 -80 32c-22.667 0 -43 -8.5 -61 -25.5s-33.333 -42.167 -46 -75.5h-125c23.333 72.667 55.666 127.334 96.999 164.001s90.333 55 147 55c22.667 0 44.334 -3.66699 65.001 -11s42.667 -19.333 66 -36l35 -26
c12 -9.33301 24 -16.166 36 -20.499s24.333 -6.5 37 -6.5c26.667 0 49.334 9 68.001 27s31.667 42.333 39 73h125c-21.333 -72.667 -53 -127.334 -95 -164.001s-93.667 -55 -155 -55c-20.667 0 -40.167 3.5 -58.5 10.5s-37.833 17.833 -58.5 32.5zM734.999 1325l-364 -774
h430zM638.999 1493h246l166 -1493h-201l-35 389h-520l-184 -389h-217z" />
    <glyph glyph-name="Adieresis" unicode="&#xc4;" 
d="M897 1870h203l-39 -203h-203zM506 1870h204l-41 -203h-202zM735 1325l-364 -774h430zM639 1493h246l166 -1493h-201l-35 389h-520l-184 -389h-217z" />
    <glyph glyph-name="Aring" unicode="&#xc5;" 
d="M924 1626c0 42 -14.833 77.833 -44.5 107.5s-65.5 44.5 -107.5 44.5c-42.667 0 -78.5 -14.5 -107.5 -43.5s-43.5 -65.167 -43.5 -108.5c0 -42 14.5 -77.667 43.5 -107s64.833 -44 107.5 -44c42 0 77.833 14.667 107.5 44s44.5 65 44.5 107zM735 1325l-364 -774h430z
M600 1415c-34 23.333 -59.499 52.832 -76.499 88.499s-25.5 76.5 -25.5 122.5c0 76 26.5 140.833 79.5 194.5s117.833 80.5 194.5 80.5c76 0 140.833 -26.833 194.5 -80.5s80.5 -118.5 80.5 -194.5c0 -54 -13.333 -102.167 -40 -144.5s-63.334 -74.166 -110.001 -95.499
l154 -1386h-201l-35 389h-520l-184 -389h-217z" />
    <glyph glyph-name="AE" unicode="&#xc6;" 
d="M1307 1493l-33 -170h-338l-86 -442h307l-33 -170h-307l-106 -541h356l-33 -170h-542l75 383h-352l-176 -383h-184l700 1493h752zM647 1323l-356 -772h309l150 772h-103z" />
    <glyph glyph-name="Ccedilla" unicode="&#xc7;" 
d="M655 0c24.667 -42.667 42.832 -79.5 54.499 -110.5s17.5 -58.5 17.5 -82.5c0 -62 -23.5 -111.167 -70.5 -147.5s-110.167 -54.5 -189.5 -54.5c-29.333 0 -59.666 2.5 -90.999 7.5s-62.666 12.5 -93.999 22.5l25 129c26.667 -12.667 52.167 -22.167 76.5 -28.5
s47.166 -9.5 68.499 -9.5c44.667 0 79.5 10 104.5 30s37.5 48 37.5 84c0 18.667 -4.83301 41 -14.5 67s-24.167 57 -43.5 93h119zM943.998 53c-56 -27.333 -112.503 -47.834 -169.503 -61.501s-115.833 -20.5 -176.5 -20.5c-153.333 0 -272.166 44.333 -356.499 133
s-126.5 213 -126.5 373c0 146.667 23.333 292 70 436s108 261.667 184 353c71.333 86.667 150 150.667 236 192s184 62 294 62c53.333 0 106.333 -7 159 -21s104 -34.333 154 -61l-41 -207c-42.667 42 -87.667 73.333 -135 94s-97.666 31 -150.999 31
c-63.333 0 -122 -13.5 -176 -40.5s-104.667 -68.167 -152 -123.5c-69.333 -82 -125.166 -187 -167.499 -315s-63.5 -256.333 -63.5 -385c0 -115.333 26 -203.666 78 -264.999s127 -92 225 -92c56.667 0 115.167 10.667 175.5 32s119.833 52.333 178.5 93z" />
    <glyph glyph-name="Egrave" unicode="&#xc8;" 
d="M778 1899l147 -264h-139l-190 264h182zM344 1493h885l-33 -170h-684l-86 -442h653l-32 -170h-654l-104 -541h702l-33 -170h-905z" />
    <glyph glyph-name="Eacute" unicode="&#xc9;" 
d="M930 1899h208l-307 -264h-160zM344 1493h885l-33 -170h-684l-86 -442h653l-32 -170h-654l-104 -541h702l-33 -170h-905z" />
    <glyph glyph-name="Ecircumflex" unicode="&#xca;" 
d="M749 1901h213l158 -266h-133l-139 178l-209 -178h-152zM344 1493h885l-33 -170h-684l-86 -442h653l-32 -170h-654l-104 -541h702l-33 -170h-905z" />
    <glyph glyph-name="Edieresis" unicode="&#xcb;" 
d="M942 1870h203l-39 -203h-203zM551 1870h204l-41 -203h-202zM344 1493h885l-33 -170h-684l-86 -442h653l-32 -170h-654l-104 -541h702l-33 -170h-905z" />
    <glyph glyph-name="Igrave" unicode="&#xcc;" 
d="M739 1899l147 -264h-139l-190 264h182zM346 1493h830l-33 -170h-314l-223 -1153h314l-33 -170h-830l33 170h313l224 1153h-314z" />
    <glyph glyph-name="Iacute" unicode="&#xcd;" 
d="M891 1899h208l-307 -264h-160zM346 1493h830l-33 -170h-314l-223 -1153h314l-33 -170h-830l33 170h313l224 1153h-314z" />
    <glyph glyph-name="Icircumflex" unicode="&#xce;" 
d="M710 1901h213l158 -266h-133l-139 178l-209 -178h-152zM346 1493h830l-33 -170h-314l-223 -1153h314l-33 -170h-830l33 170h313l224 1153h-314z" />
    <glyph glyph-name="Idieresis" unicode="&#xcf;" 
d="M903 1870h203l-39 -203h-203zM512 1870h204l-41 -203h-202zM346 1493h830l-33 -170h-314l-223 -1153h314l-33 -170h-830l33 170h313l224 1153h-314z" />
    <glyph glyph-name="Eth" unicode="&#xd0;" 
d="M324 166c123.333 0 222.334 20.833 297.001 62.5s134.667 109.5 180 203.5c36 76.667 65.5 168.167 88.5 274.5s34.5 203.833 34.5 292.5c0 117.333 -27.333 201.333 -82 252s-146.334 76 -275.001 76h-114l-91 -469h267l-29 -149h-266l-107 -543h97zM586.001 1493
c182 0 318.168 -41.333 408.501 -124s135.5 -208 135.5 -376c0 -108 -14 -219.333 -42 -334s-65.667 -216.334 -113 -305.001c-69.333 -127.333 -155.833 -218.166 -259.5 -272.499s-243.834 -81.5 -420.501 -81.5h-303l137 709h-127l29 149h129l123 635h303z" />
    <glyph glyph-name="Ntilde" unicode="&#xd1;" 
d="M786 1710l-34.001 24.999l-2 1c-28 21.333 -54.667 32 -80 32c-22.667 0 -43 -8.5 -61 -25.5s-33.333 -42.167 -46 -75.5h-125c23.333 72.667 55.666 127.334 96.999 164.001s90.333 55 147 55c22.667 0 44.334 -3.66699 65.001 -11s42.667 -19.333 66 -36l35 -26
c12 -9.33301 24 -16.166 36 -20.499s24.333 -6.5 37 -6.5c26.667 0 49.334 9 68.001 27s31.667 42.333 39 73h125c-21.333 -72.667 -53 -127.334 -95 -164.001s-93.667 -55 -155 -55c-20.667 0 -40.167 3.5 -58.5 10.5s-37.833 17.833 -58.5 32.5zM284.999 1493h256
l264 -1229l239 1229h195l-291 -1493h-256l-264 1229l-240 -1229h-194z" />
    <glyph glyph-name="Ograve" unicode="&#xd2;" 
d="M725 1899l147 -264h-139l-190 264h182zM502 135c56.667 0 109 16.999 157 50.999s87.667 82.667 119 146c49.333 96.667 89.333 213.667 120 351s46 269.333 46 396c0 94.667 -17.5 164.5 -52.5 209.5s-89.167 67.5 -162.5 67.5c-56.667 0 -108.667 -17 -156 -51
s-86.666 -82.667 -117.999 -146c-50.667 -98 -91.334 -215 -122.001 -351s-46 -267.333 -46 -394c0 -95.333 17.5 -165.666 52.5 -210.999s89.167 -68 162.5 -68zM1151 1020c0 -73.333 -7.5 -153 -22.5 -239s-36.833 -174.333 -65.5 -265
c-19.333 -61.333 -40.166 -116.333 -62.499 -165s-46.5 -92.667 -72.5 -132c-58.667 -84.667 -124.334 -147.167 -197.001 -187.5s-157.334 -60.5 -254.001 -60.5c-134 0 -233.333 41 -298 123s-97 208.333 -97 379c0 74 7.16699 153.5 21.5 238.5
s35.833 172.833 64.5 263.5c19.333 61.333 40.166 116.333 62.499 165s46.5 92.667 72.5 132c58.667 84.667 124.334 147.167 197.001 187.5s157.334 60.5 254.001 60.5c134.667 0 234.5 -40.833 299.5 -122.5s97.5 -207.5 97.5 -377.5z" />
    <glyph glyph-name="Oacute" unicode="&#xd3;" 
d="M877 1899h208l-307 -264h-160zM502 135c56.667 0 109 16.999 157 50.999s87.667 82.667 119 146c49.333 96.667 89.333 213.667 120 351s46 269.333 46 396c0 94.667 -17.5 164.5 -52.5 209.5s-89.167 67.5 -162.5 67.5c-56.667 0 -108.667 -17 -156 -51
s-86.666 -82.667 -117.999 -146c-50.667 -98 -91.334 -215 -122.001 -351s-46 -267.333 -46 -394c0 -95.333 17.5 -165.666 52.5 -210.999s89.167 -68 162.5 -68zM1151 1020c0 -73.333 -7.5 -153 -22.5 -239s-36.833 -174.333 -65.5 -265
c-19.333 -61.333 -40.166 -116.333 -62.499 -165s-46.5 -92.667 -72.5 -132c-58.667 -84.667 -124.334 -147.167 -197.001 -187.5s-157.334 -60.5 -254.001 -60.5c-134 0 -233.333 41 -298 123s-97 208.333 -97 379c0 74 7.16699 153.5 21.5 238.5
s35.833 172.833 64.5 263.5c19.333 61.333 40.166 116.333 62.499 165s46.5 92.667 72.5 132c58.667 84.667 124.334 147.167 197.001 187.5s157.334 60.5 254.001 60.5c134.667 0 234.5 -40.833 299.5 -122.5s97.5 -207.5 97.5 -377.5z" />
    <glyph glyph-name="Ocircumflex" unicode="&#xd4;" 
d="M696 1901h213l158 -266h-133l-139 178l-209 -178h-152zM502 135c56.667 0 109 16.999 157 50.999s87.667 82.667 119 146c49.333 96.667 89.333 213.667 120 351s46 269.333 46 396c0 94.667 -17.5 164.5 -52.5 209.5s-89.167 67.5 -162.5 67.5
c-56.667 0 -108.667 -17 -156 -51s-86.666 -82.667 -117.999 -146c-50.667 -98 -91.334 -215 -122.001 -351s-46 -267.333 -46 -394c0 -95.333 17.5 -165.666 52.5 -210.999s89.167 -68 162.5 -68zM1151 1020c0 -73.333 -7.5 -153 -22.5 -239s-36.833 -174.333 -65.5 -265
c-19.333 -61.333 -40.166 -116.333 -62.499 -165s-46.5 -92.667 -72.5 -132c-58.667 -84.667 -124.334 -147.167 -197.001 -187.5s-157.334 -60.5 -254.001 -60.5c-134 0 -233.333 41 -298 123s-97 208.333 -97 379c0 74 7.16699 153.5 21.5 238.5
s35.833 172.833 64.5 263.5c19.333 61.333 40.166 116.333 62.499 165s46.5 92.667 72.5 132c58.667 84.667 124.334 147.167 197.001 187.5s157.334 60.5 254.001 60.5c134.667 0 234.5 -40.833 299.5 -122.5s97.5 -207.5 97.5 -377.5z" />
    <glyph glyph-name="Otilde" unicode="&#xd5;" 
d="M782 1710l-34.001 24.999l-2 1c-28 21.333 -54.667 32 -80 32c-22.667 0 -43 -8.5 -61 -25.5s-33.333 -42.167 -46 -75.5h-125c23.333 72.667 55.666 127.334 96.999 164.001s90.333 55 147 55c22.667 0 44.334 -3.66699 65.001 -11s42.667 -19.333 66 -36l35 -26
c12 -9.33301 24 -16.166 36 -20.499s24.333 -6.5 37 -6.5c26.667 0 49.334 9 68.001 27s31.667 42.333 39 73h125c-21.333 -72.667 -53 -127.334 -95 -164.001s-93.667 -55 -155 -55c-20.667 0 -40.167 3.5 -58.5 10.5s-37.833 17.833 -58.5 32.5zM501.999 134.999
c56.667 0 109 16.999 157 50.999s87.667 82.667 119 146c49.333 96.667 89.333 213.667 120 351s46 269.333 46 396c0 94.667 -17.5 164.5 -52.5 209.5s-89.167 67.5 -162.5 67.5c-56.667 0 -108.667 -17 -156 -51s-86.666 -82.667 -117.999 -146
c-50.667 -98 -91.334 -215 -122.001 -351s-46 -267.333 -46 -394c0 -95.333 17.5 -165.666 52.5 -210.999s89.167 -68 162.5 -68zM1151 1020c0 -73.333 -7.5 -153 -22.5 -239s-36.833 -174.333 -65.5 -265c-19.333 -61.333 -40.166 -116.333 -62.499 -165
s-46.5 -92.667 -72.5 -132c-58.667 -84.667 -124.334 -147.167 -197.001 -187.5s-157.334 -60.5 -254.001 -60.5c-134 0 -233.333 41 -298 123s-97 208.333 -97 379c0 74 7.16699 153.5 21.5 238.5s35.833 172.833 64.5 263.5c19.333 61.333 40.166 116.333 62.499 165
s46.5 92.667 72.5 132c58.667 84.667 124.334 147.167 197.001 187.5s157.334 60.5 254.001 60.5c134.667 0 234.5 -40.833 299.5 -122.5s97.5 -207.5 97.5 -377.5z" />
    <glyph glyph-name="Odieresis" unicode="&#xd6;" 
d="M889 1870h203l-39 -203h-203zM498 1870h204l-41 -203h-202zM502 135c56.667 0 109 16.999 157 50.999s87.667 82.667 119 146c49.333 96.667 89.333 213.667 120 351s46 269.333 46 396c0 94.667 -17.5 164.5 -52.5 209.5s-89.167 67.5 -162.5 67.5
c-56.667 0 -108.667 -17 -156 -51s-86.666 -82.667 -117.999 -146c-50.667 -98 -91.334 -215 -122.001 -351s-46 -267.333 -46 -394c0 -95.333 17.5 -165.666 52.5 -210.999s89.167 -68 162.5 -68zM1151 1020c0 -73.333 -7.5 -153 -22.5 -239s-36.833 -174.333 -65.5 -265
c-19.333 -61.333 -40.166 -116.333 -62.499 -165s-46.5 -92.667 -72.5 -132c-58.667 -84.667 -124.334 -147.167 -197.001 -187.5s-157.334 -60.5 -254.001 -60.5c-134 0 -233.333 41 -298 123s-97 208.333 -97 379c0 74 7.16699 153.5 21.5 238.5
s35.833 172.833 64.5 263.5c19.333 61.333 40.166 116.333 62.499 165s46.5 92.667 72.5 132c58.667 84.667 124.334 147.167 197.001 187.5s157.334 60.5 254.001 60.5c134.667 0 234.5 -40.833 299.5 -122.5s97.5 -207.5 97.5 -377.5z" />
    <glyph glyph-name="multiply" unicode="&#xd7;" 
d="M150 293l350 348l-350 350l116 117l350 -350l351 350l116 -117l-350 -350l348 -348l-116 -119l-349 350l-348 -350z" />
    <glyph glyph-name="Oslash" unicode="&#xd8;" 
d="M322 229c13.333 -29.333 35.665 -52.334 66.998 -69.001s69 -25 113 -25c74.667 0 138.834 27.333 192.501 82s100.834 140 141.501 256c33.333 96.667 59 194.167 77 292.5s27 188.5 27 270.5c0 18.667 -0.166992 33.834 -0.5 45.501s-0.833008 23.167 -1.5 34.5z
M290.999 388.999l613.996 885.002c-19.333 26 -44.166 46.167 -74.499 60.5s-64.166 21.5 -101.499 21.5c-75.333 0 -139.833 -27.333 -193.5 -82s-100.5 -140 -140.5 -256c-33.333 -98.667 -59.666 -198.834 -78.999 -300.501s-29 -188.5 -29 -260.5
c0 -6.66699 0.666992 -19.334 2 -38.001c0.666992 -12 1.33398 -22 2.00098 -30zM1094 1337c19.333 -40 33.666 -83.9971 42.999 -131.997s14 -102.333 14 -163c0 -130.667 -17.5 -266.334 -52.5 -407.001s-80.167 -260.334 -135.5 -359.001
c-58.667 -102.667 -128 -179.167 -208 -229.5s-172.667 -75.5 -278 -75.5c-54 0 -103.5 7.66699 -148.5 23s-85.5 38.333 -121.5 69l-94 -133l-99 64l119 170c-18 38.667 -31.333 81.5 -40 128.5s-13 99.167 -13 156.5c0 132 17.333 268.167 52 408.5
s80 260.166 136 359.499c58.667 102 127.834 178 207.501 228s172.5 75 278.5 75c51.333 0 98.833 -7.16699 142.5 -21.5s83.5 -35.833 119.5 -64.5l84 125l100 -64z" />
    <glyph glyph-name="Ugrave" unicode="&#xd9;" 
d="M737 1899l147 -264h-139l-190 264h182zM115 573l178.003 920.002h203l-179 -920c-1.33301 -8.66699 -4 -22.334 -8 -41.001c-20 -102.667 -30 -173.667 -30 -213c0 -61.333 18.167 -107.333 54.5 -138s91.166 -46 164.499 -46c59.333 0 109.666 9.5 150.999 28.5
s77 49.167 107 90.5c14.667 20.667 29.5 56.167 44.5 106.5s31.5 121.166 49.5 212.499l178 920h203l-178 -920c-28 -146 -57.833 -253.167 -89.5 -321.5s-73.5 -123.5 -125.5 -165.5c-47.333 -37.333 -101.333 -65.833 -162 -85.5s-126.334 -29.5 -197.001 -29.5
c-128 0 -226.5 30 -295.5 90s-103.5 145.333 -103.5 256c0 24.667 2.83301 58 8.5 100s14.5 94 26.5 156z" />
    <glyph glyph-name="Uacute" unicode="&#xda;" 
d="M889 1899h208l-307 -264h-160zM115 573l178.003 920.002h203l-179 -920c-1.33301 -8.66699 -4 -22.334 -8 -41.001c-20 -102.667 -30 -173.667 -30 -213c0 -61.333 18.167 -107.333 54.5 -138s91.166 -46 164.499 -46c59.333 0 109.666 9.5 150.999 28.5
s77 49.167 107 90.5c14.667 20.667 29.5 56.167 44.5 106.5s31.5 121.166 49.5 212.499l178 920h203l-178 -920c-28 -146 -57.833 -253.167 -89.5 -321.5s-73.5 -123.5 -125.5 -165.5c-47.333 -37.333 -101.333 -65.833 -162 -85.5s-126.334 -29.5 -197.001 -29.5
c-128 0 -226.5 30 -295.5 90s-103.5 145.333 -103.5 256c0 24.667 2.83301 58 8.5 100s14.5 94 26.5 156z" />
    <glyph glyph-name="Ucircumflex" unicode="&#xdb;" 
d="M708 1901h213l158 -266h-133l-139 178l-209 -178h-152zM115 573l178.003 920.002h203l-179 -920c-1.33301 -8.66699 -4 -22.334 -8 -41.001c-20 -102.667 -30 -173.667 -30 -213c0 -61.333 18.167 -107.333 54.5 -138s91.166 -46 164.499 -46
c59.333 0 109.666 9.5 150.999 28.5s77 49.167 107 90.5c14.667 20.667 29.5 56.167 44.5 106.5s31.5 121.166 49.5 212.499l178 920h203l-178 -920c-28 -146 -57.833 -253.167 -89.5 -321.5s-73.5 -123.5 -125.5 -165.5c-47.333 -37.333 -101.333 -65.833 -162 -85.5
s-126.334 -29.5 -197.001 -29.5c-128 0 -226.5 30 -295.5 90s-103.5 145.333 -103.5 256c0 24.667 2.83301 58 8.5 100s14.5 94 26.5 156z" />
    <glyph glyph-name="Udieresis" unicode="&#xdc;" 
d="M901 1870h203l-39 -203h-203zM510 1870h204l-41 -203h-202zM115 573l178.003 920.002h203l-179 -920c-1.33301 -8.66699 -4 -22.334 -8 -41.001c-20 -102.667 -30 -173.667 -30 -213c0 -61.333 18.167 -107.333 54.5 -138s91.166 -46 164.499 -46
c59.333 0 109.666 9.5 150.999 28.5s77 49.167 107 90.5c14.667 20.667 29.5 56.167 44.5 106.5s31.5 121.166 49.5 212.499l178 920h203l-178 -920c-28 -146 -57.833 -253.167 -89.5 -321.5s-73.5 -123.5 -125.5 -165.5c-47.333 -37.333 -101.333 -65.833 -162 -85.5
s-126.334 -29.5 -197.001 -29.5c-128 0 -226.5 30 -295.5 90s-103.5 145.333 -103.5 256c0 24.667 2.83301 58 8.5 100s14.5 94 26.5 156z" />
    <glyph glyph-name="Yacute" unicode="&#xdd;" 
d="M891 1899h208l-307 -264h-160zM195 1493h202l236 -651l497 651h218l-635 -823l-129 -670h-207l131 670z" />
    <glyph glyph-name="Thorn" unicode="&#xde;" 
d="M326 365l-72 -365h-203l291 1493l203 -2l-51 -274h241c138 0 243.167 -29.333 315.5 -88s108.5 -143.667 108.5 -255c0 -157.333 -53.667 -281.5 -161 -372.5s-254.333 -136.5 -441 -136.5h-231zM461 1059l-105 -537h234c109.333 0 197 30.667 263 92
s99 142.666 99 243.999c0 68.667 -20.667 119.334 -62 152.001s-105.333 49 -192 49h-237z" />
    <glyph glyph-name="germandbls" unicode="&#xdf;" 
d="M276 1137c28 141.333 81.835 246.496 161.502 315.496s187.167 103.5 322.5 103.5c117.333 0 207.666 -26.667 270.999 -80s95 -129.666 95 -228.999c0 -22 -1.5 -44.667 -4.5 -68s-7.5 -47 -13.5 -71c-116 -14 -207.5 -43.5 -274.5 -88.5s-100.5 -99.5 -100.5 -163.5
c0 -25.333 6.83301 -48.166 20.5 -68.499s40.5 -45.166 80.5 -74.499l51 -39c76.667 -56.667 128.5 -107.167 155.5 -151.5s40.5 -95.5 40.5 -153.5c0 -122 -43.167 -218.833 -129.5 -290.5s-203.5 -107.5 -351.5 -107.5c-47.333 0 -93.333 4.16699 -138 12.5
s-88.667 20.5 -132 36.5l30 164c39.333 -21.333 81.166 -37.5 125.499 -48.5s90.166 -16.5 137.499 -16.5c87.333 0 156.166 20.833 206.499 62.5s75.5 98.5 75.5 170.5c0 34.667 -9 65.667 -27 93s-55.333 62 -112 104l-61 47c-60 45.333 -99.333 83.333 -118 114
s-28 67 -28 109c0 87.333 33.833 163 101.5 227s160.834 108 279.501 132c2 10 3.5 19.833 4.5 29.5s1.5 19.5 1.5 29.5c0 52.667 -17.333 93.834 -52 123.501s-82.667 44.5 -144 44.5c-80.667 0 -144.667 -22.5 -192 -67.5s-79.666 -113.167 -96.999 -204.5l-219 -1133
h-187z" />
    <glyph glyph-name="agrave" unicode="&#xe0;" 
d="M692 563c-79.333 0 -138.334 -2.5 -177.001 -7.5s-72.334 -13.5 -101.001 -25.5c-45.333 -18 -81.666 -47.5 -108.999 -88.5s-41 -85.833 -41 -134.5c0 -55.333 17.167 -99.5 51.5 -132.5s80.833 -49.5 139.5 -49.5c98.667 0 183.834 35.333 255.501 106
s120.167 167.667 145.5 291l8 41h-172zM1063 639l-125.002 -638.998h-184l32 166c-48 -62.667 -104.667 -110.834 -170 -144.501s-134.666 -50.5 -207.999 -50.5c-102 0 -183.5 27.833 -244.5 83.5s-91.5 129.5 -91.5 221.5c0 130.667 51.5 235.167 154.5 313.5
s242.5 117.5 418.5 117.5h246l12 61c1.33301 6 2.33301 12.333 3 19s1 16 1 28c0 56.667 -21 100.167 -63 130.5s-102 45.5 -180 45.5c-57.333 0 -119.166 -8.5 -185.499 -25.5s-136.5 -42.5 -210.5 -76.5l35 180c72 26 140.333 45.5 205 58.5s126.667 19.5 186 19.5
c124 0 220.5 -27.333 289.5 -82s103.5 -130.334 103.5 -227.001c0 -21.333 -2 -49.333 -6 -84s-10 -73 -18 -115zM654.997 1638l197 -376h-143l-252 376h198z" />
    <glyph glyph-name="aacute" unicode="&#xe1;" 
d="M692 563c-79.333 0 -138.334 -2.5 -177.001 -7.5s-72.334 -13.5 -101.001 -25.5c-45.333 -18 -81.666 -47.5 -108.999 -88.5s-41 -85.833 -41 -134.5c0 -55.333 17.167 -99.5 51.5 -132.5s80.833 -49.5 139.5 -49.5c98.667 0 183.834 35.333 255.501 106
s120.167 167.667 145.5 291l8 41h-172zM1063 639l-125.002 -638.998h-184l32 166c-48 -62.667 -104.667 -110.834 -170 -144.501s-134.666 -50.5 -207.999 -50.5c-102 0 -183.5 27.833 -244.5 83.5s-91.5 129.5 -91.5 221.5c0 130.667 51.5 235.167 154.5 313.5
s242.5 117.5 418.5 117.5h246l12 61c1.33301 6 2.33301 12.333 3 19s1 16 1 28c0 56.667 -21 100.167 -63 130.5s-102 45.5 -180 45.5c-57.333 0 -119.166 -8.5 -185.499 -25.5s-136.5 -42.5 -210.5 -76.5l35 180c72 26 140.333 45.5 205 58.5s126.667 19.5 186 19.5
c124 0 220.5 -27.333 289.5 -82s103.5 -130.334 103.5 -227.001c0 -21.333 -2 -49.333 -6 -84s-10 -73 -18 -115zM910.997 1638h219l-395 -376h-156z" />
    <glyph glyph-name="acircumflex" unicode="&#xe2;" 
d="M721 1638h147l164 -376h-133l-117 241l-225 -241h-156zM692 563c-79.333 0 -138.334 -2.5 -177.001 -7.5s-72.334 -13.5 -101.001 -25.5c-45.333 -18 -81.666 -47.5 -108.999 -88.5s-41 -85.833 -41 -134.5c0 -55.333 17.167 -99.5 51.5 -132.5s80.833 -49.5 139.5 -49.5
c98.667 0 183.834 35.333 255.501 106s120.167 167.667 145.5 291l8 41h-172zM1063 639l-125.002 -638.998h-184l32 166c-48 -62.667 -104.667 -110.834 -170 -144.501s-134.666 -50.5 -207.999 -50.5c-102 0 -183.5 27.833 -244.5 83.5s-91.5 129.5 -91.5 221.5
c0 130.667 51.5 235.167 154.5 313.5s242.5 117.5 418.5 117.5h246l12 61c1.33301 6 2.33301 12.333 3 19s1 16 1 28c0 56.667 -21 100.167 -63 130.5s-102 45.5 -180 45.5c-57.333 0 -119.166 -8.5 -185.499 -25.5s-136.5 -42.5 -210.5 -76.5l35 180
c72 26 140.333 45.5 205 58.5s126.667 19.5 186 19.5c124 0 220.5 -27.333 289.5 -82s103.5 -130.334 103.5 -227.001c0 -21.333 -2 -49.333 -6 -84s-10 -73 -18 -115z" />
    <glyph glyph-name="atilde" unicode="&#xe3;" 
d="M745 1376l-46.998 48.998c-12.667 12.667 -24.834 22 -36.501 28s-23.167 9 -34.5 9c-28 0 -49.833 -12.5 -65.5 -37.5s-26.167 -63.5 -31.5 -115.5h-125c11.333 90.667 36 160.334 74 209.001s86.667 73 146 73c28.667 0 54.334 -5.16699 77.001 -15.5
s46.667 -28.166 72 -53.499l47 -47c14 -14.667 26.333 -24.834 37 -30.501s21.667 -8.5 33 -8.5c27.333 0 49.166 13 65.499 39s27.166 64.667 32.499 116h125c-11.333 -91.333 -35.833 -161.5 -73.5 -210.5s-86.167 -73.5 -145.5 -73.5c-29.333 0 -55 4.83301 -77 14.5
s-46.333 27.834 -73 54.501zM692.002 562.998c-79.333 0 -138.334 -2.5 -177.001 -7.5s-72.334 -13.5 -101.001 -25.5c-45.333 -18 -81.666 -47.5 -108.999 -88.5s-41 -85.833 -41 -134.5c0 -55.333 17.167 -99.5 51.5 -132.5s80.833 -49.5 139.5 -49.5
c98.667 0 183.834 35.333 255.501 106s120.167 167.667 145.5 291l8 41h-172zM1063 638.998l-125.002 -638.998h-184l32 166c-48 -62.667 -104.667 -110.834 -170 -144.501s-134.666 -50.5 -207.999 -50.5c-102 0 -183.5 27.833 -244.5 83.5s-91.5 129.5 -91.5 221.5
c0 130.667 51.5 235.167 154.5 313.5s242.5 117.5 418.5 117.5h246l12 61c1.33301 6 2.33301 12.333 3 19s1 16 1 28c0 56.667 -21 100.167 -63 130.5s-102 45.5 -180 45.5c-57.333 0 -119.166 -8.5 -185.499 -25.5s-136.5 -42.5 -210.5 -76.5l35 180
c72 26 140.333 45.5 205 58.5s126.667 19.5 186 19.5c124 0 220.5 -27.333 289.5 -82s103.5 -130.334 103.5 -227.001c0 -21.333 -2 -49.333 -6 -84s-10 -73 -18 -115z" />
    <glyph glyph-name="adieresis" unicode="&#xe4;" 
d="M692 563c-79.333 0 -138.334 -2.5 -177.001 -7.5s-72.334 -13.5 -101.001 -25.5c-45.333 -18 -81.666 -47.5 -108.999 -88.5s-41 -85.833 -41 -134.5c0 -55.333 17.167 -99.5 51.5 -132.5s80.833 -49.5 139.5 -49.5c98.667 0 183.834 35.333 255.501 106
s120.167 167.667 145.5 291l8 41h-172zM1063 639l-125.002 -638.998h-184l32 166c-48 -62.667 -104.667 -110.834 -170 -144.501s-134.666 -50.5 -207.999 -50.5c-102 0 -183.5 27.833 -244.5 83.5s-91.5 129.5 -91.5 221.5c0 130.667 51.5 235.167 154.5 313.5
s242.5 117.5 418.5 117.5h246l12 61c1.33301 6 2.33301 12.333 3 19s1 16 1 28c0 56.667 -21 100.167 -63 130.5s-102 45.5 -180 45.5c-57.333 0 -119.166 -8.5 -185.499 -25.5s-136.5 -42.5 -210.5 -76.5l35 180c72 26 140.333 45.5 205 58.5s126.667 19.5 186 19.5
c124 0 220.5 -27.333 289.5 -82s103.5 -130.334 103.5 -227.001c0 -21.333 -2 -49.333 -6 -84s-10 -73 -18 -115zM478.997 1552h203l-39 -202h-203zM869.997 1552h203l-39 -202h-203z" />
    <glyph glyph-name="aring" unicode="&#xe5;" 
d="M934 1595c0 42.667 -14.667 78.667 -44 108s-65.333 44 -108 44s-78.5 -14.5 -107.5 -43.5s-43.5 -65.167 -43.5 -108.5c0 -42.667 14.5 -78.5 43.5 -107.5s64.833 -43.5 107.5 -43.5s78.667 14.667 108 44s44 65 44 107zM1057 1595c0 -76.667 -26.667 -141.5 -80 -194.5
s-118.333 -79.5 -195 -79.5s-141.5 26.5 -194.5 79.5s-79.5 117.833 -79.5 194.5c0 77.333 26.5 142.5 79.5 195.5s117.833 79.5 194.5 79.5s141.667 -26.5 195 -79.5s80 -118.167 80 -195.5zM692 563c-79.333 0 -138.334 -2.5 -177.001 -7.5s-72.334 -13.5 -101.001 -25.5
c-45.333 -18 -81.666 -47.5 -108.999 -88.5s-41 -85.833 -41 -134.5c0 -55.333 17.167 -99.5 51.5 -132.5s80.833 -49.5 139.5 -49.5c98.667 0 183.834 35.333 255.501 106s120.167 167.667 145.5 291l8 41h-172zM1063 639l-125.002 -638.998h-184l32 166
c-48 -62.667 -104.667 -110.834 -170 -144.501s-134.666 -50.5 -207.999 -50.5c-102 0 -183.5 27.833 -244.5 83.5s-91.5 129.5 -91.5 221.5c0 130.667 51.5 235.167 154.5 313.5s242.5 117.5 418.5 117.5h246l12 61c1.33301 6 2.33301 12.333 3 19s1 16 1 28
c0 56.667 -21 100.167 -63 130.5s-102 45.5 -180 45.5c-57.333 0 -119.166 -8.5 -185.499 -25.5s-136.5 -42.5 -210.5 -76.5l35 180c72 26 140.333 45.5 205 58.5s126.667 19.5 186 19.5c124 0 220.5 -27.333 289.5 -82s103.5 -130.334 103.5 -227.001
c0 -21.333 -2 -49.333 -6 -84s-10 -73 -18 -115z" />
    <glyph glyph-name="ae" unicode="&#xe6;" 
d="M487 442l15 72h-49c-83.333 0 -142.5 -5.16699 -177.5 -15.5s-64.167 -28.5 -87.5 -54.5c-20 -22 -35.833 -49.333 -47.5 -82s-17.5 -66 -17.5 -100c0 -40 13 -73.167 39 -99.5s58.667 -39.5 98 -39.5c60 0 106.833 22.333 140.5 67s62.5 128.667 86.5 252zM1024 657
l15.999 74c4 18 6.83301 36.333 8.5 55s2.5 38.667 2.5 60c0 46.667 -11.333 83.167 -34 109.5s-53.667 39.5 -93 39.5c-55.333 0 -100.666 -21.167 -135.999 -63.5s-61 -106.5 -77 -192.5l-17 -82h330zM1163 514l-495.002 0.00292969
c-12.667 -60.667 -21.667 -109.334 -27 -146.001s-8 -64.334 -8 -83.001c0 -52 16.167 -92.667 48.5 -122s76.833 -44 133.5 -44c46.667 0 93.834 9.66699 141.501 29s89.167 45.666 124.5 78.999l-34 -172c-39.333 -27.333 -81 -48.166 -125 -62.499s-90 -21.5 -138 -21.5
c-70.667 0 -129.167 13.833 -175.5 41.5s-77.833 67.167 -94.5 118.5c-31.333 -53.333 -70.5 -93.333 -117.5 -120s-101.5 -40 -163.5 -40c-85.333 0 -153.333 24.333 -204 73s-76 114 -76 196c0 133.333 40.167 236.166 120.5 308.499s195.166 108.5 344.499 108.5h117
l18 88c2.66699 13.333 4.66699 27.166 6 41.499s2 30.166 2 47.499c0 50.667 -14.167 90.167 -42.5 118.5s-68.166 42.5 -119.499 42.5c-32.667 0 -71.167 -7.16699 -115.5 -21.5s-91.833 -35.166 -142.5 -62.499l35 168c52.667 22.667 102 39.667 148 51s87.667 17 125 17
c54.667 0 101.667 -11 141 -33s69.333 -54 90 -96c33.333 41.333 73.333 73.166 120 95.499s96.667 33.5 150 33.5c80.667 0 144.834 -25.667 192.501 -77s71.5 -120.666 71.5 -207.999c0 -26 -2.83301 -60.167 -8.5 -102.5s-14.167 -94.166 -25.5 -155.499z" />
    <glyph glyph-name="ccedilla" unicode="&#xe7;" 
d="M659 0c24.667 -42.667 42.832 -79.5 54.499 -110.5s17.5 -58.5 17.5 -82.5c0 -62 -23.5 -111.167 -70.5 -147.5s-110.167 -54.5 -189.5 -54.5c-29.333 0 -59.666 2.5 -90.999 7.5s-62.666 12.5 -93.999 22.5l25 129c26.667 -12.667 52.167 -22.167 76.5 -28.5
s47.166 -9.5 68.499 -9.5c44.667 0 79.5 10 104.5 30s37.5 48 37.5 84c0 18.667 -4.83301 41 -14.5 67s-24.167 57 -43.5 93h119zM939.998 51c-48.667 -26 -100.833 -45.834 -156.5 -59.501s-113.5 -20.5 -173.5 -20.5c-149.333 0 -262.333 37.5 -339 112.5
s-115 185.833 -115 332.5c0 99.333 17.833 196.833 53.5 292.5s83.834 176.167 144.501 241.5c62 66 130.167 115.333 204.5 148s155.833 49 244.5 49c59.333 0 116.666 -7.16699 171.999 -21.5s109.333 -35.833 162 -64.5l-37 -182c-44 38.667 -89.333 67 -136 85
s-98.334 27 -155.001 27c-73.333 0 -138.333 -14.833 -195 -44.5s-105 -74.167 -145 -133.5c-37.333 -54.667 -66.5 -117.167 -87.5 -187.5s-31.5 -140.166 -31.5 -209.499c0 -96 22.833 -168.167 68.5 -216.5s113.834 -72.5 204.501 -72.5c64 0 125.5 10.333 184.5 31
s116.167 52 171.5 94z" />
    <glyph glyph-name="egrave" unicode="&#xe8;" 
d="M938 659c4 18 6.66602 32.832 7.99902 44.499s2 22.834 2 33.501c0 80 -21.667 142.333 -65 187s-103.666 67 -180.999 67c-82 0 -156.833 -30 -224.5 -90s-116.167 -140.667 -145.5 -242h606zM960.999 56.999c-70 -28.667 -138.333 -50.168 -205 -64.501
s-134.334 -21.5 -203.001 -21.5c-148.667 0 -261.667 37.167 -339 111.5s-116 182.833 -116 325.5c0 104 20 206 60 306s95.333 186.333 166 259c55.333 57.333 116.5 101 183.5 131s136.833 45 209.5 45c124 0 223.167 -38.167 297.5 -114.5s111.5 -178.166 111.5 -305.499
c0 -22.667 -1.66699 -50.834 -5 -84.501s-9 -76.5 -17 -128.5h-807c-4 -21.333 -7 -40.666 -9 -57.999s-3 -32.666 -3 -45.999c0 -92.667 25.667 -163.334 77 -212.001s126 -73 224 -73c58.667 0 122.834 9.5 192.501 28.5s142.5 47.167 218.5 84.5zM650.999 1638l197 -376
h-143l-252 376h198z" />
    <glyph glyph-name="eacute" unicode="&#xe9;" 
d="M938 659c4 18 6.66602 32.832 7.99902 44.499s2 22.834 2 33.501c0 80 -21.667 142.333 -65 187s-103.666 67 -180.999 67c-82 0 -156.833 -30 -224.5 -90s-116.167 -140.667 -145.5 -242h606zM960.999 56.999c-70 -28.667 -138.333 -50.168 -205 -64.501
s-134.334 -21.5 -203.001 -21.5c-148.667 0 -261.667 37.167 -339 111.5s-116 182.833 -116 325.5c0 104 20 206 60 306s95.333 186.333 166 259c55.333 57.333 116.5 101 183.5 131s136.833 45 209.5 45c124 0 223.167 -38.167 297.5 -114.5s111.5 -178.166 111.5 -305.499
c0 -22.667 -1.66699 -50.834 -5 -84.501s-9 -76.5 -17 -128.5h-807c-4 -21.333 -7 -40.666 -9 -57.999s-3 -32.666 -3 -45.999c0 -92.667 25.667 -163.334 77 -212.001s126 -73 224 -73c58.667 0 122.834 9.5 192.501 28.5s142.5 47.167 218.5 84.5zM906.999 1638h219
l-395 -376h-156z" />
    <glyph glyph-name="ecircumflex" unicode="&#xea;" 
d="M717 1638h147l164 -376h-133l-117 241l-225 -241h-156zM938 659c4 18 6.66602 32.832 7.99902 44.499s2 22.834 2 33.501c0 80 -21.667 142.333 -65 187s-103.666 67 -180.999 67c-82 0 -156.833 -30 -224.5 -90s-116.167 -140.667 -145.5 -242h606zM960.999 56.999
c-70 -28.667 -138.333 -50.168 -205 -64.501s-134.334 -21.5 -203.001 -21.5c-148.667 0 -261.667 37.167 -339 111.5s-116 182.833 -116 325.5c0 104 20 206 60 306s95.333 186.333 166 259c55.333 57.333 116.5 101 183.5 131s136.833 45 209.5 45
c124 0 223.167 -38.167 297.5 -114.5s111.5 -178.166 111.5 -305.499c0 -22.667 -1.66699 -50.834 -5 -84.501s-9 -76.5 -17 -128.5h-807c-4 -21.333 -7 -40.666 -9 -57.999s-3 -32.666 -3 -45.999c0 -92.667 25.667 -163.334 77 -212.001s126 -73 224 -73
c58.667 0 122.834 9.5 192.501 28.5s142.5 47.167 218.5 84.5z" />
    <glyph glyph-name="edieresis" unicode="&#xeb;" 
d="M938 659c4 18 6.66602 32.832 7.99902 44.499s2 22.834 2 33.501c0 80 -21.667 142.333 -65 187s-103.666 67 -180.999 67c-82 0 -156.833 -30 -224.5 -90s-116.167 -140.667 -145.5 -242h606zM960.999 56.999c-70 -28.667 -138.333 -50.168 -205 -64.501
s-134.334 -21.5 -203.001 -21.5c-148.667 0 -261.667 37.167 -339 111.5s-116 182.833 -116 325.5c0 104 20 206 60 306s95.333 186.333 166 259c55.333 57.333 116.5 101 183.5 131s136.833 45 209.5 45c124 0 223.167 -38.167 297.5 -114.5s111.5 -178.166 111.5 -305.499
c0 -22.667 -1.66699 -50.834 -5 -84.501s-9 -76.5 -17 -128.5h-807c-4 -21.333 -7 -40.666 -9 -57.999s-3 -32.666 -3 -45.999c0 -92.667 25.667 -163.334 77 -212.001s126 -73 224 -73c58.667 0 122.834 9.5 192.501 28.5s142.5 47.167 218.5 84.5zM474.999 1552h203
l-39 -202h-203zM865.999 1552h203l-39 -202h-203z" />
    <glyph glyph-name="igrave" unicode="&#xec;" 
d="M358 1120h471l-190 -977h365l-29 -143h-914l29 143h365l161 834h-286zM622 1638l197 -376h-143l-252 376h198z" />
    <glyph glyph-name="iacute" unicode="&#xed;" 
d="M358 1120h471l-190 -977h365l-29 -143h-914l29 143h365l161 834h-286zM878 1638h219l-395 -376h-156z" />
    <glyph glyph-name="icircumflex" unicode="&#xee;" 
d="M688 1638h147l164 -376h-133l-117 241l-225 -241h-156zM358 1120h471l-190 -977h365l-29 -143h-914l29 143h365l161 834h-286z" />
    <glyph glyph-name="idieresis" unicode="&#xef;" 
d="M358 1120h471l-190 -977h365l-29 -143h-914l29 143h365l161 834h-286zM446 1552h203l-39 -202h-203zM837 1552h203l-39 -202h-203z" />
    <glyph glyph-name="eth" unicode="&#xf0;" 
d="M870 1327c82 -114 141.835 -220.667 179.502 -320s56.5 -199.333 56.5 -300c0 -92.667 -12.5 -181.834 -37.5 -267.501s-60.833 -163.167 -107.5 -232.5c-51.333 -77.333 -114.833 -136 -190.5 -176s-160.5 -60 -254.5 -60c-128.667 0 -227 35.833 -295 107.5
s-102 175.167 -102 310.5c0 84 12.667 166.667 38 248s61.666 157 108.999 227c50.667 74 114.5 131.5 191.5 172.5s160.167 61.5 249.5 61.5c11.333 0 33 -1.66699 65 -5c14 -1.33301 25 -2.33301 33 -3c-12.667 25.333 -27.834 52.333 -45.501 81
s-40.167 62.334 -67.5 101.001l-297 -94l-30 92l274 86l-141 200h213l104 -145l287 88l28 -92zM874.002 907c-24.667 12.667 -50.332 21.998 -76.999 27.998s-54.667 9 -84 9c-119.333 0 -215.833 -52 -289.5 -156s-110.5 -240.333 -110.5 -409c0 -80 19.167 -142 57.5 -186
s92.166 -66 161.499 -66c111.333 0 202.333 53.5 273 160.5s106 246.167 106 417.5c0 42.667 -3 80.834 -9 114.501s-15.333 62.834 -28 87.501z" />
    <glyph glyph-name="ntilde" unicode="&#xf1;" 
d="M741 1376l-46.998 48.998c-12.667 12.667 -24.834 22 -36.501 28s-23.167 9 -34.5 9c-28 0 -49.833 -12.5 -65.5 -37.5s-26.167 -63.5 -31.5 -115.5h-125c11.333 90.667 36 160.334 74 209.001s86.667 73 146 73c28.667 0 54.334 -5.16699 77.001 -15.5
s46.667 -28.166 72 -53.499l47 -47c14 -14.667 26.333 -24.834 37 -30.501s21.667 -8.5 33 -8.5c27.333 0 49.166 13 65.499 39s27.166 64.667 32.499 116h125c-11.333 -91.333 -35.833 -161.5 -73.5 -210.5s-86.167 -73.5 -145.5 -73.5c-29.333 0 -55 4.83301 -77 14.5
s-46.333 27.834 -73 54.501zM1075 693.998l-134.998 -694.003h-184l135 695c0.666992 2.66699 1.66699 7.33398 3 14.001c10 47.333 15 84 15 110c0 54 -15.5 95.5 -46.5 124.5s-75.5 43.5 -133.5 43.5c-84.667 0 -156.667 -31 -216 -93s-100 -149 -122 -261l-123 -633h-184
l219 1120h184l-32 -168c50 64.667 104.167 113.334 162.5 146.001s120.166 49 185.499 49c92.667 0 164.667 -24.167 216 -72.5s77 -115.833 77 -202.5c0 -21.333 -1.83301 -47.666 -5.5 -78.999s-8.83398 -64.333 -15.501 -99z" />
    <glyph glyph-name="ograve" unicode="&#xf2;" 
d="M696 991c-109.333 0 -200.5 -57 -273.5 -171s-109.5 -259 -109.5 -435c0 -86 18.667 -150.5 56 -193.5s93.333 -64.5 168 -64.5c109.333 0 200.5 57 273.5 171s109.5 259 109.5 435c0 86 -18.667 150.5 -56 193.5s-93.333 64.5 -168 64.5zM713 1147
c130.667 0 230.167 -35.668 298.5 -107.001s102.5 -175.666 102.5 -312.999c0 -92 -13.667 -183.5 -41 -274.5s-65.666 -172.833 -114.999 -245.5c-52.667 -78.667 -116.667 -137.667 -192 -177s-162 -59 -260 -59c-124.667 0 -220.667 36.5 -288 109.5
s-101 177.167 -101 312.5c0 90 13.667 180 41 270s66 172.667 116 248c52.667 77.333 116.167 136 190.5 176s157.166 60 248.499 60zM651 1638l197 -376h-143l-252 376h198z" />
    <glyph glyph-name="oacute" unicode="&#xf3;" 
d="M696 991c-109.333 0 -200.5 -57 -273.5 -171s-109.5 -259 -109.5 -435c0 -86 18.667 -150.5 56 -193.5s93.333 -64.5 168 -64.5c109.333 0 200.5 57 273.5 171s109.5 259 109.5 435c0 86 -18.667 150.5 -56 193.5s-93.333 64.5 -168 64.5zM713 1147
c130.667 0 230.167 -35.668 298.5 -107.001s102.5 -175.666 102.5 -312.999c0 -92 -13.667 -183.5 -41 -274.5s-65.666 -172.833 -114.999 -245.5c-52.667 -78.667 -116.667 -137.667 -192 -177s-162 -59 -260 -59c-124.667 0 -220.667 36.5 -288 109.5
s-101 177.167 -101 312.5c0 90 13.667 180 41 270s66 172.667 116 248c52.667 77.333 116.167 136 190.5 176s157.166 60 248.499 60zM907 1638h219l-395 -376h-156z" />
    <glyph glyph-name="ocircumflex" unicode="&#xf4;" 
d="M717 1638h147l164 -376h-133l-117 241l-225 -241h-156zM696 991c-109.333 0 -200.5 -57 -273.5 -171s-109.5 -259 -109.5 -435c0 -86 18.667 -150.5 56 -193.5s93.333 -64.5 168 -64.5c109.333 0 200.5 57 273.5 171s109.5 259 109.5 435c0 86 -18.667 150.5 -56 193.5
s-93.333 64.5 -168 64.5zM713 1147c130.667 0 230.167 -35.668 298.5 -107.001s102.5 -175.666 102.5 -312.999c0 -92 -13.667 -183.5 -41 -274.5s-65.666 -172.833 -114.999 -245.5c-52.667 -78.667 -116.667 -137.667 -192 -177s-162 -59 -260 -59
c-124.667 0 -220.667 36.5 -288 109.5s-101 177.167 -101 312.5c0 90 13.667 180 41 270s66 172.667 116 248c52.667 77.333 116.167 136 190.5 176s157.166 60 248.499 60z" />
    <glyph glyph-name="otilde" unicode="&#xf5;" 
d="M741 1376l-46.998 48.998c-12.667 12.667 -24.834 22 -36.501 28s-23.167 9 -34.5 9c-28 0 -49.833 -12.5 -65.5 -37.5s-26.167 -63.5 -31.5 -115.5h-125c11.333 90.667 36 160.334 74 209.001s86.667 73 146 73c28.667 0 54.334 -5.16699 77.001 -15.5
s46.667 -28.166 72 -53.499l47 -47c14 -14.667 26.333 -24.834 37 -30.501s21.667 -8.5 33 -8.5c27.333 0 49.166 13 65.499 39s27.166 64.667 32.499 116h125c-11.333 -91.333 -35.833 -161.5 -73.5 -210.5s-86.167 -73.5 -145.5 -73.5c-29.333 0 -55 4.83301 -77 14.5
s-46.333 27.834 -73 54.501zM696.002 990.998c-109.333 0 -200.5 -57 -273.5 -171s-109.5 -259 -109.5 -435c0 -86 18.667 -150.5 56 -193.5s93.333 -64.5 168 -64.5c109.333 0 200.5 57 273.5 171s109.5 259 109.5 435c0 86 -18.667 150.5 -56 193.5
s-93.333 64.5 -168 64.5zM713.002 1147c130.667 0 230.167 -35.668 298.5 -107.001s102.5 -175.666 102.5 -312.999c0 -92 -13.667 -183.5 -41 -274.5s-65.666 -172.833 -114.999 -245.5c-52.667 -78.667 -116.667 -137.667 -192 -177s-162 -59 -260 -59
c-124.667 0 -220.667 36.5 -288 109.5s-101 177.167 -101 312.5c0 90 13.667 180 41 270s66 172.667 116 248c52.667 77.333 116.167 136 190.5 176s157.166 60 248.499 60z" />
    <glyph glyph-name="odieresis" unicode="&#xf6;" 
d="M696 991c-109.333 0 -200.5 -57 -273.5 -171s-109.5 -259 -109.5 -435c0 -86 18.667 -150.5 56 -193.5s93.333 -64.5 168 -64.5c109.333 0 200.5 57 273.5 171s109.5 259 109.5 435c0 86 -18.667 150.5 -56 193.5s-93.333 64.5 -168 64.5zM713 1147
c130.667 0 230.167 -35.668 298.5 -107.001s102.5 -175.666 102.5 -312.999c0 -92 -13.667 -183.5 -41 -274.5s-65.666 -172.833 -114.999 -245.5c-52.667 -78.667 -116.667 -137.667 -192 -177s-162 -59 -260 -59c-124.667 0 -220.667 36.5 -288 109.5
s-101 177.167 -101 312.5c0 90 13.667 180 41 270s66 172.667 116 248c52.667 77.333 116.167 136 190.5 176s157.166 60 248.499 60zM475 1552h203l-39 -202h-203zM866 1552h203l-39 -202h-203z" />
    <glyph glyph-name="divide" unicode="&#xf7;" 
d="M494 395h245v-245h-245v245zM494 1135h245v-246h-245v246zM88 727h1057v-170h-1057v170z" />
    <glyph glyph-name="oslash" unicode="&#xf8;" 
d="M911 825l-534.001 -638.997c20 -20 43 -34.833 69 -44.5s56.333 -14.5 91 -14.5c108.667 0 199.667 57.167 273 171.5s110 259.166 110 434.499c0 17.333 -0.666992 33.666 -2 48.999s-3.66602 29.666 -6.99902 42.999zM175.999 133.003
c-19.333 32 -33.667 69.333 -43 112s-14 90.667 -14 144c0 94.667 13.333 187 40 277s65 171.667 115 245c54 79.333 118.167 138.5 192.5 177.5s160.5 58.5 258.5 58.5c52 0 98 -6 138 -18s75.333 -30 106 -54l112 137l93 -77l-123 -146
c21.333 -33.333 37.166 -71.333 47.499 -114s15.5 -92 15.5 -148c0 -92 -13.667 -183.5 -41 -274.5s-65.666 -172.833 -114.999 -245.5c-52.667 -78.667 -116.667 -137.667 -192 -177s-162 -59 -260 -59c-49.333 0 -94.5 6.16699 -135.5 18.5s-78.5 30.833 -112.5 55.5
l-119 -141l-92 76zM851.998 938.003c-20.667 18.667 -43.167 32.168 -67.5 40.501s-53.833 12.5 -88.5 12.5c-109.333 0 -200.5 -57.333 -273.5 -172s-109.5 -261.334 -109.5 -440.001c0 -13.333 0.5 -26.5 1.5 -39.5s2.5 -25.5 4.5 -37.5z" />
    <glyph glyph-name="ugrave" unicode="&#xf9;" 
d="M143 426l133 693.999h185l-135 -694c-4.66699 -24.667 -8.33398 -48.334 -11.001 -71.001s-4 -42 -4 -58c0 -52.667 15.5 -93.167 46.5 -121.5s74.833 -42.5 131.5 -42.5c84.667 0 156.334 30.833 215.001 92.5s99 148.834 121 261.501l123 633h185l-218 -1120h-184
l33 168c-48.667 -65.333 -102.667 -114.166 -162 -146.499s-124 -48.5 -194 -48.5c-87.333 0 -156.333 24.5 -207 73.5s-76 115.5 -76 199.5c0 26 1.5 54.5 4.5 85.5s7.5 62.5 13.5 94.5zM647 1638l197 -376h-143l-252 376h198z" />
    <glyph glyph-name="uacute" unicode="&#xfa;" 
d="M143 426l133 693.999h185l-135 -694c-4.66699 -24.667 -8.33398 -48.334 -11.001 -71.001s-4 -42 -4 -58c0 -52.667 15.5 -93.167 46.5 -121.5s74.833 -42.5 131.5 -42.5c84.667 0 156.334 30.833 215.001 92.5s99 148.834 121 261.501l123 633h185l-218 -1120h-184
l33 168c-48.667 -65.333 -102.667 -114.166 -162 -146.499s-124 -48.5 -194 -48.5c-87.333 0 -156.333 24.5 -207 73.5s-76 115.5 -76 199.5c0 26 1.5 54.5 4.5 85.5s7.5 62.5 13.5 94.5zM903 1638h219l-395 -376h-156z" />
    <glyph glyph-name="ucircumflex" unicode="&#xfb;" 
d="M713 1638h147l164 -376h-133l-117 241l-225 -241h-156zM143 426l133 693.999h185l-135 -694c-4.66699 -24.667 -8.33398 -48.334 -11.001 -71.001s-4 -42 -4 -58c0 -52.667 15.5 -93.167 46.5 -121.5s74.833 -42.5 131.5 -42.5c84.667 0 156.334 30.833 215.001 92.5
s99 148.834 121 261.501l123 633h185l-218 -1120h-184l33 168c-48.667 -65.333 -102.667 -114.166 -162 -146.499s-124 -48.5 -194 -48.5c-87.333 0 -156.333 24.5 -207 73.5s-76 115.5 -76 199.5c0 26 1.5 54.5 4.5 85.5s7.5 62.5 13.5 94.5z" />
    <glyph glyph-name="udieresis" unicode="&#xfc;" 
d="M143 426l133 693.999h185l-135 -694c-4.66699 -24.667 -8.33398 -48.334 -11.001 -71.001s-4 -42 -4 -58c0 -52.667 15.5 -93.167 46.5 -121.5s74.833 -42.5 131.5 -42.5c84.667 0 156.334 30.833 215.001 92.5s99 148.834 121 261.501l123 633h185l-218 -1120h-184
l33 168c-48.667 -65.333 -102.667 -114.166 -162 -146.499s-124 -48.5 -194 -48.5c-87.333 0 -156.333 24.5 -207 73.5s-76 115.5 -76 199.5c0 26 1.5 54.5 4.5 85.5s7.5 62.5 13.5 94.5zM471 1552h203l-39 -202h-203zM862 1552h203l-39 -202h-203z" />
    <glyph glyph-name="yacute" unicode="&#xfd;" 
d="M786 360c-41.333 -71.333 -96.332 -167.332 -164.999 -287.999c-103.333 -183.333 -173 -299.333 -209 -348c-38.667 -50.667 -82.834 -88.334 -132.501 -113.001s-106.5 -37 -170.5 -37h-148l29 154h108c54 0 100.5 15.5 139.5 46.5s78.5 84.167 118.5 159.5l43 84
l-217 1102h183l172 -862l483 862h205zM907.001 1638h219l-395 -376h-156z" />
    <glyph glyph-name="thorn" unicode="&#xfe;" 
d="M293 141l-111 -566.999h-184l387 1993h184l-114 -590c40.667 54.667 89.667 96.667 147 126s119.333 44 186 44c108 0 191.667 -34.667 251 -104s89 -166.333 89 -291c0 -95.333 -13.167 -191 -39.5 -287s-62.833 -180.667 -109.5 -254
c-50 -78.667 -109 -138.334 -177 -179.001s-142.667 -61 -224 -61c-66.667 0 -123.5 14 -170.5 42s-85.167 70.667 -114.5 128zM569 127.001c54 0 103.334 14.832 148.001 44.499s82 72.834 112 129.501c32.667 61.333 58.334 130.5 77.001 207.5s28 153.167 28 228.5
c0 84.667 -17.167 148.167 -51.5 190.5s-85.5 63.5 -153.5 63.5c-56.667 0 -107.834 -15 -153.501 -45s-84.5 -74.333 -116.5 -133c-32.667 -58.667 -58.334 -126 -77.001 -202s-28 -152 -28 -228c0 -82 18.667 -145.167 56 -189.5s90.333 -66.5 159 -66.5z" />
    <glyph glyph-name="ydieresis" unicode="&#xff;" 
d="M786 360c-41.333 -71.333 -96.332 -167.332 -164.999 -287.999c-103.333 -183.333 -173 -299.333 -209 -348c-38.667 -50.667 -82.834 -88.334 -132.501 -113.001s-106.5 -37 -170.5 -37h-148l29 154h108c54 0 100.5 15.5 139.5 46.5s78.5 84.167 118.5 159.5l43 84
l-217 1102h183l172 -862l483 862h205zM475.001 1552h203l-39 -202h-203zM866.001 1552h203l-39 -202h-203z" />
  </font>
</defs>
</svg>
