<?xml version="1.0" standalone="no"?>
<!DOCTYPE svg PUBLIC "-//W3C//DTD SVG 1.1//EN" "http://www.w3.org/Graphics/SVG/1.1/DTD/svg11.dtd" >
<svg>
<metadata>
Created by FontForge 130127 at Sun Jan 27 20:31:52 2013
 By Ralf S. Engelschall
Copyright (c) 2003 by Bitstream, Inc. All Rights Reserved.
Copyright (c) 2006 by Tavmjong Bah. All Rights Reserved.
DejaVu changes are in public domain

</metadata>
<defs>
<font id="DejaVuSansCondensed-Oblique" horiz-adv-x="1172" >
  <font-face 
    font-family="DejaVu Sans Condensed"
    font-weight="400"
    font-style="oblique"
    font-stretch="semi-condensed"
    units-per-em="2048"
    panose-1="2 11 6 6 3 3 4 11 2 4"
    ascent="1556"
    descent="-492"
    x-height="1120"
    cap-height="1493"
    bbox="-302 -483 1880 1901"
    underline-thickness="90"
    underline-position="-85"
    slope="-11"
    unicode-range="U+0020-00FF"
  />
<missing-glyph horiz-adv-x="1024" 
d="M102 0v1037h820v-1037h-820zM204 102h616v833h-616v-833z" />
    <glyph glyph-name=".notdef" horiz-adv-x="1024" 
d="M102 0v1037h820v-1037h-820zM204 102h616v833h-616v-833z" />
    <glyph glyph-name="space" unicode=" " horiz-adv-x="585" 
 />
    <glyph glyph-name="exclam" unicode="!" horiz-adv-x="738" 
d="M408 1493h182l-115 -655l-81 -357h-146l45 357zM192 254h182l-44 -254h-184z" />
    <glyph glyph-name="quotedbl" unicode="&#x22;" horiz-adv-x="847" 
d="M330 1493v-555h-153v555h153zM670 1493v-555h-152v555h152z" />
    <glyph glyph-name="numbersign" unicode="#" horiz-adv-x="1544" 
d="M807 1470l-93 -415h262l95 415h144l-93 -415h303l-35 -154h-303l-74 -334h306l-32 -153h-309l-93 -414h-144l92 414h-263l-93 -414h-145l94 414h-297l33 153h297l76 334h-303l35 154h303l92 415h145zM942 901h-262l-75 -334h263z" />
    <glyph glyph-name="dollar" unicode="$" 
d="M540 145c83.333 4 149.334 27.499 198.001 70.499s73 98.833 73 167.5c0 56 -15.333 99.333 -46 130s-80.334 52.334 -149.001 65.001zM630.001 1180c-79.333 -9.33301 -141.501 -35.332 -186.501 -77.999s-67.5 -97.334 -67.5 -164.001
c0 -46.667 14.333 -83.167 43 -109.5s75.334 -45.833 140.001 -58.5zM1050 1262l-30.001 -181.002c-52 30.667 -103 54.334 -153 71.001s-98.667 25.667 -146 27l-76 -427c110.667 -19.333 195 -57.666 253 -114.999s87 -131 87 -221c0 -116.667 -43 -213.167 -129 -289.5
s-200 -118.5 -342 -126.5l-53 -301h-90l53 301c-69.333 2 -134.666 10.833 -195.999 26.5s-117 37.5 -167 65.5l31 184c55.333 -41.333 113 -73.333 173 -96s121.667 -35.334 185 -38.001l79 456c-113.333 24 -195.833 60.833 -247.5 110.5s-77.5 116.5 -77.5 200.5
c0 110.667 41.333 204.334 124 281.001s191.334 121 326.001 133l43 233h90l-40 -233c54 -2 106.667 -8.16699 158 -18.5s99.666 -24.5 144.999 -42.5z" />
    <glyph glyph-name="percent" unicode="%" horiz-adv-x="1751" 
d="M433 707c-82 0 -146.833 29.5 -194.5 88.5s-71.5 139.167 -71.5 240.5c0 144 34.833 260.667 104.5 350s160.5 134 272.5 134c81.333 0 145.833 -29.833 193.5 -89.5s71.5 -140.5 71.5 -242.5c0 -142.667 -34.833 -258.5 -104.5 -347.5s-160.167 -133.5 -271.5 -133.5z
M665 1182c0 70 -11.666 122.667 -34.999 158s-58 53 -104 53c-67.333 0 -120 -32.333 -158 -97s-57 -154.667 -57 -270c0 -61.333 12.167 -108.666 36.5 -141.999s59.166 -50 104.499 -50c64 0 115.5 31.667 154.5 95s58.5 147.666 58.5 252.999zM1439 446
c0 71.333 -11.3311 124.668 -33.998 160.001s-57.334 53 -104.001 53c-66 0 -118.167 -32.5 -156.5 -97.5s-57.5 -155.167 -57.5 -270.5c0 -62 12.167 -109.667 36.5 -143s59.166 -50 104.499 -50c64 0 115.167 31.667 153.5 95s57.5 147.666 57.5 252.999zM1209 -28.998
c-82 0 -146.666 29.668 -193.999 89.001s-71 139.666 -71 240.999c0 144 34.667 260.5 104 349.5s159.666 133.5 270.999 133.5c82 0 146.5 -29.333 193.5 -88s70.5 -139 70.5 -241c0 -143.333 -34.667 -259.833 -104 -349.5s-159.333 -134.5 -270 -134.5zM1515 1520
l-1111 -1549h-144l1112 1549h143z" />
    <glyph glyph-name="ampersand" unicode="&#x26;" horiz-adv-x="1437" 
d="M870 260l-383.001 543c-72.667 -58.667 -127.667 -121 -165 -187s-56 -133.333 -56 -202c0 -84.667 25.5 -152.667 76.5 -204s119.167 -77 204.5 -77c56.667 0 112.334 10.833 167.001 32.5s106.667 53.167 156 94.5zM1356 801
c-26.667 -106 -61.9971 -202.998 -105.997 -290.998s-97 -168 -159 -240l188 -270h-227l-95 139c-64 -55.333 -132.5 -97.166 -205.5 -125.499s-149.5 -42.5 -229.5 -42.5c-132.667 0 -238.5 36.333 -317.5 109s-118.5 169 -118.5 289c0 102.667 27.833 199.667 83.5 291
s138.167 175.666 247.5 252.999c-18.667 30.667 -32.334 61.834 -41.001 93.501s-13 65.5 -13 101.5c0 45.333 6.83301 88.333 20.5 129s33.5 77.667 59.5 111c41.333 54.667 93.166 97 155.499 127s129.5 45 201.5 45c46.667 0 93.667 -6 141 -18s95.333 -30 144 -54
l-31 -182c-45.333 31.333 -90.333 55.166 -135 71.499s-88 24.5 -130 24.5c-74 0 -134.333 -21.5 -181 -64.5s-70 -97.833 -70 -164.5c0 -29.333 5.66699 -58.333 17 -87s37.666 -72.334 78.999 -131.001l367 -520c44.667 52.667 83 113.167 115 181.5
s56.333 143.166 73 224.499h167z" />
    <glyph glyph-name="quotesingle" unicode="'" horiz-adv-x="506" 
d="M330 1493v-555h-153v555h153z" />
    <glyph glyph-name="parenleft" unicode="(" horiz-adv-x="719" 
d="M787 1554c-159.333 -220.667 -278.168 -430.167 -356.501 -628.5s-117.5 -389.5 -117.5 -573.5c0 -105.333 11.5 -209.833 34.5 -313.5s57.167 -206.5 102.5 -308.5h-144c-55.333 114.667 -96.5 226.167 -123.5 334.5s-40.5 214.5 -40.5 318.5
c0 198 41.333 394.167 124 588.5s207.334 388.5 374.001 582.5h147z" />
    <glyph glyph-name="parenright" unicode=")" horiz-adv-x="719" 
d="M-114 -270c159.333 220.667 278 430.167 356 628.5s117 389.5 117 573.5c0 105.333 -11.167 209.833 -33.5 313.5s-56.5 206.5 -102.5 308.5h144c55.333 -115.333 96.5 -226.666 123.5 -333.999s40.5 -213 40.5 -317c0 -198.667 -41.5 -395.834 -124.5 -591.501
s-207.5 -389.5 -373.5 -581.5h-147z" />
    <glyph glyph-name="asterisk" unicode="*" horiz-adv-x="921" 
d="M867 1247l-323 -194l323 -195l-53 -98l-302 203v-377h-102v377l-303 -203l-52 98l323 195l-323 194l52 99l303 -203v377h102v-377l302 203z" />
    <glyph glyph-name="plus" unicode="+" horiz-adv-x="1544" 
d="M848 1284v-557h501v-170h-501v-557h-151v557h-502v170h502v557h151z" />
    <glyph glyph-name="comma" unicode="," horiz-adv-x="585" 
d="M166 254h190l-30 -172l-204 -320h-117l130 320z" />
    <glyph glyph-name="hyphen" unicode="-" horiz-adv-x="665" 
d="M112 643h486l-28 -164h-487z" />
    <glyph glyph-name="period" unicode="." horiz-adv-x="585" 
d="M151 254h190l-44 -254h-190z" />
    <glyph glyph-name="slash" unicode="/" horiz-adv-x="621" 
d="M626 1493h161l-763 -1683h-159z" />
    <glyph glyph-name="zero" unicode="0" 
d="M704 1520c121.333 0 214.331 -45 278.998 -135s97 -219.333 97 -388c0 -128 -15.167 -255.167 -45.5 -381.5s-72.833 -239.5 -127.5 -339.5c-55.333 -100 -120.666 -175.833 -195.999 -227.5s-158.666 -77.5 -249.999 -77.5c-118 0 -209 45.333 -273 136
s-96 219.667 -96 387c0 126.667 15.333 253.5 46 380.5s73.667 240.167 129 339.5c55.333 100 120 176 194 228s155 78 243 78zM692.998 1360c-45.333 0 -88.667 -13.499 -130 -40.499s-78.333 -66.833 -111 -119.5c-55.333 -88 -99.333 -197.833 -132 -329.5
s-49 -266.834 -49 -405.501c0 -110 17.5 -193.167 52.5 -249.5s86.833 -84.5 155.5 -84.5c48 0 92.333 13.5 133 40.5s77.667 66.833 111 119.5c54.667 87.333 98 196.833 130 328.5s48 267.167 48 406.5c0 110 -17.5 193.167 -52.5 249.5s-86.833 84.5 -155.5 84.5z" />
    <glyph glyph-name="one" unicode="1" 
d="M120 170h297l200 1149l-335 -72l31 174l334 72h183l-232 -1323h296l-29 -170h-775z" />
    <glyph glyph-name="two" unicode="2" 
d="M850 721l-580.999 -553.002h642l-32 -168h-872l30 170l607 578c80.667 78 138 146.5 172 205.5s51 119.5 51 181.5c0 64.667 -20.5 117.334 -61.5 158.001s-94.5 61 -160.5 61c-56.667 0 -119.834 -11.333 -189.501 -34s-144.167 -55.667 -223.5 -99l34 200
c74 32.667 144.833 57.334 212.5 74.001s130.5 25 188.5 25c117.333 0 211.833 -34.667 283.5 -104s107.5 -160.333 107.5 -273c0 -76 -17 -148.5 -51 -217.5s-86.333 -137.167 -157 -204.5z" />
    <glyph glyph-name="three" unicode="3" 
d="M292 1456c66 21.333 129.997 37.332 191.997 47.999s123 16 183 16c118.667 0 212.834 -29.333 282.501 -88s104.5 -137.334 104.5 -236.001c0 -96.667 -27.5 -179.667 -82.5 -249s-130.833 -116.666 -227.5 -141.999c76 -24 131.667 -61.333 167 -112
s53 -117.667 53 -201c0 -80 -17.333 -155 -52 -225s-84.334 -130.333 -149.001 -181c-49.333 -38.667 -108.166 -67.5 -176.499 -86.5s-147.166 -28.5 -236.499 -28.5c-56 0 -112.833 6.16699 -170.5 18.5s-116.167 30.833 -175.5 55.5l33 191
c56.667 -34.667 113.5 -60.5 170.5 -77.5s115.5 -25.5 175.5 -25.5c118.667 0 214.667 33.833 288 101.5s110 155.5 110 263.5c0 69.333 -23.333 122.833 -70 160.5s-113.667 56.5 -201 56.5h-156l28 164h165c100 0 178.5 25.333 235.5 76s85.5 119.334 85.5 206.001
c0 62.667 -21 111.167 -63 145.5s-101 51.5 -177 51.5c-57.333 0 -116.166 -6.83301 -176.499 -20.5s-122.833 -34.167 -187.5 -61.5z" />
    <glyph glyph-name="four" unicode="4" 
d="M793 1493h229l-172 -973h191l-29 -168h-192l-60 -352h-181l61 352h-607l35 195zM809 1317l-599 -797h459z" />
    <glyph glyph-name="five" unicode="5" 
d="M1071 1493l-27.999 -168.001h-556l-65 -369c28 10 56.167 17.333 84.5 22s57.166 7 86.499 7c124 0 222 -37 294 -111s108 -174.333 108 -301c0 -88.667 -18.333 -173.667 -55 -255s-89 -152.666 -157 -213.999c-48 -42.667 -106.667 -75.5 -176 -98.5
s-145 -34.5 -227 -34.5c-54 0 -109.167 5.33301 -165.5 16s-115.5 26.667 -177.5 48l33 188c55.333 -30 110.833 -52.5 166.5 -67.5s111.5 -22.5 167.5 -22.5c117.333 0 214.166 39 290.499 117s114.5 175.667 114.5 293c0 86.667 -25 154 -75 202s-120 72 -210 72
c-47.333 0 -96.666 -6.16699 -147.999 -18.5s-104 -30.833 -158 -55.5l130 750h723z" />
    <glyph glyph-name="six" unicode="6" 
d="M846 553c0 84.667 -19.501 151.5 -58.501 200.5s-92.167 73.5 -159.5 73.5c-92.667 0 -170.667 -39.833 -234 -119.5s-95 -178.167 -95 -295.5c0 -88 19.333 -156.833 58 -206.5s92.334 -74.5 161.001 -74.5c93.333 0 171.333 40.833 234 122.5s94 181.5 94 299.5z
M1091 1458l-31.002 -183.999c-34.667 25.333 -74.5 44.666 -119.5 57.999s-93.167 20 -144.5 20c-124 0 -223.667 -43.333 -299 -130s-131.666 -222.334 -168.999 -407.001c44 56.667 95 99.5 153 128.5s120.667 43.5 188 43.5c109.333 0 196.666 -35.167 261.999 -105.5
s98 -164.833 98 -283.5c0 -97.333 -16.167 -187.833 -48.5 -271.5s-78.833 -157.167 -139.5 -220.5c-42 -43.333 -91 -76.666 -147 -99.999s-115.333 -35 -178 -35c-124 0 -221.667 43.667 -293 131s-107 207 -107 359c0 141.333 16.333 277.5 49 408.5
s78.334 244.5 137.001 340.5c62 101.333 137 178.333 225 231s185 79 291 79c46.667 0 92.834 -5.16699 138.501 -15.5s90.5 -25.833 134.5 -46.5z" />
    <glyph glyph-name="seven" unicode="7" 
d="M236 1493h920l-17 -86l-768 -1407h-200l726 1323h-691z" />
    <glyph glyph-name="eight" unicode="8" 
d="M820 453c0 75.333 -23.668 136.832 -71.001 184.499s-109.666 71.5 -186.999 71.5c-93.333 0 -170.5 -31.167 -231.5 -93.5s-91.5 -141.166 -91.5 -236.499c0 -76 23.333 -136.333 70 -181s109.667 -67 189 -67c94 0 171.167 30.333 231.5 91s90.5 137.667 90.5 231z
M912.999 1149c0 63.333 -21.002 114.333 -63.002 153s-98 58 -168 58c-82 0 -149.5 -25.667 -202.5 -77s-79.5 -115.666 -79.5 -192.999c0 -66.667 20.833 -120.334 62.5 -161.001s96.834 -61 165.501 -61c82.667 0 150.834 26.5 204.501 79.5s80.5 120.167 80.5 201.5z
M788.997 785.999c68 -28.667 120.001 -71.999 156.001 -129.999s54 -128 54 -210c0 -138 -48 -251.667 -144 -341s-220 -134 -372 -134c-128.667 0 -231.167 35.167 -307.5 105.5s-114.5 164.166 -114.5 281.499c0 106.667 32.667 201.5 98 284.5
s150.666 135.833 255.999 158.5c-63.333 24 -111.5 61.167 -144.5 111.5s-49.5 111.5 -49.5 183.5c0 120.667 45.167 221.5 135.5 302.5s204.833 121.5 343.5 121.5c116 0 210.5 -32.833 283.5 -98.5s109.5 -149.167 109.5 -250.5c0 -88 -27.167 -166.5 -81.5 -235.5
s-128.5 -118.833 -222.5 -149.5z" />
    <glyph glyph-name="nine" unicode="9" 
d="M81 33l32.998 183.999c34.667 -25.333 74.334 -44.666 119.001 -57.999s92.334 -20 143.001 -20c124 0 224 43.667 300 131s132.667 223.333 170 408c-44.667 -56.667 -96.167 -99.834 -154.5 -129.501s-121.166 -44.5 -188.499 -44.5
c-109.333 0 -196.166 35.167 -260.499 105.5s-96.5 164.833 -96.5 283.5c0 97.333 15.833 187.833 47.5 271.5s78.5 156.834 140.5 219.501c42 44 90.5 77.667 145.5 101s113.833 35 176.5 35c124 0 222 -43.833 294 -131.5s108 -207.167 108 -358.5
c0 -140.667 -16.667 -276.667 -50 -408s-79.333 -245 -138 -341c-62 -101.333 -136.833 -178.333 -224.5 -231s-184.834 -79 -291.501 -79c-46.667 0 -92.834 5.16699 -138.501 15.5s-90.5 25.833 -134.5 46.5zM325.998 939.999c0 -84.667 19.832 -151.833 59.499 -201.5
s92.834 -74.5 159.501 -74.5c93.333 0 171.5 39.667 234.5 119s94.5 178 94.5 296c0 88 -19.5 156.833 -58.5 206.5s-92.833 74.5 -161.5 74.5c-92.667 0 -170.5 -40.5 -233.5 -121.5s-94.5 -180.5 -94.5 -298.5z" />
    <glyph glyph-name="colon" unicode=":" horiz-adv-x="621" 
d="M282 1059h190l-44 -254h-190zM140 254h190l-45 -254h-190z" />
    <glyph glyph-name="semicolon" unicode=";" horiz-adv-x="621" 
d="M162 254h190l-32 -172l-202 -320h-116l128 320zM302 1059h190l-44 -254h-190z" />
    <glyph glyph-name="less" unicode="&#x3c;" horiz-adv-x="1544" 
d="M1349 1008l-929 -367l929 -365v-182l-1154 465v166l1154 465v-182z" />
    <glyph glyph-name="equal" unicode="=" horiz-adv-x="1544" 
d="M195 930h1154v-168h-1154v168zM195 522h1154v-170h-1154v170z" />
    <glyph glyph-name="greater" unicode="&#x3e;" horiz-adv-x="1544" 
d="M195 1008v182l1154 -465v-166l-1154 -465v182l927 365z" />
    <glyph glyph-name="question" unicode="?" horiz-adv-x="978" 
d="M459 254l-44 -254h-183l44 254h183zM260 1407c61.333 38 122.5 66.3301 183.5 84.9971s123.167 28 186.5 28c96.667 0 172.834 -25 228.501 -75s83.5 -118 83.5 -204c0 -68.667 -16 -133 -48 -193s-84.333 -122.667 -157 -188l-93 -84
c-50.667 -44 -84.334 -81.667 -101.001 -113s-30.667 -77.666 -42 -138.999l-22 -123h-171l28 154c10.667 62.667 27.667 115.834 51 159.501s68.333 96.167 135 157.5l95 89c50.667 46.667 86.167 87.667 106.5 123s30.5 72 30.5 110c0 50.667 -16.333 90.334 -49 119.001
s-77.667 43 -135 43c-48 0 -101.667 -11.833 -161 -35.5s-120 -57.5 -182 -101.5z" />
    <glyph glyph-name="at" unicode="@" horiz-adv-x="1843" 
d="M1128 238c-41.333 -49.333 -86.165 -86.667 -134.498 -112s-98.833 -38 -151.5 -38c-88 0 -161 33 -219 99s-87 149.667 -87 251c0 146.667 44.667 274.834 134 384.501s193.666 164.5 312.999 164.5c55.333 0 104.666 -13.333 147.999 -40s76.666 -63.667 99.999 -111
l25 131h128l-128 -738c106 18.667 193.167 78.667 261.5 180s102.5 221.666 102.5 360.999c0 155.333 -49.5 282.166 -148.5 380.499s-227.167 147.5 -384.5 147.5c-106.667 0 -209.834 -20.833 -309.501 -62.5s-187.5 -100.5 -263.5 -176.5
c-87.333 -89.333 -155.166 -192.666 -203.499 -309.999s-72.5 -237.333 -72.5 -360c0 -174 52.333 -317.833 157 -431.5s238 -170.5 400 -170.5c77.333 0 153.5 14.5 228.5 43.5s153.5 74.5 235.5 136.5l74 -114c-81.333 -68 -168.833 -119.5 -262.5 -154.5
s-190.167 -52.5 -289.5 -52.5c-193.333 0 -354 71.333 -482 214s-192 323 -192 541c0 150 31.333 295.167 94 435.5s150.334 261.5 263.001 363.5c84 76 180 135 288 177s218.667 63 332 63c192 0 351.167 -63 477.5 -189s189.5 -283.667 189.5 -473
c0 -196.667 -61 -360.5 -183 -491.5s-277.667 -198.5 -467 -202.5zM985.001 845.999c-84.667 0 -156.667 -37.167 -216 -111.5s-89 -163.5 -89 -267.5c0 -74.667 17.167 -133 51.5 -175s81.833 -63 142.5 -63c85.333 0 156.666 38 213.999 114s86 169.333 86 280
c0 68 -17.167 122.167 -51.5 162.5s-80.166 60.5 -137.499 60.5z" />
    <glyph glyph-name="A" unicode="A" horiz-adv-x="1260" 
d="M679 1493h206l249 -1493h-190l-56 383h-604l-190 -383h-192zM744 1294l-377 -743h493z" />
    <glyph glyph-name="B" unicode="B" horiz-adv-x="1264" 
d="M311 1493l465 0.00195312c126 0 220.167 -26 282.5 -78s93.5 -130.333 93.5 -235c0 -96 -26.833 -178.833 -80.5 -248.5s-124.167 -111.834 -211.5 -126.501c74.667 -18.667 130.667 -54.334 168 -107.001s56 -123 56 -211c0 -150 -50 -268.667 -150 -356
s-236.667 -131 -410 -131h-474zM356 713.002l-96.001 -547h293c109.333 0 193.833 28 253.5 84s89.5 135 89.5 237c0 78.667 -19.667 136 -59 172s-102.666 54 -189.999 54h-291zM462.999 1327l-80 -450.002h271c96.667 0 172.167 23.333 226.5 70
s81.5 111.334 81.5 194.001c0 64.667 -18.333 111.834 -55 141.501s-95 44.5 -175 44.5h-269z" />
    <glyph glyph-name="C" unicode="C" horiz-adv-x="1287" 
d="M1281 1378l-37.002 -213.003c-58 64.667 -119.167 112.667 -183.5 144s-134.166 47 -209.499 47c-102 0 -192 -27.333 -270 -82s-145 -138 -201 -250c-36 -72 -63.5 -148.167 -82.5 -228.5s-28.5 -161.166 -28.5 -242.499c0 -136 31.667 -239.667 95 -311
s155.333 -107 276 -107c83.333 0 163.333 14.833 240 44.5s151.334 74.167 224.001 133.5l-42 -239c-71.333 -34 -143.5 -59.667 -216.5 -77s-146.167 -26 -219.5 -26c-172 0 -306.5 52 -403.5 156s-145.5 248.667 -145.5 434c0 118.667 18.5 235.334 55.5 350.001
s90.167 219.334 159.5 314.001c72.667 100.667 156 175 250 223s203.333 72 328 72c77.333 0 150.333 -11.833 219 -35.5s132.667 -59.167 192 -106.5z" />
    <glyph glyph-name="D" unicode="D" horiz-adv-x="1419" 
d="M311 1493l391 0.00292969c207.333 0 364 -48.833 470 -146.5s159 -242.834 159 -435.501c0 -127.333 -20.167 -249.833 -60.5 -367.5s-95.833 -216.834 -166.5 -297.501c-71.333 -82.667 -161.833 -144.334 -271.5 -185.001s-239.5 -61 -389.5 -61h-393zM464 1327
l-201.999 -1161h238c203.333 0 360.666 65 471.999 195s167 313.333 167 550c0 143.333 -36 248.5 -108 315.5s-184.667 100.5 -338 100.5h-229z" />
    <glyph glyph-name="E" unicode="E" horiz-adv-x="1164" 
d="M311 1493h850l-30 -170h-668l-78 -442h642l-30 -170h-641l-94 -541h684l-30 -170h-866z" />
    <glyph glyph-name="F" unicode="F" horiz-adv-x="1060" 
d="M311 1493h771l-30 -170h-589l-78 -440h533l-30 -170h-532l-126 -713h-180z" />
    <glyph glyph-name="G" unicode="G" horiz-adv-x="1428" 
d="M1006 223l69.9971 390.999h-298l28 166h476l-116 -657c-79.333 -48.667 -166.166 -86.167 -260.499 -112.5s-189.166 -39.5 -284.499 -39.5c-168.667 0 -300.5 52 -395.5 156s-142.5 248.667 -142.5 434c0 154 28.833 300.5 86.5 439.5s137.834 254.833 240.501 347.5
c64 58 134 101.167 210 129.5s160.667 42.5 254 42.5c84 0 164.5 -11.833 241.5 -35.5s150.5 -59.167 220.5 -106.5l-36 -215c-54 62.667 -117.333 110.5 -190 143.5s-150 49.5 -232 49.5c-96 0 -180.167 -20.167 -252.5 -60.5s-137.166 -102.833 -194.499 -187.5
c-48.667 -72 -87 -156.833 -115 -254.5s-42 -197.167 -42 -298.5c0 -139.333 32.167 -244.166 96.5 -314.499s160.166 -105.5 287.499 -105.5c63.333 0 124.833 7.5 184.5 22.5s114.167 36.833 163.5 65.5z" />
    <glyph glyph-name="H" unicode="H" horiz-adv-x="1386" 
d="M311 1493h183l-107 -612h660l107 612h182l-261 -1493h-183l125 711h-660l-125 -711h-182z" />
    <glyph glyph-name="I" unicode="I" horiz-adv-x="543" 
d="M311 1493h183l-262 -1493h-182z" />
    <glyph glyph-name="J" unicode="J" horiz-adv-x="543" 
d="M308 1493h181.999l-243 -1389c-32 -180.667 -85.667 -311.5 -161 -392.5s-180.666 -121.5 -315.999 -121.5h-72l29 170h57c81.333 0 143 25.667 185 77s74 140.333 96 267z" />
    <glyph glyph-name="K" unicode="K" horiz-adv-x="1208" 
d="M311 1493h183l-111 -629l706 629h242l-798 -713l584 -780h-221l-537 727l-127 -727h-182z" />
    <glyph glyph-name="L" unicode="L" horiz-adv-x="1026" 
d="M310 1493h182l-230 -1325h654l-30 -168h-836z" />
    <glyph glyph-name="M" unicode="M" horiz-adv-x="1590" 
d="M311 1493h273l157 -1006l520 1006h280l-262 -1493h-177l229 1309l-527 -1022h-178l-171 1026l-228 -1313h-177z" />
    <glyph glyph-name="N" unicode="N" horiz-adv-x="1378" 
d="M311 1493h245l371 -1280l225 1280h177l-262 -1493h-245l-370 1288l-225 -1288h-177z" />
    <glyph glyph-name="O" unicode="O" horiz-adv-x="1450" 
d="M841 1356c-100 0 -188 -26.832 -264 -80.499s-142.333 -135.5 -199 -245.5c-36 -70 -63.5 -144.333 -82.5 -223s-28.5 -158 -28.5 -238c0 -138.667 29.833 -245.667 89.5 -321s144.167 -113 253.5 -113c98.667 0 186.5 27.167 263.5 81.5s142.833 135.166 197.5 242.499
c36.667 72 64.667 147.5 84 226.5s29 157.833 29 236.5c0 138 -30 244.833 -90 320.5s-144.333 113.5 -253 113.5zM605 -28.999c-165.333 0 -295.168 54.333 -389.501 163s-141.5 257.334 -141.5 446.001c0 108 18.333 218.333 55 331s87.667 213 153 301
c76 103.333 160.833 180.5 254.5 231.5s196.834 76.5 309.501 76.5c164.667 0 294.334 -53.833 389.001 -161.5s142 -254.5 142 -440.5c0 -114.667 -18 -227.334 -54 -338.001s-87.667 -211 -155 -301c-76.667 -104 -161.334 -181.333 -254.001 -232s-195.667 -76 -309 -76z
" />
    <glyph glyph-name="P" unicode="P" horiz-adv-x="1111" 
d="M311 1493h421c122 0 215.167 -31.667 279.5 -95s96.5 -156 96.5 -278c0 -164 -47.333 -291.667 -142 -383s-228 -137 -400 -137h-228l-106 -600h-182zM464 1327l-97 -561h229c103.333 0 182.5 29.333 237.5 88s82.5 142.667 82.5 252c0 70 -18.667 124.333 -56 163
s-90 58 -158 58h-238z" />
    <glyph glyph-name="Q" unicode="Q" horiz-adv-x="1450" 
d="M665 -27c-6.66699 -0.666992 -13.501 -1.16504 -20.501 -1.49805s-17.833 -0.5 -32.5 -0.5c-168 0 -299.333 53.5 -394 160.5s-142 254.833 -142 443.5c0 111.333 18 223 54 335s86.667 212.667 152 302c74.667 102.667 159 179.667 253 231s197.667 77 311 77
c164.667 0 294.334 -53.833 389.001 -161.5s142 -254.5 142 -440.5c0 -200.667 -49.5 -384.334 -148.5 -551.001s-228.167 -284.334 -387.5 -353.001l182 -278h-203zM840.999 1356c-100 0 -188 -26.832 -264 -80.499s-142.333 -135.5 -199 -245.5
c-36 -70 -63.5 -144.333 -82.5 -223s-28.5 -158 -28.5 -238c0 -138.667 29.833 -245.667 89.5 -321s144.167 -113 253.5 -113c98.667 0 186.5 27.167 263.5 81.5s142.833 135.166 197.5 242.499c36.667 72 64.667 147.5 84 226.5s29 157.833 29 236.5
c0 138 -30 244.833 -90 320.5s-144.333 113.5 -253 113.5z" />
    <glyph glyph-name="R" unicode="R" horiz-adv-x="1280" 
d="M464 1327l-91 -530.001h234c91.333 0 165.333 28.167 222 84.5s85 129.833 85 220.5c0 72.667 -19 128.334 -57 167.001s-92.667 58 -164 58h-229zM798 716.999c38.667 -10 70.6689 -34.6689 96.002 -74.002s55 -117.666 89 -234.999l114 -408h-192l-105 383
c-26.667 98.667 -57.834 164.667 -93.501 198s-89.834 50 -162.501 50h-201l-111 -631h-182l261 1493h410c124 0 219.167 -31.167 285.5 -93.5s99.5 -152.166 99.5 -269.499c0 -104 -28.167 -194 -84.5 -270s-130.833 -123.667 -223.5 -143z" />
    <glyph glyph-name="S" unicode="S" horiz-adv-x="1170" 
d="M1112 1444l-36.0029 -197c-60 36 -120 63.167 -180 81.5s-117.667 27.5 -173 27.5c-108.667 0 -195.167 -26.333 -259.5 -79s-96.5 -122.667 -96.5 -210c0 -48 11.833 -84.833 35.5 -110.5s84.834 -53.167 183.501 -82.5l109 -30
c122.667 -35.333 208 -80.166 256 -134.499s72 -130.5 72 -228.5c0 -150.667 -53.167 -273.334 -159.5 -368.001s-246.5 -142 -420.5 -142c-71.333 0 -143 7.83301 -215 23.5s-144.333 39.5 -217 71.5l37 208c66.667 -46 133.334 -80.667 200.001 -104
s133.334 -35 200.001 -35c113.333 0 204.333 28 273 84s103 129 103 219c0 60 -13.667 105.5 -41 136.5s-86 59.167 -176 84.5l-109 31c-124.667 36 -209.5 77.5 -254.5 124.5s-67.5 112.833 -67.5 197.5c0 148.667 51.333 270.5 154 365.5s236.667 142.5 402 142.5
c64 0 127.5 -6.33301 190.5 -19s126.167 -31.667 189.5 -57z" />
    <glyph glyph-name="T" unicode="T" horiz-adv-x="1125" 
d="M109 1493h1137l-29 -170h-480l-230 -1323h-183l230 1323h-475z" />
    <glyph glyph-name="U" unicode="U" horiz-adv-x="1349" 
d="M285 1493h183.001l-158 -907c-6.66699 -40.667 -11.334 -74.167 -14.001 -100.5s-4 -49.5 -4 -69.5c0 -92 23 -161.833 69 -209.5s113.667 -71.5 203 -71.5c116 0 206.333 35.333 271 106s110.667 185.667 138 345l158 907h183l-162 -932
c-35.333 -201.333 -102.5 -350 -201.5 -446s-234.5 -144 -406.5 -144c-134.667 0 -241.167 37.5 -319.5 112.5s-117.5 176.833 -117.5 305.5c0 23.333 1.5 49.5 4.5 78.5s7.5 60.167 13.5 93.5z" />
    <glyph glyph-name="V" unicode="V" horiz-adv-x="1260" 
d="M380 0l-236 1493h178l196 -1284l652 1284h198l-777 -1493h-211z" />
    <glyph glyph-name="W" unicode="W" horiz-adv-x="1822" 
d="M177 1493h177l64 -1270l507 1270h203l66 -1270l502 1270h184l-598 -1493h-228l-62 1245l-503 -1245h-229z" />
    <glyph glyph-name="X" unicode="X" horiz-adv-x="1262" 
d="M253 1493h183l231 -539l417 539h212l-554 -713l334 -780h-182l-271 629l-491 -629h-211l628 803z" />
    <glyph glyph-name="Y" unicode="Y" horiz-adv-x="1125" 
d="M116 1493h195l251 -614l479 614h205l-610 -782l-124 -711h-182l124 711z" />
    <glyph glyph-name="Z" unicode="Z" horiz-adv-x="1262" 
d="M241 1493h1055l-26 -154l-1041 -1169h856l-28 -170h-1097l26 154l1041 1169h-815z" />
    <glyph glyph-name="bracketleft" unicode="[" horiz-adv-x="719" 
d="M392 1556h382l-26 -143h-215l-269 -1540h215l-24 -143h-381z" />
    <glyph glyph-name="backslash" unicode="\" horiz-adv-x="621" 
d="M310 1493l173 -1683h-151l-175 1683h153z" />
    <glyph glyph-name="bracketright" unicode="]" horiz-adv-x="719" 
d="M630 1556l-319 -1826h-381l24 143h215l269 1540h-213l23 143h382z" />
    <glyph glyph-name="asciicircum" unicode="^" horiz-adv-x="1544" 
d="M860 1493l489 -557h-181l-396 395l-396 -395h-181l489 557h176z" />
    <glyph glyph-name="underscore" unicode="_" horiz-adv-x="921" 
d="M940 -340v-143h-958v143h958z" />
    <glyph glyph-name="grave" unicode="`" horiz-adv-x="921" 
d="M527 1638l189 -374h-139l-227 374h177z" />
    <glyph glyph-name="a" unicode="a" horiz-adv-x="1129" 
d="M990 639l-112 -638.998h-166l30 170c-48 -66.667 -103.167 -116.5 -165.5 -149.5s-131.5 -49.5 -207.5 -49.5c-86 0 -156.333 29.167 -211 87.5s-82 133.166 -82 224.499c0 130.667 46.833 234 140.5 310s223.167 114 388.5 114h230l9 49
c1.33301 5.33301 2.33301 11.166 3 17.499s1 16.166 1 29.499c0 59.333 -21.833 105.5 -65.5 138.5s-104.834 49.5 -183.501 49.5c-54 0 -109.333 -7.66699 -166 -23s-115 -38.333 -175 -69l29 170c62.667 26 123.834 45.5 183.501 58.5s117.5 19.5 173.5 19.5
c118.667 0 209 -28.667 271 -86s93 -140.666 93 -249.999c0 -22 -1.5 -47.833 -4.5 -77.5s-7.5 -61.167 -13.5 -94.5zM811 563.002h-166c-135.333 0 -235.5 -20.167 -300.5 -60.5s-97.5 -102.833 -97.5 -187.5c0 -58.667 16.5 -104.667 49.5 -138s79.167 -50 138.5 -50
c90 0 168.5 35.833 235.5 107.5s111.5 167.5 133.5 287.5z" />
    <glyph glyph-name="b" unicode="b" horiz-adv-x="1170" 
d="M913 684c0 96.667 -19.998 172.333 -59.998 227s-95 82 -165 82c-51.333 0 -99.333 -13.833 -144 -41.5s-83.334 -67.834 -116.001 -120.501c-35.333 -55.333 -63 -119.5 -83 -192.5s-30 -145.833 -30 -218.5c0 -92 19.667 -164.167 59 -216.5s93.333 -78.5 162 -78.5
c52.667 0 101.167 13.5 145.5 40.5s83.166 66.833 116.499 119.5c34.667 54.667 62.5 118.334 83.5 191.001s31.5 142 31.5 208zM398.002 949.999c40.667 61.333 91.8311 109.5 153.498 144.5s125.834 52.5 192.501 52.5c103.333 0 185.5 -38.667 246.5 -116
s91.5 -182 91.5 -314c0 -108 -17.833 -212.667 -53.5 -314s-86.5 -191.333 -152.5 -270c-43.333 -52 -93.166 -92 -149.499 -120s-115.5 -42 -177.5 -42c-65.333 0 -122 16.667 -170 50s-87 83 -117 149l-30 -170h-165l272 1556h166z" />
    <glyph glyph-name="c" unicode="c" horiz-adv-x="1013" 
d="M988 1077l-32.998 -181.999c-39.333 32 -81.5 56 -126.5 72s-91.5 24 -139.5 24c-52.667 0 -102.834 -10.333 -150.501 -31s-87.834 -50 -120.501 -88c-51.333 -58 -91.166 -126 -119.499 -204s-42.5 -158.667 -42.5 -242c0 -100.667 22.667 -175.667 68 -225
s114.333 -74 207 -74c45.333 0 93.666 7.66699 144.999 23s105 38.333 161 69l-31 -182c-48 -22 -97.5 -38.5 -148.5 -49.5s-103.167 -16.5 -156.5 -16.5c-133.333 0 -236 37.167 -308 111.5s-108 180.5 -108 318.5c0 116 18.667 222.833 56 320.5s93 185.5 167 263.5
c50 53.333 109 93.666 177 120.999s142 41 222 41c47.333 0 94 -5.83301 140 -17.5s93 -29.167 141 -52.5z" />
    <glyph glyph-name="d" unicode="d" horiz-adv-x="1170" 
d="M770 168c-44 -64.667 -96.3301 -113.666 -156.997 -146.999s-128 -50 -202 -50c-100.667 0 -180.167 38.167 -238.5 114.5s-87.5 180.833 -87.5 313.5c0 110.667 17.667 216.167 53 316.5s86.666 190.166 153.999 269.499c44 52.667 94 92.834 150 120.501
s114.333 41.5 175 41.5c65.333 0 122.666 -17.333 171.999 -52s87.666 -84.334 114.999 -149.001l108 610h166l-273 -1556h-166zM256.003 432.001c0 -96.667 19.667 -172.002 59 -226.002s94 -81 164 -81c51.333 0 99 13.833 143 41.5s83 68.5 117 122.5
c35.333 56 63.166 120.667 83.499 194s30.5 145.666 30.5 216.999c0 92.667 -19.667 165 -59 217s-93.333 78 -162 78c-52 0 -100.667 -13.667 -146 -41s-83.666 -66.666 -114.999 -117.999c-34.667 -55.333 -62.5 -119.666 -83.5 -192.999s-31.5 -143.666 -31.5 -210.999z
" />
    <glyph glyph-name="e" unicode="e" horiz-adv-x="1134" 
d="M886 660c2 10.667 3.5 21.6689 4.5 33.002s1.5 22.666 1.5 33.999c0 81.333 -21.5 145.666 -64.5 192.999s-101.5 71 -175.5 71c-82 0 -154.5 -28.833 -217.5 -86.5s-110.5 -139.5 -142.5 -245.5zM1030 516.002l-770.003 0.00195312
c-3.33301 -25.333 -5.66602 -45.333 -6.99902 -60s-2 -27.334 -2 -38.001c0 -92.667 25.667 -164.334 77 -215.001s123.666 -76 216.999 -76c72 0 140.167 9 204.5 27s124.166 44.333 179.499 79l-32 -182c-59.333 -26.667 -120.666 -46.667 -183.999 -60
s-127.666 -20 -192.999 -20c-140 0 -247.5 37.167 -322.5 111.5s-112.5 179.833 -112.5 316.5c0 116.667 18.667 225.167 56 325.5s92.333 189.833 165 268.5c46.667 49.333 102.334 87.333 167.001 114s133.334 40 206.001 40c114 0 204.667 -38 272 -114
s101 -178 101 -306c0 -30.667 -1.83301 -63.5 -5.5 -98.5s-9.16699 -72.5 -16.5 -112.5z" />
    <glyph glyph-name="f" unicode="f" horiz-adv-x="648" 
d="M881 1556l-26.001 -153h-158c-60 0 -103.667 -13.167 -131 -39.5s-47.666 -74.5 -60.999 -144.5l-18 -99h273l-25 -143h-272l-171 -977h-167l172 977h-158l23 143h158l14 78c22.667 132 62.667 224.667 120 278s147.333 80 270 80h157z" />
    <glyph glyph-name="g" unicode="g" horiz-adv-x="1170" 
d="M1099 1120l-172.001 -980.999c-32.667 -190 -95.667 -331.667 -189 -425s-219 -140 -377 -140c-58 0 -112 4.83301 -162 14.5s-96.667 24.5 -140 44.5l31 179c40.667 -29.333 83.834 -51 129.501 -65s94.167 -21 145.5 -21c105.333 0 191.666 31.833 258.999 95.5
s112 155.167 134 274.5l14 84c-46 -58.667 -99.667 -103.334 -161 -134.001s-127.333 -46 -198 -46c-102 0 -182.167 37.5 -240.5 112.5s-87.5 178.167 -87.5 309.5c0 103.333 17.667 204.5 53 303.5s85 186.833 149 263.5c42.667 50.667 92.334 89.667 149.001 117
s116 41 178 41c68 0 127.167 -17.5 177.5 -52.5s87.833 -84.5 112.5 -148.5l28 174h167zM849.999 709.001c0 90.667 -19.332 160.667 -57.999 210s-93.334 74 -164.001 74c-44 0 -85.667 -9.66699 -125 -29s-73.333 -46.333 -102 -81
c-45.333 -57.333 -80.833 -124.833 -106.5 -202.5s-38.5 -157.834 -38.5 -240.501c0 -92 19.5 -162.667 58.5 -212s94.833 -74 167.5 -74c104.667 0 192.167 52.833 262.5 158.5s105.5 237.834 105.5 396.501z" />
    <glyph glyph-name="h" unicode="h" horiz-adv-x="1168" 
d="M1027 676l-117.999 -675.999h-167l118 669c5.33301 31.333 9.66602 59 12.999 83s5 43 5 57c0 56 -16 99.667 -48 131s-76.333 47 -133 47c-89.333 0 -166.5 -33.333 -231.5 -100s-107.167 -155.334 -126.5 -266.001l-109 -621h-165l273 1556h165l-107 -612
c42 62.667 95.667 112.167 161 148.5s134 54.5 206 54.5c88.667 0 157.5 -26.667 206.5 -80s73.5 -128.333 73.5 -225c0 -24 -1.33301 -49.667 -4 -77s-6.66699 -57 -12 -89z" />
    <glyph glyph-name="i" unicode="i" horiz-adv-x="512" 
d="M338 1556h165l-40 -233h-166zM262 1120h166l-198 -1120h-165z" />
    <glyph glyph-name="j" unicode="j" horiz-adv-x="512" 
d="M267 1120l166 -0.000976562l-199 -1140l-1 -5c-22 -127.333 -47.333 -214.666 -76 -261.999c-27.333 -44.667 -67 -79 -119 -103s-113.333 -36 -184 -36h-62l27 156h42c65.333 0 111.5 15 138.5 45s49.833 98.333 68.5 205zM345 1556h165l-40 -233h-166z" />
    <glyph glyph-name="k" unicode="k" horiz-adv-x="1067" 
d="M338 1556h165l-158 -907l568 471h215l-634 -536l463 -584h-201l-430 547l-96 -547h-165z" />
    <glyph glyph-name="l" unicode="l" horiz-adv-x="512" 
d="M338 1556h165l-273 -1556h-165z" />
    <glyph glyph-name="m" unicode="m" horiz-adv-x="1795" 
d="M1655 676l-117.998 -676.004h-165l116 670c4.66699 28.667 8.16699 53.334 10.5 74.001s3.5 38.334 3.5 53.001c0 60 -15 106.667 -45 140s-72 50 -126 50c-80.667 0 -152.334 -33.5 -215.001 -100.5s-103.334 -154.167 -122.001 -261.5l-111 -625h-166l118 670
c4.66699 24.667 8.33398 47.5 11.001 68.5s4 39.833 4 56.5c0 60.667 -15 107.834 -45 141.501s-71.667 50.5 -125 50.5c-81.333 0 -153.5 -33.5 -216.5 -100.5s-103.833 -154.167 -122.5 -261.5l-111 -625h-165l197 1120h166l-32 -174
c45.333 65.333 98 115.166 158 149.499s124.667 51.5 194 51.5c73.333 0 133.5 -21.333 180.5 -64s75.167 -102 84.5 -178c50.667 78.667 109.167 138.667 175.5 180s136.5 62 210.5 62c86 0 152.667 -27.667 200 -83s71 -133.666 71 -234.999
c0 -22 -1.33301 -46.167 -4 -72.5s-6.33398 -53.166 -11.001 -80.499z" />
    <glyph glyph-name="n" unicode="n" horiz-adv-x="1168" 
d="M1027 676l-118 -675.999h-167l118 669c5.33301 31.333 9.66602 59 12.999 83s5 43 5 57c0 56 -16 99.667 -48 131s-76.333 47 -133 47c-89.333 0 -166 -32.833 -230 -98.5s-106 -154.834 -126 -267.501l-111 -621h-165l195 1120h166l-34 -176
c46.667 64.667 102.334 114.667 167.001 150s132.667 53 204 53c88.667 0 157.5 -26.667 206.5 -80s73.5 -128.333 73.5 -225c0 -24 -1.33301 -49.667 -4 -77s-6.66699 -57 -12 -89z" />
    <glyph glyph-name="o" unicode="o" horiz-adv-x="1127" 
d="M468 -29c-118 0 -211.334 40.502 -280.001 121.502s-103 191.5 -103 331.5c0 81.333 11.833 164.166 35.5 248.499s54.167 155.166 91.5 212.499c60 89.333 126.5 155.333 199.5 198s155.833 64 248.5 64c114.667 0 207.167 -39.667 277.5 -119s105.5 -183 105.5 -311
c0 -88.667 -11.667 -177 -35 -265s-54 -161 -92 -219c-58.667 -89.333 -124.667 -155.333 -198 -198s-156.666 -64 -249.999 -64zM255.999 430.002c0 -101.333 19.1689 -177.169 57.502 -227.502s96.166 -75.5 173.499 -75.5c110.667 0 202.5 53.833 275.5 161.5
s109.5 244.167 109.5 409.5c0 96.667 -19.5 169.667 -58.5 219s-96.167 74 -171.5 74c-62.667 0 -118.334 -16.167 -167.001 -48.5s-92 -81.5 -130 -147.5c-28.667 -49.333 -50.667 -105.666 -66 -168.999s-23 -128.666 -23 -195.999z" />
    <glyph glyph-name="p" unicode="p" horiz-adv-x="1170" 
d="M914 690c0 98 -19.166 173 -57.499 225s-93.5 78 -165.5 78c-49.333 0 -96.333 -14 -141 -42s-84.334 -68.667 -119.001 -122c-34 -52.667 -61.167 -116.334 -81.5 -191.001s-30.5 -148.667 -30.5 -222c0 -93.333 19.167 -165.166 57.5 -215.499
s92.833 -75.5 163.5 -75.5c52 0 100.333 13.667 145 41s83 67 115 119c34 54.667 61.5 119 82.5 193s31.5 144.667 31.5 212zM401.001 950c44.667 64.667 97.167 113.667 157.5 147s127.5 50 201.5 50c102.667 0 182.5 -37.5 239.5 -112.5s85.5 -180.167 85.5 -315.5
c0 -110.667 -17.667 -216.167 -53 -316.5s-86.333 -190.166 -153 -269.499c-44 -52.667 -94 -92.834 -150 -120.501s-114.667 -41.5 -176 -41.5c-71.333 0 -131.333 16.5 -180 49.5s-85 82.167 -109 147.5l-104 -594h-165l271 1546h165z" />
    <glyph glyph-name="q" unicode="q" horiz-adv-x="1170" 
d="M769 168c-44.667 -64.667 -97.168 -113.667 -157.501 -147s-127.166 -50 -200.499 -50c-102 0 -181.833 38.167 -239.5 114.5s-86.5 181.5 -86.5 315.5c0 108 17.833 212.333 53.5 313s86.834 191 153.501 271c42.667 52 92.167 92 148.5 120s115.166 42 176.499 42
c74.667 0 136 -16.333 184 -49s82.667 -82 104 -148l29 168h167l-269 -1540h-167zM255.999 428c0 -98.667 18.667 -173.834 56 -225.501s91 -77.5 161 -77.5c104.667 0 193.834 55.5 267.501 166.5s110.5 245.833 110.5 404.5c0 96 -19 169.5 -57 220.5
s-92.667 76.5 -164 76.5c-52 0 -100.333 -13.5 -145 -40.5s-83.334 -66.5 -116.001 -118.5c-34.667 -54.667 -62.167 -118.667 -82.5 -192s-30.5 -144.666 -30.5 -213.999z" />
    <glyph glyph-name="r" unicode="r" horiz-adv-x="757" 
d="M822 950c-17.333 10 -36.666 17.665 -57.999 22.998s-44.333 8 -69 8c-88.667 0 -166 -37.167 -232 -111.5s-109.667 -173.833 -131 -298.5l-102 -571h-165l197 1120h166l-32 -174c44 64.667 96.333 114.334 157 149.001s125.667 52 195 52c18 0 35.667 -1.16699 53 -3.5
s34.666 -6.16602 51.999 -11.499z" />
    <glyph glyph-name="s" unicode="s" horiz-adv-x="960" 
d="M922 1087l-32.0029 -173.999c-44 26.667 -90.167 46.667 -138.5 60s-98.5 20 -150.5 20c-86.667 0 -155.167 -16.5 -205.5 -49.5s-75.5 -77.833 -75.5 -134.5c0 -66 58.333 -116.667 175 -152c8.66699 -2.66699 15.334 -4.66699 20.001 -6l53 -18
c110.667 -34 184.334 -69.667 221.001 -107s55 -88.333 55 -153c0 -118.667 -42.333 -215.334 -127 -290.001s-196 -112 -334 -112c-53.333 0 -109.333 5.66699 -168 17s-123.334 29 -194.001 53l32 190c60.667 -34.667 120.334 -61 179.001 -79s115 -27 169 -27
c81.333 0 147.333 19.333 198 58s76 87.667 76 147c0 64 -66.667 115.667 -200 155l-17 5l-57 16c-84 24.667 -145.5 57.167 -184.5 97.5s-58.5 91.833 -58.5 154.5c0 119.333 40.333 214 121 284s190.334 105 329.001 105c54.667 0 108 -5 160 -15s103.333 -25 154 -45z
" />
    <glyph glyph-name="t" unicode="t" horiz-adv-x="722" 
d="M779 1120l-25 -143h-330l-107 -608c-4 -22.667 -6.83301 -41.667 -8.5 -57s-2.5 -27.333 -2.5 -36c0 -42.667 11.5 -73.667 34.5 -93s60.167 -29 111.5 -29h167l-28 -154h-158c-98.667 -0 -172.167 21.333 -220.5 64s-72.5 107.334 -72.5 194.001
c0 15.333 1 32.166 3 50.499s4.66699 38.5 8 60.5l107 608h-140l26 143h138l56 318h165l-55 -318h331z" />
    <glyph glyph-name="u" unicode="u" horiz-adv-x="1168" 
d="M123 444l118.001 675.998h167l-118 -669c-6 -32.667 -10.333 -60.667 -13 -84s-4 -42.666 -4 -57.999c0 -56.667 15.5 -100.5 46.5 -131.5s75.167 -46.5 132.5 -46.5c88.667 0 165.334 33.333 230.001 100s107 156.334 127 269.001l111 620h165l-195 -1120h-166l34 176
c-46.667 -65.333 -102.334 -115.833 -167.001 -151.5s-133.334 -53.5 -206.001 -53.5c-88 0 -156.667 26.833 -206 80.5s-74 128.5 -74 224.5c0 20 1.5 45 4.5 75s7.5 61 13.5 93z" />
    <glyph glyph-name="v" unicode="v" horiz-adv-x="1090" 
d="M132 1120h176l147 -952l483 952h175l-573 -1120h-223z" />
    <glyph glyph-name="w" unicode="w" horiz-adv-x="1507" 
d="M157 1120h163l43 -901l376 901h192l55 -901l358 901h165l-461 -1120h-193l-49 928l-386 -928h-195z" />
    <glyph glyph-name="x" unicode="x" horiz-adv-x="1090" 
d="M1106 1120l-462 -549l283 -571h-190l-213 444l-371 -444h-201l496 590l-264 530h190l194 -405l337 405h201z" />
    <glyph glyph-name="y" unicode="y" horiz-adv-x="1090" 
d="M457 -104c-76.667 -143.333 -139.167 -232.833 -187.5 -268.5s-109.833 -53.5 -184.5 -53.5h-131l28 154h95c46.667 0 86.167 14 118.5 42s68.5 82.667 108.5 164l52 107l-224 1079h176l167 -858l463 858h174z" />
    <glyph glyph-name="z" unicode="z" horiz-adv-x="967" 
d="M214 1120h787l-30 -168l-759 -805h627l-26 -147h-818l29 168l759 805h-595z" />
    <glyph glyph-name="braceleft" unicode="{" 
d="M1115 1556l-25.999 -143.001h-69c-82 0 -137 -13.167 -165 -39.5s-51.333 -89.5 -70 -189.5l-46 -252c-19.333 -106.667 -47.166 -184.167 -83.499 -232.5s-87.833 -79.5 -154.5 -93.5c44 -12 78.167 -35.167 102.5 -69.5s36.5 -76.5 36.5 -126.5
c0 -16 -1.16699 -35 -3.5 -57s-5.83301 -45.667 -10.5 -71l-42 -244c-2.66699 -20.667 -4.83398 -39.834 -6.50098 -57.501s-2.5 -34.5 -2.5 -50.5c0 -42 12.833 -72.5 38.5 -91.5s67.5 -28.5 125.5 -28.5h70l-26 -144h-64c-112.667 0 -193.334 18.167 -242.001 54.5
s-73 95.5 -73 177.5c0 21.333 1 43.333 3 66s5.33301 46.334 10 71.001l40 235c0 2 0.666992 6 2 12c6 33.333 9 65 9 95c0 56.667 -14.667 97.5 -44 122.5s-78 37.5 -146 37.5h-55l25 147h56c86.667 0 149 18.167 187 54.5s66.667 104.833 86 205.5l42 244
c16 82 34.5 146.833 55.5 194.5s48.167 84.5 81.5 110.5c27.333 22.667 61.833 38.834 103.5 48.501s102.167 14.5 181.5 14.5h74z" />
    <glyph glyph-name="bar" unicode="|" horiz-adv-x="621" 
d="M387 1565v-2048h-153v2048h153z" />
    <glyph glyph-name="braceright" unicode="}" 
d="M13 -334l26.002 144.001h70c81.333 0 136.166 13.167 164.499 39.5s51.5 89.5 69.5 189.5l46 252c19.333 106.667 47 184.167 83 232.5s87.333 79.166 154 92.499c-43.333 12.667 -77 36 -101 70s-36 76.333 -36 127c0 16.667 1 35.667 3 57s5 44.666 9 69.999l43 243
c3.33301 22.667 5.66602 42.334 6.99902 59.001s2 33.334 2 50.001c0 42.667 -12.833 73.5 -38.5 92.5s-67.5 28.5 -125.5 28.5h-70l24 143h67c112 0 192.333 -18 241 -54s73 -95 73 -177c0 -20.667 -1 -42.334 -3 -65.001s-5.33301 -47 -10 -73l-41 -235
c0 -2 -0.333008 -6 -1 -12c-6 -32.667 -9 -64 -9 -94c0 -57.333 14.667 -98.333 44 -123s78 -37 146 -37h55l-26 -147h-55c-86.667 0 -149 -18.333 -187 -55s-65.667 -105 -83 -205l-47 -244c-16 -84 -34.5 -149.5 -55.5 -196.5s-47.167 -83.167 -78.5 -108.5
c-28.667 -22.667 -63.667 -39 -105 -49s-102 -15 -182 -15h-73z" />
    <glyph glyph-name="asciitilde" unicode="~" horiz-adv-x="1544" 
d="M1349 817l-0.000976562 -177.999c-62.667 -52.667 -120.834 -90.334 -174.501 -113.001s-109.834 -34 -168.501 -34c-66 0 -142.667 19.667 -230 59l-15 6c-4 2 -10.333 4.66699 -19 8c-93.333 41.333 -168 62 -224 62c-53.333 0 -105.666 -12.833 -156.999 -38.5
s-106.666 -66.167 -165.999 -121.5v178c63.333 52.667 121.833 90.5 175.5 113.5s109.5 34.5 167.5 34.5c66 0 143.333 -20 232 -60c5.33301 -2.66699 9.66602 -4.66699 12.999 -6c4.66699 -2 11.334 -4.66699 20.001 -8c92.667 -41.333 167.334 -62 224.001 -62
c51.333 0 102.333 12.667 153 38s107 66 169 122z" />
    <glyph glyph-name="nonbreakingspace" unicode="&#xa0;" horiz-adv-x="585" 
 />
    <glyph glyph-name="exclamdown" unicode="&#xa1;" horiz-adv-x="738" 
d="M339 0h-182l114 655l81 357h146l-44 -357zM554 1239h-181l44 254h184z" />
    <glyph glyph-name="cent" unicode="&#xa2;" 
d="M682 985c-106.667 -15.333 -196.001 -76.5 -268.001 -183.5s-108 -232.167 -108 -375.5c0 -89.333 18.333 -158.5 55 -207.5s93.334 -80.167 170.001 -93.5zM799.999 1145c44 -4.66699 85.332 -12.498 123.999 -23.498s76.667 -25.833 114 -44.5l-32 -182
c-28 24.667 -60.667 44.5 -98 59.5s-82.666 26.5 -135.999 34.5l-151 -862c39.333 3.33301 81.333 12.5 126 27.5s91.667 36.5 141 64.5l-31 -182c-39.333 -18.667 -80.833 -33.5 -124.5 -44.5s-88.5 -18.167 -134.5 -21.5l-54 -284h-90l53 284
c-118.667 8.66699 -210 50.167 -274 124.5s-96 176.166 -96 305.499c0 204 53 375.167 159 513.5s243.667 215.166 413 230.499l51 285h90z" />
    <glyph glyph-name="sterling" unicode="&#xa3;" 
d="M1174 1460l-30.999 -182.001c-36.667 26.667 -74.667 47 -114 61s-78 21 -116 21c-88.667 0 -155.167 -26.5 -199.5 -79.5s-78.833 -148.833 -103.5 -287.5l-37 -215h352l-26 -143h-352l-81 -465h484l-30 -170h-876l30 170h211l82 465h-179l26 143h178l41 238
c31.333 174.667 86.166 302.334 164.499 383.001s186.833 121 325.5 121c42 0 84 -5 126 -15s83.667 -25 125 -45z" />
    <glyph glyph-name="currency" unicode="&#xa4;" 
d="M802 993l186 209.001l103 -115l-186 -206c22.667 -39.333 39.334 -78.833 50.001 -118.5s16 -80.167 16 -121.5c0 -42 -5.66699 -82.167 -17 -120.5s-29 -76.5 -53 -114.5l188 -207l-103 -113l-186 207c-35.333 -26.667 -70.333 -46.334 -105 -59.001
s-70.334 -19 -107.001 -19c-34.667 0 -70 6.16699 -106 18.5s-72.333 30.833 -109 55.5l-187 -207l-101 115l186 206c-22 41.333 -38.667 81.666 -50 120.999s-17 78.333 -17 117c0 42.667 5.66699 83.334 17 122.001s28.666 76.667 51.999 114l-187 206l104 115l186 -207
c33.333 26 67.333 45.167 102 57.5s71.334 18.5 110.001 18.5c36 0 71.5 -6 106.5 -18s70.833 -30.667 107.5 -56zM830 643.001c0 74.667 -23.334 137.668 -70.001 189.001s-104 77 -172 77c-67.333 0 -124.666 -25.667 -171.999 -77s-71 -114.333 -71 -189
c0 -76 23.5 -140 70.5 -192s104.5 -78 172.5 -78c67.333 0 124.5 26.167 171.5 78.5s70.5 116.166 70.5 191.499z" />
    <glyph glyph-name="yen" unicode="&#xa5;" 
d="M1010 455h-370l-79 -455h-183l79 455h-374l21 123h375l10 51l-49 155h-300l22 123h239l-183 586h171l216 -700l461 700h174l-387 -586h236l-22 -123h-295l-102 -155l-8 -51h368z" />
    <glyph glyph-name="brokenbar" unicode="&#xa6;" horiz-adv-x="621" 
d="M387 408v-758h-153v758h153zM387 1432v-758h-153v758h153z" />
    <glyph glyph-name="section" unicode="&#xa7;" horiz-adv-x="921" 
d="M542 410c49.333 32.667 86.834 67.4961 112.501 104.496s38.5 74.5 38.5 112.5c0 36 -16 72.833 -48 110.5s-91 86.834 -177 147.501l-72 51c-48.667 -34 -85.667 -69.667 -111 -107s-38 -74.666 -38 -111.999c0 -33.333 12.667 -66.166 38 -98.499
s75.666 -76.166 150.999 -131.499zM894.001 1462l-29.001 -164.003c-43.333 26 -85.5 45.5 -126.5 58.5s-78.833 19.5 -113.5 19.5c-62 0 -112.833 -16.167 -152.5 -48.5s-59.5 -72.833 -59.5 -121.5c0 -52.667 40.667 -109 122 -169c18 -13.333 32 -23.666 42 -30.999
l79 -60c73.333 -56.667 122.666 -104.5 147.999 -143.5s38 -81.833 38 -128.5c0 -67.333 -19.667 -131 -59 -191s-93.333 -107.667 -162 -143c24.667 -23.333 43.167 -50 55.5 -80s18.5 -63.333 18.5 -100c0 -104.667 -36.5 -190 -109.5 -256s-169.167 -99 -288.5 -99
c-41.333 0 -85.166 4.83301 -131.499 14.5s-94.166 24.167 -143.499 43.5l29 164c46 -25.333 90.5 -44.666 133.5 -57.999s82.167 -20 117.5 -20c67.333 0 121.166 15.833 161.499 47.5s60.5 73.834 60.5 126.501c0 65.333 -54 138.333 -162 219l-14 10l-68 51
c-74 56 -123.333 102.833 -148 140.5s-37 81.167 -37 130.5c0 64 19.333 124.833 58 182.5s93.334 107.5 164.001 149.5c-26 25.333 -44.833 51.5 -56.5 78.5s-17.5 57.5 -17.5 91.5c0 98 36.5 179.833 109.5 245.5s165.5 98.5 277.5 98.5
c42.667 0 85.667 -4.83301 129 -14.5s88.333 -24.167 135 -43.5z" />
    <glyph glyph-name="dieresis" unicode="&#xa8;" horiz-adv-x="921" 
d="M374 1552h185l-37 -202h-183zM726 1552h183l-35 -202h-183z" />
    <glyph glyph-name="copyright" unicode="&#xa9;" horiz-adv-x="1843" 
d="M922 1485c90.667 0 175.5 -18.333 254.5 -55s151.167 -91.334 216.5 -164.001s114.166 -152.667 146.499 -240s48.5 -182.333 48.5 -285c0 -101.333 -16.167 -195.5 -48.5 -282.5s-81.166 -166.833 -146.499 -239.5s-137.5 -127.334 -216.5 -164.001
s-163.833 -55 -254.5 -55c-91.333 0 -176.5 18.333 -255.5 55s-151.167 91.334 -216.5 164.001s-114.166 152.5 -146.499 239.5s-48.5 181.167 -48.5 282.5c0 102.667 16.167 197.667 48.5 285s81.166 167.333 146.499 240s137.5 127.334 216.5 164.001s164.167 55 255.5 55
zM922 1382c-78.667 0 -152.001 -15.666 -220.001 -46.999s-130 -78.333 -186 -141c-56.667 -62.667 -99.334 -132.167 -128.001 -208.5s-43 -157.833 -43 -244.5c0 -86 14.333 -166.833 43 -242.5s71.334 -144.834 128.001 -207.501c56 -62.667 118 -109.834 186 -141.501
s141.333 -47.5 220 -47.5s152.167 15.833 220.5 47.5s130.5 78.834 186.5 141.501c56 62 98 130.667 126 206s42 156.666 42 243.999c0 88.667 -14.167 170.834 -42.5 246.501s-70.166 144.5 -125.499 206.5c-56 62.667 -118.167 109.667 -186.5 141s-141.833 47 -220.5 47z
M1191 1137v-129.001c-40 22 -79.5 38.333 -118.5 49s-78.167 16 -117.5 16c-89.333 0 -159.166 -29.167 -209.499 -87.5s-75.5 -139.833 -75.5 -244.5c0 -106 25.667 -188 77 -246s123.666 -87 216.999 -87c38.667 0 76.167 5.16699 112.5 15.5s74.5 26.833 114.5 49.5v-127
c-40.667 -19.333 -81.5 -33.666 -122.5 -42.999s-82.5 -14 -124.5 -14c-129.333 0 -231.666 40.667 -306.999 122s-113 191.333 -113 330c0 139.333 37.667 249.333 113 330s177.666 121 306.999 121c44 0 86.333 -4.66699 127 -14s80.667 -23 120 -41z" />
    <glyph glyph-name="ordfeminine" unicode="&#xaa;" horiz-adv-x="868" 
d="M535 1104c-94.667 0 -163.168 -12.501 -205.501 -37.501s-63.5 -65.167 -63.5 -120.5c0 -39.333 11.333 -70.666 34 -93.999s53.334 -35 92.001 -35c69.333 0 127.5 22.5 174.5 67.5s78.833 108.5 95.5 190.5l5 29h-132zM812.999 1165l-79.001 -448.003h-135l20 112
c-34.667 -43.333 -75 -76 -121 -98s-97.667 -33 -155 -33c-64 0 -115.667 20.333 -155 61s-59 94.334 -59 161.001c0 93.333 34.667 166.5 104 219.5s166.333 79.5 291 79.5h164v4c0.666992 12.667 1.33398 22.5 2.00098 29.5s1 12.833 1 17.5
c0 46.667 -13.833 80.834 -41.5 102.501s-71.5 32.5 -131.5 32.5c-42.667 0 -85.667 -5.66699 -129 -17s-87 -28.333 -131 -51l22 127c47.333 18.667 93.833 32.667 139.5 42s88.834 14 129.501 14c90 0 158 -20.667 204 -62s69 -102 69 -182
c0 -18 -0.833008 -36.167 -2.5 -54.5s-3.83398 -37.166 -6.50098 -56.499zM93.998 591.996h620l-21 -123h-619z" />
    <glyph glyph-name="guillemotleft" unicode="&#xab;" horiz-adv-x="1137" 
d="M623 1059l-35 -201l-319 -270l227 -266l-33 -181l-349 418l15 82zM1023 1059l-35 -201l-319 -270l227 -266l-34 -181l-348 418l15 82z" />
    <glyph glyph-name="logicalnot" unicode="&#xac;" horiz-adv-x="1544" 
d="M195 862h1154v-575h-151v405h-1003v170z" />
    <glyph glyph-name="sfthyphen" unicode="&#xad;" horiz-adv-x="665" 
d="M112 643h486l-28 -164h-487z" />
    <glyph glyph-name="registered" unicode="&#xae;" horiz-adv-x="1843" 
d="M922 1382c-78.667 0 -152.001 -15.666 -220.001 -46.999s-130 -78.333 -186 -141c-56.667 -62.667 -99.334 -132.167 -128.001 -208.5s-43 -157.833 -43 -244.5c0 -86 14.333 -166.833 43 -242.5s71.334 -144.834 128.001 -207.501c56 -62.667 118 -109.834 186 -141.501
s141.333 -47.5 220 -47.5s152.167 15.833 220.5 47.5s130.5 78.834 186.5 141.501c56 62 98 130.667 126 206s42 156.666 42 243.999c0 88.667 -14.167 170.834 -42.5 246.501s-70.166 144.5 -125.499 206.5c-56 62.667 -118.167 109.667 -186.5 141s-141.833 47 -220.5 47z
M921.999 1485c90.667 0 175.5 -18.333 254.5 -55s151.167 -91.334 216.5 -164.001s114.166 -152.667 146.499 -240s48.5 -182.333 48.5 -285c0 -101.333 -16.167 -195.5 -48.5 -282.5s-81.166 -166.833 -146.499 -239.5s-137.5 -127.334 -216.5 -164.001
s-163.833 -55 -254.5 -55c-91.333 0 -176.5 18.333 -255.5 55s-151.167 91.334 -216.5 164.001s-114.166 152.5 -146.499 239.5s-48.5 181.167 -48.5 282.5c0 102.667 16.167 197.667 48.5 285s81.166 167.333 146.499 240s137.5 127.334 216.5 164.001s164.167 55 255.5 55
zM896.999 1071h-110v-276h110c66 0 112.167 10.333 138.5 31s39.5 56 39.5 106c0 50.667 -13.333 86.5 -40 107.5s-72.667 31.5 -138 31.5zM903.999 1174c105.333 0 184.169 -19.833 236.502 -59.5s78.5 -99.834 78.5 -180.501c0 -57.333 -15.833 -104.666 -47.5 -141.999
s-76.167 -61.666 -133.5 -72.999c14 -5.33301 31.167 -20.833 51.5 -46.5s44.166 -62.834 71.499 -111.501l123 -223h-154l-117 209c-35.333 64 -63.833 104.5 -85.5 121.5s-48.834 25.5 -81.501 25.5h-59v-356h-140v836h257z" />
    <glyph glyph-name="macron" unicode="&#xaf;" horiz-adv-x="921" 
d="M369 1526h538l-26 -148h-538z" />
    <glyph glyph-name="degree" unicode="&#xb0;" horiz-adv-x="921" 
d="M461 1391c-48 0 -88.501 -18.5 -121.501 -55.5s-49.5 -82.167 -49.5 -135.5c0 -52.667 16.5 -97.167 49.5 -133.5s73.5 -54.5 121.5 -54.5s88.5 18.167 121.5 54.5s49.5 80.833 49.5 133.5s-16.667 97.667 -50 135s-73.666 56 -120.999 56zM460.999 1520
c38 0 74.833 -8.16699 110.5 -24.5s66.167 -39.833 91.5 -70.5c28 -30 48.833 -64 62.5 -102s20.5 -79 20.5 -123c0 -88 -27.667 -162.5 -83 -223.5s-123.333 -91.5 -204 -91.5s-148 30 -202 90s-81 135 -81 225c0 89.333 27.5 165 82.5 227s122.5 93 202.5 93z" />
    <glyph glyph-name="plusminus" unicode="&#xb1;" horiz-adv-x="1544" 
d="M848 1284v-387h501v-170h-501v-387h-151v387h-502v170h502v387h151zM195 170h1154v-170h-1154v170z" />
    <glyph glyph-name="twosuperior" unicode="&#xb2;" horiz-adv-x="738" 
d="M593 1090l-346.002 -308.001h397l-21 -114h-556l19 110l380 340c35.333 30.667 61.833 60.334 79.5 89.001s26.5 56.334 26.5 83.001c0 36 -12.667 65.167 -38 87.5s-59 33.5 -101 33.5c-33.333 0 -69.666 -5.66699 -108.999 -17s-84 -29 -134 -53l22 123
c46 18.667 89.333 32.667 130 42s80.334 14 119.001 14c74 0 133.833 -19 179.5 -57s68.5 -86.667 68.5 -146c0 -41.333 -9.5 -80.833 -28.5 -118.5s-48.167 -73.834 -87.5 -108.501z" />
    <glyph glyph-name="threesuperior" unicode="&#xb3;" horiz-adv-x="738" 
d="M194 1485c49.333 12 93.0029 20.833 131.003 26.5s73.333 8.5 106 8.5c75.333 0 135.5 -17.5 180.5 -52.5s67.5 -81.167 67.5 -138.5c0 -51.333 -17.167 -96 -51.5 -134s-80.5 -63 -138.5 -75c44.667 -10.667 79 -31.667 103 -63s36 -71 36 -119
c0 -84.667 -33.333 -153.334 -100 -206.001s-155.334 -79 -266.001 -79c-38.667 0 -77.5 3.5 -116.5 10.5s-77.5 17.167 -115.5 30.5l21 121c32 -18 64.833 -31.333 98.5 -40s69.167 -13 106.5 -13c74 0 131.833 15.333 173.5 46s62.5 73.334 62.5 128.001
c0 41.333 -14.5 72.5 -43.5 93.5s-72.833 31.5 -131.5 31.5h-78l21 108h83c61.333 0 109.166 12 143.499 36s51.5 57.333 51.5 100c0 35.333 -12.333 61.833 -37 79.5s-61.334 26.5 -110.001 26.5c-34 0 -69.5 -3.5 -106.5 -10.5s-73.833 -17.167 -110.5 -30.5z" />
    <glyph glyph-name="acute" unicode="&#xb4;" horiz-adv-x="921" 
d="M783 1638h179l-359 -376h-139z" />
    <glyph glyph-name="mu" unicode="&#xb5;" 
d="M-24 -426l271 1546h166l-122 -697c-2.66699 -14 -4.83398 -29.667 -6.50098 -47s-2.5 -34.666 -2.5 -51.999c0 -62 17.5 -109.667 52.5 -143s85.167 -50 150.5 -50c88.667 0 160.334 28 215.001 84s91.667 140 111 252l114 653h166l-151 -861
c-2 -12.667 -3.5 -23.667 -4.5 -33s-1.5 -17.666 -1.5 -24.999c0 -20.667 3.83301 -35.834 11.5 -45.501s19.5 -14.5 35.5 -14.5c6 0 14.333 1.66699 25 5s25.334 9.33301 44.001 18l-25 -148c-26 -14.667 -51 -25.834 -75 -33.501s-47.667 -11.5 -71 -11.5
c-39.333 0 -70.333 14 -93 42s-34 66.667 -34 116c-33.333 -53.333 -73.333 -93 -120 -119s-101.334 -39 -164.001 -39c-56 0 -104.833 14.333 -146.5 43s-69.167 66.334 -82.5 113.001l-97 -553h-166z" />
    <glyph glyph-name="paragraph" unicode="&#xb6;" 
d="M691 1493l366 -0.000976562l-296 -1690h-125l275 1567h-172l-275 -1567h-126l147 846c-106.667 4 -190.167 37.333 -250.5 100s-90.5 146.667 -90.5 252c0 140.667 51.667 257.834 155 351.501s234 140.5 392 140.5z" />
    <glyph glyph-name="periodcentered" unicode="&#xb7;" horiz-adv-x="585" 
d="M255 838h190l-45 -254h-190z" />
    <glyph glyph-name="cedilla" unicode="&#xb8;" horiz-adv-x="921" 
d="M429 0c22 -34 38.001 -65.499 48.001 -94.499s15 -57.5 15 -85.5c0 -66.667 -22 -119.167 -66 -157.5s-104.333 -57.5 -181 -57.5c-26 0 -51.833 2 -77.5 6s-51.5 10 -77.5 18l21 131c23.333 -10.667 46.833 -18.667 70.5 -24s48.167 -8 73.5 -8
c36 0 64.667 10.167 86 30.5s32 48.166 32 83.499c0 19.333 -3.83301 41 -11.5 65s-20.834 55 -39.501 93h107z" />
    <glyph glyph-name="onesuperior" unicode="&#xb9;" horiz-adv-x="738" 
d="M140 778h184l107 611l-206 -41l20 116l207 39h130l-127 -725h185l-21 -110h-497z" />
    <glyph glyph-name="ordmasculine" unicode="&#xba;" horiz-adv-x="868" 
d="M709 1180c0 73.333 -14.832 129.167 -44.499 167.5s-73.5 57.5 -131.5 57.5c-70 0 -130.333 -35.667 -181 -107s-76 -157.333 -76 -258c0 -72.667 14.833 -128.667 44.5 -168s72.167 -59 127.5 -59c73.333 0 135.166 35.167 185.499 105.5s75.5 157.5 75.5 261.5z
M559.001 1520c88.667 0 159.501 -28.666 212.501 -85.999s79.5 -134 79.5 -230c0 -146.667 -39.833 -267.667 -119.5 -363s-180.5 -143 -302.5 -143c-90 0 -161.167 30 -213.5 90s-78.5 141.333 -78.5 244c0 45.333 5.66699 90.166 17 134.499s28 87.5 50 129.5
c37.333 70.667 87.166 125.667 149.499 165s130.833 59 205.5 59zM94.002 592.002h620l-21 -123h-619z" />
    <glyph glyph-name="guillemotright" unicode="&#xbb;" horiz-adv-x="1137" 
d="M512 141l35 201l320 270l-227 267l35 180l347 -418l-14 -82zM114 141l35 201l317 270l-225 267l33 180l347 -418l-13 -82z" />
    <glyph glyph-name="onequarter" unicode="&#xbc;" horiz-adv-x="1786" 
d="M1589 710l-354 -415h280zM1589 835h149l-95 -540h123l-19 -109h-123l-33 -186h-127l33 186h-374l22 131zM1367 1520h161l-1109 -1549h-163zM140 778h184l107 611l-206 -41l20 116l207 39h130l-127 -725h185l-21 -110h-497z" />
    <glyph glyph-name="onehalf" unicode="&#xbd;" horiz-adv-x="1786" 
d="M1367 1520h161l-1109 -1549h-163zM140 778h184l107 611l-206 -41l20 116l207 39h130l-127 -725h185l-21 -110h-497zM1640 422l-346.002 -308.001h397l-21 -114h-556l19 110l380 340c35.333 30.667 61.833 60.334 79.5 89.001s26.5 56.334 26.5 83.001
c0 36 -12.667 65.167 -38 87.5s-59 33.5 -101 33.5c-33.333 0 -69.666 -5.66699 -108.999 -17s-84 -29 -134 -53l22 123c46 18.667 89.333 32.667 130 42s80.334 14 119.001 14c74 0 133.833 -19 179.5 -57s68.5 -86.667 68.5 -146c0 -41.333 -9.5 -80.833 -28.5 -118.5
s-48.167 -73.834 -87.5 -108.501z" />
    <glyph glyph-name="threequarters" unicode="&#xbe;" horiz-adv-x="1786" 
d="M1589 710l-354 -415h280zM1589 835h149l-95 -540h123l-19 -109h-123l-33 -186h-127l33 186h-374l22 131zM1367 1520h161l-1109 -1549h-163zM194 1485c49.333 12 93.0029 20.833 131.003 26.5s73.333 8.5 106 8.5c75.333 0 135.5 -17.5 180.5 -52.5
s67.5 -81.167 67.5 -138.5c0 -51.333 -17.167 -96 -51.5 -134s-80.5 -63 -138.5 -75c44.667 -10.667 79 -31.667 103 -63s36 -71 36 -119c0 -84.667 -33.333 -153.334 -100 -206.001s-155.334 -79 -266.001 -79c-38.667 0 -77.5 3.5 -116.5 10.5s-77.5 17.167 -115.5 30.5
l21 121c32 -18 64.833 -31.333 98.5 -40s69.167 -13 106.5 -13c74 0 131.833 15.333 173.5 46s62.5 73.334 62.5 128.001c0 41.333 -14.5 72.5 -43.5 93.5s-72.833 31.5 -131.5 31.5h-78l21 108h83c61.333 0 109.166 12 143.499 36s51.5 57.333 51.5 100
c0 35.333 -12.333 61.833 -37 79.5s-61.334 26.5 -110.001 26.5c-34 0 -69.5 -3.5 -106.5 -10.5s-73.833 -17.167 -110.5 -30.5z" />
    <glyph glyph-name="questiondown" unicode="&#xbf;" horiz-adv-x="978" 
d="M551 1239l45 254h182l-44 -254h-183zM751 86c-62 -38 -123.335 -66.3301 -184.002 -84.9971s-123 -28 -187 -28c-96.667 0 -172.834 25 -228.501 75s-83.5 118 -83.5 204c0 68.667 16.167 133 48.5 193s84.5 122.667 156.5 188l92 84
c51.333 45.333 85.5 83.666 102.5 114.999s30.5 77 40.5 137l23 123h171l-27 -154c-11.333 -62.667 -28.666 -115.834 -51.999 -159.501s-68 -96.167 -134 -157.5l-97 -89c-50 -46.667 -85.167 -87.667 -105.5 -123s-30.5 -72 -30.5 -110
c0 -50.667 16.5 -90.334 49.5 -119.001s77.833 -43 134.5 -43c48.667 0 102.334 11.833 161.001 35.5s119.334 57.5 182.001 101.5z" />
    <glyph glyph-name="Agrave" unicode="&#xc0;" horiz-adv-x="1260" 
d="M778 1899l133 -264h-126l-171 264h164zM679 1493h206l249 -1493h-190l-56 383h-604l-190 -383h-192zM744 1294l-377 -743h493z" />
    <glyph glyph-name="Aacute" unicode="&#xc1;" horiz-adv-x="1260" 
d="M892 1899h186l-276 -264h-142zM679 1493h206l249 -1493h-190l-56 383h-604l-190 -383h-192zM744 1294l-377 -743h493z" />
    <glyph glyph-name="Acircumflex" unicode="&#xc2;" horiz-adv-x="1260" 
d="M735 1901h194l142 -266h-121l-126 178l-189 -178h-135zM679 1493h206l249 -1493h-190l-56 383h-604l-190 -383h-192zM744 1294l-377 -743h493z" />
    <glyph glyph-name="Atilde" unicode="&#xc3;" horiz-adv-x="1260" 
d="M807 1710l-30.9971 24.999l-1 1c-26 21.333 -50.333 32 -73 32c-20.667 0 -39 -8.5 -55 -25.5s-29.333 -42.167 -40 -75.5h-113c21.333 72.667 50.333 127.334 87 164.001s80.667 55 132 55c20.667 0 40.167 -3.66699 58.5 -11s38.5 -19.333 60.5 -36l29 -26
c10.667 -9.33301 21.667 -16.166 33 -20.499s23 -6.5 35 -6.5c23.333 0 43.5 9 60.5 27s28.833 42.333 35.5 73h113c-20 -72.667 -48.833 -127.334 -86.5 -164.001s-83.834 -55 -138.501 -55c-18.667 0 -36.334 3.5 -53.001 10.5s-34.334 17.833 -53.001 32.5zM679.003 1493
h206l249 -1493h-190l-56 383h-604l-190 -383h-192zM744.003 1294l-377 -743h493z" />
    <glyph glyph-name="Adieresis" unicode="&#xc4;" horiz-adv-x="1260" 
d="M561 1870h183l-37 -203h-181zM913 1870h182l-35 -203h-182zM679 1493h206l249 -1493h-190l-56 383h-604l-190 -383h-192zM744 1294l-377 -743h493z" />
    <glyph glyph-name="Aring" unicode="&#xc5;" horiz-adv-x="1260" 
d="M918 1626c0 42 -13.333 77.833 -40 107.5s-59 44.5 -97 44.5s-70.167 -14.5 -96.5 -43.5s-39.5 -65.167 -39.5 -108.5c0 -42 13.167 -77.667 39.5 -107s58.5 -44 96.5 -44s70.333 14.667 97 44s40 65 40 107zM634 1407c-32 24.667 -56.5 55.834 -73.5 93.501
s-25.5 79.5 -25.5 125.5c0 76 24 140.833 72 194.5s106 80.5 174 80.5c68.667 0 127.167 -26.833 175.5 -80.5s72.5 -118.5 72.5 -194.5c0 -52.667 -11 -99.334 -33 -140.001s-53.667 -73 -95 -97l233 -1389h-190l-56 383h-604l-190 -383h-192zM744 1294l-377 -743h493z" />
    <glyph glyph-name="AE" unicode="&#xc6;" horiz-adv-x="1795" 
d="M839 1335l-435 -784h412l139 784h-116zM1832 1493l-29 -170h-667l-79 -442h640l-29 -170h-641l-95 -541h684l-29 -170h-866l66 383h-474l-211 -383h-185l824 1493h1091z" />
    <glyph glyph-name="Ccedilla" unicode="&#xc7;" horiz-adv-x="1287" 
d="M1281 1378l-37.002 -213.003c-58 64.667 -119.167 112.667 -183.5 144s-134.166 47 -209.499 47c-102 0 -192 -27.333 -270 -82s-145 -138 -201 -250c-36 -72 -63.5 -148.167 -82.5 -228.5s-28.5 -161.166 -28.5 -242.499c0 -136 31.667 -239.667 95 -311
s155.333 -107 276 -107c83.333 0 163.333 14.833 240 44.5s151.334 74.167 224.001 133.5l-42 -239c-71.333 -34 -143.5 -59.667 -216.5 -77s-146.167 -26 -219.5 -26c-172 0 -306.5 52 -403.5 156s-145.5 248.667 -145.5 434c0 118.667 18.5 235.334 55.5 350.001
s90.167 219.334 159.5 314.001c72.667 100.667 156 175 250 223s203.333 72 328 72c77.333 0 150.333 -11.833 219 -35.5s132.667 -59.167 192 -106.5zM671.998 -0.00292969c22 -34 38.001 -65.499 48.001 -94.499s15 -57.5 15 -85.5c0 -66.667 -22 -119.167 -66 -157.5
s-104.333 -57.5 -181 -57.5c-26 0 -51.833 2 -77.5 6s-51.5 10 -77.5 18l21 131c23.333 -10.667 46.833 -18.667 70.5 -24s48.167 -8 73.5 -8c36 0 64.667 10.167 86 30.5s32 48.166 32 83.499c0 19.333 -3.83301 41 -11.5 65s-20.834 55 -39.501 93h107z" />
    <glyph glyph-name="Egrave" unicode="&#xc8;" horiz-adv-x="1164" 
d="M727 1899l133 -264h-126l-171 264h164zM311 1493h850l-30 -170h-668l-78 -442h642l-30 -170h-641l-94 -541h684l-30 -170h-866z" />
    <glyph glyph-name="Eacute" unicode="&#xc9;" horiz-adv-x="1164" 
d="M841 1899h186l-276 -264h-142zM311 1493h850l-30 -170h-668l-78 -442h642l-30 -170h-641l-94 -541h684l-30 -170h-866z" />
    <glyph glyph-name="Ecircumflex" unicode="&#xca;" horiz-adv-x="1164" 
d="M684 1901h194l142 -266h-121l-126 178l-189 -178h-135zM311 1493h850l-30 -170h-668l-78 -442h642l-30 -170h-641l-94 -541h684l-30 -170h-866z" />
    <glyph glyph-name="Edieresis" unicode="&#xcb;" horiz-adv-x="1164" 
d="M510 1870h183l-37 -203h-181zM862 1870h182l-35 -203h-182zM311 1493h850l-30 -170h-668l-78 -442h642l-30 -170h-641l-94 -541h684l-30 -170h-866z" />
    <glyph glyph-name="Igrave" unicode="&#xcc;" horiz-adv-x="543" 
d="M405 1899l133 -264h-126l-171 264h164zM311 1493h183l-262 -1493h-182z" />
    <glyph glyph-name="Iacute" unicode="&#xcd;" horiz-adv-x="543" 
d="M519 1899h186l-276 -264h-142zM311 1493h183l-262 -1493h-182z" />
    <glyph glyph-name="Icircumflex" unicode="&#xce;" horiz-adv-x="543" 
d="M362 1901h194l142 -266h-121l-126 178l-189 -178h-135zM311 1493h183l-262 -1493h-182z" />
    <glyph glyph-name="Idieresis" unicode="&#xcf;" horiz-adv-x="543" 
d="M188 1870h183l-37 -203h-181zM540 1870h182l-35 -203h-182zM311 1493h183l-262 -1493h-182z" />
    <glyph glyph-name="Eth" unicode="&#xd0;" horiz-adv-x="1428" 
d="M320 1493l391.999 0.00292969c206.667 0 363 -48.833 469 -146.5s159 -242.834 159 -435.501c0 -126.667 -20.167 -248.834 -60.5 -366.501s-96.166 -217.167 -167.499 -298.5c-72 -82.667 -162.5 -144.334 -271.5 -185.001s-238.5 -61 -388.5 -61h-393l122 700h-181
l26 144h180zM472.999 1327l-84 -483h302l-26 -144h-302l-92 -534h237c204 0 361.667 65 473 195s167 313.333 167 550c0 143.333 -36 248.5 -108 315.5s-184.667 100.5 -338 100.5h-229z" />
    <glyph glyph-name="Ntilde" unicode="&#xd1;" horiz-adv-x="1378" 
d="M840 1710l-30.9971 24.999l-1 1c-26 21.333 -50.333 32 -73 32c-20.667 0 -39 -8.5 -55 -25.5s-29.333 -42.167 -40 -75.5h-113c21.333 72.667 50.333 127.334 87 164.001s80.667 55 132 55c20.667 0 40.167 -3.66699 58.5 -11s38.5 -19.333 60.5 -36l29 -26
c10.667 -9.33301 21.667 -16.166 33 -20.499s23 -6.5 35 -6.5c23.333 0 43.5 9 60.5 27s28.833 42.333 35.5 73h113c-20 -72.667 -48.833 -127.334 -86.5 -164.001s-83.834 -55 -138.501 -55c-18.667 0 -36.334 3.5 -53.001 10.5s-34.334 17.833 -53.001 32.5zM311.003 1493
h245l371 -1280l225 1280h177l-262 -1493h-245l-370 1288l-225 -1288h-177z" />
    <glyph glyph-name="Ograve" unicode="&#xd2;" horiz-adv-x="1450" 
d="M889 1899l133 -264h-126l-171 264h164zM841 1356c-100 0 -188 -26.832 -264 -80.499s-142.333 -135.5 -199 -245.5c-36 -70 -63.5 -144.333 -82.5 -223s-28.5 -158 -28.5 -238c0 -138.667 29.833 -245.667 89.5 -321s144.167 -113 253.5 -113
c98.667 0 186.5 27.167 263.5 81.5s142.833 135.166 197.5 242.499c36.667 72 64.667 147.5 84 226.5s29 157.833 29 236.5c0 138 -30 244.833 -90 320.5s-144.333 113.5 -253 113.5zM605 -28.999c-165.333 0 -295.168 54.333 -389.501 163s-141.5 257.334 -141.5 446.001
c0 108 18.333 218.333 55 331s87.667 213 153 301c76 103.333 160.833 180.5 254.5 231.5s196.834 76.5 309.501 76.5c164.667 0 294.334 -53.833 389.001 -161.5s142 -254.5 142 -440.5c0 -114.667 -18 -227.334 -54 -338.001s-87.667 -211 -155 -301
c-76.667 -104 -161.334 -181.333 -254.001 -232s-195.667 -76 -309 -76z" />
    <glyph glyph-name="Oacute" unicode="&#xd3;" horiz-adv-x="1450" 
d="M1003 1899h186l-276 -264h-142zM841 1356c-100 0 -188 -26.832 -264 -80.499s-142.333 -135.5 -199 -245.5c-36 -70 -63.5 -144.333 -82.5 -223s-28.5 -158 -28.5 -238c0 -138.667 29.833 -245.667 89.5 -321s144.167 -113 253.5 -113c98.667 0 186.5 27.167 263.5 81.5
s142.833 135.166 197.5 242.499c36.667 72 64.667 147.5 84 226.5s29 157.833 29 236.5c0 138 -30 244.833 -90 320.5s-144.333 113.5 -253 113.5zM605 -28.999c-165.333 0 -295.168 54.333 -389.501 163s-141.5 257.334 -141.5 446.001c0 108 18.333 218.333 55 331
s87.667 213 153 301c76 103.333 160.833 180.5 254.5 231.5s196.834 76.5 309.501 76.5c164.667 0 294.334 -53.833 389.001 -161.5s142 -254.5 142 -440.5c0 -114.667 -18 -227.334 -54 -338.001s-87.667 -211 -155 -301c-76.667 -104 -161.334 -181.333 -254.001 -232
s-195.667 -76 -309 -76z" />
    <glyph glyph-name="Ocircumflex" unicode="&#xd4;" horiz-adv-x="1450" 
d="M846 1901h194l142 -266h-121l-126 178l-189 -178h-135zM841 1356c-100 0 -188 -26.832 -264 -80.499s-142.333 -135.5 -199 -245.5c-36 -70 -63.5 -144.333 -82.5 -223s-28.5 -158 -28.5 -238c0 -138.667 29.833 -245.667 89.5 -321s144.167 -113 253.5 -113
c98.667 0 186.5 27.167 263.5 81.5s142.833 135.166 197.5 242.499c36.667 72 64.667 147.5 84 226.5s29 157.833 29 236.5c0 138 -30 244.833 -90 320.5s-144.333 113.5 -253 113.5zM605 -28.999c-165.333 0 -295.168 54.333 -389.501 163s-141.5 257.334 -141.5 446.001
c0 108 18.333 218.333 55 331s87.667 213 153 301c76 103.333 160.833 180.5 254.5 231.5s196.834 76.5 309.501 76.5c164.667 0 294.334 -53.833 389.001 -161.5s142 -254.5 142 -440.5c0 -114.667 -18 -227.334 -54 -338.001s-87.667 -211 -155 -301
c-76.667 -104 -161.334 -181.333 -254.001 -232s-195.667 -76 -309 -76z" />
    <glyph glyph-name="Otilde" unicode="&#xd5;" horiz-adv-x="1450" 
d="M918 1710l-30.9971 24.999l-1 1c-26 21.333 -50.333 32 -73 32c-20.667 0 -39 -8.5 -55 -25.5s-29.333 -42.167 -40 -75.5h-113c21.333 72.667 50.333 127.334 87 164.001s80.667 55 132 55c20.667 0 40.167 -3.66699 58.5 -11s38.5 -19.333 60.5 -36l29 -26
c10.667 -9.33301 21.667 -16.166 33 -20.499s23 -6.5 35 -6.5c23.333 0 43.5 9 60.5 27s28.833 42.333 35.5 73h113c-20 -72.667 -48.833 -127.334 -86.5 -164.001s-83.834 -55 -138.501 -55c-18.667 0 -36.334 3.5 -53.001 10.5s-34.334 17.833 -53.001 32.5zM841.003 1356
c-100 0 -188 -26.832 -264 -80.499s-142.333 -135.5 -199 -245.5c-36 -70 -63.5 -144.333 -82.5 -223s-28.5 -158 -28.5 -238c0 -138.667 29.833 -245.667 89.5 -321s144.167 -113 253.5 -113c98.667 0 186.5 27.167 263.5 81.5s142.833 135.166 197.5 242.499
c36.667 72 64.667 147.5 84 226.5s29 157.833 29 236.5c0 138 -30 244.833 -90 320.5s-144.333 113.5 -253 113.5zM605.003 -29c-165.333 0 -295.168 54.333 -389.501 163s-141.5 257.334 -141.5 446.001c0 108 18.333 218.333 55 331s87.667 213 153 301
c76 103.333 160.833 180.5 254.5 231.5s196.834 76.5 309.501 76.5c164.667 0 294.334 -53.833 389.001 -161.5s142 -254.5 142 -440.5c0 -114.667 -18 -227.334 -54 -338.001s-87.667 -211 -155 -301c-76.667 -104 -161.334 -181.333 -254.001 -232s-195.667 -76 -309 -76z
" />
    <glyph glyph-name="Odieresis" unicode="&#xd6;" horiz-adv-x="1450" 
d="M672 1870h183l-37 -203h-181zM1024 1870h182l-35 -203h-182zM841 1356c-100 0 -188 -26.832 -264 -80.499s-142.333 -135.5 -199 -245.5c-36 -70 -63.5 -144.333 -82.5 -223s-28.5 -158 -28.5 -238c0 -138.667 29.833 -245.667 89.5 -321s144.167 -113 253.5 -113
c98.667 0 186.5 27.167 263.5 81.5s142.833 135.166 197.5 242.499c36.667 72 64.667 147.5 84 226.5s29 157.833 29 236.5c0 138 -30 244.833 -90 320.5s-144.333 113.5 -253 113.5zM605 -28.999c-165.333 0 -295.168 54.333 -389.501 163s-141.5 257.334 -141.5 446.001
c0 108 18.333 218.333 55 331s87.667 213 153 301c76 103.333 160.833 180.5 254.5 231.5s196.834 76.5 309.501 76.5c164.667 0 294.334 -53.833 389.001 -161.5s142 -254.5 142 -440.5c0 -114.667 -18 -227.334 -54 -338.001s-87.667 -211 -155 -301
c-76.667 -104 -161.334 -181.333 -254.001 -232s-195.667 -76 -309 -76z" />
    <glyph glyph-name="multiply" unicode="&#xd7;" horiz-adv-x="1544" 
d="M1292 1100l-411 -459l411 -457l-107 -121l-413 459l-413 -459l-106 121l410 457l-410 459l106 121l413 -459l413 459z" />
    <glyph glyph-name="Oslash" unicode="&#xd8;" horiz-adv-x="1450" 
d="M1101 1235c-27.333 40 -62.834 70.167 -106.501 90.5s-94.834 30.5 -153.501 30.5c-99.333 0 -187.166 -27 -263.499 -81s-142.166 -135 -197.499 -243c-37.333 -72.667 -65.666 -148.667 -84.999 -228s-29 -157 -29 -233c0 -30 1.66699 -59.5 5 -88.5
s8.66602 -58.167 15.999 -87.5zM1159 1116l-816 -845.999c30.667 -45.333 68 -79.166 112 -101.499s95.667 -33.5 155 -33.5c98.667 0 186.5 27.167 263.5 81.5s142.833 135.166 197.5 242.499c37.333 74.667 65.5 151.167 84.5 229.5s28.5 158.166 28.5 239.499
c0 37.333 -2 71.5 -6 102.5s-10.333 59.5 -19 85.5zM143.999 246.001c-23.333 53.333 -40.835 107.331 -52.502 161.998s-17.5 110.334 -17.5 167.001c0 110.667 18.333 222 55 334s87.667 213 153 303c74.667 102.667 159 179.667 253 231s197.667 77 311 77
c78 0 148.5 -12.833 211.5 -38.5s119.833 -64.167 170.5 -115.5l182 193l81 -99l-188 -198c24 -48.667 42 -101.167 54 -157.5s18 -117.166 18 -182.499c0 -118 -17.667 -232.167 -53 -342.5s-86.666 -210.5 -153.999 -300.5c-76.667 -104 -161.334 -181.333 -254.001 -232
s-195.667 -76 -309 -76c-83.333 0 -157.666 14 -222.999 42s-120.666 69.333 -165.999 124l-198 -203l-81 99z" />
    <glyph glyph-name="Ugrave" unicode="&#xd9;" horiz-adv-x="1349" 
d="M808 1899l133 -264h-126l-171 264h164zM285 1493h183.001l-158 -907c-6.66699 -40.667 -11.334 -74.167 -14.001 -100.5s-4 -49.5 -4 -69.5c0 -92 23 -161.833 69 -209.5s113.667 -71.5 203 -71.5c116 0 206.333 35.333 271 106s110.667 185.667 138 345l158 907h183
l-162 -932c-35.333 -201.333 -102.5 -350 -201.5 -446s-234.5 -144 -406.5 -144c-134.667 0 -241.167 37.5 -319.5 112.5s-117.5 176.833 -117.5 305.5c0 23.333 1.5 49.5 4.5 78.5s7.5 60.167 13.5 93.5z" />
    <glyph glyph-name="Uacute" unicode="&#xda;" horiz-adv-x="1349" 
d="M922 1899h186l-276 -264h-142zM285 1493h183.001l-158 -907c-6.66699 -40.667 -11.334 -74.167 -14.001 -100.5s-4 -49.5 -4 -69.5c0 -92 23 -161.833 69 -209.5s113.667 -71.5 203 -71.5c116 0 206.333 35.333 271 106s110.667 185.667 138 345l158 907h183l-162 -932
c-35.333 -201.333 -102.5 -350 -201.5 -446s-234.5 -144 -406.5 -144c-134.667 0 -241.167 37.5 -319.5 112.5s-117.5 176.833 -117.5 305.5c0 23.333 1.5 49.5 4.5 78.5s7.5 60.167 13.5 93.5z" />
    <glyph glyph-name="Ucircumflex" unicode="&#xdb;" horiz-adv-x="1349" 
d="M765 1901h194l142 -266h-121l-126 178l-189 -178h-135zM285 1493h183.001l-158 -907c-6.66699 -40.667 -11.334 -74.167 -14.001 -100.5s-4 -49.5 -4 -69.5c0 -92 23 -161.833 69 -209.5s113.667 -71.5 203 -71.5c116 0 206.333 35.333 271 106s110.667 185.667 138 345
l158 907h183l-162 -932c-35.333 -201.333 -102.5 -350 -201.5 -446s-234.5 -144 -406.5 -144c-134.667 0 -241.167 37.5 -319.5 112.5s-117.5 176.833 -117.5 305.5c0 23.333 1.5 49.5 4.5 78.5s7.5 60.167 13.5 93.5z" />
    <glyph glyph-name="Udieresis" unicode="&#xdc;" horiz-adv-x="1349" 
d="M591 1870h183l-37 -203h-181zM943 1870h182l-35 -203h-182zM285 1493h183.001l-158 -907c-6.66699 -40.667 -11.334 -74.167 -14.001 -100.5s-4 -49.5 -4 -69.5c0 -92 23 -161.833 69 -209.5s113.667 -71.5 203 -71.5c116 0 206.333 35.333 271 106
s110.667 185.667 138 345l158 907h183l-162 -932c-35.333 -201.333 -102.5 -350 -201.5 -446s-234.5 -144 -406.5 -144c-134.667 0 -241.167 37.5 -319.5 112.5s-117.5 176.833 -117.5 305.5c0 23.333 1.5 49.5 4.5 78.5s7.5 60.167 13.5 93.5z" />
    <glyph glyph-name="Yacute" unicode="&#xdd;" horiz-adv-x="1125" 
d="M811 1899h186l-276 -264h-142zM116 1493h195l251 -614l479 614h205l-610 -782l-124 -711h-182l124 711z" />
    <glyph glyph-name="Thorn" unicode="&#xde;" horiz-adv-x="1120" 
d="M522 338h-230l-60 -338h-182l261 1493h183l-46 -264h240c122 0 215.167 -31.667 279.5 -95s96.5 -156 96.5 -278c0 -164 -47.5 -291.333 -142.5 -382s-228.167 -136 -399.5 -136zM420 1063l-97.999 -558.999h229c103.333 0 182.666 29.167 237.999 87.5
s83 142.5 83 252.5c0 69.333 -18.667 123.166 -56 161.499s-90 57.5 -158 57.5h-238z" />
    <glyph glyph-name="germandbls" unicode="&#xdf;" horiz-adv-x="1161" 
d="M285 1137c23.333 131.333 74.6689 234 154.002 308s178 111 296 111c104.667 0 189.5 -31 254.5 -93s97.5 -142 97.5 -240c0 -16.667 -0.833008 -35.167 -2.5 -55.5s-4.5 -42.833 -8.5 -67.5c-96.667 -5.33301 -175 -30.5 -235 -75.5s-90 -99.833 -90 -164.5
c0 -26.667 6.16699 -52 18.5 -76s33.166 -48.333 62.499 -73l44 -39c71.333 -62.667 119.333 -115.834 144 -159.501s37 -92.167 37 -145.5c0 -114.667 -41.833 -209.334 -125.5 -284.001s-190.834 -112 -321.501 -112c-45.333 0 -89 4.16699 -131 12.5s-82 20.5 -120 36.5
l28 164c39.333 -19.333 79.833 -34 121.5 -44s83.5 -15 125.5 -15c74.667 0 135.167 19 181.5 57s69.5 87.333 69.5 148c0 30 -7.16699 58 -21.5 84s-44.833 61.333 -91.5 106l-46 43c-58 54.667 -97 100.5 -117 137.5s-30 77.833 -30 122.5c0 84 31.833 159.667 95.5 227
s147.167 113.333 250.5 138c1.33301 5.33301 2.33301 11.333 3 18s1 16.334 1 29.001c0 52 -17 93 -51 123s-81 45 -141 45c-80 0 -144 -22.667 -192 -68s-79.667 -112.666 -95 -201.999l-197 -1133h-167z" />
    <glyph glyph-name="agrave" unicode="&#xe0;" horiz-adv-x="1129" 
d="M990 639l-112 -638.998h-166l30 170c-48 -66.667 -103.167 -116.5 -165.5 -149.5s-131.5 -49.5 -207.5 -49.5c-86 0 -156.333 29.167 -211 87.5s-82 133.166 -82 224.499c0 130.667 46.833 234 140.5 310s223.167 114 388.5 114h230l9 49
c1.33301 5.33301 2.33301 11.166 3 17.499s1 16.166 1 29.499c0 59.333 -21.833 105.5 -65.5 138.5s-104.834 49.5 -183.501 49.5c-54 0 -109.333 -7.66699 -166 -23s-115 -38.333 -175 -69l29 170c62.667 26 123.834 45.5 183.501 58.5s117.5 19.5 173.5 19.5
c118.667 0 209 -28.667 271 -86s93 -140.666 93 -249.999c0 -22 -1.5 -47.833 -4.5 -77.5s-7.5 -61.167 -13.5 -94.5zM811 563.002h-166c-135.333 0 -235.5 -20.167 -300.5 -60.5s-97.5 -102.833 -97.5 -187.5c0 -58.667 16.5 -104.667 49.5 -138s79.167 -50 138.5 -50
c90 0 168.5 35.833 235.5 107.5s111.5 167.5 133.5 287.5zM617 1638l189 -374h-139l-227 374h177z" />
    <glyph glyph-name="aacute" unicode="&#xe1;" horiz-adv-x="1129" 
d="M990 639l-112 -638.998h-166l30 170c-48 -66.667 -103.167 -116.5 -165.5 -149.5s-131.5 -49.5 -207.5 -49.5c-86 0 -156.333 29.167 -211 87.5s-82 133.166 -82 224.499c0 130.667 46.833 234 140.5 310s223.167 114 388.5 114h230l9 49
c1.33301 5.33301 2.33301 11.166 3 17.499s1 16.166 1 29.499c0 59.333 -21.833 105.5 -65.5 138.5s-104.834 49.5 -183.501 49.5c-54 0 -109.333 -7.66699 -166 -23s-115 -38.333 -175 -69l29 170c62.667 26 123.834 45.5 183.501 58.5s117.5 19.5 173.5 19.5
c118.667 0 209 -28.667 271 -86s93 -140.666 93 -249.999c0 -22 -1.5 -47.833 -4.5 -77.5s-7.5 -61.167 -13.5 -94.5zM811 563.002h-166c-135.333 0 -235.5 -20.167 -300.5 -60.5s-97.5 -102.833 -97.5 -187.5c0 -58.667 16.5 -104.667 49.5 -138s79.167 -50 138.5 -50
c90 0 168.5 35.833 235.5 107.5s111.5 167.5 133.5 287.5zM873 1638h179l-359 -376h-139z" />
    <glyph glyph-name="acircumflex" unicode="&#xe2;" horiz-adv-x="1129" 
d="M681 1638h133l155 -376h-125l-114 237l-211 -237h-125zM990 639l-112 -638.998h-166l30 170c-48 -66.667 -103.167 -116.5 -165.5 -149.5s-131.5 -49.5 -207.5 -49.5c-86 0 -156.333 29.167 -211 87.5s-82 133.166 -82 224.499c0 130.667 46.833 234 140.5 310
s223.167 114 388.5 114h230l9 49c1.33301 5.33301 2.33301 11.166 3 17.499s1 16.166 1 29.499c0 59.333 -21.833 105.5 -65.5 138.5s-104.834 49.5 -183.501 49.5c-54 0 -109.333 -7.66699 -166 -23s-115 -38.333 -175 -69l29 170c62.667 26 123.834 45.5 183.501 58.5
s117.5 19.5 173.5 19.5c118.667 0 209 -28.667 271 -86s93 -140.666 93 -249.999c0 -22 -1.5 -47.833 -4.5 -77.5s-7.5 -61.167 -13.5 -94.5zM811 563.002h-166c-135.333 0 -235.5 -20.167 -300.5 -60.5s-97.5 -102.833 -97.5 -187.5c0 -58.667 16.5 -104.667 49.5 -138
s79.167 -50 138.5 -50c90 0 168.5 35.833 235.5 107.5s111.5 167.5 133.5 287.5z" />
    <glyph glyph-name="atilde" unicode="&#xe3;" horiz-adv-x="1129" 
d="M697 1370l-41 54.999c-8 10.667 -16.667 19.334 -26 26.001s-19 11 -29 13c-23.333 0 -42.666 -12.167 -57.999 -36.5s-28 -63.833 -38 -118.5h-113c18 91.333 46.5 161.166 85.5 209.499s85.5 72.5 139.5 72.5c22.667 0 43.5 -5.16699 62.5 -15.5s36.5 -25.5 52.5 -45.5
l42 -55c7.33301 -10.667 15.166 -19 23.499 -25s18.166 -10.667 29.499 -14c22.667 0 41.334 11.833 56.001 35.5s28 63.5 40 119.5h113c-17.333 -91.333 -45.333 -161.166 -84 -209.499s-85.667 -72.5 -141 -72.5c-22.667 0 -44 5.16699 -64 15.5s-36.667 25.5 -50 45.5z
M990 638.999l-112 -638.998h-166l30 170c-48 -66.667 -103.167 -116.5 -165.5 -149.5s-131.5 -49.5 -207.5 -49.5c-86 0 -156.333 29.167 -211 87.5s-82 133.166 -82 224.499c0 130.667 46.833 234 140.5 310s223.167 114 388.5 114h230l9 49
c1.33301 5.33301 2.33301 11.166 3 17.499s1 16.166 1 29.499c0 59.333 -21.833 105.5 -65.5 138.5s-104.834 49.5 -183.501 49.5c-54 0 -109.333 -7.66699 -166 -23s-115 -38.333 -175 -69l29 170c62.667 26 123.834 45.5 183.501 58.5s117.5 19.5 173.5 19.5
c118.667 0 209 -28.667 271 -86s93 -140.666 93 -249.999c0 -22 -1.5 -47.833 -4.5 -77.5s-7.5 -61.167 -13.5 -94.5zM811 563.001h-166c-135.333 0 -235.5 -20.167 -300.5 -60.5s-97.5 -102.833 -97.5 -187.5c0 -58.667 16.5 -104.667 49.5 -138s79.167 -50 138.5 -50
c90 0 168.5 35.833 235.5 107.5s111.5 167.5 133.5 287.5z" />
    <glyph glyph-name="adieresis" unicode="&#xe4;" horiz-adv-x="1129" 
d="M990 639l-112 -638.998h-166l30 170c-48 -66.667 -103.167 -116.5 -165.5 -149.5s-131.5 -49.5 -207.5 -49.5c-86 0 -156.333 29.167 -211 87.5s-82 133.166 -82 224.499c0 130.667 46.833 234 140.5 310s223.167 114 388.5 114h230l9 49
c1.33301 5.33301 2.33301 11.166 3 17.499s1 16.166 1 29.499c0 59.333 -21.833 105.5 -65.5 138.5s-104.834 49.5 -183.501 49.5c-54 0 -109.333 -7.66699 -166 -23s-115 -38.333 -175 -69l29 170c62.667 26 123.834 45.5 183.501 58.5s117.5 19.5 173.5 19.5
c118.667 0 209 -28.667 271 -86s93 -140.666 93 -249.999c0 -22 -1.5 -47.833 -4.5 -77.5s-7.5 -61.167 -13.5 -94.5zM811 563.002h-166c-135.333 0 -235.5 -20.167 -300.5 -60.5s-97.5 -102.833 -97.5 -187.5c0 -58.667 16.5 -104.667 49.5 -138s79.167 -50 138.5 -50
c90 0 168.5 35.833 235.5 107.5s111.5 167.5 133.5 287.5zM464 1552h185l-37 -202h-183zM816 1552h183l-35 -202h-183z" />
    <glyph glyph-name="aring" unicode="&#xe5;" horiz-adv-x="1129" 
d="M969 1524c0 -76.667 -23.833 -141.667 -71.5 -195s-106.167 -80 -175.5 -80s-127.833 26.667 -175.5 80s-71.5 118.333 -71.5 195c0 77.333 23.833 142.333 71.5 195s106.167 79 175.5 79s127.833 -26.333 175.5 -79s71.5 -117.667 71.5 -195zM859 1524
c0 42.667 -13.167 78.5 -39.5 107.5s-58.833 43.5 -97.5 43.5c-40 0 -72.667 -14.167 -98 -42.5s-38 -64.5 -38 -108.5s12.667 -80.333 38 -109s58 -43 98 -43s72.833 14.333 98.5 43s38.5 65 38.5 109zM990 639l-112 -638.998h-166l30 170
c-48 -66.667 -103.167 -116.5 -165.5 -149.5s-131.5 -49.5 -207.5 -49.5c-86 0 -156.333 29.167 -211 87.5s-82 133.166 -82 224.499c0 130.667 46.833 234 140.5 310s223.167 114 388.5 114h230l9 49c1.33301 5.33301 2.33301 11.166 3 17.499s1 16.166 1 29.499
c0 59.333 -21.833 105.5 -65.5 138.5s-104.834 49.5 -183.501 49.5c-54 0 -109.333 -7.66699 -166 -23s-115 -38.333 -175 -69l29 170c62.667 26 123.834 45.5 183.501 58.5s117.5 19.5 173.5 19.5c118.667 0 209 -28.667 271 -86s93 -140.666 93 -249.999
c0 -22 -1.5 -47.833 -4.5 -77.5s-7.5 -61.167 -13.5 -94.5zM811 563.002h-166c-135.333 0 -235.5 -20.167 -300.5 -60.5s-97.5 -102.833 -97.5 -187.5c0 -58.667 16.5 -104.667 49.5 -138s79.167 -50 138.5 -50c90 0 168.5 35.833 235.5 107.5s111.5 167.5 133.5 287.5z" />
    <glyph glyph-name="ae" unicode="&#xe6;" horiz-adv-x="1834" 
d="M1587 660c1.33301 10.667 2.5 21.6689 3.5 33.002s1.5 22.666 1.5 33.999c0 81.333 -21.333 145.666 -64 192.999s-101 71 -175 71c-82.667 0 -155.5 -28.833 -218.5 -86.5s-110.5 -139.5 -142.5 -245.5zM287 1069c62.667 26 123.835 45.5049 183.502 58.5049
s117.5 19.5 173.5 19.5c86 0 156.833 -15 212.5 -45s97.167 -75.667 124.5 -137c51.333 60 110.666 105.333 177.999 136s140.666 46 219.999 46c114 0 204.833 -38 272.5 -114s101.5 -178 101.5 -306c0 -30.667 -1.83301 -63.5 -5.5 -98.5s-9.16699 -72.5 -16.5 -112.5
h-771c-3.33301 -25.333 -5.66602 -45.333 -6.99902 -60s-2 -27.334 -2 -38.001c0 -92.667 25.667 -164.334 77 -215.001s124 -76 218 -76c72 0 140.167 9 204.5 27s123.833 44.333 178.5 79l-31 -182c-60 -26.667 -121.667 -46.667 -185 -60s-127.666 -20 -192.999 -20
c-100.667 0 -185 19.167 -253 57.5s-119 95.166 -153 170.499c-60.667 -78.667 -124 -136.334 -190 -173.001s-138.667 -55 -218 -55c-104.667 0 -185.834 27.333 -243.501 82s-86.5 131.334 -86.5 230.001c0 130.667 46.833 234 140.5 310s223.167 114 388.5 114h230l9 49
c1.33301 5.33301 2.33301 11.166 3 17.499s1 16.166 1 29.499c0 59.333 -21.833 105.5 -65.5 138.5s-104.834 49.5 -183.501 49.5c-54 0 -109.333 -7.66699 -166 -23s-115 -38.333 -175 -69zM811.001 563.007h-166c-135.333 0 -235.5 -20.167 -300.5 -60.5
s-97.5 -102.833 -97.5 -187.5c0 -58.667 16.5 -104.667 49.5 -138s79.167 -50 138.5 -50c90 0 168.5 35.833 235.5 107.5s111.5 167.5 133.5 287.5z" />
    <glyph glyph-name="ccedilla" unicode="&#xe7;" horiz-adv-x="1013" 
d="M988 1077l-32.998 -181.999c-39.333 32 -81.5 56 -126.5 72s-91.5 24 -139.5 24c-52.667 0 -102.834 -10.333 -150.501 -31s-87.834 -50 -120.501 -88c-51.333 -58 -91.166 -126 -119.499 -204s-42.5 -158.667 -42.5 -242c0 -100.667 22.667 -175.667 68 -225
s114.333 -74 207 -74c45.333 0 93.666 7.66699 144.999 23s105 38.333 161 69l-31 -182c-48 -22 -97.5 -38.5 -148.5 -49.5s-103.167 -16.5 -156.5 -16.5c-133.333 0 -236 37.167 -308 111.5s-108 180.5 -108 318.5c0 116 18.667 222.833 56 320.5s93 185.5 167 263.5
c50 53.333 109 93.666 177 120.999s142 41 222 41c47.333 0 94 -5.83301 140 -17.5s93 -29.167 141 -52.5zM536.002 0.000976562c22 -34 38.001 -65.499 48.001 -94.499s15 -57.5 15 -85.5c0 -66.667 -22 -119.167 -66 -157.5s-104.333 -57.5 -181 -57.5
c-26 0 -51.833 2 -77.5 6s-51.5 10 -77.5 18l21 131c23.333 -10.667 46.833 -18.667 70.5 -24s48.167 -8 73.5 -8c36 0 64.667 10.167 86 30.5s32 48.166 32 83.499c0 19.333 -3.83301 41 -11.5 65s-20.834 55 -39.501 93h107z" />
    <glyph glyph-name="egrave" unicode="&#xe8;" horiz-adv-x="1134" 
d="M886 660c2 10.667 3.5 21.6689 4.5 33.002s1.5 22.666 1.5 33.999c0 81.333 -21.5 145.666 -64.5 192.999s-101.5 71 -175.5 71c-82 0 -154.5 -28.833 -217.5 -86.5s-110.5 -139.5 -142.5 -245.5zM1030 516.002l-770.003 0.00195312
c-3.33301 -25.333 -5.66602 -45.333 -6.99902 -60s-2 -27.334 -2 -38.001c0 -92.667 25.667 -164.334 77 -215.001s123.666 -76 216.999 -76c72 0 140.167 9 204.5 27s124.166 44.333 179.499 79l-32 -182c-59.333 -26.667 -120.666 -46.667 -183.999 -60
s-127.666 -20 -192.999 -20c-140 0 -247.5 37.167 -322.5 111.5s-112.5 179.833 -112.5 316.5c0 116.667 18.667 225.167 56 325.5s92.333 189.833 165 268.5c46.667 49.333 102.334 87.333 167.001 114s133.334 40 206.001 40c114 0 204.667 -38 272 -114
s101 -178 101 -306c0 -30.667 -1.83301 -63.5 -5.5 -98.5s-9.16699 -72.5 -16.5 -112.5zM626.997 1638l189 -374h-139l-227 374h177z" />
    <glyph glyph-name="eacute" unicode="&#xe9;" horiz-adv-x="1134" 
d="M886 660c2 10.667 3.5 21.6689 4.5 33.002s1.5 22.666 1.5 33.999c0 81.333 -21.5 145.666 -64.5 192.999s-101.5 71 -175.5 71c-82 0 -154.5 -28.833 -217.5 -86.5s-110.5 -139.5 -142.5 -245.5zM1030 516.002l-770.003 0.00195312
c-3.33301 -25.333 -5.66602 -45.333 -6.99902 -60s-2 -27.334 -2 -38.001c0 -92.667 25.667 -164.334 77 -215.001s123.666 -76 216.999 -76c72 0 140.167 9 204.5 27s124.166 44.333 179.499 79l-32 -182c-59.333 -26.667 -120.666 -46.667 -183.999 -60
s-127.666 -20 -192.999 -20c-140 0 -247.5 37.167 -322.5 111.5s-112.5 179.833 -112.5 316.5c0 116.667 18.667 225.167 56 325.5s92.333 189.833 165 268.5c46.667 49.333 102.334 87.333 167.001 114s133.334 40 206.001 40c114 0 204.667 -38 272 -114
s101 -178 101 -306c0 -30.667 -1.83301 -63.5 -5.5 -98.5s-9.16699 -72.5 -16.5 -112.5zM882.997 1638h179l-359 -376h-139z" />
    <glyph glyph-name="ecircumflex" unicode="&#xea;" horiz-adv-x="1134" 
d="M691 1638h133l155 -376h-125l-114 237l-211 -237h-125zM886 660c2 10.667 3.5 21.6689 4.5 33.002s1.5 22.666 1.5 33.999c0 81.333 -21.5 145.666 -64.5 192.999s-101.5 71 -175.5 71c-82 0 -154.5 -28.833 -217.5 -86.5s-110.5 -139.5 -142.5 -245.5zM1030 516.002
l-770.003 0.00195312c-3.33301 -25.333 -5.66602 -45.333 -6.99902 -60s-2 -27.334 -2 -38.001c0 -92.667 25.667 -164.334 77 -215.001s123.666 -76 216.999 -76c72 0 140.167 9 204.5 27s124.166 44.333 179.499 79l-32 -182
c-59.333 -26.667 -120.666 -46.667 -183.999 -60s-127.666 -20 -192.999 -20c-140 0 -247.5 37.167 -322.5 111.5s-112.5 179.833 -112.5 316.5c0 116.667 18.667 225.167 56 325.5s92.333 189.833 165 268.5c46.667 49.333 102.334 87.333 167.001 114
s133.334 40 206.001 40c114 0 204.667 -38 272 -114s101 -178 101 -306c0 -30.667 -1.83301 -63.5 -5.5 -98.5s-9.16699 -72.5 -16.5 -112.5z" />
    <glyph glyph-name="edieresis" unicode="&#xeb;" horiz-adv-x="1134" 
d="M886 660c2 10.667 3.5 21.6689 4.5 33.002s1.5 22.666 1.5 33.999c0 81.333 -21.5 145.666 -64.5 192.999s-101.5 71 -175.5 71c-82 0 -154.5 -28.833 -217.5 -86.5s-110.5 -139.5 -142.5 -245.5zM1030 516.002l-770.003 0.00195312
c-3.33301 -25.333 -5.66602 -45.333 -6.99902 -60s-2 -27.334 -2 -38.001c0 -92.667 25.667 -164.334 77 -215.001s123.666 -76 216.999 -76c72 0 140.167 9 204.5 27s124.166 44.333 179.499 79l-32 -182c-59.333 -26.667 -120.666 -46.667 -183.999 -60
s-127.666 -20 -192.999 -20c-140 0 -247.5 37.167 -322.5 111.5s-112.5 179.833 -112.5 316.5c0 116.667 18.667 225.167 56 325.5s92.333 189.833 165 268.5c46.667 49.333 102.334 87.333 167.001 114s133.334 40 206.001 40c114 0 204.667 -38 272 -114
s101 -178 101 -306c0 -30.667 -1.83301 -63.5 -5.5 -98.5s-9.16699 -72.5 -16.5 -112.5zM473.997 1552h185l-37 -202h-183zM825.997 1552h183l-35 -202h-183z" />
    <glyph glyph-name="igrave" unicode="&#xec;" horiz-adv-x="512" 
d="M262 1120h166l-198 -1120h-165zM295 1638l189 -374h-139l-227 374h177z" />
    <glyph glyph-name="iacute" unicode="&#xed;" horiz-adv-x="512" 
d="M262 1120h166l-198 -1120h-165zM551 1638h179l-359 -376h-139z" />
    <glyph glyph-name="icircumflex" unicode="&#xee;" horiz-adv-x="512" 
d="M359 1638h133l155 -376h-125l-114 237l-211 -237h-125zM262 1120h166l-198 -1120h-165z" />
    <glyph glyph-name="idieresis" unicode="&#xef;" horiz-adv-x="512" 
d="M262 1120h166l-198 -1120h-165zM142 1552h185l-37 -202h-183zM494 1552h183l-35 -202h-183z" />
    <glyph glyph-name="eth" unicode="&#xf0;" horiz-adv-x="1127" 
d="M914 1141c41.333 -68 72.334 -138.832 93.001 -212.499s31 -149.834 31 -228.501c0 -90.667 -11.833 -178.167 -35.5 -262.5s-58.167 -159.833 -103.5 -226.5c-50 -77.333 -111.833 -136.666 -185.5 -177.999s-153.834 -62 -240.501 -62
c-118.667 0 -213.334 39.167 -284.001 117.5s-106 182.5 -106 312.5c0 80 12.333 159.333 37 238s59.667 151.667 105 219c52.667 77.333 115.334 136.666 188.001 177.999s150.667 62 234 62c12 0 26.667 -0.833008 44 -2.5s38 -4.16699 62 -7.5l-111 180l-316 -107l-29 94
l294 97l-125 204h196l86 -145l302 109l32 -95l-282 -98zM822.001 915.001c-26 11.333 -51.999 19.665 -77.999 24.998s-52.333 8 -79 8c-121.333 0 -220 -50.167 -296 -150.5s-114 -230.166 -114 -389.499c0 -92 19.667 -161.833 59 -209.5s97 -71.5 173 -71.5
c109.333 0 200.5 53.833 273.5 161.5s109.5 242.834 109.5 405.501c0 45.333 -3.83301 86 -11.5 122s-19.834 69 -36.501 99z" />
    <glyph glyph-name="ntilde" unicode="&#xf1;" horiz-adv-x="1168" 
d="M730 1370l-41 54.999c-8 10.667 -16.667 19.334 -26 26.001s-19 11 -29 13c-23.333 0 -42.666 -12.167 -57.999 -36.5s-28 -63.833 -38 -118.5h-113c18 91.333 46.5 161.166 85.5 209.499s85.5 72.5 139.5 72.5c22.667 0 43.5 -5.16699 62.5 -15.5s36.5 -25.5 52.5 -45.5
l42 -55c7.33301 -10.667 15.166 -19 23.499 -25s18.166 -10.667 29.499 -14c22.667 0 41.334 11.833 56.001 35.5s28 63.5 40 119.5h113c-17.333 -91.333 -45.333 -161.166 -84 -209.499s-85.667 -72.5 -141 -72.5c-22.667 0 -44 5.16699 -64 15.5s-36.667 25.5 -50 45.5z
M1027 675.999l-118 -675.999h-167l118 669c5.33301 31.333 9.66602 59 12.999 83s5 43 5 57c0 56 -16 99.667 -48 131s-76.333 47 -133 47c-89.333 0 -166 -32.833 -230 -98.5s-106 -154.834 -126 -267.501l-111 -621h-165l195 1120h166l-34 -176
c46.667 64.667 102.334 114.667 167.001 150s132.667 53 204 53c88.667 0 157.5 -26.667 206.5 -80s73.5 -128.333 73.5 -225c0 -24 -1.33301 -49.667 -4 -77s-6.66699 -57 -12 -89z" />
    <glyph glyph-name="ograve" unicode="&#xf2;" horiz-adv-x="1127" 
d="M468 -29c-118 0 -211.334 40.502 -280.001 121.502s-103 191.5 -103 331.5c0 81.333 11.833 164.166 35.5 248.499s54.167 155.166 91.5 212.499c60 89.333 126.5 155.333 199.5 198s155.833 64 248.5 64c114.667 0 207.167 -39.667 277.5 -119s105.5 -183 105.5 -311
c0 -88.667 -11.667 -177 -35 -265s-54 -161 -92 -219c-58.667 -89.333 -124.667 -155.333 -198 -198s-156.666 -64 -249.999 -64zM255.999 430.002c0 -101.333 19.1689 -177.169 57.502 -227.502s96.166 -75.5 173.499 -75.5c110.667 0 202.5 53.833 275.5 161.5
s109.5 244.167 109.5 409.5c0 96.667 -19.5 169.667 -58.5 219s-96.167 74 -171.5 74c-62.667 0 -118.334 -16.167 -167.001 -48.5s-92 -81.5 -130 -147.5c-28.667 -49.333 -50.667 -105.666 -66 -168.999s-23 -128.666 -23 -195.999zM631.001 1638l189 -374h-139l-227 374
h177z" />
    <glyph glyph-name="oacute" unicode="&#xf3;" horiz-adv-x="1127" 
d="M468 -29c-118 0 -211.334 40.502 -280.001 121.502s-103 191.5 -103 331.5c0 81.333 11.833 164.166 35.5 248.499s54.167 155.166 91.5 212.499c60 89.333 126.5 155.333 199.5 198s155.833 64 248.5 64c114.667 0 207.167 -39.667 277.5 -119s105.5 -183 105.5 -311
c0 -88.667 -11.667 -177 -35 -265s-54 -161 -92 -219c-58.667 -89.333 -124.667 -155.333 -198 -198s-156.666 -64 -249.999 -64zM255.999 430.002c0 -101.333 19.1689 -177.169 57.502 -227.502s96.166 -75.5 173.499 -75.5c110.667 0 202.5 53.833 275.5 161.5
s109.5 244.167 109.5 409.5c0 96.667 -19.5 169.667 -58.5 219s-96.167 74 -171.5 74c-62.667 0 -118.334 -16.167 -167.001 -48.5s-92 -81.5 -130 -147.5c-28.667 -49.333 -50.667 -105.666 -66 -168.999s-23 -128.666 -23 -195.999zM887.001 1638h179l-359 -376h-139z" />
    <glyph glyph-name="ocircumflex" unicode="&#xf4;" horiz-adv-x="1127" 
d="M695 1638h133l155 -376h-125l-114 237l-211 -237h-125zM468 -29c-118 0 -211.334 40.502 -280.001 121.502s-103 191.5 -103 331.5c0 81.333 11.833 164.166 35.5 248.499s54.167 155.166 91.5 212.499c60 89.333 126.5 155.333 199.5 198s155.833 64 248.5 64
c114.667 0 207.167 -39.667 277.5 -119s105.5 -183 105.5 -311c0 -88.667 -11.667 -177 -35 -265s-54 -161 -92 -219c-58.667 -89.333 -124.667 -155.333 -198 -198s-156.666 -64 -249.999 -64zM255.999 430.002c0 -101.333 19.1689 -177.169 57.502 -227.502
s96.166 -75.5 173.499 -75.5c110.667 0 202.5 53.833 275.5 161.5s109.5 244.167 109.5 409.5c0 96.667 -19.5 169.667 -58.5 219s-96.167 74 -171.5 74c-62.667 0 -118.334 -16.167 -167.001 -48.5s-92 -81.5 -130 -147.5c-28.667 -49.333 -50.667 -105.666 -66 -168.999
s-23 -128.666 -23 -195.999z" />
    <glyph glyph-name="otilde" unicode="&#xf5;" horiz-adv-x="1127" 
d="M711 1370l-41 54.999c-8 10.667 -16.667 19.334 -26 26.001s-19 11 -29 13c-23.333 0 -42.666 -12.167 -57.999 -36.5s-28 -63.833 -38 -118.5h-113c18 91.333 46.5 161.166 85.5 209.499s85.5 72.5 139.5 72.5c22.667 0 43.5 -5.16699 62.5 -15.5s36.5 -25.5 52.5 -45.5
l42 -55c7.33301 -10.667 15.166 -19 23.499 -25s18.166 -10.667 29.499 -14c22.667 0 41.334 11.833 56.001 35.5s28 63.5 40 119.5h113c-17.333 -91.333 -45.333 -161.166 -84 -209.499s-85.667 -72.5 -141 -72.5c-22.667 0 -44 5.16699 -64 15.5s-36.667 25.5 -50 45.5z
M468 -29.001c-118 0 -211.334 40.502 -280.001 121.502s-103 191.5 -103 331.5c0 81.333 11.833 164.166 35.5 248.499s54.167 155.166 91.5 212.499c60 89.333 126.5 155.333 199.5 198s155.833 64 248.5 64c114.667 0 207.167 -39.667 277.5 -119s105.5 -183 105.5 -311
c0 -88.667 -11.667 -177 -35 -265s-54 -161 -92 -219c-58.667 -89.333 -124.667 -155.333 -198 -198s-156.666 -64 -249.999 -64zM255.999 430.001c0 -101.333 19.1689 -177.169 57.502 -227.502s96.166 -75.5 173.499 -75.5c110.667 0 202.5 53.833 275.5 161.5
s109.5 244.167 109.5 409.5c0 96.667 -19.5 169.667 -58.5 219s-96.167 74 -171.5 74c-62.667 0 -118.334 -16.167 -167.001 -48.5s-92 -81.5 -130 -147.5c-28.667 -49.333 -50.667 -105.666 -66 -168.999s-23 -128.666 -23 -195.999z" />
    <glyph glyph-name="odieresis" unicode="&#xf6;" horiz-adv-x="1127" 
d="M468 -29c-118 0 -211.334 40.502 -280.001 121.502s-103 191.5 -103 331.5c0 81.333 11.833 164.166 35.5 248.499s54.167 155.166 91.5 212.499c60 89.333 126.5 155.333 199.5 198s155.833 64 248.5 64c114.667 0 207.167 -39.667 277.5 -119s105.5 -183 105.5 -311
c0 -88.667 -11.667 -177 -35 -265s-54 -161 -92 -219c-58.667 -89.333 -124.667 -155.333 -198 -198s-156.666 -64 -249.999 -64zM255.999 430.002c0 -101.333 19.1689 -177.169 57.502 -227.502s96.166 -75.5 173.499 -75.5c110.667 0 202.5 53.833 275.5 161.5
s109.5 244.167 109.5 409.5c0 96.667 -19.5 169.667 -58.5 219s-96.167 74 -171.5 74c-62.667 0 -118.334 -16.167 -167.001 -48.5s-92 -81.5 -130 -147.5c-28.667 -49.333 -50.667 -105.666 -66 -168.999s-23 -128.666 -23 -195.999zM478.001 1552h185l-37 -202h-183z
M830.001 1552h183l-35 -202h-183z" />
    <glyph glyph-name="divide" unicode="&#xf7;" horiz-adv-x="1544" 
d="M662 1135h221v-246h-221v246zM662 395h221v-245h-221v245zM195 727h1154v-170h-1154v170z" />
    <glyph glyph-name="oslash" unicode="&#xf8;" horiz-adv-x="1127" 
d="M811 922c-22 23.333 -47 40.667 -75 52s-59.333 17 -94 17c-112 0 -204 -53.5 -276 -160.5s-108 -243.833 -108 -410.5c0 -31.333 0.5 -53.833 1.5 -67.5s3.16699 -26.167 6.5 -37.5zM139 172.001c-18 32.667 -31.501 69.999 -40.501 111.999s-13.5 88 -13.5 138
c0 81.333 11.833 164.5 35.5 249.5s54.167 156.167 91.5 213.5c59.333 89.333 125.333 155.333 198 198s156 64 250 64c52 0 100.167 -8.66699 144.5 -26s83.833 -43 118.5 -77l146 164l78 -86l-155 -172c16.667 -36.667 29.334 -75.834 38.001 -117.501
s13 -85.167 13 -130.5c0 -82.667 -11.833 -167.167 -35.5 -253.5s-54.167 -158.166 -91.5 -215.499c-58 -89.333 -123.5 -155.333 -196.5 -198s-156.833 -64 -251.5 -64c-52 0 -100.167 8.83301 -144.5 26.5s-83.5 43.834 -117.5 78.501l-155 -170l-77 84zM864.999 809
l-547.998 -609.999c23.333 -24.667 48.666 -42.834 75.999 -54.501s58.666 -17.5 93.999 -17.5c113.333 0 205.833 54.5 277.5 163.5s107.5 251.167 107.5 426.5c0 26 -0.666992 45.333 -2 58s-3 24 -5 34z" />
    <glyph glyph-name="ugrave" unicode="&#xf9;" horiz-adv-x="1168" 
d="M123 444l118.001 675.998h167l-118 -669c-6 -32.667 -10.333 -60.667 -13 -84s-4 -42.666 -4 -57.999c0 -56.667 15.5 -100.5 46.5 -131.5s75.167 -46.5 132.5 -46.5c88.667 0 165.334 33.333 230.001 100s107 156.334 127 269.001l111 620h165l-195 -1120h-166l34 176
c-46.667 -65.333 -102.334 -115.833 -167.001 -151.5s-133.334 -53.5 -206.001 -53.5c-88 0 -156.667 26.833 -206 80.5s-74 128.5 -74 224.5c0 20 1.5 45 4.5 75s7.5 61 13.5 93zM622.001 1638l189 -374h-139l-227 374h177z" />
    <glyph glyph-name="uacute" unicode="&#xfa;" horiz-adv-x="1168" 
d="M123 444l118.001 675.998h167l-118 -669c-6 -32.667 -10.333 -60.667 -13 -84s-4 -42.666 -4 -57.999c0 -56.667 15.5 -100.5 46.5 -131.5s75.167 -46.5 132.5 -46.5c88.667 0 165.334 33.333 230.001 100s107 156.334 127 269.001l111 620h165l-195 -1120h-166l34 176
c-46.667 -65.333 -102.334 -115.833 -167.001 -151.5s-133.334 -53.5 -206.001 -53.5c-88 0 -156.667 26.833 -206 80.5s-74 128.5 -74 224.5c0 20 1.5 45 4.5 75s7.5 61 13.5 93zM878.001 1638h179l-359 -376h-139z" />
    <glyph glyph-name="ucircumflex" unicode="&#xfb;" horiz-adv-x="1168" 
d="M686 1638h133l155 -376h-125l-114 237l-211 -237h-125zM123 444l118.001 675.998h167l-118 -669c-6 -32.667 -10.333 -60.667 -13 -84s-4 -42.666 -4 -57.999c0 -56.667 15.5 -100.5 46.5 -131.5s75.167 -46.5 132.5 -46.5c88.667 0 165.334 33.333 230.001 100
s107 156.334 127 269.001l111 620h165l-195 -1120h-166l34 176c-46.667 -65.333 -102.334 -115.833 -167.001 -151.5s-133.334 -53.5 -206.001 -53.5c-88 0 -156.667 26.833 -206 80.5s-74 128.5 -74 224.5c0 20 1.5 45 4.5 75s7.5 61 13.5 93z" />
    <glyph glyph-name="udieresis" unicode="&#xfc;" horiz-adv-x="1168" 
d="M123 444l118.001 675.998h167l-118 -669c-6 -32.667 -10.333 -60.667 -13 -84s-4 -42.666 -4 -57.999c0 -56.667 15.5 -100.5 46.5 -131.5s75.167 -46.5 132.5 -46.5c88.667 0 165.334 33.333 230.001 100s107 156.334 127 269.001l111 620h165l-195 -1120h-166l34 176
c-46.667 -65.333 -102.334 -115.833 -167.001 -151.5s-133.334 -53.5 -206.001 -53.5c-88 0 -156.667 26.833 -206 80.5s-74 128.5 -74 224.5c0 20 1.5 45 4.5 75s7.5 61 13.5 93zM469.001 1552h185l-37 -202h-183zM821.001 1552h183l-35 -202h-183z" />
    <glyph glyph-name="yacute" unicode="&#xfd;" horiz-adv-x="1090" 
d="M457 -104c-76.667 -143.333 -139.167 -232.833 -187.5 -268.5s-109.833 -53.5 -184.5 -53.5h-131l28 154h95c46.667 0 86.167 14 118.5 42s68.5 82.667 108.5 164l52 107l-224 1079h176l167 -858l463 858h174zM868 1638h179l-359 -376h-139z" />
    <glyph glyph-name="thorn" unicode="&#xfe;" horiz-adv-x="1170" 
d="M914 690c0 98 -19.166 173 -57.499 225s-93.5 78 -165.5 78c-49.333 0 -96.333 -14 -141 -42s-84.334 -68.667 -119.001 -122c-34 -52.667 -61.167 -116.334 -81.5 -191.001s-30.5 -148.667 -30.5 -222c0 -93.333 19.167 -165.166 57.5 -215.499
s92.833 -75.5 163.5 -75.5c52 0 100.333 13.667 145 41s83 67 115 119c34 54.667 61.5 119 82.5 193s31.5 144.667 31.5 212zM401.001 950c44.667 64.667 97.167 113.667 157.5 147s127.5 50 201.5 50c102.667 0 182.5 -37.5 239.5 -112.5s85.5 -180.167 85.5 -315.5
c0 -110.667 -17.667 -216.167 -53 -316.5s-86.333 -190.166 -153 -269.499c-44 -52.667 -94 -92.834 -150 -120.501s-114.667 -41.5 -176 -41.5c-71.333 0 -131.333 16.5 -180 49.5s-85 82.167 -109 147.5l-104 -594h-165l343 1982h165z" />
    <glyph glyph-name="ydieresis" unicode="&#xff;" horiz-adv-x="1090" 
d="M457 -104c-76.667 -143.333 -139.167 -232.833 -187.5 -268.5s-109.833 -53.5 -184.5 -53.5h-131l28 154h95c46.667 0 86.167 14 118.5 42s68.5 82.667 108.5 164l52 107l-224 1079h176l167 -858l463 858h174zM459 1552h185l-37 -202h-183zM811 1552h183l-35 -202h-183z
" />
    </font>
</defs>
</svg>
