<?xml version="1.0" standalone="no"?>
<!DOCTYPE svg PUBLIC "-//W3C//DTD SVG 1.1//EN" "http://www.w3.org/Graphics/SVG/1.1/DTD/svg11.dtd" >
<svg>
<metadata>
Created by FontForge 130127 at Sun Jan 27 20:31:44 2013
 By Ralf S. Engelschall
Copyright (c) 2003 by Bitstream, Inc. All Rights Reserved.
Copyright (c) 2006 by Tavmjong Bah. All Rights Reserved.
DejaVu changes are in public domain

</metadata>
<defs>
<font id="DejaVuSans-BoldOblique" horiz-adv-x="1425" >
  <font-face 
    font-family="DejaVu Sans"
    font-weight="700"
    font-style="oblique"
    font-stretch="normal"
    units-per-em="2048"
    panose-1="2 11 8 3 3 3 4 11 2 4"
    ascent="1556"
    descent="-492"
    x-height="1120"
    cap-height="1493"
    bbox="-339.999 -483 2341 1901"
    underline-thickness="90"
    underline-position="-85"
    slope="-11"
    unicode-range="U+0020-00FF"
  />
<missing-glyph horiz-adv-x="1024" 
d="M102 0v1037h820v-1037h-820zM204 102h616v833h-616v-833z" />
    <glyph glyph-name=".notdef" horiz-adv-x="1024" 
d="M102 0v1037h820v-1037h-820zM204 102h616v833h-616v-833z" />
    <glyph glyph-name="space" unicode=" " horiz-adv-x="713" 
 />
    <glyph glyph-name="exclam" unicode="!" horiz-adv-x="934" 
d="M432 1493h361l-113 -573l-131 -418h-258l28 418zM211 356h360l-69 -356h-361z" />
    <glyph glyph-name="quotedbl" unicode="&#x22;" horiz-adv-x="1067" 
d="M872 1493v-555h-237v555h237zM432 1493v-555h-237v555h237z" />
    <glyph glyph-name="numbersign" unicode="#" 
d="M1024 872h-264l-70 -274h264zM911 1470l-96 -385h264l97 385h221l-97 -385h297l-53 -213h-297l-69 -274h297l-54 -215h-295l-96 -383h-221l96 383h-264l-96 -383h-223l96 383h-285l53 215h281l70 274h-283l53 213h285l96 385h223z" />
    <glyph glyph-name="dollar" unicode="$" 
d="M596 -301l-162 -0.00195312l59 301c-84.667 3.33301 -163.334 12.166 -236.001 26.499s-140 34.166 -202 59.499l49 262c64 -36.667 132.167 -65.167 204.5 -85.5s148.5 -31.833 228.5 -34.5l61 311c-140 20.667 -241.833 57.834 -305.5 111.501
s-95.5 128.167 -95.5 223.5c0 132.667 49.833 239.834 149.5 321.501s234.5 125.5 404.5 131.5l44 229h161l-43 -227c67.333 -4 132.333 -11.667 195 -23s123.334 -26 182.001 -44l-49 -254c-42 24.667 -94.833 44.834 -158.5 60.501s-135.167 25.834 -214.5 30.501
l-57 -288c142 -24 247.167 -63 315.5 -117s102.5 -125.667 102.5 -215c0 -146.667 -50.167 -261.667 -150.5 -345s-241.833 -128 -424.5 -134zM655 835.998l51 262c-56 -5.33301 -100.667 -21.5 -134 -48.5s-50 -60.833 -50 -101.5c0 -32 10.833 -57.167 32.5 -75.5
s55.167 -30.5 100.5 -36.5zM754 511.998l-55 -285c66 3.33301 116.833 19.333 152.5 48s53.5 68 53.5 118c0 34 -12.167 60.5 -36.5 79.5s-62.5 32.167 -114.5 39.5z" />
    <glyph glyph-name="percent" unicode="%" horiz-adv-x="2052" 
d="M1565 616c-57.333 0 -104.499 -28 -141.499 -84s-55.5 -128.333 -55.5 -217c0 -58 10.167 -101.5 30.5 -130.5s51.166 -43.5 92.499 -43.5c58 0 105.333 28 142 84s55 129 55 219c0 56.667 -10.5 99.5 -31.5 128.5s-51.5 43.5 -91.5 43.5zM1593 784
c104.667 0 188.5 -28.5 251.5 -85.5s94.5 -132.167 94.5 -225.5c0 -149.333 -44.167 -270.333 -132.5 -363s-203.833 -139 -346.5 -139c-104.667 0 -188.5 28.833 -251.5 86.5s-94.5 133.5 -94.5 227.5c0 148 44.167 268.167 132.5 360.5s203.833 138.5 346.5 138.5z
M532.001 -29h-245l1235 1549h245zM594.001 1520c104 0 187.667 -28.667 251 -86s95 -132.666 95 -225.999c0 -148.667 -44.5 -269.334 -133.5 -362.001s-204.833 -139 -347.5 -139c-104.667 0 -188.5 28.333 -251.5 85s-94.5 132 -94.5 226c0 148 44.5 268.667 133.5 362
s204.833 140 347.5 140zM563.001 1352c-57.333 0 -104.333 -28.167 -141 -84.5s-55 -128.5 -55 -216.5c0 -58.667 10.167 -102.834 30.5 -132.501s50.833 -44.5 91.5 -44.5c58 0 105.333 28.333 142 85s55 130.334 55 221.001c0 56 -10.5 98.667 -31.5 128
s-51.5 44 -91.5 44z" />
    <glyph glyph-name="ampersand" unicode="&#x26;" horiz-adv-x="1786" 
d="M877 915l296.999 -374.002c41.333 42 77 92.333 107 151s54.333 126.334 73 203.001h311c-28.667 -116.667 -69.5 -222.667 -122.5 -318s-119.5 -180.333 -199.5 -255l256 -322h-438l-84 106c-78.667 -45.333 -157.334 -79.166 -236.001 -101.499s-159 -33.5 -241 -33.5
c-163.333 0 -294.666 41 -393.999 123s-149 189.333 -149 322c0 100.667 31.833 193.167 95.5 277.5s162.5 164.5 296.5 240.5c-17.333 29.333 -30.333 59 -39 89s-13 61 -13 93c0 117.333 50.333 214 151 290s230.667 114 390 114c60.667 0 122.834 -4.83301 186.501 -14.5
s129.167 -24.167 196.5 -43.5l-53 -278c-58 32 -113.333 55.667 -166 71s-105.334 23 -158.001 23c-57.333 0 -102.666 -12 -135.999 -36s-50 -56.333 -50 -97c0 -25.333 10 -57.5 30 -96.5s49.667 -83.5 89 -133.5zM574.999 742.998
c-53.333 -34 -93.832 -73.167 -121.499 -117.5s-41.5 -91.833 -41.5 -142.5c0 -71.333 25.333 -131.5 76 -180.5s114 -73.5 190 -73.5c40 0 79.667 7 119 21s78.666 35 117.999 63z" />
    <glyph glyph-name="quotesingle" unicode="'" horiz-adv-x="627" 
d="M432 1493v-555h-237v555h237z" />
    <glyph glyph-name="parenleft" unicode="(" horiz-adv-x="936" 
d="M604 -270h-291.002c-52 110.667 -90.833 219.167 -116.5 325.5s-38.5 212.166 -38.5 317.499c0 196.667 42.333 393.167 127 589.5s212.334 393.5 383.001 591.5h290c-155.333 -206.667 -271.166 -411.167 -347.499 -613.5s-114.5 -405.166 -114.5 -608.499
c0 -100 9 -199.833 27 -299.5s45 -200.5 81 -302.5z" />
    <glyph glyph-name="parenright" unicode=")" horiz-adv-x="936" 
d="M299 1554l293 -0.00195312c51.333 -109.333 89.666 -217.166 114.999 -323.499s38 -212.833 38 -319.5c0 -198.667 -42.167 -396.167 -126.5 -592.5s-211.166 -392.5 -380.499 -588.5h-293c155.333 206.667 271.333 411.334 348 614.001s115 406 115 610
c0 100 -9 199.5 -27 298.5s-45.333 199.5 -82 301.5z" />
    <glyph glyph-name="asterisk" unicode="*" horiz-adv-x="1071" 
d="M1030 1217l-330 -173l330 -174l-76 -141l-333 184v-344h-170v344l-334 -184l-76 141l334 174l-334 173l76 141l334 -182v344h170v-344l333 182z" />
    <glyph glyph-name="plus" unicode="+" horiz-adv-x="1716" 
d="M977 1284v-524h522v-236h-522v-524h-238v524h-522v236h522v524h238z" />
    <glyph glyph-name="comma" unicode="," horiz-adv-x="778" 
d="M164 387h360l-59 -305l-322 -373h-213l174 373z" />
    <glyph glyph-name="hyphen" unicode="-" horiz-adv-x="850" 
d="M109 735h628l-57 -291h-629z" />
    <glyph glyph-name="period" unicode="." horiz-adv-x="778" 
d="M170 387h360l-75 -387h-361z" />
    <glyph glyph-name="slash" unicode="/" horiz-adv-x="748" 
d="M657 1493h232l-854 -1683h-232z" />
    <glyph glyph-name="zero" unicode="0" 
d="M612 233c51.333 0 96.833 15.3311 136.5 45.998s72.834 75.667 99.501 135c18.667 42 35.667 89.833 51 143.5s29.666 117.167 42.999 190.5c11.333 59.333 20 114 26 164s9 92.667 9 128c0 74.667 -13.333 129.5 -40 164.5s-68 52.5 -124 52.5
c-52 0 -97.667 -14.833 -137 -44.5s-72 -74.834 -98 -135.501c-20 -43.333 -38.167 -92.666 -54.5 -147.999s-30.5 -115.666 -42.5 -180.999c-11.333 -60 -20 -115.667 -26 -167s-9 -94.666 -9 -129.999c0 -74 13.667 -128.833 41 -164.5s69 -53.5 125 -53.5zM1352 982.998
c0 -132.667 -18.3359 -261.668 -55.0029 -387.001s-88 -235.333 -154 -330c-67.333 -97.333 -148.666 -170.833 -243.999 -220.5s-201.666 -74.5 -318.999 -74.5c-163.333 0 -288.5 46.333 -375.5 139s-130.5 226 -130.5 400c0 130.667 18.167 258.834 54.5 384.501
s87.166 235.167 152.499 328.5c68.667 98 150.334 172 245.001 222s201.334 75 320.001 75c162 0 286.833 -46.5 374.5 -139.5s131.5 -225.5 131.5 -397.5z" />
    <glyph glyph-name="one" unicode="1" 
d="M141 266h340l187 965l-363 -72l51 262l361 72h366l-237 -1227h338l-51 -266h-1045z" />
    <glyph glyph-name="two" unicode="2" 
d="M506 283l649 0.000976562l-55 -283h-1084l56 285l635 479c69.333 53.333 122.166 107.333 158.499 162s54.5 107.667 54.5 159c0 54.667 -18.667 97 -56 127s-89.666 45 -156.999 45c-63.333 0 -134 -12.5 -212 -37.5s-166 -63.5 -264 -115.5l64 317
c90.667 33.333 179.667 58.166 267 74.499s173.666 24.5 258.999 24.5c152 0 271.667 -32.833 359 -98.5s131 -155.167 131 -268.5c0 -97.333 -26.667 -186 -80 -266s-170.666 -188 -351.999 -324z" />
    <glyph glyph-name="three" unicode="3" 
d="M967 805c75.333 -17.333 133.999 -52.333 175.999 -105s63 -117.334 63 -194.001c0 -165.333 -65.5 -295.833 -196.5 -391.5s-311.167 -143.5 -540.5 -143.5c-86.667 0 -169.167 6.16699 -247.5 18.5s-152.166 30.833 -221.499 55.5l57 297
c59.333 -34.667 124 -61.5 194 -80.5s140 -28.5 210 -28.5c112.667 0 201.834 21.167 267.501 63.5s98.5 99.166 98.5 170.499c0 59.333 -25 103.833 -75 133.5s-125.333 44.5 -226 44.5h-153l49 248h162c104.667 0 187.5 19 248.5 57s91.5 89.333 91.5 154
c0 50.667 -21.167 89.334 -63.5 116.001s-103.833 40 -184.5 40c-56.667 0 -118.334 -7.33301 -185.001 -22s-136 -36 -208 -64l55 282c78.667 21.333 156.167 37.333 232.5 48s151.833 16 226.5 16c168.667 0 295.5 -28 380.5 -84s127.5 -139.333 127.5 -250
c0 -99.333 -29.5 -182.166 -88.5 -248.499s-142.167 -110.5 -249.5 -132.5z" />
    <glyph glyph-name="four" unicode="4" 
d="M844 1165l-531 -614h410zM834 1493h438l-185 -942h213l-53 -279h-213l-53 -272h-365l54 272h-672l65 330z" />
    <glyph glyph-name="five" unicode="5" 
d="M362 1493l957.001 0.000976562l-55 -283h-650l-45 -231c29.333 8 59.833 14.167 91.5 18.5s63.5 6.5 95.5 6.5c152.667 0 272 -34.833 358 -104.5s129 -166.167 129 -289.5c0 -196 -66.333 -351.5 -199 -466.5s-312.667 -172.5 -540 -172.5
c-83.333 0 -164.333 8.16699 -243 24.5s-156.667 41.166 -234 74.499l59 303c74 -48 145.833 -83.333 215.5 -106s140.5 -34 212.5 -34c105.333 0 189.666 27.5 252.999 82.5s95 127.167 95 216.5c0 64 -24 114.833 -72 152.5s-113.333 56.5 -196 56.5
c-56 0 -116.5 -7.16699 -181.5 -21.5s-136.167 -36.5 -213.5 -66.5z" />
    <glyph glyph-name="six" unicode="6" 
d="M741 737c-76 0 -138.333 -31.332 -187 -93.999s-73 -143.334 -73 -242.001c0 -59.333 15 -105.5 45 -138.5s71.667 -49.5 125 -49.5c75.333 0 137.5 30.833 186.5 92.5s73.5 139.5 73.5 233.5c0 64 -14.667 113 -44 147s-71.333 51 -126 51zM1352 1454l-54 -275.998
c-57.333 29.333 -113 51.333 -167 66s-108 22 -162 22c-124 0 -224.333 -33.333 -301 -100s-123.334 -160.334 -140.001 -281.001c52 34 105.5 59.167 160.5 75.5s113.5 24.5 175.5 24.5c122.667 0 223 -36.333 301 -109s117 -165.334 117 -278.001
c0 -184 -60.167 -334.833 -180.5 -452.5s-275.166 -176.5 -464.499 -176.5c-170 0 -301.667 48.167 -395 144.5s-140 232.5 -140 408.5c0 136 20.667 265.833 62 389.5s99.333 230.167 174 319.5c80 95.333 174.5 167 283.5 215s231.5 72 367.5 72
c62.667 0 123.667 -5.33301 183 -16s119.333 -26.667 180 -48z" />
    <glyph glyph-name="seven" unicode="7" 
d="M295 1493h1126l-45 -219l-831 -1274h-385l790 1210h-708z" />
    <glyph glyph-name="eight" unicode="8" 
d="M688 668c-78 0 -143.167 -26.501 -195.5 -79.501s-78.5 -118.167 -78.5 -195.5c0 -55.333 17 -99.166 51 -131.499s80.333 -48.5 139 -48.5c79.333 0 145 26.167 197 78.5s78 117.5 78 195.5c0 55.333 -17.167 99.333 -51.5 132s-80.833 49 -139.5 49zM442 794.999
c-72 30 -125.831 69.002 -161.498 117.002s-53.5 105.667 -53.5 173c0 135.333 55.5 241.666 166.5 318.999s264.5 116 460.5 116c157.333 0 279.333 -29.333 366 -88s130 -141.334 130 -248.001c0 -94.667 -30.167 -175.667 -90.5 -243s-146.5 -116 -258.5 -146
c81.333 -31.333 141.333 -73.333 180 -126s58 -119.334 58 -200.001c0 -153.333 -59.833 -274.666 -179.5 -363.999s-283.834 -134 -492.501 -134c-164.667 0 -292.834 32.833 -384.501 98.5s-137.5 157.167 -137.5 274.5c0 106 35.167 198.833 105.5 278.5
s167.5 137.167 291.5 172.5zM819.002 1278c-68 0 -122.5 -19.833 -163.5 -59.5s-61.5 -92.167 -61.5 -157.5c0 -45.333 14.833 -82 44.5 -110s68.834 -42 117.501 -42c68 0 122.5 19.833 163.5 59.5s61.5 92.167 61.5 157.5c0 46 -14.833 82.833 -44.5 110.5
s-68.834 41.5 -117.501 41.5z" />
    <glyph glyph-name="nine" unicode="9" 
d="M84 33l53 275.998c58 -30 114 -52.167 168 -66.5s108 -21.5 162 -21.5c124 0 224.333 33.333 301 100s123 160.334 139 281.001c-51.333 -34 -104.333 -59.167 -159 -75.5s-113 -24.5 -175 -24.5c-122 0 -222 36.333 -300 109s-117 165.334 -117 278.001
c0 184 60.167 334.833 180.5 452.5s275.166 176.5 464.499 176.5c170 0 301.5 -48.167 394.5 -144.5s139.5 -232.5 139.5 -408.5c0 -135.333 -20.667 -264.833 -62 -388.5s-99.666 -230.5 -174.999 -320.5c-80 -95.333 -174.167 -167 -282.5 -215s-230.5 -72 -366.5 -72
c-63.333 0 -125 5.33301 -185 16s-120 26.667 -180 48zM694 749.998c76 0 138.333 31.332 187 93.999s73 143 73 241c0 60.667 -14.5 107.334 -43.5 140.001s-70.5 49 -124.5 49c-75.333 0 -137.833 -31 -187.5 -93s-74.5 -139.667 -74.5 -233c0 -64 14.667 -113 44 -147
s71.333 -51 126 -51z" />
    <glyph glyph-name="colon" unicode=":" horiz-adv-x="819" 
d="M301 1120h361l-74 -387h-361zM160 387h360l-76 -387h-360z" />
    <glyph glyph-name="semicolon" unicode=";" horiz-adv-x="819" 
d="M160 387h360l-59 -305l-320 -373h-213l172 373zM301 1120h361l-74 -387h-361z" />
    <glyph glyph-name="less" unicode="&#x3c;" horiz-adv-x="1716" 
d="M1499 973l-964 -332l964 -330v-250l-1282 463v236l1282 463v-250z" />
    <glyph glyph-name="equal" unicode="=" horiz-adv-x="1716" 
d="M217 987h1282v-235h-1282v235zM217 532h1282v-237h-1282v237z" />
    <glyph glyph-name="greater" unicode="&#x3e;" horiz-adv-x="1716" 
d="M217 973v250l1282 -463v-236l-1282 -463v250l965 330z" />
    <glyph glyph-name="question" unicode="?" horiz-adv-x="1188" 
d="M283 356h360l-70 -356h-360zM672 504l-361 0.000976562l8 49c10.667 53.333 30.5 100.833 59.5 142.5s87.167 96.5 174.5 164.5l74 58c52.667 40.667 91 78.667 115 114s36 71 36 107c0 38 -13.5 67.167 -40.5 87.5s-65.833 30.5 -116.5 30.5
c-53.333 0 -113.5 -11.167 -180.5 -33.5s-138.833 -55.5 -215.5 -99.5l62 314c84.667 28 162 48.667 232 62s137.333 20 202 20c129.333 0 230.666 -28.5 303.999 -85.5s110 -135.167 110 -234.5c0 -79.333 -17.667 -150.333 -53 -213s-95.666 -128 -180.999 -196l-76 -60
c-53.333 -41.333 -89.5 -74.833 -108.5 -100.5s-31.167 -52.834 -36.5 -81.501z" />
    <glyph glyph-name="at" unicode="@" horiz-adv-x="2048" 
d="M1034 801c-70.667 0 -131.333 -34.999 -182 -104.999s-76 -153.333 -76 -250c0 -56 13.5 -98.667 40.5 -128s66.167 -44 117.5 -44c70.667 0 130.667 33.5 180 100.5s74 149.167 74 246.5c0 57.333 -13.333 101.666 -40 132.999s-64.667 47 -114 47zM1147 246.001
c-30 -50 -70.0059 -88.8271 -120.006 -116.494s-105 -41.5 -165 -41.5c-95.333 0 -170.333 31.5 -225 94.5s-82 150.167 -82 261.5c0 147.333 47.333 274.666 142 381.999s207.667 161 339 161c55.333 0 103.833 -14 145.5 -42s69.167 -65 82.5 -111l24 133h203l-133 -693
c100.667 14.667 184.834 69.167 252.501 163.5s101.5 205.166 101.5 332.499c0 142 -54.833 258 -164.5 348s-252.167 135 -427.5 135c-130.667 0 -252.167 -25.333 -364.5 -76s-207.833 -123.667 -286.5 -219c-61.333 -73.333 -108 -154 -140 -242s-48 -179.333 -48 -274
c0 -179.333 55.167 -325.833 165.5 -439.5s252.166 -170.5 425.499 -170.5c78.667 0 156.5 14.5 233.5 43.5s150.167 71.167 219.5 126.5l109 -158c-97.333 -65.333 -193.666 -114.333 -288.999 -147s-190.333 -49 -285 -49c-90 0 -176.667 13.667 -260 41
s-157.666 66.666 -222.999 117.999c-93.333 72 -164.166 161 -212.499 267s-72.5 226 -72.5 360c0 117.333 20 230.666 60 339.999s98 209.666 174 300.999c97.333 117.333 214.5 207.5 351.5 270.5s284.5 94.5 442.5 94.5c110.667 0 213 -15.5 307 -46.5
s178 -77.167 252 -138.5c70 -59.333 124 -128.833 162 -208.5s57 -162.834 57 -249.501c0 -210 -68.167 -380.667 -204.5 -512s-315.166 -197 -536.499 -197c-3.33301 0 -8 -0.333008 -14 -1s-10.333 -1 -13 -1c-3.33301 0 -6.16602 0.166992 -8.49902 0.5
s-4.16602 0.833008 -5.49902 1.5z" />
    <glyph glyph-name="A" unicode="A" horiz-adv-x="1585" 
d="M1006 272h-596l-148 -272h-395l844 1493h440l264 -1493h-366zM555 543h401l-90 575z" />
    <glyph glyph-name="B" unicode="B" horiz-adv-x="1561" 
d="M819 915c68.667 0 122.333 17.332 161 51.999s58 82.334 58 143.001c0 39.333 -13.5 69.333 -40.5 90s-65.833 31 -116.5 31h-215l-62 -316h215zM704.999 261.999c88 0 155.667 21 203 63s71 102.333 71 181c0 50 -16.333 87 -49 111s-82.667 36 -150 36h-227l-76 -391
h228zM1161 798.999c65.333 -18.667 115.834 -52.833 151.501 -102.5s53.5 -111.167 53.5 -184.5c0 -160.667 -59.833 -286.167 -179.5 -376.5s-287.834 -135.5 -504.501 -135.5h-639l291 1493h577c177.333 0 308.5 -26 393.5 -78s127.5 -132.333 127.5 -241
c0 -91.333 -25 -171.5 -75 -240.5s-115.333 -113.833 -196 -134.5z" />
    <glyph glyph-name="C" unicode="C" horiz-adv-x="1503" 
d="M1241 70c-92 -32.667 -180.333 -57.335 -265 -74.002s-165 -25 -241 -25c-200.667 0 -361 55 -481 165s-180 255.667 -180 437c0 119.333 19 231.833 57 337.5s94 202.167 168 289.5c87.333 102.667 192.5 181.667 315.5 237s255.5 83 397.5 83
c77.333 0 155 -9.16699 233 -27.5s157.333 -46.166 238 -83.499l-62 -309c-64 48.667 -128.333 84.334 -193 107.001s-134 34 -208 34c-154 0 -283 -59.333 -387 -178s-156 -267 -156 -445c0 -114.667 32 -204.667 96 -270s152.333 -98 265 -98
c67.333 0 138.833 12.167 214.5 36.5s160.5 62.5 254.5 114.5z" />
    <glyph glyph-name="D" unicode="D" horiz-adv-x="1700" 
d="M664 1202l-179 -911h138c179.333 0 321.333 50.333 426 151s157 236.667 157 408c0 116 -34.167 203.667 -102.5 263s-169.833 89 -304.5 89h-135zM334 1493l404.999 0.000976562c193.333 0 338.333 -11.5 435 -34.5s177 -61.5 241 -115.5
c64.667 -54 113.334 -119.5 146.001 -196.5s49 -164.167 49 -261.5c0 -135.333 -27.833 -262.833 -83.5 -382.5s-133.834 -220.167 -234.501 -301.5c-88 -72.667 -190.167 -124.334 -306.5 -155.001s-295.166 -46 -536.499 -46h-406z" />
    <glyph glyph-name="E" unicode="E" horiz-adv-x="1399" 
d="M334 1493h1038l-57 -291h-653l-54 -278h615l-58 -291h-614l-66 -342h674l-55 -291h-1061z" />
    <glyph glyph-name="F" unicode="F" horiz-adv-x="1399" 
d="M334 1493h1038l-57 -291h-653l-54 -278h615l-58 -291h-614l-123 -633h-385z" />
    <glyph glyph-name="G" unicode="G" horiz-adv-x="1681" 
d="M1395 111c-97.333 -47.333 -198.331 -82.5 -302.998 -105.5s-216.667 -34.5 -336 -34.5c-212 0 -378.667 53.833 -500 161.5s-182 254.5 -182 440.5c0 120.667 19 233.834 57 339.501s94.667 202.167 170 289.5c92 106.667 200.5 186.334 325.5 239.001
s267.833 79 428.5 79c89.333 0 179.333 -9.33301 270 -28s180 -46.334 268 -83.001l-59 -309c-81.333 47.333 -160.833 82.666 -238.5 105.999s-155.834 35 -234.501 35c-172 0 -312 -57.333 -420 -172s-162 -262 -162 -442c0 -119.333 31.5 -212 94.5 -278
s151.833 -99 266.5 -99c37.333 0 74.666 2.5 111.999 7.5s75 12.833 113 23.5l57 290h-235l49 258h598z" />
    <glyph glyph-name="H" unicode="H" horiz-adv-x="1714" 
d="M334 1493h385l-111 -569h568l110 569h385l-291 -1493h-385l123 633h-567l-123 -633h-385z" />
    <glyph glyph-name="I" unicode="I" horiz-adv-x="762" 
d="M334 1493h385l-291 -1493h-385z" />
    <glyph glyph-name="J" unicode="J" horiz-adv-x="762" 
d="M334 1493l385.001 0.000976562l-262 -1348c-38.667 -194.667 -114.5 -335.834 -227.5 -423.501s-276.833 -131.5 -491.5 -131.5h-78l57 291h60c79.333 0 144.166 22.5 194.499 67.5s83.833 110.5 100.5 196.5z" />
    <glyph glyph-name="K" unicode="K" horiz-adv-x="1587" 
d="M334 1493h385l-105 -537l635 537h465l-856 -725l645 -768h-452l-502 623l-121 -623h-385z" />
    <glyph glyph-name="L" unicode="L" horiz-adv-x="1305" 
d="M334 1493h385l-234 -1202h674l-55 -291h-1061z" />
    <glyph glyph-name="M" unicode="M" horiz-adv-x="2038" 
d="M334 1493h473l192 -793l504 793h492l-291 -1493h-365l213 1102l-518 -815h-207l-206 815l-213 -1102h-365z" />
    <glyph glyph-name="N" unicode="N" horiz-adv-x="1714" 
d="M334 1493h430l342 -1034l201 1034h364l-291 -1493h-430l-342 1034l-200 -1034h-365z" />
    <glyph glyph-name="O" unicode="O" horiz-adv-x="1741" 
d="M1260 881c0 117.333 -26.502 206.668 -79.502 268.001s-129.833 92 -230.5 92c-133.333 0 -245.166 -59.833 -335.499 -179.5s-135.5 -269.5 -135.5 -449.5c0 -114.667 26.333 -203.667 79 -267s126 -95 220 -95c76.667 0 144.834 16.167 204.501 48.5
s110.5 80.166 152.5 143.499c40 60.667 70.833 129 92.5 205s32.5 154 32.5 234zM1006 1520c198.667 0 358.501 -55.167 479.501 -165.5s181.5 -254.5 181.5 -432.5c0 -121.333 -18.5 -236 -55.5 -344s-90.833 -205 -161.5 -291
c-86.667 -106 -189.167 -185.167 -307.5 -237.5s-254.833 -78.5 -409.5 -78.5c-198 0 -357.333 55 -478 165s-181 254.333 -181 433c0 122 18.333 237 55 345s90.667 205.333 162 292c85.333 105.333 187.166 184 305.499 236s254.833 78 409.5 78z" />
    <glyph glyph-name="P" unicode="P" horiz-adv-x="1501" 
d="M334 1493l639 0.000976562c156.667 0 279.167 -35.833 367.5 -107.5s132.5 -171.167 132.5 -298.5c0 -78 -14.667 -152.167 -44 -222.5s-71.333 -131.833 -126 -184.5c-59.333 -56.667 -130 -97.834 -212 -123.501s-185 -38.5 -309 -38.5h-254l-100 -518h-385zM666 1214
l-82 -417h213c90.667 0 160 21.333 208 64s72 104.667 72 186c0 54 -17.167 95.333 -51.5 124s-83.833 43 -148.5 43h-211z" />
    <glyph glyph-name="Q" unicode="Q" horiz-adv-x="1741" 
d="M760 -27c-7.33301 -0.666992 -14.666 -1.16797 -21.999 -1.50098s-19.333 -0.5 -36 -0.5c-75.333 0 -146.333 10.333 -213 31s-127.334 51.334 -182.001 92.001c-73.333 54 -130.5 122.833 -171.5 206.5s-61.5 173.167 -61.5 268.5c0 122 18.5 237.167 55.5 345.5
s90.833 205.5 161.5 291.5c86 106 187.833 184.833 305.5 236.5s254.167 77.5 409.5 77.5c198.667 0 358.5 -55.167 479.5 -165.5s181.5 -254.5 181.5 -432.5c0 -209.333 -50.833 -392.833 -152.5 -550.5s-243.167 -272.5 -424.5 -344.5l229 -326h-367zM1260 880.999
c0 117.333 -26.502 206.668 -79.502 268.001s-129.833 92 -230.5 92c-133.333 0 -245.166 -59.833 -335.499 -179.5s-135.5 -269.5 -135.5 -449.5c0 -114.667 26.333 -203.667 79 -267s126 -95 220 -95c76.667 0 144.834 16.167 204.501 48.5s110.5 80.166 152.5 143.499
c40 60.667 70.833 129 92.5 205s32.5 154 32.5 234z" />
    <glyph glyph-name="R" unicode="R" horiz-adv-x="1577" 
d="M752 831c87.333 0 153.5 20.332 198.5 60.999s67.5 100.334 67.5 179.001c0 49.333 -15.5 85.5 -46.5 108.5s-79.833 34.5 -146.5 34.5h-159l-76 -383h162zM539 564.999l-111.001 -565.002h-385l291 1493h569c164 0 288.333 -30.667 373 -92s127 -151.666 127 -270.999
c0 -120.667 -33.333 -220 -100 -298s-157 -122.667 -271 -134c52 -10.667 95.333 -37.167 130 -79.5s65 -107.166 91 -194.499l127 -424h-383l-112 371c-22.667 74 -50.167 124.833 -82.5 152.5s-79.166 41.5 -140.499 41.5h-123z" />
    <glyph glyph-name="S" unicode="S" horiz-adv-x="1475" 
d="M1362 1446l-62.001 -315.999c-75.333 37.333 -149.666 65.166 -222.999 83.499s-145 27.5 -215 27.5c-96 0 -170.833 -15 -224.5 -45s-80.5 -71.667 -80.5 -125c0 -34 11.833 -60.5 35.5 -79.5s72.5 -37.5 146.5 -55.5l158 -39c132 -33.333 228.833 -81.5 290.5 -144.5
s92.5 -144.5 92.5 -244.5c0 -162 -61.5 -292 -184.5 -390s-288.167 -147 -495.5 -147c-96.667 0 -192.834 9 -288.501 27s-189.167 44.667 -280.5 80l61 325c88.667 -51.333 174.834 -89.666 258.501 -114.999s166.167 -38 247.5 -38c88 0 159.5 18 214.5 54
s82.5 82 82.5 138c0 36.667 -12.333 65.167 -37 85.5s-78.667 41.166 -162 62.499l-157 39c-116 28.667 -202.333 74 -259 136s-85 142.333 -85 241c0 155.333 59.5 279.833 178.5 373.5s279.167 140.5 480.5 140.5c80.667 0 163.5 -6.16699 248.5 -18.5
s171.5 -30.833 259.5 -55.5z" />
    <glyph glyph-name="T" unicode="T" horiz-adv-x="1397" 
d="M156 1493h1376l-57 -291h-496l-234 -1202h-385l234 1202h-496z" />
    <glyph glyph-name="U" unicode="U" horiz-adv-x="1663" 
d="M334 1493h385.001l-174 -894c-6.66699 -32 -11.5 -60.333 -14.5 -85s-4.5 -46.334 -4.5 -65.001c0 -65.333 17.5 -114.166 52.5 -146.499s87.167 -48.5 156.5 -48.5c93.333 0 165 26.167 215 78.5s87 140.833 111 265.5l174 895h385l-174 -895
c-43.333 -220 -125.5 -379.5 -246.5 -478.5s-294.167 -148.5 -519.5 -148.5c-176.667 0 -311 37.833 -403 113.5s-138 185.5 -138 329.5c0 24 1.66699 50.833 5 80.5s8.66602 64.167 15.999 103.5z" />
    <glyph glyph-name="V" unicode="V" horiz-adv-x="1585" 
d="M156 1493h366l183 -1116l618 1116h397l-843 -1493h-459z" />
    <glyph glyph-name="W" unicode="W" horiz-adv-x="2259" 
d="M219 1493h356l46 -1085l469 1085h366l49 -1085l453 1085h383l-643 -1493h-436l-50 1135l-483 -1135h-446z" />
    <glyph glyph-name="X" unicode="X" horiz-adv-x="1579" 
d="M1016 756l366 -756h-391l-243 500l-437 -500h-415l671 766l-354 727h393l230 -469l409 469h418z" />
    <glyph glyph-name="Y" unicode="Y" horiz-adv-x="1483" 
d="M129 1493h385l254 -553l444 553h445l-737 -870l-121 -623h-385l121 623z" />
    <glyph glyph-name="Z" unicode="Z" horiz-adv-x="1485" 
d="M260 1493h1256l-48 -238l-968 -964h805l-58 -291h-1300l45 238l971 964h-760z" />
    <glyph glyph-name="bracketleft" unicode="[" horiz-adv-x="936" 
d="M334 1556h620l-45 -225h-278l-269 -1376h281l-45 -225h-618z" />
    <glyph glyph-name="backslash" unicode="\" horiz-adv-x="748" 
d="M344 -190l-199 1683h222l198 -1683h-221z" />
    <glyph glyph-name="bracketright" unicode="]" horiz-adv-x="936" 
d="M563 -270h-620l43 225h280l269 1376h-281l43 225h621z" />
    <glyph glyph-name="asciicircum" unicode="^" horiz-adv-x="1716" 
d="M981 1493l528 -557h-241l-410 301l-409 -301h-242l528 557h246z" />
    <glyph glyph-name="underscore" unicode="_" horiz-adv-x="1024" 
d="M1044 -293v-190h-1064v190h1064z" />
    <glyph glyph-name="grave" unicode="`" horiz-adv-x="1024" 
d="M551 1638l209 -376h-197l-295 376h283z" />
    <glyph glyph-name="a" unicode="a" horiz-adv-x="1382" 
d="M674 504c-89.333 0 -156.832 -13.833 -202.499 -41.5s-68.5 -68.5 -68.5 -122.5c0 -40.667 13.5 -72.667 40.5 -96s64.167 -35 111.5 -35c73.333 0 134.666 22.167 183.999 66.5s82.333 106.833 99 187.5l8 41h-172zM1233 639l-125 -639.001h-358l30 166
c-58.667 -66.667 -120.667 -115.834 -186 -147.501s-136.333 -47.5 -213 -47.5c-106 0 -190.167 27.5 -252.5 82.5s-93.5 129.167 -93.5 222.5c0 142.667 55.167 251.834 165.5 327.501s269.5 113.5 477.5 113.5h211l4 28c2 9.33301 3.16699 16 3.5 20s0.5 7.66699 0.5 11
c0 44 -20.833 77.167 -62.5 99.5s-103.5 33.5 -185.5 33.5c-74 0 -145.667 -7.66699 -215 -23s-136.333 -38.333 -201 -69l54 273c74.667 18.667 151.167 32.834 229.5 42.501s159.5 14.5 243.5 14.5c166 0 289.333 -28.5 370 -85.5s121 -143.833 121 -260.5
c0 -22.667 -1.5 -47.5 -4.5 -74.5s-7.5 -56.167 -13.5 -87.5z" />
    <glyph glyph-name="b" unicode="b" horiz-adv-x="1466" 
d="M831 887c-92 0 -167.167 -42.501 -225.5 -127.501s-87.5 -195.5 -87.5 -331.5c0 -61.333 16.5 -109.5 49.5 -144.5s78.833 -52.5 137.5 -52.5c90 0 164.333 41.833 223 125.5s88 190.834 88 321.501c0 68 -15.833 119.833 -47.5 155.5s-77.5 53.5 -137.5 53.5z
M455 161.999l-32.999 -162h-359l302 1556h360l-117 -600c54.667 65.333 112 113.5 172 144.5s125.667 46.5 197 46.5c126 0 225.667 -40 299 -120s110 -189 110 -327c0 -86 -12.833 -169.667 -38.5 -251s-62.5 -155.333 -110.5 -222
c-60.667 -84 -129.167 -147.667 -205.5 -191s-158.166 -65 -245.499 -65c-76.667 0 -141.834 15.5 -195.501 46.5s-98.834 79.167 -135.501 144.5z" />
    <glyph glyph-name="c" unicode="c" horiz-adv-x="1214" 
d="M1190 1085l-56.999 -292.001c-48 32 -95.333 56.333 -142 73s-92.334 25 -137.001 25c-116.667 0 -212 -39.167 -286 -117.5s-111 -178.5 -111 -300.5c0 -78 23 -138.5 69 -181.5s111 -64.5 195 -64.5c56 0 111 8.33301 165 25s105.333 41.334 154 74.001l-55 -293
c-59.333 -20.667 -119 -36.167 -179 -46.5s-120.333 -15.5 -181 -15.5c-176 0 -311.5 39.5 -406.5 118.5s-142.5 191.167 -142.5 336.5c0 91.333 17.5 180 52.5 266s85.167 163.333 150.5 232c72.667 75.333 156 131.333 250 168s202.333 55 325 55
c56.667 0 113 -5.16699 169 -15.5s111.667 -25.833 167 -46.5z" />
    <glyph glyph-name="d" unicode="d" horiz-adv-x="1466" 
d="M629 231c92 0 166.834 42.333 224.501 127s86.5 195.334 86.5 332.001c0 62 -16.167 110.333 -48.5 145s-77.5 52 -135.5 52c-90.667 0 -165.334 -41.833 -224.001 -125.5s-88 -190.834 -88 -321.501c0 -68 15.833 -119.833 47.5 -155.5s77.5 -53.5 137.5 -53.5z
M1006 956l116 600h361l-303 -1556h-361l33 162c-54.667 -65.333 -112 -113.5 -172 -144.5s-125.667 -46.5 -197 -46.5c-126 0 -225.667 40 -299 120s-110 189 -110 327c0 86 12.833 169.667 38.5 251s62.5 155.333 110.5 222c60.667 84 129.167 147.667 205.5 191
s158.166 65 245.499 65c76.667 0 141.834 -15.5 195.501 -46.5s99.167 -79.167 136.5 -144.5z" />
    <glyph glyph-name="e" unicode="e" horiz-adv-x="1389" 
d="M1288 518l-12.0039 -56.998h-838c0 -4 -0.333008 -9.83301 -1 -17.5s-1 -13.5 -1 -17.5c0 -72.667 21.833 -127 65.5 -163s109.167 -54 196.5 -54c75.333 0 154.833 11.333 238.5 34s171.5 56.334 263.5 101.001l-55 -278c-87.333 -32 -174.166 -55.833 -260.499 -71.5
s-174.166 -23.5 -263.499 -23.5c-174.667 0 -309.5 40.333 -404.5 121s-142.5 194.667 -142.5 342c0 85.333 15.167 168.166 45.5 248.499s74.5 153.833 132.5 220.5c68.667 80 150.834 140.667 246.501 182s201.834 62 318.501 62c151.333 0 271.5 -40.333 360.5 -121
s133.5 -189.334 133.5 -326.001c0 -26.667 -1.83301 -54.834 -5.5 -84.501s-9.5 -62.167 -17.5 -97.5zM949.996 682.002c2 8.66699 3.5 17.501 4.5 26.501s1.5 17.833 1.5 26.5c0 53.333 -16 95.666 -48 126.999s-75.333 47 -130 47c-70 0 -129.5 -19.167 -178.5 -57.5
s-86.5 -94.833 -112.5 -169.5h463z" />
    <glyph glyph-name="f" unicode="f" horiz-adv-x="891" 
d="M1106 1556l-47 -235h-197c-50 0 -86.5 -9.16699 -109.5 -27.5s-38.833 -49.833 -47.5 -94.5l-17 -79h303l-49 -256h-303l-168 -864h-360l168 864h-177l50 256h176l16 78c24.667 124 76 214.667 154 272s189 86 333 86h275z" />
    <glyph glyph-name="g" unicode="g" horiz-adv-x="1466" 
d="M856 190c-57.333 -65.333 -115.67 -113.335 -175.003 -144.002s-124 -46 -194 -46c-126.667 0 -226.834 40.833 -300.501 122.5s-110.5 193.167 -110.5 334.5c0 75.333 12.833 150.833 38.5 226.5s62.5 146.834 110.5 213.501c58.667 80.667 126 142.167 202 184.5
s157.667 63.5 245 63.5c78.667 0 144.834 -15.333 198.501 -46s98.834 -79 135.501 -145l30 166h361l-189 -973c-38.667 -200.667 -121.334 -349 -248.001 -445s-302.667 -144 -528 -144c-69.333 0 -136.166 5.33301 -200.499 16s-127.833 27 -190.5 49l53 279
c56.667 -36 113.334 -62.833 170.001 -80.5s114.667 -26.5 174 -26.5c118.667 0 209.834 25.333 273.501 76s106.5 131.334 128.5 242.001zM755.996 886.998c-88 0 -161.167 -39.666 -219.5 -118.999s-87.5 -179 -87.5 -299c0 -68 15.667 -119.833 47 -155.5
s77 -53.5 137 -53.5c87.333 0 160.333 39.5 219 118.5s88 177.5 88 295.5c0 69.333 -15.667 122.166 -47 158.499s-77 54.5 -137 54.5z" />
    <glyph glyph-name="h" unicode="h" horiz-adv-x="1458" 
d="M1321 682l-133.001 -681.999h-359l113 584c8 38 14.167 70.167 18.5 96.5s6.5 47.166 6.5 62.499c0 42.667 -11.833 75.667 -35.5 99s-57.167 35 -100.5 35c-74 0 -137.5 -28.833 -190.5 -86.5s-89.833 -137.5 -110.5 -239.5l-108 -551h-359l302 1556h360l-117 -600
c66 64.667 132.333 112.667 199 144s136.334 47 209.001 47c103.333 0 183 -27 239 -81s84 -130 84 -228c0 -21.333 -1.5 -45 -4.5 -71s-7.5 -54.333 -13.5 -85z" />
    <glyph glyph-name="i" unicode="i" horiz-adv-x="702" 
d="M281 1120h360l-219 -1120h-359zM365 1556h360l-57 -292h-361z" />
    <glyph glyph-name="j" unicode="j" horiz-adv-x="702" 
d="M281 1120l360.001 0.000976562l-215 -1100c-30.667 -156.667 -87.834 -272.834 -171.501 -348.501s-196.5 -113.5 -338.5 -113.5h-178l45 235h63c67.333 0 116.5 15.167 147.5 45.5s55.167 90.833 72.5 181.5zM365.001 1556h360l-57 -292h-361z" />
    <glyph glyph-name="k" unicode="k" horiz-adv-x="1362" 
d="M365 1556h360l-164 -843l483 407h422l-651 -518l473 -602h-409l-363 483l-94 -483h-359z" />
    <glyph glyph-name="l" unicode="l" horiz-adv-x="702" 
d="M365 1556h360l-303 -1556h-359z" />
    <glyph glyph-name="m" unicode="m" horiz-adv-x="2134" 
d="M1284 934c55.333 68.667 118.172 121.334 188.505 158.001s143.5 55 219.5 55c100 0 178.833 -27.5 236.5 -82.5s86.5 -130.5 86.5 -226.5c0 -20 -1.5 -42.833 -4.5 -68.5s-7.5 -54.834 -13.5 -87.501l-133 -682h-361l113 584l3 15c17.333 82.667 26 135.667 26 159
c0 36.667 -10.5 65.667 -31.5 87s-49.5 32 -85.5 32c-68.667 0 -126.834 -28.167 -174.501 -84.5s-81.834 -136.833 -102.501 -241.5l-108 -551h-361l115 584c10 50 17 87.833 21 113.5s6 45.834 6 60.501c0 37.333 -10.333 66.5 -31 87.5s-49.334 31.5 -86.001 31.5
c-66 0 -123.833 -29.167 -173.5 -87.5s-84.167 -137.833 -103.5 -238.5l-108 -551h-359l218 1120h360l-33 -164c56 63.333 115.667 111 179 143s129.333 48 198 48c77.333 0 143.666 -19.833 198.999 -59.5s88.666 -90.834 99.999 -153.501z" />
    <glyph glyph-name="n" unicode="n" horiz-adv-x="1458" 
d="M1321 682l-133.001 -681.999h-359l113 584c8 38 14.167 70.167 18.5 96.5s6.5 47.166 6.5 62.499c0 42.667 -11.833 75.667 -35.5 99s-57.167 35 -100.5 35c-74 0 -137.5 -28.833 -190.5 -86.5s-89.833 -137.5 -110.5 -239.5l-108 -551h-359l218 1120h360l-33 -164
c66 64.667 132.333 112.667 199 144s136.334 47 209.001 47c103.333 0 183 -27 239 -81s84 -130 84 -228c0 -21.333 -1.5 -45 -4.5 -71s-7.5 -54.333 -13.5 -85z" />
    <glyph glyph-name="o" unicode="o" horiz-adv-x="1407" 
d="M768 891c-92.667 0 -169 -42 -229 -126s-90 -191 -90 -321c0 -70.667 16.167 -124.5 48.5 -161.5s79.5 -55.5 141.5 -55.5c92.667 0 169 42.167 229 126.5s90 191.833 90 322.5c0 70 -16.167 123.333 -48.5 160s-79.5 55 -141.5 55zM797 1147
c166.667 0 297.667 -42.332 393 -126.999s143 -200 143 -346c0 -84.667 -15 -166.834 -45 -246.501s-73.667 -152.5 -131 -218.5c-68 -78.667 -148.333 -138 -241 -178s-196 -60 -310 -60c-164.667 0 -294.5 42.333 -389.5 127s-142.5 200 -142.5 346
c0 84 15.333 166.167 46 246.5s74.667 153.833 132 220.5c66.667 77.333 146.167 136 238.5 176s194.5 60 306.5 60z" />
    <glyph glyph-name="p" unicode="p" horiz-adv-x="1466" 
d="M455 162l-114.999 -588h-360l301 1546h360l-33 -164c54.667 65.333 112 113.5 172 144.5s125.667 46.5 197 46.5c126 0 225.667 -40 299 -120s110 -189 110 -327c0 -86 -12.833 -169.667 -38.5 -251s-62.5 -155.333 -110.5 -222
c-60.667 -84 -129.167 -147.667 -205.5 -191s-158.166 -65 -245.499 -65c-76.667 0 -141.834 15.5 -195.501 46.5s-98.834 79.167 -135.501 144.5zM831.001 887c-92 0 -167.167 -42.501 -225.5 -127.501s-87.5 -195.5 -87.5 -331.5c0 -61.333 16.5 -109.5 49.5 -144.5
s78.833 -52.5 137.5 -52.5c90 0 164.333 41.833 223 125.5s88 190.834 88 321.501c0 68 -15.833 119.833 -47.5 155.5s-77.5 53.5 -137.5 53.5z" />
    <glyph glyph-name="q" unicode="q" horiz-adv-x="1466" 
d="M1006 956l30 164h361l-301 -1546h-361l115 588c-53.333 -65.333 -110 -113.5 -170 -144.5s-125.667 -46.5 -197 -46.5c-126 0 -225.667 40 -299 120s-110 189 -110 327c0 86 12.833 169.667 38.5 251s62.5 155.333 110.5 222c60.667 84 129.167 147.667 205.5 191
s158.166 65 245.499 65c76.667 0 141.834 -15.5 195.501 -46.5s99.167 -79.167 136.5 -144.5zM629 231c92 0 166.834 42.333 224.501 127s86.5 195.334 86.5 332.001c0 62 -16.167 110.333 -48.5 145s-77.5 52 -135.5 52c-90.667 0 -165.334 -41.833 -224.001 -125.5
s-88 -190.834 -88 -321.501c0 -68 15.833 -119.833 47.5 -155.5s77.5 -53.5 137.5 -53.5z" />
    <glyph glyph-name="r" unicode="r" horiz-adv-x="1010" 
d="M1053 815c-24.667 14 -52.002 24.667 -82.002 32s-62.333 11 -97 11c-91.333 0 -167.166 -29.333 -227.499 -88s-101.166 -143.334 -122.499 -254.001l-102 -516h-359l218 1120h360l-39 -192c47.333 70.667 106.5 124.834 177.5 162.501s149.833 56.5 236.5 56.5
c12.667 0 27 -0.666992 43 -2s35 -3.33301 57 -6z" />
    <glyph glyph-name="s" unicode="s" horiz-adv-x="1219" 
d="M1147 1085l-52.999 -277.999c-70 33.333 -139.667 58.666 -209 75.999s-135 26 -197 26c-70.667 0 -125.167 -9.16699 -163.5 -27.5s-57.5 -44.5 -57.5 -78.5c0 -20 10.667 -36 32 -48s63.333 -24.667 126 -38l65 -12c144.667 -30.667 246 -70.167 304 -118.5
s87 -115.5 87 -201.5c0 -130 -51 -231.5 -153 -304.5s-244.667 -109.5 -428 -109.5c-76.667 0 -155 6 -235 18s-161.667 30 -245 54l54 281c64.667 -38 133.834 -66.667 207.501 -86s149.167 -29 226.5 -29c75.333 0 132 9 170 27s57 44.333 57 79
c0 24 -10.667 42.667 -32 56s-65.333 27 -132 41l-65 12c-128 26.667 -219.333 66 -274 118s-82 124 -82 216c0 124.667 47.167 220.667 141.5 288s229.166 101 404.499 101c76.667 0 152.167 -5.16699 226.5 -15.5s149.166 -25.833 224.499 -46.5z" />
    <glyph glyph-name="t" unicode="t" horiz-adv-x="979" 
d="M737 1438l-61 -317.999h366l-51 -256h-366l-92 -474c-2.66699 -10.667 -4.5 -19.667 -5.5 -27s-1.5 -14.333 -1.5 -21c0 -30.667 10.167 -52.667 30.5 -66s54.5 -20 102.5 -20h185l-51 -256h-301c-108 0 -190.333 22.667 -247 68s-85 110.666 -85 195.999
c0 18.667 1 38.667 3 60s5 43 9 65l92 475h-176l49 256h178l62 318h360z" />
    <glyph glyph-name="u" unicode="u" horiz-adv-x="1458" 
d="M139 436l131 684h359l-113 -583c-8 -38 -14 -70.333 -18 -97s-6 -47.667 -6 -63c0 -42 11.667 -74.667 35 -98s56.666 -35 99.999 -35c74 0 137.667 28.667 191 86s90 137 110 239l108 551h359l-217 -1120h-361l33 164c-61.333 -64.667 -125.666 -113 -192.999 -145
s-138.333 -48 -213 -48c-102 0 -181 27 -237 81s-84 130.333 -84 229c0 23.333 1.33301 48 4 74s6.66699 53 12 81z" />
    <glyph glyph-name="v" unicode="v" horiz-adv-x="1335" 
d="M129 1120h330l145 -782l422 782h363l-658 -1120h-379z" />
    <glyph glyph-name="w" unicode="w" horiz-adv-x="1892" 
d="M178 1120h330l39 -770l338 770h284l41 -768l336 768h352l-512 -1120h-380l-37 770l-342 -770h-371z" />
    <glyph glyph-name="x" unicode="x" horiz-adv-x="1321" 
d="M453 573l-297 547h372l166 -332l291 332h389l-510 -545l312 -575h-373l-176 354l-322 -354h-389z" />
    <glyph glyph-name="y" unicode="y" horiz-adv-x="1335" 
d="M135 1120h338l154 -776l397 776h383l-709 -1226c-79.333 -138 -152.666 -228.5 -219.999 -271.5s-154.333 -64.5 -261 -64.5h-217l37 235h113c58.667 0 104.167 9.83301 136.5 29.5s61.166 54.167 86.499 103.5l33 60z" />
    <glyph glyph-name="z" unicode="z" horiz-adv-x="1192" 
d="M223 1120h977l-49 -250l-698 -614h579l-49 -256h-1001l47 250l700 614h-555z" />
    <glyph glyph-name="braceleft" unicode="{" horiz-adv-x="1458" 
d="M1047 -109l-43.002 -224.999h-218c-119.333 0 -209.166 20.5 -269.499 61.5s-90.5 102.5 -90.5 184.5c0 14.667 1.16699 32 3.5 52s5.83301 43.333 10.5 70l37 193c4 20 7 39.167 9 57.5s3 34.833 3 49.5c0 58.667 -15.167 100 -45.5 124s-84.5 36 -162.5 36h-64l45 223
h62c94 0 162.833 19.333 206.5 58s75.167 108 94.5 208l39 205c24.667 128.667 75.834 222.167 153.501 280.5s189.5 87.5 335.5 87.5h217l-43 -225h-70c-92.667 0 -156.167 -14.5 -190.5 -43.5s-60.833 -90.833 -79.5 -185.5l-33 -166
c-20 -104 -49.667 -179.833 -89 -227.5s-97 -79.834 -173 -96.501c53.333 -14 92.333 -36 117 -66s37 -70.667 37 -122c0 -20 -1.33301 -41.167 -4 -63.5s-7 -46.833 -13 -73.5l-32 -166c-6 -30.667 -10 -54 -12 -70s-3 -29.667 -3 -41c0 -44.667 13.5 -75.667 40.5 -93
s79.167 -26 156.5 -26h68z" />
    <glyph glyph-name="bar" unicode="|" horiz-adv-x="748" 
d="M487 1565v-2048h-227v2048h227z" />
    <glyph glyph-name="braceright" unicode="}" horiz-adv-x="1458" 
d="M133 -109l69.999 0.000976562c93.333 0 157.166 14.833 191.499 44.5s60.5 91.5 78.5 185.5l33 166c20 103.333 49.833 179 89.5 227s97.834 80.667 174.501 98c-53.333 12.667 -92.666 34 -117.999 64s-38 71 -38 123c0 16 1.5 35.333 4.5 58s7.16699 49 12.5 79l33 166
c5.33301 28 9 50.333 11 67s3 31 3 43c0 45.333 -13.5 76.5 -40.5 93.5s-79.167 25.5 -156.5 25.5h-67l43 225h219c119.333 0 208.833 -20.333 268.5 -61s89.5 -102 89.5 -184c0 -18.667 -1.16699 -38.167 -3.5 -58.5s-5.83301 -41.833 -10.5 -64.5l-39 -205
c-4 -20 -7 -39 -9 -57s-3 -34.333 -3 -49c0 -58.667 15.5 -100 46.5 -124s85.167 -36 162.5 -36h63l-45 -223h-61c-94 0 -162.833 -19.5 -206.5 -58.5s-75.167 -108.5 -94.5 -208.5l-37 -192c-24.667 -128.667 -76 -222.334 -154 -281.001s-190 -88 -336 -88h-217z" />
    <glyph glyph-name="asciitilde" unicode="~" horiz-adv-x="1716" 
d="M1499 850l0.000976562 -244c-70.667 -53.333 -135.834 -91.5 -195.501 -114.5s-121.5 -34.5 -185.5 -34.5c-71.333 0 -154.666 19.333 -249.999 58c-9.33301 4 -16.666 7 -21.999 9c-4.66699 2 -12 5 -22 9c-103.333 40.667 -186.333 61 -249 61
c-58.667 0 -116.667 -12.833 -174 -38.5s-118.666 -66.167 -183.999 -121.5v244c71.333 53.333 136.666 91.5 195.999 114.5s121 34.5 185 34.5c71.333 0 154.666 -19.333 249.999 -58c10 -4 17.333 -7 22 -9s12 -5 22 -9c103.333 -40.667 186.333 -61 249 -61
c57.333 0 114.166 12.5 170.499 37.5s118.833 65.833 187.5 122.5z" />
    <glyph glyph-name="nonbreakingspace" unicode="&#xa0;" horiz-adv-x="713" 
 />
    <glyph glyph-name="exclamdown" unicode="&#xa1;" horiz-adv-x="934" 
d="M723 1137h-361l70 356h361zM502 0h-361l113 573l131 418h258l-29 -418z" />
    <glyph glyph-name="cent" unicode="&#xa2;" 
d="M741 856c-68 -30.667 -122.5 -80.835 -163.5 -150.502s-61.5 -147.167 -61.5 -232.5c0 -49.333 9.5 -92.166 28.5 -128.499s45.833 -63.166 80.5 -80.499zM1249 1085l-57 -292c-50 33.333 -97.5 58 -142.5 74s-88.833 24 -131.5 24h-9l-128 -664
c59.333 1.33301 115.5 10.166 168.5 26.499s103.167 40.5 150.5 72.5l-56 -293c-48 -16.667 -98 -30 -150 -40s-106.333 -16.667 -163 -20l-55 -286h-162l55 290c-134 14.667 -239.5 60.834 -316.5 138.501s-115.5 177.167 -115.5 298.5c0 194 60.667 358 182 492
s280.666 212.333 477.999 235l55 291h162l-55 -287c45.333 -1.33301 92.333 -7 141 -17s98.334 -24.333 149.001 -43z" />
    <glyph glyph-name="sterling" unicode="&#xa3;" 
d="M1415 1466l-55.001 -286c-39.333 24.667 -82.333 43.667 -129 57s-93.667 20 -141 20c-83.333 0 -148.333 -20.5 -195 -61.5s-78.667 -105.833 -96 -194.5l-33 -170h373l-45 -239h-375l-64 -326h541l-51 -266h-1131l52 266h225l63 326h-192l45 239h194l33 170
c34.667 180 102.334 311.5 203.001 394.5s242.667 124.5 426 124.5c61.333 0 121.333 -4.5 180 -13.5s116 -22.5 172 -40.5z" />
    <glyph glyph-name="currency" unicode="&#xa4;" horiz-adv-x="1303" 
d="M434 268l-206.999 -207l-153 154l207 207c-18.667 32.667 -32.667 66.834 -42 102.501s-14 74.5 -14 116.5s5 81 15 117s25 69.333 45 100l-209 205l153 154l207 -207c32 20 66 34.833 102 44.5s74.333 14.5 115 14.5c36 0 72 -4.5 108 -13.5s73 -22.833 111 -41.5
l207 207l152 -154l-207 -207c19.333 -36.667 33.666 -73.334 42.999 -110.001s14 -73 14 -109c0 -42 -4.83301 -80.5 -14.5 -115.5s-24.5 -68.167 -44.5 -99.5l207 -207l-154 -153l-207 206c-30.667 -20 -63.667 -34.833 -99 -44.5s-74 -14.5 -116 -14.5
c-38.667 0 -76 4.5 -112 13.5s-71.667 22.833 -107 41.5zM653.001 422c60.667 0 112.333 21.168 155 63.501s64 94.166 64 155.499s-21.167 113.166 -63.5 155.499s-94.166 63.5 -155.499 63.5c-60.667 0 -112.334 -21.167 -155.001 -63.5s-64 -94.166 -64 -155.499
c0 -62 21 -114 63 -156s94 -63 156 -63z" />
    <glyph glyph-name="yen" unicode="&#xa5;" 
d="M1294 416h-454l-82 -416h-381l82 416h-447l39 194h445l14 76l-29 76h-401l37 192h291l-215 539h368l195 -500l385 500h405l-440 -539h293l-37 -192h-408l-59 -76l-18 -76h454z" />
    <glyph glyph-name="brokenbar" unicode="&#xa6;" horiz-adv-x="748" 
d="M487 1432v-758h-227v758h227zM487 408v-758h-227v758h227z" />
    <glyph glyph-name="section" unicode="&#xa7;" horiz-adv-x="1024" 
d="M1012 1462l-42.998 -227.004c-60 26.667 -114 46.334 -162 59.001s-92.333 19 -133 19c-53.333 0 -95.666 -10.167 -126.999 -30.5s-47 -47.166 -47 -80.499c0 -20 8.16699 -38.333 24.5 -55s43.5 -33.667 81.5 -51l90 -41c116.667 -52 196.334 -103.167 239.001 -153.5
s64 -112.5 64 -186.5c0 -82 -25.667 -154.667 -77 -218s-126 -114.333 -224 -153c38 -24 66 -50.667 84 -80s27 -62 27 -98c0 -108 -47 -195.167 -141 -261.5s-219.667 -99.5 -377 -99.5c-56 0 -114 4.83301 -174 14.5s-121.667 24.167 -185 43.5l48 237
c68 -28.667 128.667 -50.167 182 -64.5s100.333 -21.5 141 -21.5c51.333 0 93.166 10.5 125.499 31.5s48.5 47.5 48.5 79.5c0 20.667 -8 38.834 -24 54.501s-50.333 35.834 -103 60.501l-135 61c-79.333 36 -137.666 78.5 -174.999 127.5s-56 107.5 -56 175.5
c0 82 24.5 154.833 73.5 218.5s120.5 115.167 214.5 154.5c-34.667 27.333 -60.334 56.333 -77.001 87s-25 63.667 -25 99c0 104 46.167 189.5 138.5 256.5s212.166 100.5 359.499 100.5c55.333 0 111.666 -4.83301 168.999 -14.5s115.666 -24.167 174.999 -43.5z
M444.002 853.996c-53.333 -14 -94.166 -35.8301 -122.499 -65.4971s-42.5 -65.167 -42.5 -106.5c0 -40.667 16.167 -75.334 48.5 -104.001s102.833 -64.334 211.5 -107.001c53.333 18 94.666 42.167 123.999 72.5s44 64.166 44 101.499c0 40.667 -19 76.5 -57 107.5
s-106.667 64.833 -206 101.5z" />
    <glyph glyph-name="dieresis" unicode="&#xa8;" horiz-adv-x="1024" 
d="M358 1585h238l-49 -246h-236zM756 1585h235l-49 -246h-235z" />
    <glyph glyph-name="copyright" unicode="&#xa9;" horiz-adv-x="2048" 
d="M1323 1126l-0.00195312 -215c-38 24.667 -75.5 42.834 -112.5 54.501s-74.5 17.5 -112.5 17.5c-75.333 0 -134.166 -21.333 -176.499 -64s-63.5 -102 -63.5 -178c0 -76.667 21 -136 63 -178s101 -63 177 -63c42.667 0 83.167 6 121.5 18s72.833 29.667 103.5 53v-213
c-43.333 -14.667 -86.833 -25.834 -130.5 -33.501s-86.167 -11.5 -127.5 -11.5c-140.667 0 -253.334 39 -338.001 117s-127 181.667 -127 311c0 130 42.333 233.833 127 311.5s197.334 116.5 338.001 116.5c46 0 90.333 -3.5 133 -10.5s84.334 -17.833 125.001 -32.5z
M1024 1331c-80.667 0 -155.668 -14.501 -225.001 -43.501s-133 -72.5 -191 -130.5s-101.5 -121.5 -130.5 -190.5s-43.5 -144.167 -43.5 -225.5c0 -80.667 14.5 -155.5 43.5 -224.5s72.5 -132.5 130.5 -190.5c57.333 -57.333 120.833 -100.333 190.5 -129
s144.834 -43 225.501 -43c82 0 157.333 14.167 226 42.5s132 71.5 190 129.5s101.5 121.5 130.5 190.5s43.5 143.833 43.5 224.5c0 81.333 -14.5 156.5 -43.5 225.5s-72.5 132.5 -130.5 190.5c-58.667 58.667 -122.5 102.334 -191.5 131.001s-143.833 43 -224.5 43z
M1024 1485c101.333 0 195.833 -18.333 283.5 -55s167.834 -91.334 240.501 -164.001s127 -152.667 163 -240s54 -182.333 54 -285c0 -101.333 -18 -195.5 -54 -282.5s-90.333 -166.833 -163 -239.5s-152.834 -127.334 -240.501 -164.001s-182.167 -55 -283.5 -55
s-195.833 18.333 -283.5 55s-167.834 91.334 -240.501 164.001s-127 152.5 -163 239.5s-54 181.167 -54 282.5c0 102.667 18 197.667 54 285s90.333 167.333 163 240s152.834 127.334 240.501 164.001s182.167 55 283.5 55z" />
    <glyph glyph-name="ordfeminine" unicode="&#xaa;" horiz-adv-x="1155" 
d="M127 573h815l-39 -200h-815zM692 1081c-98.667 0 -166.666 -9.50195 -203.999 -28.502s-56 -51.833 -56 -98.5c0 -29.333 10.333 -52.666 31 -69.999s48.667 -26 84 -26c56 0 105.667 18.833 149 56.5s70.666 85.834 81.999 144.501l4 22h-90zM1069 1165l-86 -447.997
h-248l25 125c-44 -50.667 -91.167 -87.667 -141.5 -111s-109.166 -35 -176.499 -35c-83.333 0 -148.166 18.5 -194.499 55.5s-69.5 88.833 -69.5 155.5c0 103.333 41.167 181.166 123.5 233.499s204.5 78.5 366.5 78.5h141l4 20c0.666992 2.66699 1.16699 5.66699 1.5 9
s0.5 8.66602 0.5 15.999c0 29.333 -12.833 51.666 -38.5 66.999s-63.834 23 -114.501 23c-58.667 0 -117 -5.83301 -175 -17.5s-115.333 -29.167 -172 -52.5l35 180c65.333 18.667 127.166 32.667 185.499 42s112.5 14 162.5 14c124 0 218.5 -21.333 283.5 -64
s97.5 -104.667 97.5 -186c0 -20.667 -0.833008 -39.5 -2.5 -56.5s-4.16699 -33.167 -7.5 -48.5z" />
    <glyph glyph-name="guillemotleft" unicode="&#xab;" horiz-adv-x="1331" 
d="M1217 1063l-50 -252l-346 -229l258 -222l-43 -223l-422 369l37 186zM727 1063l-49 -252l-346 -229l258 -222l-43 -223l-422 369l37 186z" />
    <glyph glyph-name="logicalnot" unicode="&#xac;" horiz-adv-x="1716" 
d="M217 909h1282v-622h-235v385h-1047v237z" />
    <glyph glyph-name="sfthyphen" unicode="&#xad;" horiz-adv-x="850" 
d="M109 735h628l-57 -291h-629z" />
    <glyph glyph-name="registered" unicode="&#xae;" horiz-adv-x="2048" 
d="M1024 1331c-80.667 0 -155.668 -14.501 -225.001 -43.501s-133 -72.5 -191 -130.5s-101.5 -121.5 -130.5 -190.5s-43.5 -144.167 -43.5 -225.5c0 -80.667 14.5 -155.5 43.5 -224.5s72.5 -132.5 130.5 -190.5c57.333 -57.333 120.833 -100.333 190.5 -129
s144.834 -43 225.501 -43c82 0 157.333 14.167 226 42.5s132 71.5 190 129.5s101.5 121.5 130.5 190.5s43.5 143.833 43.5 224.5c0 81.333 -14.5 156.5 -43.5 225.5s-72.5 132.5 -130.5 190.5c-58.667 58.667 -122.5 102.334 -191.5 131.001s-143.833 43 -224.5 43z
M966.999 1036l-35 -0.00195312v-207h35c52 0 91.167 8.83301 117.5 26.5s39.5 43.834 39.5 78.501s-12.833 60.334 -38.5 77.001s-65.167 25 -118.5 25zM1004 1174c117.333 0 204.998 -19.832 262.998 -59.499s87 -99.834 87 -180.501
c0 -57.333 -17.5 -104.666 -52.5 -141.999s-84.5 -61.666 -148.5 -72.999c27.333 -14.667 52.833 -35.334 76.5 -62.001s45.167 -59.334 64.5 -98.001l111 -221h-229l-107 213c-25.333 52 -47.666 88.833 -66.999 110.5s-38.666 32.5 -57.999 32.5h-12v-356h-213v836h285z
M1024 1485c101.333 0 195.833 -18.333 283.5 -55s167.834 -91.334 240.501 -164.001s127 -152.667 163 -240s54 -182.333 54 -285c0 -101.333 -18 -195.5 -54 -282.5s-90.333 -166.833 -163 -239.5s-152.834 -127.334 -240.501 -164.001s-182.167 -55 -283.5 -55
s-195.833 18.333 -283.5 55s-167.834 91.334 -240.501 164.001s-127 152.5 -163 239.5s-54 181.167 -54 282.5c0 102.667 18 197.667 54 285s90.333 167.333 163 240s152.834 127.334 240.501 164.001s182.167 55 283.5 55z" />
    <glyph glyph-name="macron" unicode="&#xaf;" horiz-adv-x="1024" 
d="M354 1556h631l-37 -188h-631z" />
    <glyph glyph-name="degree" unicode="&#xb0;" horiz-adv-x="1024" 
d="M512 1372c-48 0 -88.667 -16.667 -122 -50s-50 -74 -50 -122s16.5 -88.333 49.5 -121s73.833 -49 122.5 -49c48 0 88.667 16.5 122 49.5s50 73.167 50 120.5c0 48 -16.833 88.667 -50.5 122s-74.167 50 -121.5 50zM512 1534c44 0 86.333 -8.5 127 -25.5
s77 -41.167 109 -72.5c31.333 -32 55.166 -68 71.499 -108s24.5 -82.667 24.5 -128c0 -44.667 -8.16699 -87.167 -24.5 -127.5s-39.5 -75.5 -69.5 -105.5c-32 -32 -68.667 -56.5 -110 -73.5s-84.666 -25.5 -129.999 -25.5c-94 0 -172.833 31.833 -236.5 95.5
s-95.5 142.5 -95.5 236.5s32.167 173.167 96.5 237.5s143.5 96.5 237.5 96.5z" />
    <glyph glyph-name="plusminus" unicode="&#xb1;" horiz-adv-x="1716" 
d="M977 1284v-354h522v-236h-522v-354h-238v354h-522v236h522v354h238zM217 238h1282v-238h-1282v238z" />
    <glyph glyph-name="twosuperior" unicode="&#xb2;" horiz-adv-x="897" 
d="M424 836h377.001l-33 -168h-676l31 153l366 266c53.333 38.667 93 74.5 119 107.5s39 63.5 39 91.5c0 26.667 -10.833 47.667 -32.5 63s-51.834 23 -90.501 23c-45.333 0 -92.5 -7.66699 -141.5 -23s-97.167 -37.666 -144.5 -66.999l36 186
c55.333 17.333 107.833 30.333 157.5 39s97.5 13 143.5 13c99.333 0 175.5 -18.167 228.5 -54.5s79.5 -87.833 79.5 -154.5c0 -52.667 -18 -103.834 -54 -153.501s-94 -102.5 -174 -158.5z" />
    <glyph glyph-name="threesuperior" unicode="&#xb3;" horiz-adv-x="897" 
d="M666 1120c50 -8.66699 87.9951 -28.502 113.995 -59.502s39 -71.833 39 -122.5c0 -91.333 -39 -161.666 -117 -210.999s-189 -74 -333 -74c-53.333 0 -104.166 4 -152.499 12s-93.166 19.667 -134.499 35l33 172c38.667 -24 77.834 -42.167 117.501 -54.5
s79.5 -18.5 119.5 -18.5c72.667 0 129.5 12.667 170.5 38s61.5 60.333 61.5 105c0 36 -16.5 62.5 -49.5 79.5s-84.167 25.5 -153.5 25.5h-76l27 137h86c70.667 0 124.834 9.66699 162.501 29s56.5 47 56.5 83c0 25.333 -12.667 44.333 -38 57s-62.666 19 -111.999 19
c-36 0 -75.167 -4.33301 -117.5 -13s-89.166 -22 -140.499 -40l31 166c48 11.333 96.667 20 146 26s98.333 9 147 9c103.333 0 182.666 -16.667 237.999 -50s83 -81 83 -143c0 -54 -18.833 -99.667 -56.5 -137s-88.167 -60.666 -151.5 -69.999z" />
    <glyph glyph-name="acute" unicode="&#xb4;" horiz-adv-x="1024" 
d="M811 1638h293l-438 -376h-201z" />
    <glyph glyph-name="mu" unicode="&#xb5;" horiz-adv-x="1507" 
d="M-55 -428l300.998 1548h360l-127 -651c-2.66699 -14 -4.66699 -27.667 -6 -41s-2 -25.666 -2 -36.999c0 -48.667 14.333 -86 43 -112s70.334 -39 125.001 -39c68 0 122 18.667 162 56s68 95 84 173l127 651h360l-145 -749c-2.66699 -14 -4.66699 -26.833 -6 -38.5
s-2 -22.167 -2 -31.5c0 -19.333 4.5 -33.666 13.5 -42.999s22.833 -14 41.5 -14c11.333 0 23.5 1.83301 36.5 5.5s26.167 9.16699 39.5 16.5l-50 -250c-38 -15.333 -73.333 -26.666 -106 -33.999s-64 -11 -94 -11c-58.667 0 -104.5 12.667 -137.5 38
s-56.167 65.333 -69.5 120c-41.333 -52.667 -87.166 -92.167 -137.499 -118.5s-104.833 -39.5 -163.5 -39.5c-49.333 0 -89.5 7.83301 -120.5 23.5s-53.833 39.5 -68.5 71.5l-96 -494h-362z" />
    <glyph glyph-name="paragraph" unicode="&#xb6;" horiz-adv-x="1303" 
d="M715 1493l520 0.00195312l-328 -1690h-190l299 1543h-189l-301 -1543h-188l164 846c-112 13.333 -198.333 50.666 -259 111.999s-91 141.333 -91 240c0 143.333 52.167 261.166 156.5 353.499s239.833 138.5 406.5 138.5z" />
    <glyph glyph-name="periodcentered" unicode="&#xb7;" horiz-adv-x="778" 
d="M248 905h360l-76 -387h-360z" />
    <glyph glyph-name="cedilla" unicode="&#xb8;" horiz-adv-x="1024" 
d="M459 0c24.667 -34.667 42.666 -66.668 53.999 -96.001s17 -58 17 -86c0 -69.333 -25.167 -123.166 -75.5 -161.499s-121.166 -57.5 -212.499 -57.5c-32.667 0 -65.167 2.16699 -97.5 6.5s-65.5 10.833 -99.5 19.5l29 156c26.667 -11.333 53.5 -20 80.5 -26
s53.167 -9 78.5 -9c44 0 78.667 9.5 104 28.5s38 44.167 38 75.5c0 17.333 -4.5 37.5 -13.5 60.5s-23.833 52.833 -44.5 89.5h142z" />
    <glyph glyph-name="onesuperior" unicode="&#xb9;" horiz-adv-x="897" 
d="M168 825h205l102 521l-233 -52l30 160l244 49h219l-133 -678h207l-31 -157h-641z" />
    <glyph glyph-name="ordmasculine" unicode="&#xba;" horiz-adv-x="1155" 
d="M719 1520c122 0 218.667 -30.167 290 -90.5s107 -141.5 107 -243.5c0 -146 -49.167 -263.833 -147.5 -353.5s-228.5 -134.5 -390.5 -134.5c-121.333 0 -218.333 30.5 -291 91.5s-109 141.833 -109 242.5c0 144.667 49.667 262.167 149 352.5s230 135.5 392 135.5z
M133 573h823l-38 -200h-824zM694 1350c-66 0 -120.667 -30.832 -164 -92.499s-65 -139.5 -65 -233.5c0 -50.667 11.667 -89.334 35 -116.001s57.333 -40 102 -40c66 0 120.667 30.667 164 92s65 139.333 65 234c0 50 -11.833 88.5 -35.5 115.5s-57.5 40.5 -101.5 40.5z" />
    <glyph glyph-name="guillemotright" unicode="&#xbb;" horiz-adv-x="1331" 
d="M117 135l49 254l344 229l-256 222l43 223l420 -371l-35 -186zM606 135l49 254l344 229l-258 222l45 223l420 -371l-35 -186z" />
    <glyph glyph-name="onequarter" unicode="&#xbc;" horiz-adv-x="2120" 
d="M1636 640l-302 -323h239zM1656 835h248l-101 -518h137l-30 -155h-137l-31 -162h-230l31 162h-391l33 168zM594 -29h-245l1235 1549h245zM145 825h205l102 521l-233 -52l30 160l244 49h219l-133 -678h207l-31 -157h-641z" />
    <glyph glyph-name="onehalf" unicode="&#xbd;" horiz-adv-x="2120" 
d="M594 -29h-245l1235 1549h245zM145 825h205l102 521l-233 -52l30 160l244 49h219l-133 -678h207l-31 -157h-641zM1663 168h377.001l-33 -168h-676l31 153l366 266c53.333 38.667 93 74.5 119 107.5s39 63.5 39 91.5c0 26.667 -10.833 47.667 -32.5 63
s-51.834 23 -90.501 23c-45.333 0 -92.5 -7.66699 -141.5 -23s-97.167 -37.666 -144.5 -66.999l36 186c55.333 17.333 107.833 30.333 157.5 39s97.5 13 143.5 13c99.333 0 175.5 -18.167 228.5 -54.5s79.5 -87.833 79.5 -154.5c0 -52.667 -18 -103.834 -54 -153.501
s-94 -102.5 -174 -158.5z" />
    <glyph glyph-name="threequarters" unicode="&#xbe;" horiz-adv-x="2120" 
d="M1636 640l-302 -323h239zM1656 835h248l-101 -518h137l-30 -155h-137l-31 -162h-230l31 162h-391l33 168zM594 -29h-245l1235 1549h245zM680 1120c50 -8.66699 87.9951 -28.502 113.995 -59.502s39 -71.833 39 -122.5c0 -91.333 -39 -161.666 -117 -210.999
s-189 -74 -333 -74c-53.333 0 -104.166 4 -152.499 12s-93.166 19.667 -134.499 35l33 172c38.667 -24 77.834 -42.167 117.501 -54.5s79.5 -18.5 119.5 -18.5c72.667 0 129.5 12.667 170.5 38s61.5 60.333 61.5 105c0 36 -16.5 62.5 -49.5 79.5s-84.167 25.5 -153.5 25.5
h-76l27 137h86c70.667 0 124.834 9.66699 162.501 29s56.5 47 56.5 83c0 25.333 -12.667 44.333 -38 57s-62.666 19 -111.999 19c-36 0 -75.167 -4.33301 -117.5 -13s-89.166 -22 -140.499 -40l31 166c48 11.333 96.667 20 146 26s98.333 9 147 9
c103.333 0 182.666 -16.667 237.999 -50s83 -81 83 -143c0 -54 -18.833 -99.667 -56.5 -137s-88.167 -60.666 -151.5 -69.999z" />
    <glyph glyph-name="questiondown" unicode="&#xbf;" horiz-adv-x="1188" 
d="M541 989l359.998 0.000976562l-10 -51c-10 -53.333 -29.333 -100.5 -58 -141.5s-86.667 -95.5 -174 -163.5l-75 -60c-53.333 -40.667 -91.666 -78.334 -114.999 -113.001s-35 -70 -35 -106c0 -38 13.333 -67.167 40 -87.5s65.334 -30.5 116.001 -30.5
c53.333 0 113.833 11.333 181.5 34s139.5 55.667 215.5 99l-61 -314c-84.667 -28 -162.167 -48.667 -232.5 -62s-137.5 -20 -201.5 -20c-130 0 -231.833 28.5 -305.5 85.5s-110.5 135.167 -110.5 234.5c0 79.333 17.667 150.333 53 213s95.333 128 180 196l76 60
c55.333 43.333 92.333 77.5 111 102.5s30.667 51.5 36 79.5zM929.998 1137h-361l70 356h360z" />
    <glyph glyph-name="Agrave" unicode="&#xc0;" horiz-adv-x="1585" 
d="M940 1899l144 -264h-178l-230 264h264zM1006 272h-596l-148 -272h-395l844 1493h440l264 -1493h-366zM555 543h401l-90 575z" />
    <glyph glyph-name="Aacute" unicode="&#xc1;" horiz-adv-x="1585" 
d="M1035 1899h280l-319 -264h-207zM1006 272h-596l-148 -272h-395l844 1493h440l264 -1493h-366zM555 543h401l-90 575z" />
    <glyph glyph-name="Acircumflex" unicode="&#xc2;" horiz-adv-x="1585" 
d="M799 1899h348l152 -264h-170l-164 161l-231 -161h-179zM1006 272h-596l-148 -272h-395l844 1493h440l264 -1493h-366zM555 543h401l-90 575z" />
    <glyph glyph-name="Atilde" unicode="&#xc3;" horiz-adv-x="1585" 
d="M942 1686l-49.0049 37.001c-16 12.667 -29.5 21.167 -40.5 25.5s-22.5 6.5 -34.5 6.5c-24 0 -44.667 -10.667 -62 -32s-29.666 -50.666 -36.999 -87.999h-137c17.333 85.333 47.833 151 91.5 197s97.167 69 160.5 69c24.667 0 47.834 -4 69.501 -12s44.167 -21 67.5 -39
l53 -41c10.667 -8.66699 22 -15.334 34 -20.001s23.333 -7 34 -7c26 0 47.833 10.167 65.5 30.5s29.834 49.833 36.501 88.5h138c-17.333 -85.333 -47.833 -151 -91.5 -197s-96.5 -69 -158.5 -69c-25.333 0 -48.666 3.66699 -69.999 11s-44.666 20.666 -69.999 39.999z
M1006 272.001h-596l-148 -272h-395l844 1493h440l264 -1493h-366zM554.995 543.001h401l-90 575z" />
    <glyph glyph-name="Adieresis" unicode="&#xc4;" horiz-adv-x="1585" 
d="M670 1899h236l-47 -246h-236zM1065 1899h238l-49 -246h-236zM1006 272h-596l-148 -272h-395l844 1493h440l264 -1493h-366zM555 543h401l-90 575z" />
    <glyph glyph-name="Aring" unicode="&#xc5;" horiz-adv-x="1585" 
d="M795 1616c0 -36 12.833 -66.833 38.5 -92.5s56.5 -38.5 92.5 -38.5s66.833 12.833 92.5 38.5s38.5 56.5 38.5 92.5s-13 66.833 -39 92.5s-56.667 38.5 -92 38.5c-36 0 -66.833 -12.833 -92.5 -38.5s-38.5 -56.5 -38.5 -92.5zM1155 1456l259.998 -1456h-366l-43 272h-596
l-148 -272h-395l825 1458c-17.333 24.667 -30.166 49.834 -38.499 75.501s-12.5 53.167 -12.5 82.5c0 78 27.833 145 83.5 201s122.834 84 201.501 84c78 0 144.833 -28 200.5 -84s83.5 -123 83.5 -201c0 -32 -4.33301 -60.833 -13 -86.5s-22.667 -50.167 -42 -73.5z
M554.998 542.999h401l-90 575z" />
    <glyph glyph-name="AE" unicode="&#xc6;" horiz-adv-x="2222" 
d="M985 1237l-375 -610h377l119 610h-121zM774 1493h1421l-57 -291h-653l-53 -278h614l-57 -291h-615l-65 -342h673l-55 -291h-1061l68 350h-492l-217 -350h-385z" />
    <glyph glyph-name="Ccedilla" unicode="&#xc7;" horiz-adv-x="1503" 
d="M1241 70c-92 -32.667 -180.333 -57.335 -265 -74.002s-165 -25 -241 -25c-200.667 0 -361 55 -481 165s-180 255.667 -180 437c0 119.333 19 231.833 57 337.5s94 202.167 168 289.5c87.333 102.667 192.5 181.667 315.5 237s255.5 83 397.5 83
c77.333 0 155 -9.16699 233 -27.5s157.333 -46.166 238 -83.499l-62 -309c-64 48.667 -128.333 84.334 -193 107.001s-134 34 -208 34c-154 0 -283 -59.333 -387 -178s-156 -267 -156 -445c0 -114.667 32 -204.667 96 -270s152.333 -98 265 -98
c67.333 0 138.833 12.167 214.5 36.5s160.5 62.5 254.5 114.5zM865 -0.000976562c24.667 -34.667 42.666 -66.668 53.999 -96.001s17 -58 17 -86c0 -69.333 -25.167 -123.166 -75.5 -161.499s-121.166 -57.5 -212.499 -57.5c-32.667 0 -65.167 2.16699 -97.5 6.5
s-65.5 10.833 -99.5 19.5l29 156c26.667 -11.333 53.5 -20 80.5 -26s53.167 -9 78.5 -9c44 0 78.667 9.5 104 28.5s38 44.167 38 75.5c0 17.333 -4.5 37.5 -13.5 60.5s-23.833 52.833 -44.5 89.5h142z" />
    <glyph glyph-name="Egrave" unicode="&#xc8;" horiz-adv-x="1399" 
d="M899 1899l144 -264h-178l-230 264h264zM334 1493h1038l-57 -291h-653l-54 -278h615l-58 -291h-614l-66 -342h674l-55 -291h-1061z" />
    <glyph glyph-name="Eacute" unicode="&#xc9;" horiz-adv-x="1399" 
d="M994 1899h280l-319 -264h-207zM334 1493h1038l-57 -291h-653l-54 -278h615l-58 -291h-614l-66 -342h674l-55 -291h-1061z" />
    <glyph glyph-name="Ecircumflex" unicode="&#xca;" horiz-adv-x="1399" 
d="M758 1899h348l152 -264h-170l-164 161l-231 -161h-179zM334 1493h1038l-57 -291h-653l-54 -278h615l-58 -291h-614l-66 -342h674l-55 -291h-1061z" />
    <glyph glyph-name="Edieresis" unicode="&#xcb;" horiz-adv-x="1399" 
d="M629 1899h236l-47 -246h-236zM1024 1899h238l-49 -246h-236zM334 1493h1038l-57 -291h-653l-54 -278h615l-58 -291h-614l-66 -342h674l-55 -291h-1061z" />
    <glyph glyph-name="Igrave" unicode="&#xcc;" horiz-adv-x="762" 
d="M542 1899l144 -264h-178l-230 264h264zM334 1493h385l-291 -1493h-385z" />
    <glyph glyph-name="Iacute" unicode="&#xcd;" horiz-adv-x="762" 
d="M637 1899h280l-319 -264h-207zM334 1493h385l-291 -1493h-385z" />
    <glyph glyph-name="Icircumflex" unicode="&#xce;" horiz-adv-x="762" 
d="M401 1899h348l152 -264h-170l-164 161l-231 -161h-179zM334 1493h385l-291 -1493h-385z" />
    <glyph glyph-name="Idieresis" unicode="&#xcf;" horiz-adv-x="762" 
d="M272 1899h236l-47 -246h-236zM667 1899h238l-49 -246h-236zM334 1493h385l-291 -1493h-385z" />
    <glyph glyph-name="Eth" unicode="&#xd0;" horiz-adv-x="1731" 
d="M696 1202l-57 -299h246l-51 -260h-246l-70 -352h137c180.667 0 323.5 50.5 428.5 151.5s157.5 236.833 157.5 407.5c0 116 -34.5 203.667 -103.5 263s-171.167 89 -306.5 89h-135zM367 1493l405 0.000976562c193.333 0 338.333 -11.5 435 -34.5s177 -61.5 241 -115.5
c64.667 -54 113.667 -119.667 147 -197s50 -164.333 50 -261c0 -134 -28.167 -261 -84.5 -381s-134.833 -221 -235.5 -303c-88 -72.667 -190.167 -124.334 -306.5 -155.001s-295.5 -46 -537.5 -46h-405l125 643h-205l51 260h205z" />
    <glyph glyph-name="Ntilde" unicode="&#xd1;" horiz-adv-x="1714" 
d="M991 1686l-49.0049 37.001c-16 12.667 -29.5 21.167 -40.5 25.5s-22.5 6.5 -34.5 6.5c-24 0 -44.667 -10.667 -62 -32s-29.666 -50.666 -36.999 -87.999h-137c17.333 85.333 47.833 151 91.5 197s97.167 69 160.5 69c24.667 0 47.834 -4 69.501 -12s44.167 -21 67.5 -39
l53 -41c10.667 -8.66699 22 -15.334 34 -20.001s23.333 -7 34 -7c26 0 47.833 10.167 65.5 30.5s29.834 49.833 36.501 88.5h138c-17.333 -85.333 -47.833 -151 -91.5 -197s-96.5 -69 -158.5 -69c-25.333 0 -48.666 3.66699 -69.999 11s-44.666 20.666 -69.999 39.999z
M333.995 1493h430l342 -1034l201 1034h364l-291 -1493h-430l-342 1034l-200 -1034h-365z" />
    <glyph glyph-name="Ograve" unicode="&#xd2;" horiz-adv-x="1741" 
d="M1060 1899l144 -264h-178l-230 264h264zM1260 881c0 117.333 -26.502 206.668 -79.502 268.001s-129.833 92 -230.5 92c-133.333 0 -245.166 -59.833 -335.499 -179.5s-135.5 -269.5 -135.5 -449.5c0 -114.667 26.333 -203.667 79 -267s126 -95 220 -95
c76.667 0 144.834 16.167 204.501 48.5s110.5 80.166 152.5 143.499c40 60.667 70.833 129 92.5 205s32.5 154 32.5 234zM1006 1520c198.667 0 358.501 -55.167 479.501 -165.5s181.5 -254.5 181.5 -432.5c0 -121.333 -18.5 -236 -55.5 -344s-90.833 -205 -161.5 -291
c-86.667 -106 -189.167 -185.167 -307.5 -237.5s-254.833 -78.5 -409.5 -78.5c-198 0 -357.333 55 -478 165s-181 254.333 -181 433c0 122 18.333 237 55 345s90.667 205.333 162 292c85.333 105.333 187.166 184 305.499 236s254.833 78 409.5 78z" />
    <glyph glyph-name="Oacute" unicode="&#xd3;" horiz-adv-x="1741" 
d="M1155 1899h280l-319 -264h-207zM1260 881c0 117.333 -26.502 206.668 -79.502 268.001s-129.833 92 -230.5 92c-133.333 0 -245.166 -59.833 -335.499 -179.5s-135.5 -269.5 -135.5 -449.5c0 -114.667 26.333 -203.667 79 -267s126 -95 220 -95
c76.667 0 144.834 16.167 204.501 48.5s110.5 80.166 152.5 143.499c40 60.667 70.833 129 92.5 205s32.5 154 32.5 234zM1006 1520c198.667 0 358.501 -55.167 479.501 -165.5s181.5 -254.5 181.5 -432.5c0 -121.333 -18.5 -236 -55.5 -344s-90.833 -205 -161.5 -291
c-86.667 -106 -189.167 -185.167 -307.5 -237.5s-254.833 -78.5 -409.5 -78.5c-198 0 -357.333 55 -478 165s-181 254.333 -181 433c0 122 18.333 237 55 345s90.667 205.333 162 292c85.333 105.333 187.166 184 305.499 236s254.833 78 409.5 78z" />
    <glyph glyph-name="Ocircumflex" unicode="&#xd4;" horiz-adv-x="1741" 
d="M919 1899h348l152 -264h-170l-164 161l-231 -161h-179zM1260 881c0 117.333 -26.502 206.668 -79.502 268.001s-129.833 92 -230.5 92c-133.333 0 -245.166 -59.833 -335.499 -179.5s-135.5 -269.5 -135.5 -449.5c0 -114.667 26.333 -203.667 79 -267s126 -95 220 -95
c76.667 0 144.834 16.167 204.501 48.5s110.5 80.166 152.5 143.499c40 60.667 70.833 129 92.5 205s32.5 154 32.5 234zM1006 1520c198.667 0 358.501 -55.167 479.501 -165.5s181.5 -254.5 181.5 -432.5c0 -121.333 -18.5 -236 -55.5 -344s-90.833 -205 -161.5 -291
c-86.667 -106 -189.167 -185.167 -307.5 -237.5s-254.833 -78.5 -409.5 -78.5c-198 0 -357.333 55 -478 165s-181 254.333 -181 433c0 122 18.333 237 55 345s90.667 205.333 162 292c85.333 105.333 187.166 184 305.499 236s254.833 78 409.5 78z" />
    <glyph glyph-name="Otilde" unicode="&#xd5;" horiz-adv-x="1741" 
d="M1062 1686l-49.0049 37.001c-16 12.667 -29.5 21.167 -40.5 25.5s-22.5 6.5 -34.5 6.5c-24 0 -44.667 -10.667 -62 -32s-29.666 -50.666 -36.999 -87.999h-137c17.333 85.333 47.833 151 91.5 197s97.167 69 160.5 69c24.667 0 47.834 -4 69.501 -12s44.167 -21 67.5 -39
l53 -41c10.667 -8.66699 22 -15.334 34 -20.001s23.333 -7 34 -7c26 0 47.833 10.167 65.5 30.5s29.834 49.833 36.501 88.5h138c-17.333 -85.333 -47.833 -151 -91.5 -197s-96.5 -69 -158.5 -69c-25.333 0 -48.666 3.66699 -69.999 11s-44.666 20.666 -69.999 39.999z
M1260 881.001c0 117.333 -26.502 206.668 -79.502 268.001s-129.833 92 -230.5 92c-133.333 0 -245.166 -59.833 -335.499 -179.5s-135.5 -269.5 -135.5 -449.5c0 -114.667 26.333 -203.667 79 -267s126 -95 220 -95c76.667 0 144.834 16.167 204.501 48.5
s110.5 80.166 152.5 143.499c40 60.667 70.833 129 92.5 205s32.5 154 32.5 234zM1005.99 1520c198.667 0 358.501 -55.167 479.501 -165.5s181.5 -254.5 181.5 -432.5c0 -121.333 -18.5 -236 -55.5 -344s-90.833 -205 -161.5 -291
c-86.667 -106 -189.167 -185.167 -307.5 -237.5s-254.833 -78.5 -409.5 -78.5c-198 0 -357.333 55 -478 165s-181 254.333 -181 433c0 122 18.333 237 55 345s90.667 205.333 162 292c85.333 105.333 187.166 184 305.499 236s254.833 78 409.5 78z" />
    <glyph glyph-name="Odieresis" unicode="&#xd6;" horiz-adv-x="1741" 
d="M790 1899h236l-47 -246h-236zM1185 1899h238l-49 -246h-236zM1260 881c0 117.333 -26.502 206.668 -79.502 268.001s-129.833 92 -230.5 92c-133.333 0 -245.166 -59.833 -335.499 -179.5s-135.5 -269.5 -135.5 -449.5c0 -114.667 26.333 -203.667 79 -267
s126 -95 220 -95c76.667 0 144.834 16.167 204.501 48.5s110.5 80.166 152.5 143.499c40 60.667 70.833 129 92.5 205s32.5 154 32.5 234zM1006 1520c198.667 0 358.501 -55.167 479.501 -165.5s181.5 -254.5 181.5 -432.5c0 -121.333 -18.5 -236 -55.5 -344
s-90.833 -205 -161.5 -291c-86.667 -106 -189.167 -185.167 -307.5 -237.5s-254.833 -78.5 -409.5 -78.5c-198 0 -357.333 55 -478 165s-181 254.333 -181 433c0 122 18.333 237 55 345s90.667 205.333 162 292c85.333 105.333 187.166 184 305.499 236s254.833 78 409.5 78
z" />
    <glyph glyph-name="multiply" unicode="&#xd7;" horiz-adv-x="1716" 
d="M1460 1075l-434 -434l434 -432l-168 -168l-434 432l-434 -432l-168 168l434 432l-434 434l168 168l434 -434l434 434z" />
    <glyph glyph-name="Oslash" unicode="&#xd8;" horiz-adv-x="1741" 
d="M1196 1128c-26.667 38 -60.3311 66.334 -100.998 85.001s-88.334 28 -143.001 28c-134.667 0 -246.834 -59.5 -336.501 -178.5s-134.5 -269.167 -134.5 -450.5c0 -14.667 1.33301 -39.334 4 -74.001v-6zM158.003 258.001c-28 49.333 -49.001 100.168 -63.001 152.501
s-21 105.166 -21 158.499c0 122 18.333 237 55 345s90.667 205.333 162 292c86 106 187.833 184.833 305.5 236.5s254.167 77.5 409.5 77.5c98.667 0 186.834 -13 264.501 -39s145.834 -65 204.501 -117l258 215l102 -123l-258 -213c30 -50.667 52.5 -103 67.5 -157
s22.5 -109.333 22.5 -166c0 -121.333 -18.5 -236 -55.5 -344s-90.833 -205 -161.5 -291c-86.667 -105.333 -189.334 -184 -308.001 -236s-255 -78 -409 -78c-98 0 -186.333 13.667 -265 41s-148.667 68.333 -210 123l-252 -213l-102 123zM539.002 371.003
c26 -39.333 59.333 -69.3301 100 -89.9971s87 -31 139 -31c76.667 0 144.834 16.167 204.501 48.5s110.5 80.166 152.5 143.499c40 61.333 71.167 130.166 93.5 206.499s33.5 153.166 33.5 230.499c0 16.667 -2.33301 42.667 -7 78
c-0.666992 5.33301 -1.33398 9.33301 -2.00098 12z" />
    <glyph glyph-name="Ugrave" unicode="&#xd9;" horiz-adv-x="1663" 
d="M981 1899l144 -264h-178l-230 264h264zM334 1493h385.001l-174 -894c-6.66699 -32 -11.5 -60.333 -14.5 -85s-4.5 -46.334 -4.5 -65.001c0 -65.333 17.5 -114.166 52.5 -146.499s87.167 -48.5 156.5 -48.5c93.333 0 165 26.167 215 78.5s87 140.833 111 265.5l174 895
h385l-174 -895c-43.333 -220 -125.5 -379.5 -246.5 -478.5s-294.167 -148.5 -519.5 -148.5c-176.667 0 -311 37.833 -403 113.5s-138 185.5 -138 329.5c0 24 1.66699 50.833 5 80.5s8.66602 64.167 15.999 103.5z" />
    <glyph glyph-name="Uacute" unicode="&#xda;" horiz-adv-x="1663" 
d="M1076 1899h280l-319 -264h-207zM334 1493h385.001l-174 -894c-6.66699 -32 -11.5 -60.333 -14.5 -85s-4.5 -46.334 -4.5 -65.001c0 -65.333 17.5 -114.166 52.5 -146.499s87.167 -48.5 156.5 -48.5c93.333 0 165 26.167 215 78.5s87 140.833 111 265.5l174 895h385
l-174 -895c-43.333 -220 -125.5 -379.5 -246.5 -478.5s-294.167 -148.5 -519.5 -148.5c-176.667 0 -311 37.833 -403 113.5s-138 185.5 -138 329.5c0 24 1.66699 50.833 5 80.5s8.66602 64.167 15.999 103.5z" />
    <glyph glyph-name="Ucircumflex" unicode="&#xdb;" horiz-adv-x="1663" 
d="M840 1899h348l152 -264h-170l-164 161l-231 -161h-179zM334 1493h385.001l-174 -894c-6.66699 -32 -11.5 -60.333 -14.5 -85s-4.5 -46.334 -4.5 -65.001c0 -65.333 17.5 -114.166 52.5 -146.499s87.167 -48.5 156.5 -48.5c93.333 0 165 26.167 215 78.5
s87 140.833 111 265.5l174 895h385l-174 -895c-43.333 -220 -125.5 -379.5 -246.5 -478.5s-294.167 -148.5 -519.5 -148.5c-176.667 0 -311 37.833 -403 113.5s-138 185.5 -138 329.5c0 24 1.66699 50.833 5 80.5s8.66602 64.167 15.999 103.5z" />
    <glyph glyph-name="Udieresis" unicode="&#xdc;" horiz-adv-x="1663" 
d="M711 1899h236l-47 -246h-236zM1106 1899h238l-49 -246h-236zM334 1493h385.001l-174 -894c-6.66699 -32 -11.5 -60.333 -14.5 -85s-4.5 -46.334 -4.5 -65.001c0 -65.333 17.5 -114.166 52.5 -146.499s87.167 -48.5 156.5 -48.5c93.333 0 165 26.167 215 78.5
s87 140.833 111 265.5l174 895h385l-174 -895c-43.333 -220 -125.5 -379.5 -246.5 -478.5s-294.167 -148.5 -519.5 -148.5c-176.667 0 -311 37.833 -403 113.5s-138 185.5 -138 329.5c0 24 1.66699 50.833 5 80.5s8.66602 64.167 15.999 103.5z" />
    <glyph glyph-name="Yacute" unicode="&#xdd;" horiz-adv-x="1483" 
d="M998 1899h280l-319 -264h-207zM129 1493h385l254 -553l444 553h445l-737 -870l-121 -623h-385l121 623z" />
    <glyph glyph-name="Thorn" unicode="&#xde;" horiz-adv-x="1520" 
d="M334 1493l384.999 0.000976562l-43 -223h246c156.667 0 279.334 -35.833 368.001 -107.5s133 -171.167 133 -298.5c0 -78 -14.5 -151.833 -43.5 -221.5s-71.167 -130.834 -126.5 -183.501c-59.333 -57.333 -130.5 -99 -213.5 -125s-185.833 -39 -308.5 -39h-246l-57 -295
h-385zM620.999 993.001l-80 -420h204c90.667 0 160.167 21.667 208.5 65s72.5 105.666 72.5 186.999c0 54.667 -16.833 96.334 -50.5 125.001s-83.167 43 -148.5 43h-206z" />
    <glyph glyph-name="germandbls" unicode="&#xdf;" horiz-adv-x="1473" 
d="M279 1114c28 149.333 93.498 260.332 196.498 332.999s245.5 109 427.5 109c150.667 0 265.167 -29.333 343.5 -88s117.5 -144.667 117.5 -258c0 -13.333 -0.833008 -28 -2.5 -44s-4.16699 -33 -7.5 -51l-15 -73c-100.667 -3.33301 -180.667 -20.5 -240 -51.5
s-89 -70.5 -89 -118.5c0 -36.667 34 -79 102 -127l15 -10l61 -43c56 -39.333 97 -82.166 123 -128.499s39 -99.833 39 -160.5c0 -128.667 -46.333 -232.834 -139 -312.501s-215 -119.5 -367 -119.5c-52 0 -103.167 4.16699 -153.5 12.5s-100.166 20.5 -149.499 36.5l49 244
c37.333 -18 74.5 -31.667 111.5 -41s72.833 -14 107.5 -14c54.667 0 98.667 12.667 132 38s50 58.333 50 99c0 26.667 -7.66699 50.834 -23 72.501s-48.666 50.834 -99.999 87.501l-61 43c-44.667 31.333 -77 63.833 -97 97.5s-30 71.5 -30 113.5c0 92 30.5 171 91.5 237
s149.167 115.333 264.5 148c0.666992 4 1.16699 8.66699 1.5 14s0.5 13 0.5 23c0 44.667 -13.667 78.667 -41 102s-67.333 35 -120 35c-68 0 -121.5 -17.833 -160.5 -53.5s-65.5 -90.834 -79.5 -165.501l-215 -1100h-359z" />
    <glyph glyph-name="agrave" unicode="&#xe0;" horiz-adv-x="1382" 
d="M674 504c-89.333 0 -156.832 -13.833 -202.499 -41.5s-68.5 -68.5 -68.5 -122.5c0 -40.667 13.5 -72.667 40.5 -96s64.167 -35 111.5 -35c73.333 0 134.666 22.167 183.999 66.5s82.333 106.833 99 187.5l8 41h-172zM1233 639l-125 -639.001h-358l30 166
c-58.667 -66.667 -120.667 -115.834 -186 -147.501s-136.333 -47.5 -213 -47.5c-106 0 -190.167 27.5 -252.5 82.5s-93.5 129.167 -93.5 222.5c0 142.667 55.167 251.834 165.5 327.501s269.5 113.5 477.5 113.5h211l4 28c2 9.33301 3.16699 16 3.5 20s0.5 7.66699 0.5 11
c0 44 -20.833 77.167 -62.5 99.5s-103.5 33.5 -185.5 33.5c-74 0 -145.667 -7.66699 -215 -23s-136.333 -38.333 -201 -69l54 273c74.667 18.667 151.167 32.834 229.5 42.501s159.5 14.5 243.5 14.5c166 0 289.333 -28.5 370 -85.5s121 -143.833 121 -260.5
c0 -22.667 -1.5 -47.5 -4.5 -74.5s-7.5 -56.167 -13.5 -87.5zM731.001 1638l209 -376h-197l-295 376h283z" />
    <glyph glyph-name="aacute" unicode="&#xe1;" horiz-adv-x="1382" 
d="M674 504c-89.333 0 -156.832 -13.833 -202.499 -41.5s-68.5 -68.5 -68.5 -122.5c0 -40.667 13.5 -72.667 40.5 -96s64.167 -35 111.5 -35c73.333 0 134.666 22.167 183.999 66.5s82.333 106.833 99 187.5l8 41h-172zM1233 639l-125 -639.001h-358l30 166
c-58.667 -66.667 -120.667 -115.834 -186 -147.501s-136.333 -47.5 -213 -47.5c-106 0 -190.167 27.5 -252.5 82.5s-93.5 129.167 -93.5 222.5c0 142.667 55.167 251.834 165.5 327.501s269.5 113.5 477.5 113.5h211l4 28c2 9.33301 3.16699 16 3.5 20s0.5 7.66699 0.5 11
c0 44 -20.833 77.167 -62.5 99.5s-103.5 33.5 -185.5 33.5c-74 0 -145.667 -7.66699 -215 -23s-136.333 -38.333 -201 -69l54 273c74.667 18.667 151.167 32.834 229.5 42.501s159.5 14.5 243.5 14.5c166 0 289.333 -28.5 370 -85.5s121 -143.833 121 -260.5
c0 -22.667 -1.5 -47.5 -4.5 -74.5s-7.5 -56.167 -13.5 -87.5zM991.001 1638h293l-438 -376h-201z" />
    <glyph glyph-name="acircumflex" unicode="&#xe2;" horiz-adv-x="1382" 
d="M725 1638h262l182 -376h-178l-156 225l-241 -225h-197zM674 504c-89.333 0 -156.832 -13.833 -202.499 -41.5s-68.5 -68.5 -68.5 -122.5c0 -40.667 13.5 -72.667 40.5 -96s64.167 -35 111.5 -35c73.333 0 134.666 22.167 183.999 66.5s82.333 106.833 99 187.5l8 41h-172
zM1233 639l-125 -639.001h-358l30 166c-58.667 -66.667 -120.667 -115.834 -186 -147.501s-136.333 -47.5 -213 -47.5c-106 0 -190.167 27.5 -252.5 82.5s-93.5 129.167 -93.5 222.5c0 142.667 55.167 251.834 165.5 327.501s269.5 113.5 477.5 113.5h211l4 28
c2 9.33301 3.16699 16 3.5 20s0.5 7.66699 0.5 11c0 44 -20.833 77.167 -62.5 99.5s-103.5 33.5 -185.5 33.5c-74 0 -145.667 -7.66699 -215 -23s-136.333 -38.333 -201 -69l54 273c74.667 18.667 151.167 32.834 229.5 42.501s159.5 14.5 243.5 14.5
c166 0 289.333 -28.5 370 -85.5s121 -143.833 121 -260.5c0 -22.667 -1.5 -47.5 -4.5 -74.5s-7.5 -56.167 -13.5 -87.5z" />
    <glyph glyph-name="atilde" unicode="&#xe3;" horiz-adv-x="1382" 
d="M815 1364l-49 37.001c-2 1.33301 -5.33301 3.66602 -10 6.99902c-25.333 20 -48 30 -68 30c-22.667 0 -42.667 -11.5 -60 -34.5s-29.333 -54.5 -36 -94.5h-140c18 91.333 48.833 161.5 92.5 210.5s96.834 73.5 159.501 73.5c24 0 47.167 -4.5 69.5 -13.5
s45.833 -23.5 70.5 -43.5l53 -43c12 -10 23.667 -17.667 35 -23s22 -8 32 -8c25.333 0 46.666 11.167 63.999 33.5s29.666 54.166 36.999 95.499h139c-17.333 -90.667 -47.666 -160.667 -90.999 -210s-96.333 -74 -159 -74c-22.667 0 -44 3.83301 -64 11.5
s-45 22.834 -75 45.501zM674 504.001c-89.333 0 -156.832 -13.833 -202.499 -41.5s-68.5 -68.5 -68.5 -122.5c0 -40.667 13.5 -72.667 40.5 -96s64.167 -35 111.5 -35c73.333 0 134.666 22.167 183.999 66.5s82.333 106.833 99 187.5l8 41h-172zM1233 639.001l-125 -639.001
h-358l30 166c-58.667 -66.667 -120.667 -115.834 -186 -147.501s-136.333 -47.5 -213 -47.5c-106 0 -190.167 27.5 -252.5 82.5s-93.5 129.167 -93.5 222.5c0 142.667 55.167 251.834 165.5 327.501s269.5 113.5 477.5 113.5h211l4 28c2 9.33301 3.16699 16 3.5 20
s0.5 7.66699 0.5 11c0 44 -20.833 77.167 -62.5 99.5s-103.5 33.5 -185.5 33.5c-74 0 -145.667 -7.66699 -215 -23s-136.333 -38.333 -201 -69l54 273c74.667 18.667 151.167 32.834 229.5 42.501s159.5 14.5 243.5 14.5c166 0 289.333 -28.5 370 -85.5
s121 -143.833 121 -260.5c0 -22.667 -1.5 -47.5 -4.5 -74.5s-7.5 -56.167 -13.5 -87.5z" />
    <glyph glyph-name="adieresis" unicode="&#xe4;" horiz-adv-x="1382" 
d="M674 504c-89.333 0 -156.832 -13.833 -202.499 -41.5s-68.5 -68.5 -68.5 -122.5c0 -40.667 13.5 -72.667 40.5 -96s64.167 -35 111.5 -35c73.333 0 134.666 22.167 183.999 66.5s82.333 106.833 99 187.5l8 41h-172zM1233 639l-125 -639.001h-358l30 166
c-58.667 -66.667 -120.667 -115.834 -186 -147.501s-136.333 -47.5 -213 -47.5c-106 0 -190.167 27.5 -252.5 82.5s-93.5 129.167 -93.5 222.5c0 142.667 55.167 251.834 165.5 327.501s269.5 113.5 477.5 113.5h211l4 28c2 9.33301 3.16699 16 3.5 20s0.5 7.66699 0.5 11
c0 44 -20.833 77.167 -62.5 99.5s-103.5 33.5 -185.5 33.5c-74 0 -145.667 -7.66699 -215 -23s-136.333 -38.333 -201 -69l54 273c74.667 18.667 151.167 32.834 229.5 42.501s159.5 14.5 243.5 14.5c166 0 289.333 -28.5 370 -85.5s121 -143.833 121 -260.5
c0 -22.667 -1.5 -47.5 -4.5 -74.5s-7.5 -56.167 -13.5 -87.5zM538.001 1585h238l-49 -246h-236zM936.001 1585h235l-49 -246h-235z" />
    <glyph glyph-name="aring" unicode="&#xe5;" horiz-adv-x="1382" 
d="M1126 1524c0 -80 -27.5 -147.5 -82.5 -202.5s-122.167 -82.5 -201.5 -82.5c-80 0 -147.5 27.5 -202.5 82.5s-82.5 122.5 -82.5 202.5s27.5 147.333 82.5 202s122.5 82 202.5 82c79.333 0 146.5 -27.333 201.5 -82s82.5 -122 82.5 -202zM991 1524
c0 43.333 -13.999 78.999 -41.999 106.999s-63.667 42 -107 42c-44 0 -80 -14 -108 -42s-42 -63.667 -42 -107s14.167 -79.166 42.5 -107.499s64.166 -42.5 107.499 -42.5s79 14 107 42s42 64 42 108zM674.001 503.999c-89.333 0 -156.832 -13.833 -202.499 -41.5
s-68.5 -68.5 -68.5 -122.5c0 -40.667 13.5 -72.667 40.5 -96s64.167 -35 111.5 -35c73.333 0 134.666 22.167 183.999 66.5s82.333 106.833 99 187.5l8 41h-172zM1233 638.999l-125 -639.001h-358l30 166c-58.667 -66.667 -120.667 -115.834 -186 -147.501
s-136.333 -47.5 -213 -47.5c-106 0 -190.167 27.5 -252.5 82.5s-93.5 129.167 -93.5 222.5c0 142.667 55.167 251.834 165.5 327.501s269.5 113.5 477.5 113.5h211l4 28c2 9.33301 3.16699 16 3.5 20s0.5 7.66699 0.5 11c0 44 -20.833 77.167 -62.5 99.5
s-103.5 33.5 -185.5 33.5c-74 0 -145.667 -7.66699 -215 -23s-136.333 -38.333 -201 -69l54 273c74.667 18.667 151.167 32.834 229.5 42.501s159.5 14.5 243.5 14.5c166 0 289.333 -28.5 370 -85.5s121 -143.833 121 -260.5c0 -22.667 -1.5 -47.5 -4.5 -74.5
s-7.5 -56.167 -13.5 -87.5z" />
    <glyph glyph-name="ae" unicode="&#xe6;" horiz-adv-x="2146" 
d="M674 504c-89.333 0 -156.832 -13.833 -202.499 -41.5s-68.5 -68.5 -68.5 -122.5c0 -40.667 13.5 -72.667 40.5 -96s64.167 -35 111.5 -35c73.333 0 134.666 22.167 183.999 66.5s82.333 106.833 99 187.5l8 41h-172zM291.001 1090
c78 18.667 154.168 32.835 228.501 42.502s146.166 14.5 215.499 14.5c99.333 0 181.666 -12.167 246.999 -36.5s117 -62.166 155 -113.499c63.333 51.333 130.5 89.166 201.5 113.499s149.833 36.5 236.5 36.5c148.667 0 267.334 -40.667 356.001 -122s133 -189 133 -323
c0 -30 -1.66699 -60.333 -5 -91s-8.33301 -61.667 -15 -93l-14 -57h-836c0 -4 -0.333008 -9.83301 -1 -17.5s-1 -13.5 -1 -17.5c0 -72.667 21.833 -127 65.5 -163s109.167 -54 196.5 -54c74.667 0 153.5 11.167 236.5 33.5s170.833 56.166 263.5 101.499l-53 -278
c-87.333 -32 -174.5 -55.833 -261.5 -71.5s-175.5 -23.5 -265.5 -23.5c-115.333 0 -212.333 17.167 -291 51.5s-140 86.166 -184 155.499c-78 -70 -158.167 -122 -240.5 -156s-169.5 -51 -261.5 -51c-113.333 0 -202 27 -266 81s-96 128 -96 222
c0 144 55.167 253.833 165.5 329.5s270.833 113.5 481.5 113.5h205l6 29c2 8.66699 3.16699 15 3.5 19s0.5 7.66699 0.5 11c0 44 -20.667 77.167 -62 99.5s-102 33.5 -182 33.5c-76 0 -148.5 -7.66699 -217.5 -23s-134.833 -38.333 -197.5 -69zM1706 682.001
c2 8.66699 3.50098 17.501 4.50098 26.501s1.5 17.833 1.5 26.5c0 53.333 -16.167 95.666 -48.5 126.999s-75.5 47 -129.5 47c-70 0 -129.833 -19.333 -179.5 -58s-86.834 -95 -111.501 -169h463z" />
    <glyph glyph-name="ccedilla" unicode="&#xe7;" horiz-adv-x="1214" 
d="M1190 1085l-56.999 -292.001c-48 32 -95.333 56.333 -142 73s-92.334 25 -137.001 25c-116.667 0 -212 -39.167 -286 -117.5s-111 -178.5 -111 -300.5c0 -78 23 -138.5 69 -181.5s111 -64.5 195 -64.5c56 0 111 8.33301 165 25s105.333 41.334 154 74.001l-55 -293
c-59.333 -20.667 -119 -36.167 -179 -46.5s-120.333 -15.5 -181 -15.5c-176 0 -311.5 39.5 -406.5 118.5s-142.5 191.167 -142.5 336.5c0 91.333 17.5 180 52.5 266s85.167 163.333 150.5 232c72.667 75.333 156 131.333 250 168s202.333 55 325 55
c56.667 0 113 -5.16699 169 -15.5s111.667 -25.833 167 -46.5zM690.001 -0.000976562c24.667 -34.667 42.666 -66.668 53.999 -96.001s17 -58 17 -86c0 -69.333 -25.167 -123.166 -75.5 -161.499s-121.166 -57.5 -212.499 -57.5c-32.667 0 -65.167 2.16699 -97.5 6.5
s-65.5 10.833 -99.5 19.5l29 156c26.667 -11.333 53.5 -20 80.5 -26s53.167 -9 78.5 -9c44 0 78.667 9.5 104 28.5s38 44.167 38 75.5c0 17.333 -4.5 37.5 -13.5 60.5s-23.833 52.833 -44.5 89.5h142z" />
    <glyph glyph-name="egrave" unicode="&#xe8;" horiz-adv-x="1389" 
d="M1288 518l-12.0039 -56.998h-838c0 -4 -0.333008 -9.83301 -1 -17.5s-1 -13.5 -1 -17.5c0 -72.667 21.833 -127 65.5 -163s109.167 -54 196.5 -54c75.333 0 154.833 11.333 238.5 34s171.5 56.334 263.5 101.001l-55 -278c-87.333 -32 -174.166 -55.833 -260.499 -71.5
s-174.166 -23.5 -263.499 -23.5c-174.667 0 -309.5 40.333 -404.5 121s-142.5 194.667 -142.5 342c0 85.333 15.167 168.166 45.5 248.499s74.5 153.833 132.5 220.5c68.667 80 150.834 140.667 246.501 182s201.834 62 318.501 62c151.333 0 271.5 -40.333 360.5 -121
s133.5 -189.334 133.5 -326.001c0 -26.667 -1.83301 -54.834 -5.5 -84.501s-9.5 -62.167 -17.5 -97.5zM949.996 682.002c2 8.66699 3.5 17.501 4.5 26.501s1.5 17.833 1.5 26.5c0 53.333 -16 95.666 -48 126.999s-75.333 47 -130 47c-70 0 -129.5 -19.167 -178.5 -57.5
s-86.5 -94.833 -112.5 -169.5h463zM777.996 1638l209 -376h-197l-295 376h283z" />
    <glyph glyph-name="eacute" unicode="&#xe9;" horiz-adv-x="1389" 
d="M1288 518l-12.0039 -56.998h-838c0 -4 -0.333008 -9.83301 -1 -17.5s-1 -13.5 -1 -17.5c0 -72.667 21.833 -127 65.5 -163s109.167 -54 196.5 -54c75.333 0 154.833 11.333 238.5 34s171.5 56.334 263.5 101.001l-55 -278c-87.333 -32 -174.166 -55.833 -260.499 -71.5
s-174.166 -23.5 -263.499 -23.5c-174.667 0 -309.5 40.333 -404.5 121s-142.5 194.667 -142.5 342c0 85.333 15.167 168.166 45.5 248.499s74.5 153.833 132.5 220.5c68.667 80 150.834 140.667 246.501 182s201.834 62 318.501 62c151.333 0 271.5 -40.333 360.5 -121
s133.5 -189.334 133.5 -326.001c0 -26.667 -1.83301 -54.834 -5.5 -84.501s-9.5 -62.167 -17.5 -97.5zM949.996 682.002c2 8.66699 3.5 17.501 4.5 26.501s1.5 17.833 1.5 26.5c0 53.333 -16 95.666 -48 126.999s-75.333 47 -130 47c-70 0 -129.5 -19.167 -178.5 -57.5
s-86.5 -94.833 -112.5 -169.5h463zM1038 1638h293l-438 -376h-201z" />
    <glyph glyph-name="ecircumflex" unicode="&#xea;" horiz-adv-x="1389" 
d="M772 1638h262l182 -376h-178l-156 225l-241 -225h-197zM1288 518l-12.0039 -56.998h-838c0 -4 -0.333008 -9.83301 -1 -17.5s-1 -13.5 -1 -17.5c0 -72.667 21.833 -127 65.5 -163s109.167 -54 196.5 -54c75.333 0 154.833 11.333 238.5 34s171.5 56.334 263.5 101.001
l-55 -278c-87.333 -32 -174.166 -55.833 -260.499 -71.5s-174.166 -23.5 -263.499 -23.5c-174.667 0 -309.5 40.333 -404.5 121s-142.5 194.667 -142.5 342c0 85.333 15.167 168.166 45.5 248.499s74.5 153.833 132.5 220.5c68.667 80 150.834 140.667 246.501 182
s201.834 62 318.501 62c151.333 0 271.5 -40.333 360.5 -121s133.5 -189.334 133.5 -326.001c0 -26.667 -1.83301 -54.834 -5.5 -84.501s-9.5 -62.167 -17.5 -97.5zM949.996 682.002c2 8.66699 3.5 17.501 4.5 26.501s1.5 17.833 1.5 26.5c0 53.333 -16 95.666 -48 126.999
s-75.333 47 -130 47c-70 0 -129.5 -19.167 -178.5 -57.5s-86.5 -94.833 -112.5 -169.5h463z" />
    <glyph glyph-name="edieresis" unicode="&#xeb;" horiz-adv-x="1389" 
d="M1288 518l-12.0039 -56.998h-838c0 -4 -0.333008 -9.83301 -1 -17.5s-1 -13.5 -1 -17.5c0 -72.667 21.833 -127 65.5 -163s109.167 -54 196.5 -54c75.333 0 154.833 11.333 238.5 34s171.5 56.334 263.5 101.001l-55 -278c-87.333 -32 -174.166 -55.833 -260.499 -71.5
s-174.166 -23.5 -263.499 -23.5c-174.667 0 -309.5 40.333 -404.5 121s-142.5 194.667 -142.5 342c0 85.333 15.167 168.166 45.5 248.499s74.5 153.833 132.5 220.5c68.667 80 150.834 140.667 246.501 182s201.834 62 318.501 62c151.333 0 271.5 -40.333 360.5 -121
s133.5 -189.334 133.5 -326.001c0 -26.667 -1.83301 -54.834 -5.5 -84.501s-9.5 -62.167 -17.5 -97.5zM949.996 682.002c2 8.66699 3.5 17.501 4.5 26.501s1.5 17.833 1.5 26.5c0 53.333 -16 95.666 -48 126.999s-75.333 47 -130 47c-70 0 -129.5 -19.167 -178.5 -57.5
s-86.5 -94.833 -112.5 -169.5h463zM584.996 1585h238l-49 -246h-236zM982.996 1585h235l-49 -246h-235z" />
    <glyph glyph-name="igrave" unicode="&#xec;" horiz-adv-x="702" 
d="M281 1120h360l-219 -1120h-359zM410 1638l209 -376h-197l-295 376h283z" />
    <glyph glyph-name="iacute" unicode="&#xed;" horiz-adv-x="702" 
d="M281 1120h360l-219 -1120h-359zM670 1638h293l-438 -376h-201z" />
    <glyph glyph-name="icircumflex" unicode="&#xee;" horiz-adv-x="702" 
d="M404 1638h262l182 -376h-178l-156 225l-241 -225h-197zM281 1120h360l-219 -1120h-359z" />
    <glyph glyph-name="idieresis" unicode="&#xef;" horiz-adv-x="702" 
d="M281 1120h360l-219 -1120h-359zM217 1585h238l-49 -246h-236zM615 1585h235l-49 -246h-235z" />
    <glyph glyph-name="eth" unicode="&#xf0;" horiz-adv-x="1407" 
d="M958 743c-34.667 18 -69.001 31.499 -103.001 40.499s-68.333 13.5 -103 13.5c-93.333 0 -167.166 -31.333 -221.499 -94s-81.5 -146.667 -81.5 -252c0 -72.667 16.667 -128.167 50 -166.5s81.333 -57.5 144 -57.5c93.333 0 170 42.167 230 126.5s90 192.5 90 324.5
c0 8.66699 -1.33301 26.334 -4 53.001c0 4.66699 -0.333008 8.66699 -1 12zM1204 1100c42.667 -61.333 74.834 -127.332 96.501 -197.999s32.5 -144.667 32.5 -222c0 -86.667 -15.167 -170.5 -45.5 -251.5s-74.5 -154.833 -132.5 -221.5
c-67.333 -77.333 -147.5 -136 -240.5 -176s-196.5 -60 -310.5 -60c-160.667 0 -289.167 41.667 -385.5 125s-144.5 193.333 -144.5 330c0 186.667 60.667 338.167 182 454.5s279.666 174.5 474.999 174.5c32.667 0 63.5 -2.33301 92.5 -7s55.5 -11.334 79.5 -20.001
l-151 215l-385 -108l-35 129l340 94l-137 198h352l82 -116l385 106l35 -127l-340 -94z" />
    <glyph glyph-name="ntilde" unicode="&#xf1;" horiz-adv-x="1458" 
d="M852 1364l-49 37.001c-2 1.33301 -5.33301 3.66602 -10 6.99902c-25.333 20 -48 30 -68 30c-22.667 0 -42.667 -11.5 -60 -34.5s-29.333 -54.5 -36 -94.5h-140c18 91.333 48.833 161.5 92.5 210.5s96.834 73.5 159.501 73.5c24 0 47.167 -4.5 69.5 -13.5
s45.833 -23.5 70.5 -43.5l53 -43c12 -10 23.667 -17.667 35 -23s22 -8 32 -8c25.333 0 46.666 11.167 63.999 33.5s29.666 54.166 36.999 95.499h139c-17.333 -90.667 -47.666 -160.667 -90.999 -210s-96.333 -74 -159 -74c-22.667 0 -44 3.83301 -64 11.5
s-45 22.834 -75 45.501zM1321 682.001l-133.001 -681.999h-359l113 584c8 38 14.167 70.167 18.5 96.5s6.5 47.166 6.5 62.499c0 42.667 -11.833 75.667 -35.5 99s-57.167 35 -100.5 35c-74 0 -137.5 -28.833 -190.5 -86.5s-89.833 -137.5 -110.5 -239.5l-108 -551h-359
l218 1120h360l-33 -164c66 64.667 132.333 112.667 199 144s136.334 47 209.001 47c103.333 0 183 -27 239 -81s84 -130 84 -228c0 -21.333 -1.5 -45 -4.5 -71s-7.5 -54.333 -13.5 -85z" />
    <glyph glyph-name="ograve" unicode="&#xf2;" horiz-adv-x="1407" 
d="M768 891c-92.667 0 -169 -42 -229 -126s-90 -191 -90 -321c0 -70.667 16.167 -124.5 48.5 -161.5s79.5 -55.5 141.5 -55.5c92.667 0 169 42.167 229 126.5s90 191.833 90 322.5c0 70 -16.167 123.333 -48.5 160s-79.5 55 -141.5 55zM797 1147
c166.667 0 297.667 -42.332 393 -126.999s143 -200 143 -346c0 -84.667 -15 -166.834 -45 -246.501s-73.667 -152.5 -131 -218.5c-68 -78.667 -148.333 -138 -241 -178s-196 -60 -310 -60c-164.667 0 -294.5 42.333 -389.5 127s-142.5 200 -142.5 346
c0 84 15.333 166.167 46 246.5s74.667 153.833 132 220.5c66.667 77.333 146.167 136 238.5 176s194.5 60 306.5 60zM744 1638l209 -376h-197l-295 376h283z" />
    <glyph glyph-name="oacute" unicode="&#xf3;" horiz-adv-x="1407" 
d="M768 891c-92.667 0 -169 -42 -229 -126s-90 -191 -90 -321c0 -70.667 16.167 -124.5 48.5 -161.5s79.5 -55.5 141.5 -55.5c92.667 0 169 42.167 229 126.5s90 191.833 90 322.5c0 70 -16.167 123.333 -48.5 160s-79.5 55 -141.5 55zM797 1147
c166.667 0 297.667 -42.332 393 -126.999s143 -200 143 -346c0 -84.667 -15 -166.834 -45 -246.501s-73.667 -152.5 -131 -218.5c-68 -78.667 -148.333 -138 -241 -178s-196 -60 -310 -60c-164.667 0 -294.5 42.333 -389.5 127s-142.5 200 -142.5 346
c0 84 15.333 166.167 46 246.5s74.667 153.833 132 220.5c66.667 77.333 146.167 136 238.5 176s194.5 60 306.5 60zM1004 1638h293l-438 -376h-201z" />
    <glyph glyph-name="ocircumflex" unicode="&#xf4;" horiz-adv-x="1407" 
d="M738 1638h262l182 -376h-178l-156 225l-241 -225h-197zM768 891c-92.667 0 -169 -42 -229 -126s-90 -191 -90 -321c0 -70.667 16.167 -124.5 48.5 -161.5s79.5 -55.5 141.5 -55.5c92.667 0 169 42.167 229 126.5s90 191.833 90 322.5c0 70 -16.167 123.333 -48.5 160
s-79.5 55 -141.5 55zM797 1147c166.667 0 297.667 -42.332 393 -126.999s143 -200 143 -346c0 -84.667 -15 -166.834 -45 -246.501s-73.667 -152.5 -131 -218.5c-68 -78.667 -148.333 -138 -241 -178s-196 -60 -310 -60c-164.667 0 -294.5 42.333 -389.5 127
s-142.5 200 -142.5 346c0 84 15.333 166.167 46 246.5s74.667 153.833 132 220.5c66.667 77.333 146.167 136 238.5 176s194.5 60 306.5 60z" />
    <glyph glyph-name="otilde" unicode="&#xf5;" horiz-adv-x="1407" 
d="M828 1364l-49 37.001c-2 1.33301 -5.33301 3.66602 -10 6.99902c-25.333 20 -48 30 -68 30c-22.667 0 -42.667 -11.5 -60 -34.5s-29.333 -54.5 -36 -94.5h-140c18 91.333 48.833 161.5 92.5 210.5s96.834 73.5 159.501 73.5c24 0 47.167 -4.5 69.5 -13.5
s45.833 -23.5 70.5 -43.5l53 -43c12 -10 23.667 -17.667 35 -23s22 -8 32 -8c25.333 0 46.666 11.167 63.999 33.5s29.666 54.166 36.999 95.499h139c-17.333 -90.667 -47.666 -160.667 -90.999 -210s-96.333 -74 -159 -74c-22.667 0 -44 3.83301 -64 11.5
s-45 22.834 -75 45.501zM768 891.001c-92.667 0 -169 -42 -229 -126s-90 -191 -90 -321c0 -70.667 16.167 -124.5 48.5 -161.5s79.5 -55.5 141.5 -55.5c92.667 0 169 42.167 229 126.5s90 191.833 90 322.5c0 70 -16.167 123.333 -48.5 160s-79.5 55 -141.5 55zM797 1147
c166.667 0 297.667 -42.332 393 -126.999s143 -200 143 -346c0 -84.667 -15 -166.834 -45 -246.501s-73.667 -152.5 -131 -218.5c-68 -78.667 -148.333 -138 -241 -178s-196 -60 -310 -60c-164.667 0 -294.5 42.333 -389.5 127s-142.5 200 -142.5 346
c0 84 15.333 166.167 46 246.5s74.667 153.833 132 220.5c66.667 77.333 146.167 136 238.5 176s194.5 60 306.5 60z" />
    <glyph glyph-name="odieresis" unicode="&#xf6;" horiz-adv-x="1407" 
d="M768 891c-92.667 0 -169 -42 -229 -126s-90 -191 -90 -321c0 -70.667 16.167 -124.5 48.5 -161.5s79.5 -55.5 141.5 -55.5c92.667 0 169 42.167 229 126.5s90 191.833 90 322.5c0 70 -16.167 123.333 -48.5 160s-79.5 55 -141.5 55zM797 1147
c166.667 0 297.667 -42.332 393 -126.999s143 -200 143 -346c0 -84.667 -15 -166.834 -45 -246.501s-73.667 -152.5 -131 -218.5c-68 -78.667 -148.333 -138 -241 -178s-196 -60 -310 -60c-164.667 0 -294.5 42.333 -389.5 127s-142.5 200 -142.5 346
c0 84 15.333 166.167 46 246.5s74.667 153.833 132 220.5c66.667 77.333 146.167 136 238.5 176s194.5 60 306.5 60zM551 1585h238l-49 -246h-236zM949 1585h235l-49 -246h-235z" />
    <glyph glyph-name="divide" unicode="&#xf7;" horiz-adv-x="1716" 
d="M705 395h307v-309h-307v309zM705 1198h307v-309h-307v309zM217 760h1282v-236h-1282v236z" />
    <glyph glyph-name="oslash" unicode="&#xf8;" horiz-adv-x="1407" 
d="M905 842c-15.333 16 -34.501 28.168 -57.501 36.501s-49.5 12.5 -79.5 12.5c-93.333 0 -168.166 -39.833 -224.499 -119.5s-87.833 -190.834 -94.5 -333.501zM151.999 174.001c-26 39.333 -45.498 81.833 -58.498 127.5s-19.5 93.834 -19.5 144.501
c0 84 15.167 165.833 45.5 245.5s74.5 152.834 132.5 219.501c66.667 78 146.167 136.833 238.5 176.5s195.833 59.5 310.5 59.5c69.333 0 132.666 -7.66699 189.999 -23s108.666 -38.333 153.999 -69l192 168l97 -111l-183 -162c27.333 -39.333 47.833 -82 61.5 -128
s20.5 -95.333 20.5 -148c0 -84.667 -15 -166.834 -45 -246.501s-73.667 -152.5 -131 -218.5c-67.333 -77.333 -147.833 -136.333 -241.5 -177s-196.834 -61 -309.501 -61c-72.667 0 -138.167 8.16699 -196.5 24.5s-110.166 41.166 -155.499 74.499l-193 -172l-96 112z
M498.001 283.001c16.667 -18.667 36.5 -32.668 59.5 -42.001s50.167 -14 81.5 -14c94 0 169.5 41.333 226.5 124s87.833 196.334 92.5 341.001z" />
    <glyph glyph-name="ugrave" unicode="&#xf9;" horiz-adv-x="1458" 
d="M139 436l131 684h359l-113 -583c-8 -38 -14 -70.333 -18 -97s-6 -47.667 -6 -63c0 -42 11.667 -74.667 35 -98s56.666 -35 99.999 -35c74 0 137.667 28.667 191 86s90 137 110 239l108 551h359l-217 -1120h-361l33 164c-61.333 -64.667 -125.666 -113 -192.999 -145
s-138.333 -48 -213 -48c-102 0 -181 27 -237 81s-84 130.333 -84 229c0 23.333 1.33301 48 4 74s6.66699 53 12 81zM768 1638l209 -376h-197l-295 376h283z" />
    <glyph glyph-name="uacute" unicode="&#xfa;" horiz-adv-x="1458" 
d="M139 436l131 684h359l-113 -583c-8 -38 -14 -70.333 -18 -97s-6 -47.667 -6 -63c0 -42 11.667 -74.667 35 -98s56.666 -35 99.999 -35c74 0 137.667 28.667 191 86s90 137 110 239l108 551h359l-217 -1120h-361l33 164c-61.333 -64.667 -125.666 -113 -192.999 -145
s-138.333 -48 -213 -48c-102 0 -181 27 -237 81s-84 130.333 -84 229c0 23.333 1.33301 48 4 74s6.66699 53 12 81zM1028 1638h293l-438 -376h-201z" />
    <glyph glyph-name="ucircumflex" unicode="&#xfb;" horiz-adv-x="1458" 
d="M762 1638h262l182 -376h-178l-156 225l-241 -225h-197zM139 436l131 684h359l-113 -583c-8 -38 -14 -70.333 -18 -97s-6 -47.667 -6 -63c0 -42 11.667 -74.667 35 -98s56.666 -35 99.999 -35c74 0 137.667 28.667 191 86s90 137 110 239l108 551h359l-217 -1120h-361
l33 164c-61.333 -64.667 -125.666 -113 -192.999 -145s-138.333 -48 -213 -48c-102 0 -181 27 -237 81s-84 130.333 -84 229c0 23.333 1.33301 48 4 74s6.66699 53 12 81z" />
    <glyph glyph-name="udieresis" unicode="&#xfc;" horiz-adv-x="1458" 
d="M139 436l131 684h359l-113 -583c-8 -38 -14 -70.333 -18 -97s-6 -47.667 -6 -63c0 -42 11.667 -74.667 35 -98s56.666 -35 99.999 -35c74 0 137.667 28.667 191 86s90 137 110 239l108 551h359l-217 -1120h-361l33 164c-61.333 -64.667 -125.666 -113 -192.999 -145
s-138.333 -48 -213 -48c-102 0 -181 27 -237 81s-84 130.333 -84 229c0 23.333 1.33301 48 4 74s6.66699 53 12 81zM575 1585h238l-49 -246h-236zM973 1585h235l-49 -246h-235z" />
    <glyph glyph-name="yacute" unicode="&#xfd;" horiz-adv-x="1335" 
d="M135 1120h338l154 -776l397 776h383l-709 -1226c-79.333 -138 -152.666 -228.5 -219.999 -271.5s-154.333 -64.5 -261 -64.5h-217l37 235h113c58.667 0 104.167 9.83301 136.5 29.5s61.166 54.167 86.499 103.5l33 60zM967 1638h293l-438 -376h-201z" />
    <glyph glyph-name="thorn" unicode="&#xfe;" horiz-adv-x="1466" 
d="M455 162l-114.999 -588h-360l385 1982h360l-117 -600c54.667 65.333 112 113.5 172 144.5s125.667 46.5 197 46.5c126 0 225.667 -40 299 -120s110 -189 110 -327c0 -86 -12.833 -169.667 -38.5 -251s-62.5 -155.333 -110.5 -222
c-60.667 -84 -129.167 -147.667 -205.5 -191s-158.166 -65 -245.499 -65c-76.667 0 -141.834 15.5 -195.501 46.5s-98.834 79.167 -135.501 144.5zM831.001 887c-92 0 -167.167 -42.501 -225.5 -127.501s-87.5 -195.5 -87.5 -331.5c0 -61.333 16.5 -109.5 49.5 -144.5
s78.833 -52.5 137.5 -52.5c90 0 164.333 41.833 223 125.5s88 190.834 88 321.501c0 68 -15.833 119.833 -47.5 155.5s-77.5 53.5 -137.5 53.5z" />
    <glyph glyph-name="ydieresis" unicode="&#xff;" horiz-adv-x="1335" 
d="M135 1120h338l154 -776l397 776h383l-709 -1226c-79.333 -138 -152.666 -228.5 -219.999 -271.5s-154.333 -64.5 -261 -64.5h-217l37 235h113c58.667 0 104.167 9.83301 136.5 29.5s61.166 54.167 86.499 103.5l33 60zM514 1585h238l-49 -246h-236zM912 1585h235
l-49 -246h-235z" />
    </font>
</defs>
</svg>
